# Blender 4.1.1
# www.blender.org
mtllib Full_Battalion_v3.mtl
o 01_White_Legs
v 1.500005 0.000000 -0.030000
v 1.500005 0.000000 0.030000
v 0.060005 0.000000 -0.030000
v 0.060005 0.000000 0.030000
v -0.060004 0.000000 -0.030000
v -0.060004 0.000000 0.030000
v -1.500005 0.000000 -0.030000
v -1.500005 0.000000 0.030000
v 1.500005 0.000000 0.060000
v 1.500005 0.000000 0.120000
v 0.060005 0.000000 0.060000
v 0.060005 0.000000 0.120000
v -0.060004 0.000000 0.060000
v -0.060004 0.000000 0.120000
v -1.500005 0.000000 0.060000
v -1.500005 0.000000 0.120000
v 1.500005 0.000000 0.150000
v 1.500005 0.000000 0.210000
v 0.060005 0.000000 0.150000
v 0.060005 0.000000 0.210000
v -0.060004 0.000000 0.150000
v -0.060004 0.000000 0.210000
v -1.500005 0.000000 0.150000
v -1.500005 0.000000 0.210000
v 1.500005 0.050000 -0.030000
v 0.060005 0.050000 0.030000
v 1.500005 0.050000 0.030000
v 0.060005 0.050000 -0.030000
v -0.060004 0.050000 -0.030000
v -1.500005 0.050000 0.030000
v -0.060004 0.050000 0.030000
v -1.500005 0.050000 -0.030000
v 1.500005 0.050000 0.060000
v 0.060005 0.050000 0.120000
v 1.500005 0.050000 0.120000
v 0.060005 0.050000 0.060000
v -0.060004 0.050000 0.060000
v -1.500005 0.050000 0.120000
v -0.060004 0.050000 0.120000
v -1.500005 0.050000 0.060000
v 1.500005 0.050000 0.150000
v 0.060005 0.050000 0.210000
v 1.500005 0.050000 0.210000
v 0.060005 0.050000 0.150000
v -0.060004 0.050000 0.150000
v -1.500005 0.050000 0.210000
v -0.060004 0.050000 0.210000
v -1.500005 0.050000 0.150000
v 0.060005 0.000000 -0.030000
v 0.060005 0.000000 -0.030000
v 0.060005 0.000000 0.030000
v 0.060005 0.000000 0.030000
v 1.500005 0.000000 -0.030000
v 1.500005 0.000000 -0.030000
v 1.500005 0.050000 -0.030000
v 1.500005 0.050000 0.030000
v 1.500005 0.000000 0.030000
v 1.500005 0.000000 0.030000
v 0.060005 0.050000 -0.030000
v -1.500005 0.000000 -0.030000
v -1.500005 0.000000 -0.030000
v -1.500005 0.000000 0.030000
v -1.500005 0.000000 0.030000
v -0.060004 0.000000 -0.030000
v -0.060004 0.000000 -0.030000
v -0.060004 0.050000 -0.030000
v -0.060004 0.050000 0.030000
v -0.060004 0.000000 0.030000
v -0.060004 0.000000 0.030000
v -1.500005 0.050000 -0.030000
v 0.060005 0.000000 0.060000
v 0.060005 0.000000 0.060000
v 0.060005 0.000000 0.120000
v 0.060005 0.000000 0.120000
v 1.500005 0.000000 0.060000
v 1.500005 0.000000 0.060000
v 1.500005 0.050000 0.060000
v 1.500005 0.050000 0.120000
v 1.500005 0.000000 0.120000
v 1.500005 0.000000 0.120000
v 0.060005 0.050000 0.060000
v -1.500005 0.000000 0.060000
v -1.500005 0.000000 0.060000
v -1.500005 0.000000 0.120000
v -1.500005 0.000000 0.120000
v -0.060004 0.000000 0.060000
v -0.060004 0.000000 0.060000
v -0.060004 0.050000 0.060000
v -0.060004 0.050000 0.120000
v -0.060004 0.000000 0.120000
v -0.060004 0.000000 0.120000
v -1.500005 0.050000 0.060000
v 0.060005 0.000000 0.150000
v 0.060005 0.000000 0.150000
v 0.060005 0.000000 0.210000
v 0.060005 0.000000 0.210000
v 1.500005 0.000000 0.150000
v 1.500005 0.000000 0.150000
v 1.500005 0.050000 0.150000
v 1.500005 0.050000 0.210000
v 1.500005 0.000000 0.210000
v 1.500005 0.000000 0.210000
v 0.060005 0.050000 0.150000
v -1.500005 0.000000 0.150000
v -1.500005 0.000000 0.150000
v -1.500005 0.000000 0.210000
v -1.500005 0.000000 0.210000
v -0.060004 0.000000 0.150000
v -0.060004 0.000000 0.150000
v -0.060004 0.050000 0.150000
v -0.060004 0.050000 0.210000
v -0.060004 0.000000 0.210000
v -0.060004 0.000000 0.210000
v -1.500005 0.050000 0.150000
v 0.060005 0.050000 0.030000
v -1.500005 0.050000 0.030000
v 0.060005 0.050000 0.120000
v -1.500005 0.050000 0.120000
v 0.060005 0.050000 0.210000
v -1.500005 0.050000 0.210000
vn -0.0000 -1.0000 -0.0000
vn -0.0000 -0.0000 -1.0000
vn 1.0000 -0.0000 -0.0000
vn -1.0000 -0.0000 -0.0000
vn -0.0000 -0.0000 1.0000
vt 0.982124 0.040515
vt 0.310293 0.040515
vt 0.988733 0.040515
vt 0.289784 0.040515
vt 0.289784 0.500000
vt 0.988733 0.500000
vt 0.310293 0.500000
vt 0.982124 0.500000
s 1
usemtl Material
f 53/1/1 51/2/1 49/2/1
f 64/3/1 62/4/1 60/4/1
f 75/1/1 73/2/1 71/2/1
f 86/3/1 84/4/1 82/4/1
f 97/1/1 95/2/1 93/2/1
f 108/3/1 106/4/1 104/4/1
f 114/5/2 21/3/2 105/4/2
f 110/6/3 113/3/3 109/3/3
f 120/5/4 23/4/4 24/4/4
f 111/6/5 107/4/5 112/3/5
f 103/7/2 17/1/2 94/2/2
f 99/8/3 102/1/3 98/1/3
f 119/7/4 19/2/4 20/2/4
f 100/8/5 96/2/5 101/1/5
f 92/5/2 13/3/2 83/4/2
f 88/6/3 91/3/3 87/3/3
f 118/5/4 15/4/4 16/4/4
f 89/6/5 85/4/5 90/3/5
f 81/7/2 9/1/2 72/2/2
f 77/8/3 80/1/3 76/1/3
f 117/7/4 11/2/4 12/2/4
f 78/8/5 74/2/5 79/1/5
f 70/5/2 5/3/2 61/4/2
f 66/6/3 69/3/3 65/3/3
f 116/5/4 7/4/4 8/4/4
f 67/6/5 63/4/5 68/3/5
f 59/7/2 1/1/2 50/2/2
f 55/8/3 58/1/3 54/1/3
f 115/7/4 3/2/4 4/2/4
f 56/8/5 52/2/5 57/1/5
f 53/1/1 2/1/1 51/2/1
f 64/3/1 6/3/1 62/4/1
f 75/1/1 10/1/1 73/2/1
f 86/3/1 14/3/1 84/4/1
f 97/1/1 18/1/1 95/2/1
f 108/3/1 22/3/1 106/4/1
f 114/5/2 45/6/2 21/3/2
f 110/6/3 47/6/3 113/3/3
f 120/5/4 48/5/4 23/4/4
f 111/6/5 46/5/5 107/4/5
f 103/7/2 41/8/2 17/1/2
f 99/8/3 43/8/3 102/1/3
f 119/7/4 44/7/4 19/2/4
f 100/8/5 42/7/5 96/2/5
f 92/5/2 37/6/2 13/3/2
f 88/6/3 39/6/3 91/3/3
f 118/5/4 40/5/4 15/4/4
f 89/6/5 38/5/5 85/4/5
f 81/7/2 33/8/2 9/1/2
f 77/8/3 35/8/3 80/1/3
f 117/7/4 36/7/4 11/2/4
f 78/8/5 34/7/5 74/2/5
f 70/5/2 29/6/2 5/3/2
f 66/6/3 31/6/3 69/3/3
f 116/5/4 32/5/4 7/4/4
f 67/6/5 30/5/5 63/4/5
f 59/7/2 25/8/2 1/1/2
f 55/8/3 27/8/3 58/1/3
f 115/7/4 28/7/4 3/2/4
f 56/8/5 26/7/5 52/2/5
o Plane.001
v -0.000000 0.200000 -0.030000
v -0.000000 0.200000 0.130000
v -0.000000 -0.000000 -0.030000
v -0.000000 -0.000000 0.130000
v 1.500005 0.100000 -0.030000
v 1.500005 0.100000 0.030000
v 0.060005 0.100000 -0.030000
v 0.060005 0.100000 0.030000
v -0.060004 0.100000 -0.030000
v -0.060004 0.100000 0.030000
v -1.500005 0.100000 -0.030000
v -1.500005 0.100000 0.030000
v 1.500005 0.100000 0.060000
v 1.500005 0.100000 0.120000
v 0.060005 0.100000 0.060000
v 0.060005 0.100000 0.120000
v -0.060004 0.100000 0.060000
v -0.060004 0.100000 0.120000
v -1.500005 0.100000 0.060000
v -1.500005 0.100000 0.120000
v 1.500005 0.100000 0.150000
v 1.500005 0.100000 0.210000
v 0.060005 0.100000 0.150000
v 0.060005 0.100000 0.210000
v -0.060004 0.100000 0.150000
v -0.060004 0.100000 0.210000
v -1.500005 0.100000 0.150000
v -1.500005 0.100000 0.210000
v 1.500005 0.050000 -0.030000
v 0.060005 0.050000 0.030000
v 1.500005 0.050000 0.030000
v 0.060005 0.050000 -0.030000
v -0.060004 0.050000 -0.030000
v -1.500005 0.050000 0.030000
v -0.060004 0.050000 0.030000
v -1.500005 0.050000 -0.030000
v 1.500005 0.050000 0.060000
v 0.060005 0.050000 0.120000
v 1.500005 0.050000 0.120000
v 0.060005 0.050000 0.060000
v -0.060004 0.050000 0.060000
v -1.500005 0.050000 0.120000
v -0.060004 0.050000 0.120000
v -1.500005 0.050000 0.060000
v 1.500005 0.050000 0.150000
v 0.060005 0.050000 0.210000
v 1.500005 0.050000 0.210000
v 0.060005 0.050000 0.150000
v -0.060004 0.050000 0.150000
v -1.500005 0.050000 0.210000
v -0.060004 0.050000 0.210000
v -1.500005 0.050000 0.150000
v 0.060005 0.050000 0.030000
v 0.060005 0.100000 0.030000
v 0.060005 0.100000 0.030000
v 1.500005 0.100000 0.030000
v 1.500005 0.100000 0.030000
v 1.500005 0.100000 -0.030000
v 1.500005 0.100000 -0.030000
v 0.060005 0.100000 -0.030000
v 0.060005 0.100000 -0.030000
v -1.500005 0.050000 0.030000
v -1.500005 0.100000 0.030000
v -1.500005 0.100000 0.030000
v -0.060004 0.100000 0.030000
v -0.060004 0.100000 0.030000
v -0.060004 0.100000 -0.030000
v -0.060004 0.100000 -0.030000
v -1.500005 0.100000 -0.030000
v -1.500005 0.100000 -0.030000
v 0.060005 0.050000 0.120000
v 0.060005 0.100000 0.120000
v 0.060005 0.100000 0.120000
v 1.500005 0.100000 0.120000
v 1.500005 0.100000 0.120000
v 1.500005 0.100000 0.060000
v 1.500005 0.100000 0.060000
v 0.060005 0.100000 0.060000
v 0.060005 0.100000 0.060000
v -1.500005 0.050000 0.120000
v -1.500005 0.100000 0.120000
v -1.500005 0.100000 0.120000
v -0.060004 0.100000 0.120000
v -0.060004 0.100000 0.120000
v -0.060004 0.100000 0.060000
v -0.060004 0.100000 0.060000
v -1.500005 0.100000 0.060000
v -1.500005 0.100000 0.060000
v 0.060005 0.050000 0.210000
v 0.060005 0.100000 0.210000
v 0.060005 0.100000 0.210000
v 1.500005 0.100000 0.210000
v 1.500005 0.100000 0.210000
v 1.500005 0.100000 0.150000
v 1.500005 0.100000 0.150000
v 0.060005 0.100000 0.150000
v 0.060005 0.100000 0.150000
v -1.500005 0.050000 0.210000
v -1.500005 0.100000 0.210000
v -1.500005 0.100000 0.210000
v -0.060004 0.100000 0.210000
v -0.060004 0.100000 0.210000
v -0.060004 0.100000 0.150000
v -0.060004 0.100000 0.150000
v -1.500005 0.100000 0.150000
v -1.500005 0.100000 0.150000
v 1.500005 0.050000 -0.030000
v 1.500005 0.050000 0.030000
v 0.060005 0.050000 -0.030000
v -0.060004 0.050000 -0.030000
v -0.060004 0.050000 0.030000
v -1.500005 0.050000 -0.030000
v 1.500005 0.050000 0.060000
v 1.500005 0.050000 0.120000
v 0.060005 0.050000 0.060000
v -0.060004 0.050000 0.060000
v -0.060004 0.050000 0.120000
v -1.500005 0.050000 0.060000
v 1.500005 0.050000 0.150000
v 1.500005 0.050000 0.210000
v 0.060005 0.050000 0.150000
v -0.060004 0.050000 0.150000
v -0.060004 0.050000 0.210000
v -1.500005 0.050000 0.150000
v 0.000000 0.200000 0.130000
v 0.000000 0.200000 -0.030000
v 0.000000 -0.000000 0.130000
v 0.000000 -0.000000 -0.030000
vn 1.0000 -0.0000 -0.0000
vn -0.0000 1.0000 -0.0000
vn -0.0000 -0.0000 1.0000
vn -1.0000 -0.0000 -0.0000
vn -0.0000 -0.0000 -1.0000
vt 0.001431 0.997537
vt 0.258078 0.997537
vt 0.258078 0.039901
vt 0.001431 0.039901
vt 0.310293 0.959485
vt 0.982124 0.959485
vt 0.310293 0.500000
vt 0.982124 0.500000
vt 0.289784 0.959485
vt 0.988733 0.959485
vt 0.289784 0.500000
vt 0.988733 0.500000
vt 0.001431 0.039901
vt 0.258078 0.039901
s 0
usemtl Material.001
f 121/9/6 122/10/6 124/11/6 123/12/6
f 245/10/9 246/9/9 248/21/9 247/22/9
s 1
usemtl Material
f 180/13/7 176/14/7 178/14/7
f 177/14/8 150/15/8 228/16/8
f 174/13/9 152/15/9 173/15/9
f 179/14/6 151/16/6 227/16/6
f 181/13/10 149/16/10 229/15/10
f 189/17/7 185/18/7 187/18/7
f 186/18/8 154/19/8 231/20/8
f 183/17/9 156/19/9 182/19/9
f 188/18/6 155/20/6 230/20/6
f 190/17/10 153/20/10 232/19/10
f 198/13/7 194/14/7 196/14/7
f 195/14/8 158/15/8 234/16/8
f 192/13/9 160/15/9 191/15/9
f 197/14/6 159/16/6 233/16/6
f 199/13/10 157/16/10 235/15/10
f 207/17/7 203/18/7 205/18/7
f 204/18/8 162/19/8 237/20/8
f 201/17/9 164/19/9 200/19/9
f 206/18/6 163/20/6 236/20/6
f 208/17/10 161/20/10 238/19/10
f 216/13/7 212/14/7 214/14/7
f 213/14/8 166/15/8 240/16/8
f 210/13/9 168/15/9 209/15/9
f 215/14/6 167/16/6 239/16/6
f 217/13/10 165/16/10 241/15/10
f 225/17/7 221/18/7 223/18/7
f 222/18/8 170/19/8 243/20/8
f 219/17/9 172/19/9 218/19/9
f 224/18/6 171/20/6 242/20/6
f 226/17/10 169/20/10 244/19/10
f 180/13/7 175/13/7 176/14/7
f 177/14/8 128/13/8 150/15/8
f 174/13/9 127/13/9 152/15/9
f 179/14/6 126/14/6 151/16/6
f 181/13/10 125/14/10 149/16/10
f 189/17/7 184/17/7 185/18/7
f 186/18/8 132/17/8 154/19/8
f 183/17/9 131/17/9 156/19/9
f 188/18/6 130/18/6 155/20/6
f 190/17/10 129/18/10 153/20/10
f 198/13/7 193/13/7 194/14/7
f 195/14/8 136/13/8 158/15/8
f 192/13/9 135/13/9 160/15/9
f 197/14/6 134/14/6 159/16/6
f 199/13/10 133/14/10 157/16/10
f 207/17/7 202/17/7 203/18/7
f 204/18/8 140/17/8 162/19/8
f 201/17/9 139/17/9 164/19/9
f 206/18/6 138/18/6 163/20/6
f 208/17/10 137/18/10 161/20/10
f 216/13/7 211/13/7 212/14/7
f 213/14/8 144/13/8 166/15/8
f 210/13/9 143/13/9 168/15/9
f 215/14/6 142/14/6 167/16/6
f 217/13/10 141/14/10 165/16/10
f 225/17/7 220/17/7 221/18/7
f 222/18/8 148/17/8 170/19/8
f 219/17/9 147/17/9 172/19/9
f 224/18/6 146/18/6 171/20/6
f 226/17/10 145/18/10 169/20/10
