# Blender 5.0.0
# www.blender.org
o Cavalrymen
v -0.090000 0.000000 0.318990
v -0.150000 0.000000 0.318990
v -0.090000 0.000000 0.158990
v -0.150000 0.000000 0.158990
v 0.150000 0.000000 0.196791
v 0.090000 0.000000 0.196791
v 0.150000 0.000000 0.036791
v 0.090000 0.000000 0.036791
v 0.030000 0.000000 0.348529
v -0.030000 0.000000 0.348529
v 0.030000 0.000000 0.188528
v -0.030000 0.000000 0.188528
v -0.090000 -0.000000 -0.017333
v -0.150000 -0.000000 -0.017333
v -0.090000 -0.000000 -0.177333
v -0.150000 -0.000000 -0.177333
v 0.150000 -0.000000 -0.006566
v 0.090000 -0.000000 -0.006566
v 0.150000 -0.000000 -0.166566
v 0.090000 -0.000000 -0.166566
v 0.090000 0.069321 -0.006565
v 0.030000 -0.000000 -0.017067
v -0.030000 -0.000000 -0.017067
v 0.030000 -0.000000 -0.177067
v -0.030000 -0.000000 -0.177067
v -0.090000 0.119321 0.318991
v -0.150000 0.119321 0.318991
v -0.090000 0.119321 0.158991
v -0.150000 0.119321 0.158991
v -0.090000 0.069321 0.318991
v -0.150000 0.069321 0.158991
v -0.150000 0.069321 0.318991
v -0.090000 0.069321 0.158991
v 0.150000 0.119321 0.196792
v 0.090000 0.119321 0.196792
v 0.150000 0.119321 0.036792
v 0.090000 0.119321 0.036792
v 0.150000 0.069321 0.196791
v 0.090000 0.069321 0.036791
v 0.090000 0.069321 0.196791
v 0.150000 0.069321 0.036791
v 0.030000 0.119321 0.348530
v -0.030000 0.119321 0.348530
v 0.030000 0.119321 0.188530
v -0.030000 0.119321 0.188530
v 0.030000 0.069321 0.348529
v -0.030000 0.069321 0.188529
v -0.030000 0.069321 0.348529
v 0.030000 0.069321 0.188529
v -0.090000 0.119321 -0.017332
v -0.150000 0.119321 -0.017332
v -0.090000 0.119321 -0.177332
v -0.150000 0.119321 -0.177332
v -0.090000 0.069321 -0.017333
v -0.150000 0.069321 -0.177333
v -0.150000 0.069321 -0.017333
v -0.090000 0.069321 -0.177333
v 0.150000 0.119321 -0.006565
v 0.090000 0.119321 -0.006565
v 0.150000 0.119321 -0.166565
v 0.090000 0.119321 -0.166565
v 0.150000 0.069321 -0.006565
v 0.090000 0.069321 -0.166565
v 0.150000 0.069321 -0.166565
v 0.030000 0.119321 -0.017066
v -0.030000 0.119321 -0.017066
v 0.030000 0.119321 -0.177066
v -0.030000 0.119321 -0.177066
v 0.030000 0.069321 -0.017067
v -0.030000 0.069321 -0.177067
v -0.030000 0.069321 -0.017067
v 0.030000 0.069321 -0.177067
v -0.090000 0.000000 0.158990
v -0.090000 0.000000 0.158990
v -0.150000 0.000000 0.158990
v -0.150000 0.000000 0.158990
v 0.150000 0.000000 0.036791
v 0.150000 0.000000 0.036791
v 0.090000 0.000000 0.036791
v 0.090000 0.000000 0.036791
v 0.030000 0.000000 0.188528
v 0.030000 0.000000 0.188528
v -0.030000 0.000000 0.188528
v -0.030000 0.000000 0.188528
v -0.090000 -0.000000 -0.177333
v -0.090000 -0.000000 -0.177333
v -0.150000 -0.000000 -0.177333
v -0.150000 -0.000000 -0.177333
v 0.150000 -0.000000 -0.166566
v 0.150000 -0.000000 -0.166566
v 0.090000 -0.000000 -0.166566
v 0.090000 -0.000000 -0.166566
v 0.030000 -0.000000 -0.177067
v 0.030000 -0.000000 -0.177067
v -0.030000 -0.000000 -0.177067
v -0.030000 -0.000000 -0.177067
v -0.150000 0.119321 0.158991
v -0.150000 0.119321 0.158991
v -0.150000 0.069321 0.158991
v -0.090000 0.119321 0.158991
v -0.090000 0.119321 0.158991
v -0.090000 0.069321 0.158991
v -0.150000 0.119321 0.318991
v -0.150000 0.119321 0.318991
v -0.150000 0.069321 0.318991
v -0.090000 0.119321 0.318991
v -0.090000 0.119321 0.318991
v -0.090000 0.069321 0.318991
v 0.090000 0.119321 0.036792
v 0.090000 0.119321 0.036792
v 0.090000 0.069321 0.036791
v 0.150000 0.119321 0.036792
v 0.150000 0.119321 0.036792
v 0.150000 0.069321 0.036791
v 0.090000 0.119321 0.196792
v 0.090000 0.119321 0.196792
v 0.090000 0.069321 0.196791
v 0.150000 0.119321 0.196792
v 0.150000 0.119321 0.196792
v 0.150000 0.069321 0.196791
v -0.030000 0.119321 0.188530
v -0.030000 0.119321 0.188530
v -0.030000 0.069321 0.188529
v 0.030000 0.119321 0.188530
v 0.030000 0.119321 0.188530
v 0.030000 0.069321 0.188529
v -0.030000 0.119321 0.348530
v -0.030000 0.119321 0.348530
v -0.030000 0.069321 0.348529
v 0.030000 0.119321 0.348530
v 0.030000 0.119321 0.348530
v 0.030000 0.069321 0.348529
v -0.150000 0.119321 -0.177332
v -0.150000 0.119321 -0.177332
v -0.150000 0.069321 -0.177333
v -0.090000 0.119321 -0.177332
v -0.090000 0.119321 -0.177332
v -0.090000 0.069321 -0.177333
v -0.150000 0.119321 -0.017332
v -0.150000 0.119321 -0.017332
v -0.150000 0.069321 -0.017333
v -0.090000 0.119321 -0.017332
v -0.090000 0.119321 -0.017332
v -0.090000 0.069321 -0.017333
v 0.090000 0.119321 -0.166565
v 0.090000 0.119321 -0.166565
v 0.090000 0.069321 -0.166565
v 0.150000 0.119321 -0.166565
v 0.150000 0.119321 -0.166565
v 0.150000 0.069321 -0.166565
v 0.150000 0.119321 -0.006565
v 0.150000 0.119321 -0.006565
v 0.150000 0.069321 -0.006565
v -0.030000 0.119321 -0.177066
v -0.030000 0.119321 -0.177066
v -0.030000 0.069321 -0.177067
v 0.030000 0.119321 -0.177066
v 0.030000 0.119321 -0.177066
v 0.030000 0.069321 -0.177067
v -0.030000 0.119321 -0.017066
v -0.030000 0.119321 -0.017066
v -0.030000 0.069321 -0.017067
v 0.030000 0.119321 -0.017066
v 0.030000 0.119321 -0.017066
v 0.030000 0.069321 -0.017067
v -0.090000 0.000000 0.318990
v -0.090000 0.000000 0.318990
v -0.150000 0.000000 0.318990
v -0.150000 0.000000 0.318990
v 0.150000 0.000000 0.196791
v 0.150000 0.000000 0.196791
v 0.090000 0.000000 0.196791
v 0.090000 0.000000 0.196791
v 0.030000 0.000000 0.348529
v 0.030000 0.000000 0.348529
v -0.030000 0.000000 0.348529
v -0.030000 0.000000 0.348529
v -0.090000 -0.000000 -0.017333
v -0.090000 -0.000000 -0.017333
v -0.150000 -0.000000 -0.017333
v -0.150000 -0.000000 -0.017333
v 0.150000 -0.000000 -0.006566
v 0.150000 -0.000000 -0.006566
v 0.090000 -0.000000 -0.006566
v 0.090000 -0.000000 -0.006566
v 0.090000 0.069321 -0.006565
v 0.030000 -0.000000 -0.017067
v 0.030000 -0.000000 -0.017067
v -0.030000 -0.000000 -0.017067
v -0.030000 -0.000000 -0.017067
v 0.090000 0.119321 -0.006565
v 0.090000 0.119321 -0.006565
vn -0.3408 -0.9400 -0.0164
vn 0.3031 -0.9400 0.1566
vn -0.0146 -0.9918 0.1268
vn 0.9456 -0.3131 0.0883
vn 0.9400 0.0164 -0.3408
vn 0.9918 0.1268 0.0146
vn -0.2859 0.1602 0.9448
vn 0.0507 0.1171 0.9918
vn -0.0164 0.3408 0.9400
vn 0.2860 0.1603 -0.9447
vn -0.1268 0.0146 -0.9918
vn 0.1566 0.3032 -0.9400
vn -0.9456 -0.3131 -0.0883
vn -0.9400 0.1566 0.3031
vn -0.9918 0.0507 -0.1171
vn 0.1171 -0.9918 -0.0507
vn 0.9448 -0.1602 -0.2859
vn 0.0883 0.3131 0.9456
vn -0.0883 0.3131 -0.9456
vn -0.9447 -0.1603 0.2860
vn 0.0883 0.3130 0.9456
vn -0.3408 0.9400 0.0164
vn 0.3031 0.9400 -0.1566
vn -0.0146 0.9918 -0.1268
vn -0.9400 -0.1566 -0.3031
vn 0.0753 -0.1030 -0.9918
vn -0.1268 -0.0146 0.9918
vn 0.9400 -0.0164 0.3408
vn 0.1030 0.9918 0.0753
vn -0.9918 -0.0753 0.1030
vn -0.0164 -0.3408 -0.9400
vn 0.1566 -0.3032 0.9400
vn 0.9918 -0.1268 -0.0146
vt 0.002320 0.012212
vt 0.997283 0.012212
vt 0.997283 0.503371
vt 0.002320 0.503371
vt 0.997283 0.990088
vt 0.002320 0.990088
s 1
f 166/1/1 75/2/2 73/2/3
f 102/3/4 1/1/5 74/2/6
f 108/4/7 168/1/8 167/1/9
f 99/3/10 3/2/11 4/2/12
f 105/4/13 76/2/14 169/1/15
f 166/1/1 2/1/16 75/2/2
f 102/3/4 30/4/17 1/1/5
f 108/4/7 32/4/18 168/1/8
f 99/3/10 33/3/19 3/2/11
f 105/4/13 31/3/20 76/2/14
f 170/1/1 79/2/2 77/2/3
f 114/3/4 5/1/5 78/2/6
f 120/4/7 172/1/8 171/1/9
f 111/3/10 7/2/11 8/2/12
f 117/4/13 80/2/14 173/1/15
f 170/1/1 6/1/16 79/2/2
f 114/3/4 38/4/17 5/1/5
f 120/4/7 40/4/21 172/1/8
f 111/3/10 41/3/19 7/2/11
f 117/4/13 39/3/20 80/2/14
f 174/1/1 83/2/2 81/2/3
f 126/3/4 9/1/5 82/2/6
f 132/4/7 176/1/8 175/1/9
f 123/3/10 11/2/11 12/2/12
f 129/4/13 84/2/14 177/1/15
f 174/1/1 10/1/16 83/2/2
f 126/3/4 46/4/17 9/1/5
f 132/4/7 48/4/18 176/1/8
f 123/3/10 49/3/19 11/2/11
f 129/4/13 47/3/20 84/2/14
f 178/1/1 87/2/2 85/2/3
f 138/3/4 13/1/5 86/2/6
f 144/4/7 180/1/8 179/1/9
f 135/3/10 15/2/11 16/2/12
f 141/4/13 88/2/14 181/1/15
f 178/1/1 14/1/16 87/2/2
f 138/3/4 54/4/17 13/1/5
f 144/4/7 56/4/18 180/1/8
f 135/3/10 57/3/19 15/2/11
f 141/4/13 55/3/20 88/2/14
f 182/1/1 91/2/2 89/2/3
f 150/3/4 17/1/5 90/2/6
f 153/4/7 184/1/8 183/1/9
f 147/3/10 19/2/11 20/2/12
f 186/4/13 92/2/14 185/1/15
f 182/1/1 18/1/16 91/2/2
f 150/3/4 62/4/17 17/1/5
f 153/4/7 21/4/21 184/1/8
f 147/3/10 64/3/19 19/2/11
f 186/4/13 63/3/20 92/2/14
f 187/1/1 95/2/2 93/2/3
f 159/3/4 22/1/5 94/2/6
f 165/4/7 189/1/8 188/1/9
f 156/3/10 24/2/11 25/2/12
f 162/4/13 96/2/14 190/1/15
f 187/1/1 23/1/16 95/2/2
f 159/3/4 69/4/17 22/1/5
f 165/4/7 71/4/18 189/1/8
f 156/3/10 72/3/19 24/2/11
f 162/4/13 70/3/20 96/2/14
f 101/5/22 104/6/23 107/6/24
f 103/6/25 31/3/20 105/4/13
f 97/5/26 33/3/19 99/3/10
f 106/6/27 32/4/18 108/4/7
f 100/5/28 30/4/17 102/3/4
f 101/5/22 98/5/29 104/6/23
f 103/6/25 29/5/30 31/3/20
f 97/5/26 28/5/31 33/3/19
f 106/6/27 27/6/32 32/4/18
f 100/5/28 26/6/33 30/4/17
f 113/5/22 116/6/23 119/6/24
f 115/6/25 39/3/20 117/4/13
f 109/5/26 41/3/19 111/3/10
f 118/6/27 40/4/21 120/4/7
f 112/5/28 38/4/17 114/3/4
f 113/5/22 110/5/29 116/6/23
f 115/6/25 37/5/30 39/3/20
f 109/5/26 36/5/31 41/3/19
f 118/6/27 35/6/32 40/4/21
f 112/5/28 34/6/33 38/4/17
f 125/5/22 128/6/23 131/6/24
f 127/6/25 47/3/20 129/4/13
f 121/5/26 49/3/19 123/3/10
f 130/6/27 48/4/18 132/4/7
f 124/5/28 46/4/17 126/3/4
f 125/5/22 122/5/29 128/6/23
f 127/6/25 45/5/30 47/3/20
f 121/5/26 44/5/31 49/3/19
f 130/6/27 43/6/32 48/4/18
f 124/5/28 42/6/33 46/4/17
f 137/5/22 140/6/23 143/6/24
f 139/6/25 55/3/20 141/4/13
f 133/5/26 57/3/19 135/3/10
f 142/6/27 56/4/18 144/4/7
f 136/5/28 54/4/17 138/3/4
f 137/5/22 134/5/29 140/6/23
f 139/6/25 53/5/30 55/3/20
f 133/5/26 52/5/31 57/3/19
f 142/6/27 51/6/32 56/4/18
f 136/5/28 50/6/33 54/4/17
f 149/5/22 191/6/23 152/6/24
f 192/6/25 63/3/20 186/4/13
f 145/5/26 64/3/19 147/3/10
f 151/6/27 21/4/21 153/4/7
f 148/5/28 62/4/17 150/3/4
f 149/5/22 146/5/29 191/6/23
f 192/6/25 61/5/30 63/3/20
f 145/5/26 60/5/31 64/3/19
f 151/6/27 59/6/32 21/4/21
f 148/5/28 58/6/33 62/4/17
f 158/5/22 161/6/23 164/6/24
f 160/6/25 70/3/20 162/4/13
f 154/5/26 72/3/19 156/3/10
f 163/6/27 71/4/18 165/4/7
f 157/5/28 69/4/17 159/3/4
f 158/5/22 155/5/29 161/6/23
f 160/6/25 68/5/30 70/3/20
f 154/5/26 67/5/31 72/3/19
f 163/6/27 66/6/32 71/4/18
f 157/5/28 65/6/33 69/4/17
