# Blender 5.0.0
# www.blender.org
o Cavalrymen
v -0.171692 0.000000 0.234737
v -0.231351 0.000000 0.228346
v -0.154648 0.000000 0.075648
v -0.214307 0.000000 0.069256
v 0.209669 0.000000 0.178350
v 0.149672 0.000000 0.177738
v 0.211303 0.000000 0.018359
v 0.151306 0.000000 0.017746
v 0.112300 0.000000 0.117328
v 0.052569 0.000000 0.123002
v 0.097168 -0.000000 -0.041955
v 0.037437 -0.000000 -0.036280
v -0.058579 0.000000 0.267928
v -0.118345 0.000000 0.262630
v -0.044451 0.000000 0.108553
v -0.104217 0.000000 0.103255
v -0.117060 -0.000000 -0.149587
v -0.177059 -0.000000 -0.149136
v -0.118262 -0.000000 -0.309582
v -0.178260 -0.000000 -0.309132
v 0.226227 -0.000000 -0.072226
v 0.166286 -0.000000 -0.069561
v 0.219120 -0.000000 -0.232068
v 0.159179 -0.000000 -0.229403
v 0.112336 -0.000000 -0.084552
v 0.052570 -0.000000 -0.079261
v 0.098227 -0.000000 -0.243928
v 0.038461 -0.000000 -0.238638
v 0.052570 0.069321 -0.079260
v -0.002005 -0.000000 -0.133593
v -0.062004 -0.000000 -0.133926
v -0.001118 -0.000000 -0.293591
v -0.061117 -0.000000 -0.293924
v -0.171692 0.119321 0.234739
v -0.231351 0.119321 0.228347
v -0.154648 0.119321 0.075649
v -0.214307 0.119321 0.069257
v -0.171692 0.069321 0.234738
v -0.214307 0.069321 0.069257
v -0.231351 0.069321 0.228346
v -0.154648 0.069321 0.075648
v 0.209669 0.119321 0.178351
v 0.149672 0.119321 0.177739
v 0.211303 0.119321 0.018360
v 0.151306 0.119321 0.017747
v 0.209669 0.069321 0.178351
v 0.151306 0.069321 0.017747
v 0.149672 0.069321 0.177738
v 0.211303 0.069321 0.018359
v 0.112300 0.119321 0.117329
v 0.052569 0.119321 0.123003
v 0.097168 0.119321 -0.041954
v 0.037437 0.119321 -0.036279
v 0.112300 0.069321 0.117328
v 0.037437 0.069321 -0.036280
v 0.052569 0.069321 0.123003
v 0.097168 0.069321 -0.041954
v -0.058580 0.119321 0.267929
v -0.118345 0.119321 0.262631
v -0.044451 0.119321 0.108554
v -0.104217 0.119321 0.103256
v -0.058579 0.069321 0.267929
v -0.104217 0.069321 0.103256
v -0.118345 0.069321 0.262631
v -0.044451 0.069321 0.108554
v -0.117060 0.119321 -0.149586
v -0.177059 0.119321 -0.149135
v -0.118262 0.119321 -0.309581
v -0.178260 0.119321 -0.309131
v -0.117060 0.069321 -0.149586
v -0.178260 0.069321 -0.309131
v -0.177059 0.069321 -0.149136
v -0.118262 0.069321 -0.309582
v 0.226227 0.119321 -0.072225
v 0.166286 0.119321 -0.069560
v 0.219120 0.119321 -0.232067
v 0.159179 0.119321 -0.229402
v 0.226227 0.069321 -0.072225
v 0.159179 0.069321 -0.229402
v 0.166286 0.069321 -0.069560
v 0.219120 0.069321 -0.232068
v 0.112336 0.119321 -0.084551
v 0.052570 0.119321 -0.079260
v 0.098227 0.119321 -0.243927
v 0.038461 0.119321 -0.238637
v 0.112336 0.069321 -0.084551
v 0.038461 0.069321 -0.238637
v 0.098227 0.069321 -0.243928
v -0.002005 0.119321 -0.133592
v -0.062004 0.119321 -0.133925
v -0.001118 0.119321 -0.293590
v -0.061117 0.119321 -0.293923
v -0.002005 0.069321 -0.133593
v -0.061117 0.069321 -0.293923
v -0.062004 0.069321 -0.133926
v -0.001117 0.069321 -0.293590
v -0.154648 0.000000 0.075648
v -0.154648 0.000000 0.075648
v -0.214307 0.000000 0.069256
v -0.214307 0.000000 0.069256
v 0.211303 0.000000 0.018359
v 0.211303 0.000000 0.018359
v 0.151306 0.000000 0.017746
v 0.151306 0.000000 0.017746
v 0.097168 -0.000000 -0.041955
v 0.097168 -0.000000 -0.041955
v 0.037437 -0.000000 -0.036280
v 0.037437 -0.000000 -0.036280
v -0.044451 0.000000 0.108553
v -0.044451 0.000000 0.108553
v -0.104217 0.000000 0.103255
v -0.104217 0.000000 0.103255
v -0.118262 -0.000000 -0.309582
v -0.118262 -0.000000 -0.309582
v -0.178260 -0.000000 -0.309132
v -0.178260 -0.000000 -0.309132
v 0.219120 -0.000000 -0.232068
v 0.219120 -0.000000 -0.232068
v 0.159179 -0.000000 -0.229403
v 0.159179 -0.000000 -0.229403
v 0.098227 -0.000000 -0.243928
v 0.098227 -0.000000 -0.243928
v 0.038461 -0.000000 -0.238638
v 0.038461 -0.000000 -0.238638
v -0.001118 -0.000000 -0.293591
v -0.001118 -0.000000 -0.293591
v -0.061117 -0.000000 -0.293924
v -0.061117 -0.000000 -0.293924
v -0.214307 0.119321 0.069257
v -0.214307 0.119321 0.069257
v -0.214307 0.069321 0.069257
v -0.154648 0.119321 0.075649
v -0.154648 0.119321 0.075649
v -0.154648 0.069321 0.075648
v -0.231351 0.119321 0.228347
v -0.231351 0.119321 0.228347
v -0.231351 0.069321 0.228346
v -0.171692 0.119321 0.234739
v -0.171692 0.119321 0.234739
v -0.171692 0.069321 0.234738
v 0.151306 0.119321 0.017747
v 0.151306 0.119321 0.017747
v 0.151306 0.069321 0.017747
v 0.211303 0.119321 0.018360
v 0.211303 0.119321 0.018360
v 0.211303 0.069321 0.018359
v 0.149672 0.119321 0.177739
v 0.149672 0.119321 0.177739
v 0.149672 0.069321 0.177738
v 0.209669 0.119321 0.178351
v 0.209669 0.119321 0.178351
v 0.209669 0.069321 0.178351
v 0.037437 0.119321 -0.036279
v 0.037437 0.119321 -0.036279
v 0.037437 0.069321 -0.036280
v 0.097168 0.119321 -0.041954
v 0.097168 0.119321 -0.041954
v 0.097168 0.069321 -0.041954
v 0.052569 0.119321 0.123003
v 0.052569 0.119321 0.123003
v 0.052569 0.069321 0.123003
v 0.112300 0.119321 0.117329
v 0.112300 0.119321 0.117329
v 0.112300 0.069321 0.117328
v -0.104217 0.119321 0.103256
v -0.104217 0.119321 0.103256
v -0.104217 0.069321 0.103256
v -0.044451 0.119321 0.108554
v -0.044451 0.119321 0.108554
v -0.044451 0.069321 0.108554
v -0.118345 0.119321 0.262631
v -0.118345 0.119321 0.262631
v -0.118345 0.069321 0.262631
v -0.058580 0.119321 0.267929
v -0.058580 0.119321 0.267929
v -0.058579 0.069321 0.267929
v -0.178260 0.119321 -0.309131
v -0.178260 0.119321 -0.309131
v -0.178260 0.069321 -0.309131
v -0.118262 0.119321 -0.309581
v -0.118262 0.119321 -0.309581
v -0.118262 0.069321 -0.309582
v -0.177059 0.119321 -0.149135
v -0.177059 0.119321 -0.149135
v -0.177059 0.069321 -0.149136
v -0.117060 0.119321 -0.149586
v -0.117060 0.119321 -0.149586
v -0.117060 0.069321 -0.149586
v 0.159179 0.119321 -0.229402
v 0.159179 0.119321 -0.229402
v 0.159179 0.069321 -0.229402
v 0.219120 0.119321 -0.232067
v 0.219120 0.119321 -0.232067
v 0.219120 0.069321 -0.232068
v 0.166286 0.119321 -0.069560
v 0.166286 0.119321 -0.069560
v 0.166286 0.069321 -0.069560
v 0.226227 0.119321 -0.072225
v 0.226227 0.119321 -0.072225
v 0.226227 0.069321 -0.072225
v 0.038461 0.119321 -0.238637
v 0.038461 0.119321 -0.238637
v 0.038461 0.069321 -0.238637
v 0.098227 0.119321 -0.243927
v 0.098227 0.119321 -0.243927
v 0.098227 0.069321 -0.243928
v 0.112336 0.119321 -0.084551
v 0.112336 0.119321 -0.084551
v 0.112336 0.069321 -0.084551
v -0.061117 0.119321 -0.293923
v -0.061117 0.119321 -0.293923
v -0.061117 0.069321 -0.293923
v -0.001118 0.119321 -0.293590
v -0.001118 0.119321 -0.293590
v -0.001117 0.069321 -0.293590
v -0.062004 0.119321 -0.133925
v -0.062004 0.119321 -0.133925
v -0.062004 0.069321 -0.133926
v -0.002005 0.119321 -0.133592
v -0.002005 0.119321 -0.133592
v -0.002005 0.069321 -0.133593
v -0.171692 0.000000 0.234737
v -0.171692 0.000000 0.234737
v -0.231351 0.000000 0.228346
v -0.231351 0.000000 0.228346
v 0.209669 0.000000 0.178350
v 0.209669 0.000000 0.178350
v 0.149672 0.000000 0.177738
v 0.149672 0.000000 0.177738
v 0.112300 0.000000 0.117328
v 0.112300 0.000000 0.117328
v 0.052569 0.000000 0.123002
v 0.052569 0.000000 0.123002
v -0.058579 0.000000 0.267928
v -0.058579 0.000000 0.267928
v -0.118345 0.000000 0.262630
v -0.118345 0.000000 0.262630
v -0.117060 -0.000000 -0.149587
v -0.117060 -0.000000 -0.149587
v -0.177059 -0.000000 -0.149136
v -0.177059 -0.000000 -0.149136
v 0.226227 -0.000000 -0.072226
v 0.226227 -0.000000 -0.072226
v 0.166286 -0.000000 -0.069561
v 0.166286 -0.000000 -0.069561
v 0.112336 -0.000000 -0.084552
v 0.112336 -0.000000 -0.084552
v 0.052570 -0.000000 -0.079261
v 0.052570 -0.000000 -0.079261
v 0.052570 0.069321 -0.079260
v -0.002005 -0.000000 -0.133593
v -0.002005 -0.000000 -0.133593
v -0.062004 -0.000000 -0.133926
v -0.062004 -0.000000 -0.133926
v 0.052570 0.119321 -0.079260
v 0.052570 0.119321 -0.079260
vn -0.3371 -0.9400 -0.0526
vn 0.2847 -0.9400 0.1880
vn -0.0280 -0.9918 0.1245
vn 0.9308 -0.3131 0.1885
vn 0.9710 0.0164 -0.2387
vn 0.9846 0.1268 0.1202
vn -0.3850 0.1602 0.9089
vn -0.0552 0.1171 0.9916
vn -0.1165 0.3408 0.9329
vn 0.3850 0.1603 -0.9089
vn -0.0204 0.0146 -0.9997
vn 0.2558 0.3032 -0.9180
vn -0.9308 -0.3131 -0.1885
vn -0.9669 0.1566 0.2013
vn -0.9737 0.0507 -0.2221
vn 0.1218 -0.9918 -0.0380
vn 0.9698 -0.1602 -0.1837
vn -0.0129 0.3131 0.9496
vn 0.0130 0.3131 -0.9496
vn -0.9698 -0.1603 0.1837
vn -0.3406 -0.9400 -0.0199
vn 0.3015 -0.9400 0.1596
vn -0.0159 -0.9918 0.1266
vn 0.9447 -0.3131 0.0979
vn 0.9434 0.0164 -0.3312
vn 0.9916 0.1268 0.0248
vn -0.2956 0.1602 0.9418
vn 0.0406 0.1171 0.9923
vn -0.0260 0.3408 0.9398
vn 0.2956 0.1603 -0.9418
vn -0.1166 0.0146 -0.9931
vn 0.1661 0.3032 -0.9383
vn -0.9447 -0.3131 -0.0979
vn -0.9430 0.1566 0.2935
vn -0.9906 0.0507 -0.1272
vn 0.1176 -0.9918 -0.0495
vn 0.9476 -0.1602 -0.2763
vn 0.0786 0.3131 0.9465
vn -0.0786 0.3131 -0.9465
vn -0.9476 -0.1603 0.2763
vn -0.3408 -0.9400 0.0159
vn 0.3166 -0.9400 0.1272
vn -0.0026 -0.9918 0.1276
vn 0.9497 -0.3131 -0.0016
vn 0.9036 0.0164 -0.4282
vn 0.9888 0.1268 -0.0792
vn -0.1953 0.1602 0.9676
vn 0.1443 0.1171 0.9826
vn 0.0725 0.3408 0.9373
vn 0.1953 0.1603 -0.9676
vn -0.2200 0.0146 -0.9754
vn 0.0670 0.3032 -0.9506
vn -0.9497 -0.3131 0.0015
vn -0.9071 0.1566 0.3907
vn -0.9985 0.0507 -0.0228
vn 0.1118 -0.9918 -0.0616
vn 0.9135 -0.1602 -0.3740
vn 0.1774 0.3130 0.9330
vn -0.1773 0.3131 -0.9330
vn -0.9135 -0.1603 0.3740
vn -0.3380 -0.9400 -0.0465
vn 0.2881 -0.9400 0.1827
vn -0.0258 -0.9918 0.1250
vn 0.9341 -0.3131 0.1715
vn 0.9664 0.0164 -0.2565
vn 0.9867 0.1268 0.1021
vn -0.3682 0.1602 0.9158
vn -0.0371 0.1171 0.9924
vn -0.0994 0.3408 0.9349
vn 0.3683 0.1603 -0.9158
vn -0.0387 0.0146 -0.9991
vn 0.2389 0.3032 -0.9225
vn -0.9341 -0.3131 -0.1714
vn -0.9631 0.1566 0.2190
vn -0.9776 0.0507 -0.2042
vn 0.1211 -0.9918 -0.0402
vn 0.9663 -0.1602 -0.2014
vn 0.0044 0.3131 0.9497
vn -0.0045 0.3131 -0.9497
vn -0.9663 -0.1603 0.2014
vn -0.3409 -0.9400 -0.0139
vn 0.3043 -0.9400 0.1543
vn -0.0137 -0.9918 0.1269
vn 0.9463 -0.3131 0.0812
vn 0.9374 0.0164 -0.3478
vn 0.9919 0.1268 0.0072
vn -0.2788 0.1602 0.9469
vn 0.0582 0.1171 0.9914
vn -0.0094 0.3408 0.9401
vn 0.2789 0.1603 -0.9469
vn -0.1342 0.0146 -0.9908
vn 0.1495 0.3032 -0.9411
vn -0.9463 -0.3131 -0.0812
vn -0.9377 0.1566 0.3102
vn -0.9927 0.0507 -0.1096
vn 0.1167 -0.9918 -0.0516
vn 0.9426 -0.1602 -0.2930
vn 0.0954 0.3131 0.9449
vn -0.0954 0.3131 -0.9449
vn -0.9426 -0.1603 0.2931
vn -0.3412 -0.9400 -0.0013
vn 0.3098 -0.9400 0.1429
vn -0.0090 -0.9918 0.1273
vn 0.9486 -0.3131 0.0462
vn 0.9239 0.0164 -0.3822
vn 0.9915 0.1268 -0.0294
vn -0.2437 0.1602 0.9565
vn 0.0947 0.1171 0.9886
vn 0.0253 0.3408 0.9398
vn 0.2437 0.1603 -0.9565
vn -0.1707 0.0146 -0.9852
vn 0.1146 0.3032 -0.9460
vn -0.9486 -0.3131 -0.0462
vn -0.9256 0.1566 0.3446
vn -0.9960 0.0507 -0.0729
vn 0.1147 -0.9918 -0.0559
vn 0.9311 -0.1602 -0.3276
vn 0.1302 0.3131 0.9408
vn -0.1302 0.3131 -0.9408
vn -0.9311 -0.1603 0.3277
vn -0.3409 -0.9400 0.0137
vn 0.3158 -0.9400 0.1292
vn -0.0034 -0.9918 0.1276
vn 0.9497 -0.3131 0.0046
vn 0.9063 0.0164 -0.4224
vn 0.9893 0.1268 -0.0729
vn -0.2015 0.1602 0.9663
vn 0.1380 0.1171 0.9835
vn 0.0665 0.3408 0.9378
vn 0.2015 0.1603 -0.9663
vn -0.2137 0.0146 -0.9768
vn 0.0731 0.3032 -0.9501
vn -0.9497 -0.3131 -0.0046
vn -0.9096 0.1566 0.3849
vn -0.9983 0.0507 -0.0292
vn 0.1122 -0.9918 -0.0608
vn 0.9159 -0.1602 -0.3681
vn 0.1714 0.3130 0.9342
vn -0.1713 0.3131 -0.9341
vn -0.9158 -0.1603 0.3682
vn -0.3407 -0.9400 -0.0183
vn 0.3023 -0.9400 0.1582
vn -0.0153 -0.9918 0.1267
vn 0.9451 -0.3131 0.0935
vn 0.9419 0.0164 -0.3356
vn 0.9917 0.1268 0.0201
vn -0.2912 0.1602 0.9432
vn 0.0452 0.1171 0.9921
vn -0.0216 0.3408 0.9399
vn 0.2912 0.1603 -0.9431
vn -0.1213 0.0146 -0.9925
vn 0.1618 0.3032 -0.9391
vn -0.9451 -0.3131 -0.0935
vn -0.9417 0.1566 0.2979
vn -0.9912 0.0507 -0.1226
vn 0.1174 -0.9918 -0.0501
vn 0.9463 -0.1602 -0.2807
vn 0.0830 0.3131 0.9461
vn -0.0830 0.3131 -0.9461
vn -0.9463 -0.1603 0.2807
vn -0.3406 0.9400 -0.0200
vn 0.3181 0.9400 -0.1234
vn -0.0010 0.9918 -0.1276
vn -0.9024 -0.1566 -0.4016
vn 0.1806 -0.1030 -0.9782
vn -0.2317 -0.0146 0.9727
vn 0.8983 -0.0164 0.4390
vn 0.0944 0.9918 0.0859
vn -0.9972 -0.0753 -0.0032
vn 0.0838 -0.3408 -0.9364
vn 0.0555 -0.3032 0.9513
vn 0.9877 -0.1268 0.0911
vn -0.3409 0.9400 0.0129
vn 0.3047 0.9400 -0.1534
vn -0.0133 0.9918 -0.1269
vn -0.9369 -0.1566 -0.3127
vn 0.0855 -0.1030 -0.9910
vn -0.1369 -0.0146 0.9905
vn 0.9365 -0.0164 0.3504
vn 0.1022 0.9918 0.0764
vn -0.9928 -0.0753 0.0929
vn -0.0068 -0.3408 -0.9401
vn 0.1469 -0.3032 0.9415
vn 0.9919 -0.1268 -0.0045
vn -0.3377 0.9400 0.0486
vn 0.2870 0.9400 -0.1845
vn -0.0265 0.9918 -0.1248
vn -0.9645 -0.1566 -0.2129
vn -0.0188 -0.1030 -0.9945
vn -0.0324 -0.0146 0.9994
vn 0.9680 -0.0164 0.2504
vn 0.1097 0.9918 0.0652
vn -0.9776 -0.0753 0.1963
vn -0.1053 -0.3408 -0.9342
vn 0.2447 -0.3032 0.9210
vn 0.9860 -0.1268 -0.1084
vn -0.3409 0.9400 -0.0137
vn 0.3158 0.9400 -0.1292
vn -0.0034 0.9918 -0.1276
vn -0.9096 -0.1566 -0.3850
vn 0.1626 -0.1030 -0.9813
vn -0.2138 -0.0146 0.9768
vn 0.9062 -0.0164 0.4225
vn 0.0959 0.9918 0.0841
vn -0.9970 -0.0753 0.0150
vn 0.0666 -0.3408 -0.9378
vn 0.0729 -0.3032 0.9501
vn 0.9892 -0.1268 0.0730
vn -0.3407 0.9400 0.0190
vn 0.3020 0.9400 -0.1588
vn -0.0156 0.9918 -0.1266
vn -0.9422 -0.1566 -0.2961
vn 0.0679 -0.1030 -0.9924
vn -0.1193 -0.0146 0.9927
vn 0.9425 -0.0164 0.3337
vn 0.1036 0.9918 0.0746
vn -0.9910 -0.0753 0.1104
vn -0.0235 -0.3408 -0.9399
vn 0.1636 -0.3032 0.9388
vn 0.9917 -0.1268 -0.0221
vn -0.3397 0.9400 0.0316
vn 0.2959 0.9400 -0.1699
vn -0.0202 0.9918 -0.1260
vn -0.9525 -0.1566 -0.2611
vn 0.0312 -0.1030 -0.9942
vn -0.0826 -0.0146 0.9965
vn 0.9542 -0.0164 0.2987
vn 0.1062 0.9918 0.0707
vn -0.9863 -0.0753 0.1469
vn -0.0582 -0.3408 -0.9383
vn 0.1982 -0.3032 0.9321
vn 0.9902 -0.1268 -0.0587
vn -0.3380 0.9400 0.0464
vn 0.2882 0.9400 -0.1827
vn -0.0257 0.9918 -0.1250
vn -0.9631 -0.1566 -0.2191
vn -0.0124 -0.1030 -0.9946
vn -0.0388 -0.0146 0.9991
vn 0.9664 -0.0164 0.2566
vn 0.1092 0.9918 0.0660
vn -0.9789 -0.0753 0.1901
vn -0.0993 -0.3408 -0.9349
vn 0.2388 -0.3032 0.9225
vn 0.9867 -0.1268 -0.1020
vn -0.3409 0.9400 0.0145
vn 0.3040 0.9400 -0.1549
vn -0.0139 0.9918 -0.1268
vn -0.9383 -0.1566 -0.3084
vn 0.0808 -0.1030 -0.9914
vn -0.1323 -0.0146 0.9911
vn 0.9381 -0.0164 0.3460
vn 0.1026 0.9918 0.0759
vn -0.9924 -0.0753 0.0975
vn -0.0112 -0.3408 -0.9401
vn 0.1513 -0.3032 0.9408
vn 0.9919 -0.1268 -0.0091
vt 0.002320 0.012212
vt 0.997283 0.012212
vt 0.997283 0.503371
vt 0.002320 0.503371
vt 0.997283 0.990088
vt 0.002320 0.990088
s 1
f 222/1/1 99/2/2 97/2/3
f 134/3/4 1/1/5 98/2/6
f 140/4/7 224/1/8 223/1/9
f 131/3/10 3/2/11 4/2/12
f 137/4/13 100/2/14 225/1/15
f 222/1/1 2/1/16 99/2/2
f 134/3/4 38/4/17 1/1/5
f 140/4/7 40/4/18 224/1/8
f 131/3/10 41/3/19 3/2/11
f 137/4/13 39/3/20 100/2/14
f 226/1/21 103/2/22 101/2/23
f 146/3/24 5/1/25 102/2/26
f 152/4/27 228/1/28 227/1/29
f 143/3/30 7/2/31 8/2/32
f 149/4/33 104/2/34 229/1/35
f 226/1/21 6/1/36 103/2/22
f 146/3/24 46/4/37 5/1/25
f 152/4/27 48/4/38 228/1/28
f 143/3/30 49/3/39 7/2/31
f 149/4/33 47/3/40 104/2/34
f 230/1/41 107/2/42 105/2/43
f 158/3/44 9/1/45 106/2/46
f 164/4/47 232/1/48 231/1/49
f 155/3/50 11/2/51 12/2/52
f 161/4/53 108/2/54 233/1/55
f 230/1/41 10/1/56 107/2/42
f 158/3/44 54/4/57 9/1/45
f 164/4/47 56/4/58 232/1/48
f 155/3/50 57/3/59 11/2/51
f 161/4/53 55/3/60 108/2/54
f 234/1/61 111/2/62 109/2/63
f 170/3/64 13/1/65 110/2/66
f 176/4/67 236/1/68 235/1/69
f 167/3/70 15/2/71 16/2/72
f 173/4/73 112/2/74 237/1/75
f 234/1/61 14/1/76 111/2/62
f 170/3/64 62/4/77 13/1/65
f 176/4/67 64/4/78 236/1/68
f 167/3/70 65/3/79 15/2/71
f 173/4/73 63/3/80 112/2/74
f 238/1/81 115/2/82 113/2/83
f 182/3/84 17/1/85 114/2/86
f 188/4/87 240/1/88 239/1/89
f 179/3/90 19/2/91 20/2/92
f 185/4/93 116/2/94 241/1/95
f 238/1/81 18/1/96 115/2/82
f 182/3/84 70/4/97 17/1/85
f 188/4/87 72/4/98 240/1/88
f 179/3/90 73/3/99 19/2/91
f 185/4/93 71/3/100 116/2/94
f 242/1/101 119/2/102 117/2/103
f 194/3/104 21/1/105 118/2/106
f 200/4/107 244/1/108 243/1/109
f 191/3/110 23/2/111 24/2/112
f 197/4/113 120/2/114 245/1/115
f 242/1/101 22/1/116 119/2/102
f 194/3/104 78/4/117 21/1/105
f 200/4/107 80/4/118 244/1/108
f 191/3/110 81/3/119 23/2/111
f 197/4/113 79/3/120 120/2/114
f 246/1/121 123/2/122 121/2/123
f 206/3/124 25/1/125 122/2/126
f 209/4/127 248/1/128 247/1/129
f 203/3/130 27/2/131 28/2/132
f 250/4/133 124/2/134 249/1/135
f 246/1/121 26/1/136 123/2/122
f 206/3/124 86/4/137 25/1/125
f 209/4/127 29/4/138 248/1/128
f 203/3/130 88/3/139 27/2/131
f 250/4/133 87/3/140 124/2/134
f 251/1/141 127/2/142 125/2/143
f 215/3/144 30/1/145 126/2/146
f 221/4/147 253/1/148 252/1/149
f 212/3/150 32/2/151 33/2/152
f 218/4/153 128/2/154 254/1/155
f 251/1/141 31/1/156 127/2/142
f 215/3/144 93/4/157 30/1/145
f 221/4/147 95/4/158 253/1/148
f 212/3/150 96/3/159 32/2/151
f 218/4/153 94/3/160 128/2/154
f 133/5/161 136/6/162 139/6/163
f 135/6/164 39/3/20 137/4/13
f 129/5/165 41/3/19 131/3/10
f 138/6/166 40/4/18 140/4/7
f 132/5/167 38/4/17 134/3/4
f 133/5/161 130/5/168 136/6/162
f 135/6/164 37/5/169 39/3/20
f 129/5/165 36/5/170 41/3/19
f 138/6/166 35/6/171 40/4/18
f 132/5/167 34/6/172 38/4/17
f 145/5/173 148/6/174 151/6/175
f 147/6/176 47/3/40 149/4/33
f 141/5/177 49/3/39 143/3/30
f 150/6/178 48/4/38 152/4/27
f 144/5/179 46/4/37 146/3/24
f 145/5/173 142/5/180 148/6/174
f 147/6/176 45/5/181 47/3/40
f 141/5/177 44/5/182 49/3/39
f 150/6/178 43/6/183 48/4/38
f 144/5/179 42/6/184 46/4/37
f 157/5/185 160/6/186 163/6/187
f 159/6/188 55/3/60 161/4/53
f 153/5/189 57/3/59 155/3/50
f 162/6/190 56/4/58 164/4/47
f 156/5/191 54/4/57 158/3/44
f 157/5/185 154/5/192 160/6/186
f 159/6/188 53/5/193 55/3/60
f 153/5/189 52/5/194 57/3/59
f 162/6/190 51/6/195 56/4/58
f 156/5/191 50/6/196 54/4/57
f 169/5/197 172/6/198 175/6/199
f 171/6/200 63/3/80 173/4/73
f 165/5/201 65/3/79 167/3/70
f 174/6/202 64/4/78 176/4/67
f 168/5/203 62/4/77 170/3/64
f 169/5/197 166/5/204 172/6/198
f 171/6/200 61/5/205 63/3/80
f 165/5/201 60/5/206 65/3/79
f 174/6/202 59/6/207 64/4/78
f 168/5/203 58/6/208 62/4/77
f 181/5/209 184/6/210 187/6/211
f 183/6/212 71/3/100 185/4/93
f 177/5/213 73/3/99 179/3/90
f 186/6/214 72/4/98 188/4/87
f 180/5/215 70/4/97 182/3/84
f 181/5/209 178/5/216 184/6/210
f 183/6/212 69/5/217 71/3/100
f 177/5/213 68/5/218 73/3/99
f 186/6/214 67/6/219 72/4/98
f 180/5/215 66/6/220 70/4/97
f 193/5/221 196/6/222 199/6/223
f 195/6/224 79/3/120 197/4/113
f 189/5/225 81/3/119 191/3/110
f 198/6/226 80/4/118 200/4/107
f 192/5/227 78/4/117 194/3/104
f 193/5/221 190/5/228 196/6/222
f 195/6/224 77/5/229 79/3/120
f 189/5/225 76/5/230 81/3/119
f 198/6/226 75/6/231 80/4/118
f 192/5/227 74/6/232 78/4/117
f 205/5/233 255/6/234 208/6/235
f 256/6/236 87/3/140 250/4/133
f 201/5/237 88/3/139 203/3/130
f 207/6/238 29/4/138 209/4/127
f 204/5/239 86/4/137 206/3/124
f 205/5/233 202/5/240 255/6/234
f 256/6/236 85/5/241 87/3/140
f 201/5/237 84/5/242 88/3/139
f 207/6/238 83/6/243 29/4/138
f 204/5/239 82/6/244 86/4/137
f 214/5/245 217/6/246 220/6/247
f 216/6/248 94/3/160 218/4/153
f 210/5/249 96/3/159 212/3/150
f 219/6/250 95/4/158 221/4/147
f 213/5/251 93/4/157 215/3/144
f 214/5/245 211/5/252 217/6/246
f 216/6/248 92/5/253 94/3/160
f 210/5/249 91/5/254 96/3/159
f 219/6/250 90/6/255 95/4/158
f 213/5/251 89/6/256 93/4/157
