# Blender 5.0.0
# www.blender.org
o Cavalrymen
v 0.014605 0.000000 0.254276
v -0.045393 0.000000 0.254702
v 0.013468 0.000000 0.094280
v -0.046531 0.000000 0.094706
v -0.050974 -0.000000 -0.138317
v -0.109778 -0.000000 -0.126400
v -0.082752 -0.000000 -0.295129
v -0.141557 -0.000000 -0.283213
v 0.132745 0.000000 0.066716
v 0.072755 0.000000 0.067805
v 0.129842 -0.000000 -0.093257
v 0.069852 -0.000000 -0.092169
v 0.072755 0.069321 0.067805
v 0.033203 -0.000000 -0.001215
v -0.026487 0.000000 0.004879
v 0.016952 -0.000000 -0.160388
v -0.042738 -0.000000 -0.154294
v 0.014605 0.119321 0.254277
v -0.045393 0.119321 0.254703
v 0.013468 0.119321 0.094281
v -0.046531 0.119321 0.094707
v 0.014605 0.069321 0.254276
v -0.046531 0.069321 0.094707
v -0.045393 0.069321 0.254703
v 0.013468 0.069321 0.094280
v -0.050973 0.119321 -0.138316
v -0.109778 0.119321 -0.126399
v -0.082752 0.119321 -0.295128
v -0.141556 0.119321 -0.283211
v -0.050974 0.069321 -0.138316
v -0.141556 0.069321 -0.283212
v -0.109778 0.069321 -0.126400
v -0.082752 0.069321 -0.295129
v 0.132745 0.119321 0.066717
v 0.072755 0.119321 0.067806
v 0.129842 0.119321 -0.093256
v 0.069852 0.119321 -0.092168
v 0.132745 0.069321 0.066717
v 0.069852 0.069321 -0.092168
v 0.129842 0.069321 -0.093257
v 0.033203 0.119321 -0.001214
v -0.026486 0.119321 0.004880
v 0.016952 0.119321 -0.160387
v -0.042738 0.119321 -0.154293
v 0.033203 0.069321 -0.001215
v -0.042738 0.069321 -0.154293
v -0.026486 0.069321 0.004880
v 0.016952 0.069321 -0.160387
v 0.013468 0.000000 0.094280
v 0.013468 0.000000 0.094280
v -0.046531 0.000000 0.094706
v -0.046531 0.000000 0.094706
v -0.082752 -0.000000 -0.295129
v -0.082752 -0.000000 -0.295129
v -0.141557 -0.000000 -0.283213
v -0.141557 -0.000000 -0.283213
v 0.129842 -0.000000 -0.093257
v 0.129842 -0.000000 -0.093257
v 0.069852 -0.000000 -0.092169
v 0.069852 -0.000000 -0.092169
v 0.016952 -0.000000 -0.160388
v 0.016952 -0.000000 -0.160388
v -0.042738 -0.000000 -0.154294
v -0.042738 -0.000000 -0.154294
v -0.046531 0.119321 0.094707
v -0.046531 0.119321 0.094707
v -0.046531 0.069321 0.094707
v 0.013468 0.119321 0.094281
v 0.013468 0.119321 0.094281
v 0.013468 0.069321 0.094280
v -0.045393 0.119321 0.254703
v -0.045393 0.119321 0.254703
v -0.045393 0.069321 0.254703
v 0.014605 0.119321 0.254277
v 0.014605 0.119321 0.254277
v 0.014605 0.069321 0.254276
v -0.141556 0.119321 -0.283211
v -0.141556 0.119321 -0.283211
v -0.141556 0.069321 -0.283212
v -0.082752 0.119321 -0.295128
v -0.082752 0.119321 -0.295128
v -0.082752 0.069321 -0.295129
v -0.109778 0.119321 -0.126399
v -0.109778 0.119321 -0.126399
v -0.109778 0.069321 -0.126400
v -0.050973 0.119321 -0.138316
v -0.050973 0.119321 -0.138316
v -0.050974 0.069321 -0.138316
v 0.069852 0.119321 -0.092168
v 0.069852 0.119321 -0.092168
v 0.069852 0.069321 -0.092168
v 0.129842 0.119321 -0.093256
v 0.129842 0.119321 -0.093256
v 0.129842 0.069321 -0.093257
v 0.132745 0.119321 0.066717
v 0.132745 0.119321 0.066717
v 0.132745 0.069321 0.066717
v -0.042738 0.119321 -0.154293
v -0.042738 0.119321 -0.154293
v -0.042738 0.069321 -0.154293
v 0.016952 0.119321 -0.160387
v 0.016952 0.119321 -0.160387
v 0.016952 0.069321 -0.160387
v -0.026486 0.119321 0.004880
v -0.026486 0.119321 0.004880
v -0.026486 0.069321 0.004880
v 0.033203 0.119321 -0.001214
v 0.033203 0.119321 -0.001214
v 0.033203 0.069321 -0.001215
v 0.014605 0.000000 0.254276
v 0.014605 0.000000 0.254276
v -0.045393 0.000000 0.254702
v -0.045393 0.000000 0.254702
v -0.050974 -0.000000 -0.138317
v -0.050974 -0.000000 -0.138317
v -0.109778 -0.000000 -0.126400
v -0.109778 -0.000000 -0.126400
v 0.132745 0.000000 0.066716
v 0.132745 0.000000 0.066716
v 0.072755 0.000000 0.067805
v 0.072755 0.000000 0.067805
v 0.072755 0.069321 0.067805
v 0.033203 -0.000000 -0.001215
v 0.033203 -0.000000 -0.001215
v -0.026487 0.000000 0.004879
v -0.026487 0.000000 0.004879
v 0.072755 0.119321 0.067806
v 0.072755 0.119321 0.067806
vn -0.3409 -0.9400 -0.0140
vn 0.3043 -0.9400 0.1544
vn -0.0137 -0.9918 0.1269
vn 0.9462 -0.3131 0.0816
vn 0.9375 0.0164 -0.3475
vn 0.9919 0.1268 0.0076
vn -0.2792 0.1602 0.9468
vn 0.0578 0.1171 0.9914
vn -0.0097 0.3408 0.9401
vn 0.2792 0.1603 -0.9468
vn -0.1338 0.0146 -0.9909
vn 0.1499 0.3032 -0.9411
vn -0.9462 -0.3131 -0.0816
vn -0.9378 0.1566 0.3098
vn -0.9926 0.0507 -0.1100
vn 0.1167 -0.9918 -0.0515
vn 0.9427 -0.1602 -0.2926
vn 0.0950 0.3131 0.9450
vn -0.0950 0.3131 -0.9450
vn -0.9427 -0.1603 0.2927
vn -0.3373 -0.9400 0.0516
vn 0.3282 -0.9400 0.0932
vn 0.0108 -0.9918 0.1271
vn 0.9443 -0.3131 -0.1013
vn 0.8536 0.0164 -0.5207
vn 0.9750 0.1268 -0.1827
vn -0.0926 0.1602 0.9827
vn 0.2467 0.1171 0.9620
vn 0.1706 0.3408 0.9245
vn 0.0926 0.1603 -0.9827
vn -0.3212 0.0146 -0.9469
vn -0.0333 0.3032 -0.9524
vn -0.9443 -0.3131 0.1013
vn -0.8611 0.1566 0.4838
vn -0.9953 0.0507 0.0822
vn 0.1047 -0.9918 -0.0730
vn 0.8691 -0.1602 -0.4679
vn 0.2743 0.3131 0.9092
vn -0.2743 0.3131 -0.9092
vn -0.8691 -0.1603 0.4679
vn -0.3410 -0.9400 -0.0102
vn 0.3059 -0.9400 0.1510
vn -0.0123 -0.9918 0.1270
vn 0.9471 -0.3131 0.0711
vn 0.9337 0.0164 -0.3578
vn 0.9919 0.1268 -0.0034
vn -0.2687 0.1602 0.9498
vn 0.0687 0.1171 0.9907
vn 0.0006 0.3408 0.9401
vn 0.2688 0.1603 -0.9498
vn -0.1447 0.0146 -0.9894
vn 0.1395 0.3032 -0.9427
vn -0.9471 -0.3131 -0.0712
vn -0.9343 0.1566 0.3202
vn -0.9938 0.0507 -0.0991
vn 0.1161 -0.9918 -0.0528
vn 0.9394 -0.1602 -0.3030
vn 0.1055 0.3130 0.9439
vn -0.1054 0.3131 -0.9439
vn -0.9394 -0.1603 0.3031
vn -0.3407 -0.9400 0.0183
vn 0.3175 -0.9400 0.1250
vn -0.0017 -0.9918 0.1276
vn 0.9497 -0.3131 -0.0082
vn 0.9005 0.0164 -0.4345
vn 0.9882 0.1268 -0.0862
vn -0.1885 0.1602 0.9689
vn 0.1512 0.1171 0.9815
vn 0.0791 0.3408 0.9368
vn 0.1885 0.1603 -0.9689
vn -0.2268 0.0146 -0.9738
vn 0.0603 0.3032 -0.9510
vn -0.9497 -0.3131 0.0082
vn -0.9043 0.1566 0.3971
vn -0.9986 0.0507 -0.0157
vn 0.1113 -0.9918 -0.0623
vn 0.9108 -0.1602 -0.3804
vn 0.1839 0.3131 0.9318
vn -0.1839 0.3131 -0.9318
vn -0.9108 -0.1603 0.3804
vn -0.3407 0.9400 0.0189
vn 0.3020 0.9400 -0.1587
vn -0.0155 0.9918 -0.1267
vn -0.9421 -0.1566 -0.2965
vn 0.0683 -0.1030 -0.9923
vn -0.1197 -0.0146 0.9927
vn 0.9424 -0.0164 0.3341
vn 0.1035 0.9918 0.0746
vn -0.9911 -0.0753 0.1100
vn -0.0231 -0.3408 -0.9399
vn 0.1632 -0.3032 0.9389
vn 0.9917 -0.1268 -0.0217
vn -0.3307 0.9400 0.0838
vn 0.2660 0.9400 -0.2136
vn -0.0395 0.9918 -0.1213
vn -0.9815 -0.1566 -0.1104
vn -0.1232 -0.1030 -0.9870
vn 0.0728 -0.0146 0.9972
vn 0.9890 -0.0164 0.1473
vn 0.1159 0.9918 0.0534
vn -0.9516 -0.0753 0.2979
vn -0.2028 -0.3408 -0.9180
vn 0.3401 -0.3032 0.8902
vn 0.9692 -0.1268 -0.2113
vn -0.3404 0.9400 0.0226
vn 0.3003 0.9400 -0.1620
vn -0.0169 0.9918 -0.1265
vn -0.9453 -0.1566 -0.2860
vn 0.0573 -0.1030 -0.9930
vn -0.1087 -0.0146 0.9940
vn 0.9460 -0.0164 0.3237
vn 0.1043 0.9918 0.0734
vn -0.9898 -0.0753 0.1210
vn -0.0335 -0.3408 -0.9395
vn 0.1736 -0.3032 0.9370
vn 0.9914 -0.1268 -0.0326
vn -0.3374 0.9400 0.0510
vn 0.2857 0.9400 -0.1865
vn -0.0274 0.9918 -0.1246
vn -0.9659 -0.1566 -0.2061
vn -0.0258 -0.1030 -0.9943
vn -0.0254 -0.0146 0.9996
vn 0.9697 -0.0164 0.2436
vn 0.1101 0.9918 0.0645
vn -0.9762 -0.0753 0.2032
vn -0.1118 -0.3408 -0.9335
vn 0.2512 -0.3032 0.9192
vn 0.9852 -0.1268 -0.1153
vt 0.002320 0.012212
vt 0.997283 0.012212
vt 0.997283 0.503371
vt 0.002320 0.503371
vt 0.997283 0.990088
vt 0.002320 0.990088
s 1
f 110/1/1 51/2/2 49/2/3
f 70/3/4 1/1/5 50/2/6
f 76/4/7 112/1/8 111/1/9
f 67/3/10 3/2/11 4/2/12
f 73/4/13 52/2/14 113/1/15
f 110/1/1 2/1/16 51/2/2
f 70/3/4 22/4/17 1/1/5
f 76/4/7 24/4/18 112/1/8
f 67/3/10 25/3/19 3/2/11
f 73/4/13 23/3/20 52/2/14
f 114/1/21 55/2/22 53/2/23
f 82/3/24 5/1/25 54/2/26
f 88/4/27 116/1/28 115/1/29
f 79/3/30 7/2/31 8/2/32
f 85/4/33 56/2/34 117/1/35
f 114/1/21 6/1/36 55/2/22
f 82/3/24 30/4/37 5/1/25
f 88/4/27 32/4/38 116/1/28
f 79/3/30 33/3/39 7/2/31
f 85/4/33 31/3/40 56/2/34
f 118/1/41 59/2/42 57/2/43
f 94/3/44 9/1/45 58/2/46
f 97/4/47 120/1/48 119/1/49
f 91/3/50 11/2/51 12/2/52
f 122/4/53 60/2/54 121/1/55
f 118/1/41 10/1/56 59/2/42
f 94/3/44 38/4/57 9/1/45
f 97/4/47 13/4/58 120/1/48
f 91/3/50 40/3/59 11/2/51
f 122/4/53 39/3/60 60/2/54
f 123/1/61 63/2/62 61/2/63
f 103/3/64 14/1/65 62/2/66
f 109/4/67 125/1/68 124/1/69
f 100/3/70 16/2/71 17/2/72
f 106/4/73 64/2/74 126/1/75
f 123/1/61 15/1/76 63/2/62
f 103/3/64 45/4/77 14/1/65
f 109/4/67 47/4/78 125/1/68
f 100/3/70 48/3/79 16/2/71
f 106/4/73 46/3/80 64/2/74
f 69/5/81 72/6/82 75/6/83
f 71/6/84 23/3/20 73/4/13
f 65/5/85 25/3/19 67/3/10
f 74/6/86 24/4/18 76/4/7
f 68/5/87 22/4/17 70/3/4
f 69/5/81 66/5/88 72/6/82
f 71/6/84 21/5/89 23/3/20
f 65/5/85 20/5/90 25/3/19
f 74/6/86 19/6/91 24/4/18
f 68/5/87 18/6/92 22/4/17
f 81/5/93 84/6/94 87/6/95
f 83/6/96 31/3/40 85/4/33
f 77/5/97 33/3/39 79/3/30
f 86/6/98 32/4/38 88/4/27
f 80/5/99 30/4/37 82/3/24
f 81/5/93 78/5/100 84/6/94
f 83/6/96 29/5/101 31/3/40
f 77/5/97 28/5/102 33/3/39
f 86/6/98 27/6/103 32/4/38
f 80/5/99 26/6/104 30/4/37
f 93/5/105 127/6/106 96/6/107
f 128/6/108 39/3/60 122/4/53
f 89/5/109 40/3/59 91/3/50
f 95/6/110 13/4/58 97/4/47
f 92/5/111 38/4/57 94/3/44
f 93/5/105 90/5/112 127/6/106
f 128/6/108 37/5/113 39/3/60
f 89/5/109 36/5/114 40/3/59
f 95/6/110 35/6/115 13/4/58
f 92/5/111 34/6/116 38/4/57
f 102/5/117 105/6/118 108/6/119
f 104/6/120 46/3/80 106/4/73
f 98/5/121 48/3/79 100/3/70
f 107/6/122 47/4/78 109/4/67
f 101/5/123 45/4/77 103/3/64
f 102/5/117 99/5/124 105/6/118
f 104/6/120 44/5/125 46/3/80
f 98/5/121 43/5/126 48/3/79
f 107/6/122 42/6/127 47/4/78
f 101/5/123 41/6/128 45/4/77
