# Blender 5.0.0
# www.blender.org
o Cavalrymen
v -0.090000 0.000000 0.278732
v -0.150000 0.000000 0.278732
v -0.090000 0.000000 0.118732
v -0.150000 0.000000 0.118732
v 0.030000 0.000000 0.379970
v -0.030000 0.000000 0.379970
v 0.030000 0.000000 0.219970
v -0.030000 0.000000 0.219970
v -0.090000 -0.000000 -0.009548
v -0.150000 -0.000000 -0.009548
v -0.090000 -0.000000 -0.169548
v -0.150000 -0.000000 -0.169548
v 0.150000 -0.000000 -0.005159
v 0.090000 -0.000000 -0.005159
v 0.150000 -0.000000 -0.165159
v 0.090000 -0.000000 -0.165159
v 0.090000 0.069321 -0.005158
v 0.030000 -0.000000 -0.008880
v -0.030000 -0.000000 -0.008880
v 0.030000 -0.000000 -0.168880
v -0.030000 -0.000000 -0.168880
v -0.090000 0.119321 0.278733
v -0.150000 0.119321 0.278733
v -0.090000 0.119321 0.118733
v -0.150000 0.119321 0.118733
v -0.090000 0.069321 0.278733
v -0.150000 0.069321 0.118733
v -0.150000 0.069321 0.278733
v -0.090000 0.069321 0.118733
v 0.030000 0.119321 0.379971
v -0.030000 0.119321 0.379971
v 0.030000 0.119321 0.219971
v -0.030000 0.119321 0.219971
v 0.030000 0.069321 0.379970
v -0.030000 0.069321 0.219970
v -0.030000 0.069321 0.379970
v 0.030000 0.069321 0.219970
v -0.090000 0.119321 -0.009547
v -0.150000 0.119321 -0.009547
v -0.090000 0.119321 -0.169547
v -0.150000 0.119321 -0.169547
v -0.090000 0.069321 -0.009547
v -0.150000 0.069321 -0.169547
v -0.150000 0.069321 -0.009547
v -0.090000 0.069321 -0.169547
v 0.150000 0.119321 -0.005158
v 0.090000 0.119321 -0.005158
v 0.150000 0.119321 -0.165158
v 0.090000 0.119321 -0.165158
v 0.150000 0.069321 -0.005158
v 0.090000 0.069321 -0.165158
v 0.150000 0.069321 -0.165158
v 0.030000 0.119321 -0.008879
v -0.030000 0.119321 -0.008879
v 0.030000 0.119321 -0.168879
v -0.030000 0.119321 -0.168879
v 0.030000 0.069321 -0.008880
v -0.030000 0.069321 -0.168880
v -0.030000 0.069321 -0.008880
v 0.030000 0.069321 -0.168880
v -0.090000 0.000000 0.118732
v -0.090000 0.000000 0.118732
v -0.150000 0.000000 0.118732
v -0.150000 0.000000 0.118732
v 0.030000 0.000000 0.219970
v 0.030000 0.000000 0.219970
v -0.030000 0.000000 0.219970
v -0.030000 0.000000 0.219970
v -0.090000 -0.000000 -0.169548
v -0.090000 -0.000000 -0.169548
v -0.150000 -0.000000 -0.169548
v -0.150000 -0.000000 -0.169548
v 0.150000 -0.000000 -0.165159
v 0.150000 -0.000000 -0.165159
v 0.090000 -0.000000 -0.165159
v 0.090000 -0.000000 -0.165159
v 0.030000 -0.000000 -0.168880
v 0.030000 -0.000000 -0.168880
v -0.030000 -0.000000 -0.168880
v -0.030000 -0.000000 -0.168880
v -0.150000 0.119321 0.118733
v -0.150000 0.119321 0.118733
v -0.150000 0.069321 0.118733
v -0.090000 0.119321 0.118733
v -0.090000 0.119321 0.118733
v -0.090000 0.069321 0.118733
v -0.150000 0.119321 0.278733
v -0.150000 0.119321 0.278733
v -0.150000 0.069321 0.278733
v -0.090000 0.119321 0.278733
v -0.090000 0.119321 0.278733
v -0.090000 0.069321 0.278733
v -0.030000 0.119321 0.219971
v -0.030000 0.119321 0.219971
v -0.030000 0.069321 0.219970
v 0.030000 0.119321 0.219971
v 0.030000 0.119321 0.219971
v 0.030000 0.069321 0.219970
v -0.030000 0.119321 0.379971
v -0.030000 0.119321 0.379971
v -0.030000 0.069321 0.379970
v 0.030000 0.119321 0.379971
v 0.030000 0.119321 0.379971
v 0.030000 0.069321 0.379970
v -0.150000 0.119321 -0.169547
v -0.150000 0.119321 -0.169547
v -0.150000 0.069321 -0.169547
v -0.090000 0.119321 -0.169547
v -0.090000 0.119321 -0.169547
v -0.090000 0.069321 -0.169547
v -0.150000 0.119321 -0.009547
v -0.150000 0.119321 -0.009547
v -0.150000 0.069321 -0.009547
v -0.090000 0.119321 -0.009547
v -0.090000 0.119321 -0.009547
v -0.090000 0.069321 -0.009547
v 0.090000 0.119321 -0.165158
v 0.090000 0.119321 -0.165158
v 0.090000 0.069321 -0.165158
v 0.150000 0.119321 -0.165158
v 0.150000 0.119321 -0.165158
v 0.150000 0.069321 -0.165158
v 0.150000 0.119321 -0.005158
v 0.150000 0.119321 -0.005158
v 0.150000 0.069321 -0.005158
v -0.030000 0.119321 -0.168879
v -0.030000 0.119321 -0.168879
v -0.030000 0.069321 -0.168880
v 0.030000 0.119321 -0.168879
v 0.030000 0.119321 -0.168879
v 0.030000 0.069321 -0.168880
v -0.030000 0.119321 -0.008879
v -0.030000 0.119321 -0.008879
v -0.030000 0.069321 -0.008880
v 0.030000 0.119321 -0.008879
v 0.030000 0.119321 -0.008879
v 0.030000 0.069321 -0.008880
v -0.090000 0.000000 0.278732
v -0.090000 0.000000 0.278732
v -0.150000 0.000000 0.278732
v -0.150000 0.000000 0.278732
v 0.030000 0.000000 0.379970
v 0.030000 0.000000 0.379970
v -0.030000 0.000000 0.379970
v -0.030000 0.000000 0.379970
v -0.090000 -0.000000 -0.009548
v -0.090000 -0.000000 -0.009548
v -0.150000 -0.000000 -0.009548
v -0.150000 -0.000000 -0.009548
v 0.150000 -0.000000 -0.005159
v 0.150000 -0.000000 -0.005159
v 0.090000 -0.000000 -0.005159
v 0.090000 -0.000000 -0.005159
v 0.090000 0.069321 -0.005158
v 0.030000 -0.000000 -0.008880
v 0.030000 -0.000000 -0.008880
v -0.030000 -0.000000 -0.008880
v -0.030000 -0.000000 -0.008880
v 0.090000 0.119321 -0.005158
v 0.090000 0.119321 -0.005158
vn -0.3408 -0.9400 -0.0164
vn 0.3031 -0.9400 0.1566
vn -0.0146 -0.9918 0.1268
vn 0.9456 -0.3131 0.0883
vn 0.9400 0.0164 -0.3408
vn 0.9918 0.1268 0.0146
vn -0.2859 0.1602 0.9448
vn 0.0507 0.1171 0.9918
vn -0.0164 0.3408 0.9400
vn 0.2860 0.1603 -0.9447
vn -0.1268 0.0146 -0.9918
vn 0.1566 0.3032 -0.9400
vn -0.9456 -0.3131 -0.0883
vn -0.9400 0.1566 0.3031
vn -0.9918 0.0507 -0.1171
vn 0.1171 -0.9918 -0.0507
vn 0.9448 -0.1602 -0.2859
vn 0.0883 0.3131 0.9456
vn -0.0883 0.3131 -0.9456
vn -0.9447 -0.1603 0.2860
vn 0.0883 0.3130 0.9456
vn -0.3408 0.9400 0.0164
vn 0.3031 0.9400 -0.1566
vn -0.0146 0.9918 -0.1268
vn -0.9400 -0.1566 -0.3031
vn 0.0753 -0.1030 -0.9918
vn -0.1268 -0.0146 0.9918
vn 0.9400 -0.0164 0.3408
vn 0.1030 0.9918 0.0753
vn -0.9918 -0.0753 0.1030
vn -0.0164 -0.3408 -0.9400
vn 0.1566 -0.3032 0.9400
vn 0.9918 -0.1268 -0.0146
vt 0.002320 0.012212
vt 0.997283 0.012212
vt 0.997283 0.503371
vt 0.002320 0.503371
vt 0.997283 0.990088
vt 0.002320 0.990088
s 1
f 138/1/1 63/2/2 61/2/3
f 86/3/4 1/1/5 62/2/6
f 92/4/7 140/1/8 139/1/9
f 83/3/10 3/2/11 4/2/12
f 89/4/13 64/2/14 141/1/15
f 138/1/1 2/1/16 63/2/2
f 86/3/4 26/4/17 1/1/5
f 92/4/7 28/4/18 140/1/8
f 83/3/10 29/3/19 3/2/11
f 89/4/13 27/3/20 64/2/14
f 142/1/1 67/2/2 65/2/3
f 98/3/4 5/1/5 66/2/6
f 104/4/7 144/1/8 143/1/9
f 95/3/10 7/2/11 8/2/12
f 101/4/13 68/2/14 145/1/15
f 142/1/1 6/1/16 67/2/2
f 98/3/4 34/4/17 5/1/5
f 104/4/7 36/4/18 144/1/8
f 95/3/10 37/3/19 7/2/11
f 101/4/13 35/3/20 68/2/14
f 146/1/1 71/2/2 69/2/3
f 110/3/4 9/1/5 70/2/6
f 116/4/7 148/1/8 147/1/9
f 107/3/10 11/2/11 12/2/12
f 113/4/13 72/2/14 149/1/15
f 146/1/1 10/1/16 71/2/2
f 110/3/4 42/4/17 9/1/5
f 116/4/7 44/4/18 148/1/8
f 107/3/10 45/3/19 11/2/11
f 113/4/13 43/3/20 72/2/14
f 150/1/1 75/2/2 73/2/3
f 122/3/4 13/1/5 74/2/6
f 125/4/7 152/1/8 151/1/9
f 119/3/10 15/2/11 16/2/12
f 154/4/13 76/2/14 153/1/15
f 150/1/1 14/1/16 75/2/2
f 122/3/4 50/4/17 13/1/5
f 125/4/7 17/4/21 152/1/8
f 119/3/10 52/3/19 15/2/11
f 154/4/13 51/3/20 76/2/14
f 155/1/1 79/2/2 77/2/3
f 131/3/4 18/1/5 78/2/6
f 137/4/7 157/1/8 156/1/9
f 128/3/10 20/2/11 21/2/12
f 134/4/13 80/2/14 158/1/15
f 155/1/1 19/1/16 79/2/2
f 131/3/4 57/4/17 18/1/5
f 137/4/7 59/4/18 157/1/8
f 128/3/10 60/3/19 20/2/11
f 134/4/13 58/3/20 80/2/14
f 85/5/22 88/6/23 91/6/24
f 87/6/25 27/3/20 89/4/13
f 81/5/26 29/3/19 83/3/10
f 90/6/27 28/4/18 92/4/7
f 84/5/28 26/4/17 86/3/4
f 85/5/22 82/5/29 88/6/23
f 87/6/25 25/5/30 27/3/20
f 81/5/26 24/5/31 29/3/19
f 90/6/27 23/6/32 28/4/18
f 84/5/28 22/6/33 26/4/17
f 97/5/22 100/6/23 103/6/24
f 99/6/25 35/3/20 101/4/13
f 93/5/26 37/3/19 95/3/10
f 102/6/27 36/4/18 104/4/7
f 96/5/28 34/4/17 98/3/4
f 97/5/22 94/5/29 100/6/23
f 99/6/25 33/5/30 35/3/20
f 93/5/26 32/5/31 37/3/19
f 102/6/27 31/6/32 36/4/18
f 96/5/28 30/6/33 34/4/17
f 109/5/22 112/6/23 115/6/24
f 111/6/25 43/3/20 113/4/13
f 105/5/26 45/3/19 107/3/10
f 114/6/27 44/4/18 116/4/7
f 108/5/28 42/4/17 110/3/4
f 109/5/22 106/5/29 112/6/23
f 111/6/25 41/5/30 43/3/20
f 105/5/26 40/5/31 45/3/19
f 114/6/27 39/6/32 44/4/18
f 108/5/28 38/6/33 42/4/17
f 121/5/22 159/6/23 124/6/24
f 160/6/25 51/3/20 154/4/13
f 117/5/26 52/3/19 119/3/10
f 123/6/27 17/4/21 125/4/7
f 120/5/28 50/4/17 122/3/4
f 121/5/22 118/5/29 159/6/23
f 160/6/25 49/5/30 51/3/20
f 117/5/26 48/5/31 52/3/19
f 123/6/27 47/6/32 17/4/21
f 120/5/28 46/6/33 50/4/17
f 130/5/22 133/6/23 136/6/24
f 132/6/25 58/3/20 134/4/13
f 126/5/26 60/3/19 128/3/10
f 135/6/27 59/4/18 137/4/7
f 129/5/28 57/4/17 131/3/4
f 130/5/22 127/5/29 133/6/23
f 132/6/25 56/5/30 58/3/20
f 126/5/26 55/5/31 60/3/19
f 135/6/27 54/6/32 59/4/18
f 129/5/28 53/6/33 57/4/17
