# Blender 5.0.0
# www.blender.org
o Cavalrymen
v 0.030000 0.000000 0.179999
v -0.030000 0.000000 0.179999
v 0.030000 0.000000 0.019999
v -0.030000 0.000000 0.019999
v -0.090000 -0.000000 -0.020001
v -0.150000 -0.000000 -0.020001
v -0.090000 -0.000000 -0.180001
v -0.150000 -0.000000 -0.180001
v 0.150000 -0.000000 -0.020001
v 0.090000 -0.000000 -0.020001
v 0.150000 -0.000000 -0.180001
v 0.090000 -0.000000 -0.180001
v 0.090000 0.069321 -0.020000
v 0.030000 -0.000000 -0.020001
v -0.030000 -0.000000 -0.020001
v 0.030000 -0.000000 -0.180001
v -0.030000 -0.000000 -0.180001
v 0.030000 0.119321 0.180001
v -0.030000 0.119321 0.180001
v 0.030000 0.119321 0.020001
v -0.030000 0.119321 0.020001
v 0.030000 0.069321 0.180000
v -0.030000 0.069321 0.020000
v -0.030000 0.069321 0.180000
v 0.030000 0.069321 0.020000
v -0.090000 0.119321 -0.019999
v -0.150000 0.119321 -0.019999
v -0.090000 0.119321 -0.180000
v -0.150000 0.119321 -0.180000
v -0.090000 0.069321 -0.020000
v -0.150000 0.069321 -0.180000
v -0.150000 0.069321 -0.020000
v -0.090000 0.069321 -0.180000
v 0.150000 0.119321 -0.019999
v 0.090000 0.119321 -0.019999
v 0.150000 0.119321 -0.180000
v 0.090000 0.119321 -0.180000
v 0.150000 0.069321 -0.020000
v 0.090000 0.069321 -0.180000
v 0.150000 0.069321 -0.180000
v 0.030000 0.119321 -0.019999
v -0.030000 0.119321 -0.019999
v 0.030000 0.119321 -0.180000
v -0.030000 0.119321 -0.180000
v 0.030000 0.069321 -0.020000
v -0.030000 0.069321 -0.180000
v -0.030000 0.069321 -0.020000
v 0.030000 0.069321 -0.180000
v 0.030000 0.000000 0.019999
v 0.030000 0.000000 0.019999
v -0.030000 0.000000 0.019999
v -0.030000 0.000000 0.019999
v -0.090000 -0.000000 -0.180001
v -0.090000 -0.000000 -0.180001
v -0.150000 -0.000000 -0.180001
v -0.150000 -0.000000 -0.180001
v 0.150000 -0.000000 -0.180001
v 0.150000 -0.000000 -0.180001
v 0.090000 -0.000000 -0.180001
v 0.090000 -0.000000 -0.180001
v 0.030000 -0.000000 -0.180001
v 0.030000 -0.000000 -0.180001
v -0.030000 -0.000000 -0.180001
v -0.030000 -0.000000 -0.180001
v -0.030000 0.119321 0.020001
v -0.030000 0.119321 0.020001
v -0.030000 0.069321 0.020000
v 0.030000 0.119321 0.020001
v 0.030000 0.119321 0.020001
v 0.030000 0.069321 0.020000
v -0.030000 0.119321 0.180001
v -0.030000 0.119321 0.180001
v -0.030000 0.069321 0.180000
v 0.030000 0.119321 0.180001
v 0.030000 0.119321 0.180001
v 0.030000 0.069321 0.180000
v -0.150000 0.119321 -0.180000
v -0.150000 0.119321 -0.180000
v -0.150000 0.069321 -0.180000
v -0.090000 0.119321 -0.180000
v -0.090000 0.119321 -0.180000
v -0.090000 0.069321 -0.180000
v -0.150000 0.119321 -0.019999
v -0.150000 0.119321 -0.019999
v -0.150000 0.069321 -0.020000
v -0.090000 0.119321 -0.019999
v -0.090000 0.119321 -0.019999
v -0.090000 0.069321 -0.020000
v 0.090000 0.119321 -0.180000
v 0.090000 0.119321 -0.180000
v 0.090000 0.069321 -0.180000
v 0.150000 0.119321 -0.180000
v 0.150000 0.119321 -0.180000
v 0.150000 0.069321 -0.180000
v 0.150000 0.119321 -0.019999
v 0.150000 0.119321 -0.019999
v 0.150000 0.069321 -0.020000
v -0.030000 0.119321 -0.180000
v -0.030000 0.119321 -0.180000
v -0.030000 0.069321 -0.180000
v 0.030000 0.119321 -0.180000
v 0.030000 0.119321 -0.180000
v 0.030000 0.069321 -0.180000
v -0.030000 0.119321 -0.019999
v -0.030000 0.119321 -0.019999
v -0.030000 0.069321 -0.020000
v 0.030000 0.119321 -0.019999
v 0.030000 0.119321 -0.019999
v 0.030000 0.069321 -0.020000
v 0.030000 0.000000 0.179999
v 0.030000 0.000000 0.179999
v -0.030000 0.000000 0.179999
v -0.030000 0.000000 0.179999
v -0.090000 -0.000000 -0.020001
v -0.090000 -0.000000 -0.020001
v -0.150000 -0.000000 -0.020001
v -0.150000 -0.000000 -0.020001
v 0.150000 -0.000000 -0.020001
v 0.150000 -0.000000 -0.020001
v 0.090000 -0.000000 -0.020001
v 0.090000 -0.000000 -0.020001
v 0.090000 0.069321 -0.020000
v 0.030000 -0.000000 -0.020001
v 0.030000 -0.000000 -0.020001
v -0.030000 -0.000000 -0.020001
v -0.030000 -0.000000 -0.020001
v 0.090000 0.119321 -0.019999
v 0.090000 0.119321 -0.019999
vn -0.3408 -0.9400 -0.0164
vn 0.3031 -0.9400 0.1566
vn -0.0146 -0.9918 0.1268
vn 0.9456 -0.3131 0.0883
vn 0.9400 0.0164 -0.3408
vn 0.9918 0.1268 0.0146
vn -0.2859 0.1602 0.9448
vn 0.0507 0.1171 0.9918
vn -0.0164 0.3408 0.9400
vn 0.2860 0.1603 -0.9447
vn -0.1268 0.0146 -0.9918
vn 0.1566 0.3032 -0.9400
vn -0.9456 -0.3131 -0.0883
vn -0.9400 0.1566 0.3031
vn -0.9918 0.0507 -0.1171
vn 0.1171 -0.9918 -0.0507
vn 0.9448 -0.1602 -0.2859
vn 0.0883 0.3131 0.9456
vn -0.0883 0.3131 -0.9456
vn -0.9447 -0.1603 0.2860
vn 0.0883 0.3130 0.9456
vn -0.3408 0.9400 0.0164
vn 0.3031 0.9400 -0.1566
vn -0.0146 0.9918 -0.1268
vn -0.9400 -0.1566 -0.3031
vn 0.0753 -0.1030 -0.9918
vn -0.1268 -0.0146 0.9918
vn 0.9400 -0.0164 0.3408
vn 0.1030 0.9918 0.0753
vn -0.9918 -0.0753 0.1030
vn -0.0164 -0.3408 -0.9400
vn 0.1566 -0.3032 0.9400
vn 0.9918 -0.1268 -0.0146
vt 0.002320 0.012212
vt 0.997283 0.012212
vt 0.997283 0.503371
vt 0.002320 0.503371
vt 0.997283 0.990088
vt 0.002320 0.990088
s 1
f 110/1/1 51/2/2 49/2/3
f 70/3/4 1/1/5 50/2/6
f 76/4/7 112/1/8 111/1/9
f 67/3/10 3/2/11 4/2/12
f 73/4/13 52/2/14 113/1/15
f 110/1/1 2/1/16 51/2/2
f 70/3/4 22/4/17 1/1/5
f 76/4/7 24/4/18 112/1/8
f 67/3/10 25/3/19 3/2/11
f 73/4/13 23/3/20 52/2/14
f 114/1/1 55/2/2 53/2/3
f 82/3/4 5/1/5 54/2/6
f 88/4/7 116/1/8 115/1/9
f 79/3/10 7/2/11 8/2/12
f 85/4/13 56/2/14 117/1/15
f 114/1/1 6/1/16 55/2/2
f 82/3/4 30/4/17 5/1/5
f 88/4/7 32/4/18 116/1/8
f 79/3/10 33/3/19 7/2/11
f 85/4/13 31/3/20 56/2/14
f 118/1/1 59/2/2 57/2/3
f 94/3/4 9/1/5 58/2/6
f 97/4/7 120/1/8 119/1/9
f 91/3/10 11/2/11 12/2/12
f 122/4/13 60/2/14 121/1/15
f 118/1/1 10/1/16 59/2/2
f 94/3/4 38/4/17 9/1/5
f 97/4/7 13/4/21 120/1/8
f 91/3/10 40/3/19 11/2/11
f 122/4/13 39/3/20 60/2/14
f 123/1/1 63/2/2 61/2/3
f 103/3/4 14/1/5 62/2/6
f 109/4/7 125/1/8 124/1/9
f 100/3/10 16/2/11 17/2/12
f 106/4/13 64/2/14 126/1/15
f 123/1/1 15/1/16 63/2/2
f 103/3/4 45/4/17 14/1/5
f 109/4/7 47/4/18 125/1/8
f 100/3/10 48/3/19 16/2/11
f 106/4/13 46/3/20 64/2/14
f 69/5/22 72/6/23 75/6/24
f 71/6/25 23/3/20 73/4/13
f 65/5/26 25/3/19 67/3/10
f 74/6/27 24/4/18 76/4/7
f 68/5/28 22/4/17 70/3/4
f 69/5/22 66/5/29 72/6/23
f 71/6/25 21/5/30 23/3/20
f 65/5/26 20/5/31 25/3/19
f 74/6/27 19/6/32 24/4/18
f 68/5/28 18/6/33 22/4/17
f 81/5/22 84/6/23 87/6/24
f 83/6/25 31/3/20 85/4/13
f 77/5/26 33/3/19 79/3/10
f 86/6/27 32/4/18 88/4/7
f 80/5/28 30/4/17 82/3/4
f 81/5/22 78/5/29 84/6/23
f 83/6/25 29/5/30 31/3/20
f 77/5/26 28/5/31 33/3/19
f 86/6/27 27/6/32 32/4/18
f 80/5/28 26/6/33 30/4/17
f 93/5/22 127/6/23 96/6/24
f 128/6/25 39/3/20 122/4/13
f 89/5/26 40/3/19 91/3/10
f 95/6/27 13/4/21 97/4/7
f 92/5/28 38/4/17 94/3/4
f 93/5/22 90/5/29 127/6/23
f 128/6/25 37/5/30 39/3/20
f 89/5/26 36/5/31 40/3/19
f 95/6/27 35/6/32 13/4/21
f 92/5/28 34/6/33 38/4/17
f 102/5/22 105/6/23 108/6/24
f 104/6/25 46/3/20 106/4/13
f 98/5/26 48/3/19 100/3/10
f 107/6/27 47/4/18 109/4/7
f 101/5/28 45/4/17 103/3/4
f 102/5/22 99/5/29 105/6/23
f 104/6/25 44/5/30 46/3/20
f 98/5/26 43/5/31 48/3/19
f 107/6/27 42/6/32 47/4/18
f 101/5/28 41/6/33 45/4/17
