# Blender 5.0.0
# www.blender.org
o Cavalrymen
v -0.117030 0.000000 0.268209
v -0.176687 0.000000 0.261800
v -0.099940 0.000000 0.109124
v -0.159597 0.000000 0.102716
v 0.133883 0.000000 0.236665
v 0.073968 0.000000 0.233478
v 0.142381 0.000000 0.076891
v 0.082466 0.000000 0.073704
v 0.068171 0.000000 0.065638
v 0.009365 0.000000 0.077547
v 0.036412 -0.000000 -0.091179
v -0.022394 -0.000000 -0.079269
v -0.084135 -0.000000 -0.055195
v -0.144120 -0.000000 -0.056552
v -0.080515 -0.000000 -0.215154
v -0.140499 -0.000000 -0.216511
v 0.175028 -0.000000 -0.134680
v 0.115029 -0.000000 -0.134309
v 0.174039 -0.000000 -0.294677
v 0.114040 -0.000000 -0.294306
v 0.115029 0.069321 -0.134309
v 0.057198 -0.000000 -0.093971
v -0.002001 -0.000000 -0.084204
v 0.031152 -0.000000 -0.251837
v -0.028047 -0.000000 -0.242070
v -0.117030 0.119321 0.268210
v -0.176687 0.119321 0.261801
v -0.099940 0.119321 0.109125
v -0.159597 0.119321 0.102717
v -0.117030 0.069321 0.268210
v -0.159597 0.069321 0.102716
v -0.176687 0.069321 0.261801
v -0.099940 0.069321 0.109125
v 0.133883 0.119321 0.236666
v 0.073968 0.119321 0.233479
v 0.142381 0.119321 0.076892
v 0.082466 0.119321 0.073705
v 0.133883 0.069321 0.236665
v 0.082466 0.069321 0.073704
v 0.073968 0.069321 0.233479
v 0.142381 0.069321 0.076891
v 0.068172 0.119321 0.065639
v 0.009366 0.119321 0.077548
v 0.036412 0.119321 -0.091178
v -0.022394 0.119321 -0.079268
v 0.068172 0.069321 0.065638
v -0.022394 0.069321 -0.079268
v 0.009366 0.069321 0.077548
v 0.036412 0.069321 -0.091178
v -0.084135 0.119321 -0.055194
v -0.144120 0.119321 -0.056551
v -0.080515 0.119321 -0.215153
v -0.140499 0.119321 -0.216510
v -0.084135 0.069321 -0.055194
v -0.140499 0.069321 -0.216511
v -0.144120 0.069321 -0.056552
v -0.080515 0.069321 -0.215153
v 0.175028 0.119321 -0.134679
v 0.115029 0.119321 -0.134308
v 0.174039 0.119321 -0.294676
v 0.114040 0.119321 -0.294305
v 0.175028 0.069321 -0.134680
v 0.114040 0.069321 -0.294306
v 0.174039 0.069321 -0.294677
v 0.057198 0.119321 -0.093970
v -0.002001 0.119321 -0.084203
v 0.031152 0.119321 -0.251836
v -0.028047 0.119321 -0.242069
v 0.057198 0.069321 -0.093971
v -0.028047 0.069321 -0.242069
v -0.002001 0.069321 -0.084204
v 0.031152 0.069321 -0.251837
v -0.099940 0.000000 0.109124
v -0.099940 0.000000 0.109124
v -0.159597 0.000000 0.102716
v -0.159597 0.000000 0.102716
v 0.142381 0.000000 0.076891
v 0.142381 0.000000 0.076891
v 0.082466 0.000000 0.073704
v 0.082466 0.000000 0.073704
v 0.036412 -0.000000 -0.091179
v 0.036412 -0.000000 -0.091179
v -0.022394 -0.000000 -0.079269
v -0.022394 -0.000000 -0.079269
v -0.080515 -0.000000 -0.215154
v -0.080515 -0.000000 -0.215154
v -0.140499 -0.000000 -0.216511
v -0.140499 -0.000000 -0.216511
v 0.174039 -0.000000 -0.294677
v 0.174039 -0.000000 -0.294677
v 0.114040 -0.000000 -0.294306
v 0.114040 -0.000000 -0.294306
v 0.031152 -0.000000 -0.251837
v 0.031152 -0.000000 -0.251837
v -0.028047 -0.000000 -0.242070
v -0.028047 -0.000000 -0.242070
v -0.159597 0.119321 0.102717
v -0.159597 0.119321 0.102717
v -0.159597 0.069321 0.102716
v -0.099940 0.119321 0.109125
v -0.099940 0.119321 0.109125
v -0.099940 0.069321 0.109125
v -0.176687 0.119321 0.261801
v -0.176687 0.119321 0.261801
v -0.176687 0.069321 0.261801
v -0.117030 0.119321 0.268210
v -0.117030 0.119321 0.268210
v -0.117030 0.069321 0.268210
v 0.082466 0.119321 0.073705
v 0.082466 0.119321 0.073705
v 0.082466 0.069321 0.073704
v 0.142381 0.119321 0.076892
v 0.142381 0.119321 0.076892
v 0.142381 0.069321 0.076891
v 0.073968 0.119321 0.233479
v 0.073968 0.119321 0.233479
v 0.073968 0.069321 0.233479
v 0.133883 0.119321 0.236666
v 0.133883 0.119321 0.236666
v 0.133883 0.069321 0.236665
v -0.022394 0.119321 -0.079268
v -0.022394 0.119321 -0.079268
v -0.022394 0.069321 -0.079268
v 0.036412 0.119321 -0.091178
v 0.036412 0.119321 -0.091178
v 0.036412 0.069321 -0.091178
v 0.009366 0.119321 0.077548
v 0.009366 0.119321 0.077548
v 0.009366 0.069321 0.077548
v 0.068172 0.119321 0.065639
v 0.068172 0.119321 0.065639
v 0.068172 0.069321 0.065638
v -0.140499 0.119321 -0.216510
v -0.140499 0.119321 -0.216510
v -0.140499 0.069321 -0.216511
v -0.080515 0.119321 -0.215153
v -0.080515 0.119321 -0.215153
v -0.080515 0.069321 -0.215153
v -0.144120 0.119321 -0.056551
v -0.144120 0.119321 -0.056551
v -0.144120 0.069321 -0.056552
v -0.084135 0.119321 -0.055194
v -0.084135 0.119321 -0.055194
v -0.084135 0.069321 -0.055194
v 0.114040 0.119321 -0.294305
v 0.114040 0.119321 -0.294305
v 0.114040 0.069321 -0.294306
v 0.174039 0.119321 -0.294676
v 0.174039 0.119321 -0.294676
v 0.174039 0.069321 -0.294677
v 0.175028 0.119321 -0.134679
v 0.175028 0.119321 -0.134679
v 0.175028 0.069321 -0.134680
v -0.028047 0.119321 -0.242069
v -0.028047 0.119321 -0.242069
v -0.028047 0.069321 -0.242069
v 0.031152 0.119321 -0.251836
v 0.031152 0.119321 -0.251836
v 0.031152 0.069321 -0.251837
v -0.002001 0.119321 -0.084203
v -0.002001 0.119321 -0.084203
v -0.002001 0.069321 -0.084204
v 0.057198 0.119321 -0.093970
v 0.057198 0.119321 -0.093970
v 0.057198 0.069321 -0.093971
v -0.117030 0.000000 0.268209
v -0.117030 0.000000 0.268209
v -0.176687 0.000000 0.261800
v -0.176687 0.000000 0.261800
v 0.133883 0.000000 0.236665
v 0.133883 0.000000 0.236665
v 0.073968 0.000000 0.233478
v 0.073968 0.000000 0.233478
v 0.068171 0.000000 0.065638
v 0.068171 0.000000 0.065638
v 0.009365 0.000000 0.077547
v 0.009365 0.000000 0.077547
v -0.084135 -0.000000 -0.055195
v -0.084135 -0.000000 -0.055195
v -0.144120 -0.000000 -0.056552
v -0.144120 -0.000000 -0.056552
v 0.175028 -0.000000 -0.134680
v 0.175028 -0.000000 -0.134680
v 0.115029 -0.000000 -0.134309
v 0.115029 -0.000000 -0.134309
v 0.115029 0.069321 -0.134309
v 0.057198 -0.000000 -0.093971
v 0.057198 -0.000000 -0.093971
v -0.002001 -0.000000 -0.084204
v -0.002001 -0.000000 -0.084204
v 0.115029 0.119321 -0.134308
v 0.115029 0.119321 -0.134308
vn -0.3371 -0.9400 -0.0527
vn 0.2847 -0.9400 0.1880
vn -0.0281 -0.9918 0.1245
vn 0.9308 -0.3131 0.1888
vn 0.9710 0.0164 -0.2384
vn 0.9846 0.1268 0.1205
vn -0.3852 0.1602 0.9088
vn -0.0555 0.1171 0.9916
vn -0.1167 0.3408 0.9329
vn 0.3852 0.1603 -0.9088
vn -0.0201 0.0146 -0.9997
vn 0.2561 0.3032 -0.9179
vn -0.9308 -0.3131 -0.1888
vn -0.9670 0.1566 0.2010
vn -0.9736 0.0507 -0.2224
vn 0.1218 -0.9918 -0.0379
vn 0.9699 -0.1602 -0.1834
vn -0.0132 0.3131 0.9496
vn 0.0132 0.3131 -0.9496
vn -0.9699 -0.1603 0.1834
vn -0.3394 -0.9400 -0.0345
vn 0.2944 -0.9400 0.1724
vn -0.0213 -0.9918 0.1258
vn 0.9396 -0.3131 0.1384
vn 0.9568 0.0164 -0.2904
vn 0.9896 0.1268 0.0673
vn -0.3357 0.1602 0.9282
vn -0.0020 0.1171 0.9931
vn -0.0663 0.3408 0.9378
vn 0.3357 0.1603 -0.9282
vn -0.0739 0.0146 -0.9972
vn 0.2063 0.3032 -0.9304
vn -0.9396 -0.3131 -0.1384
vn -0.9548 0.1566 0.2528
vn -0.9842 0.0507 -0.1696
vn 0.1196 -0.9918 -0.0444
vn 0.9586 -0.1602 -0.2353
vn 0.0380 0.3130 0.9490
vn -0.0379 0.3131 -0.9490
vn -0.9586 -0.1603 0.2354
vn -0.3373 -0.9400 0.0515
vn 0.3282 -0.9400 0.0933
vn 0.0108 -0.9918 0.1271
vn 0.9443 -0.3131 -0.1011
vn 0.8536 0.0164 -0.5206
vn 0.9750 0.1268 -0.1825
vn -0.0927 0.1602 0.9827
vn 0.2466 0.1171 0.9620
vn 0.1705 0.3408 0.9246
vn 0.0928 0.1603 -0.9827
vn -0.3211 0.0146 -0.9469
vn -0.0331 0.3032 -0.9524
vn -0.9443 -0.3131 0.1012
vn -0.8611 0.1566 0.4837
vn -0.9953 0.0507 0.0821
vn 0.1047 -0.9918 -0.0729
vn 0.8692 -0.1602 -0.4678
vn 0.2742 0.3131 0.9093
vn -0.2743 0.3131 -0.9093
vn -0.8692 -0.1603 0.4678
vn -0.3403 -0.9400 -0.0241
vn 0.2995 -0.9400 0.1634
vn -0.0175 -0.9918 0.1264
vn 0.9434 -0.3131 0.1096
vn 0.9475 0.0164 -0.3194
vn 0.9912 0.1268 0.0371
vn -0.3072 0.1602 0.9380
vn 0.0283 0.1171 0.9927
vn -0.0377 0.3408 0.9394
vn 0.3073 0.1603 -0.9380
vn -0.1043 0.0146 -0.9944
vn 0.1778 0.3032 -0.9362
vn -0.9434 -0.3131 -0.1097
vn -0.9466 0.1566 0.2818
vn -0.9889 0.0507 -0.1395
vn 0.1182 -0.9918 -0.0480
vn 0.9510 -0.1602 -0.2645
vn 0.0669 0.3131 0.9474
vn -0.0668 0.3131 -0.9474
vn -0.9510 -0.1603 0.2645
vn -0.3409 -0.9400 -0.0143
vn 0.3041 -0.9400 0.1547
vn -0.0138 -0.9918 0.1268
vn 0.9461 -0.3131 0.0824
vn 0.9379 0.0164 -0.3466
vn 0.9919 0.1268 0.0085
vn -0.2801 0.1602 0.9465
vn 0.0568 0.1171 0.9915
vn -0.0106 0.3408 0.9401
vn 0.2801 0.1603 -0.9465
vn -0.1329 0.0146 -0.9910
vn 0.1507 0.3032 -0.9409
vn -0.9461 -0.3131 -0.0825
vn -0.9381 0.1566 0.3090
vn -0.9925 0.0507 -0.1110
vn 0.1168 -0.9918 -0.0514
vn 0.9430 -0.1602 -0.2918
vn 0.0942 0.3130 0.9451
vn -0.0941 0.3131 -0.9451
vn -0.9430 -0.1603 0.2918
vn -0.3389 -0.9400 0.0393
vn 0.3246 -0.9400 0.1051
vn 0.0062 -0.9918 0.1274
vn 0.9474 -0.3131 -0.0668
vn 0.8720 0.0164 -0.4893
vn 0.9810 0.1268 -0.1470
vn -0.1283 0.1602 0.9787
vn 0.2115 0.1171 0.9703
vn 0.1368 0.3408 0.9301
vn 0.1284 0.1603 -0.9787
vn -0.2865 0.0146 -0.9580
vn 0.0014 0.3032 -0.9529
vn -0.9474 -0.3131 0.0668
vn -0.8781 0.1566 0.4521
vn -0.9977 0.0507 0.0459
vn 0.1073 -0.9918 -0.0691
vn 0.8856 -0.1602 -0.4359
vn 0.2410 0.3131 0.9186
vn -0.2410 0.3131 -0.9186
vn -0.8856 -0.1603 0.4359
vn -0.3406 0.9400 -0.0201
vn 0.3181 0.9400 -0.1233
vn -0.0010 0.9918 -0.1276
vn -0.9022 -0.1566 -0.4018
vn 0.1808 -0.1030 -0.9781
vn -0.2320 -0.0146 0.9726
vn 0.8982 -0.0164 0.4392
vn 0.0944 0.9918 0.0859
vn -0.9972 -0.0753 -0.0035
vn 0.0841 -0.3408 -0.9364
vn 0.0553 -0.3032 0.9513
vn 0.9877 -0.1268 0.0914
vn -0.3412 0.9400 -0.0017
vn 0.3110 0.9400 -0.1402
vn -0.0079 0.9918 -0.1274
vn -0.9226 -0.1566 -0.3526
vn 0.1279 -0.1030 -0.9864
vn -0.1793 -0.0146 0.9837
vn 0.9206 -0.0164 0.3902
vn 0.0988 0.9918 0.0807
vn -0.9959 -0.0753 0.0502
vn 0.0335 -0.3408 -0.9395
vn 0.1064 -0.3032 0.9470
vn 0.9912 -0.1268 0.0381
vn -0.3307 0.9400 0.0837
vn 0.2660 0.9400 -0.2136
vn -0.0395 0.9918 -0.1213
vn -0.9815 -0.1566 -0.1105
vn -0.1230 -0.1030 -0.9870
vn 0.0726 -0.0146 0.9973
vn 0.9889 -0.0164 0.1474
vn 0.1159 0.9918 0.0534
vn -0.9516 -0.0753 0.2978
vn -0.2027 -0.3408 -0.9180
vn 0.3400 -0.3032 0.8902
vn 0.9692 -0.1268 -0.2112
vn -0.3411 0.9400 0.0087
vn 0.3066 0.9400 -0.1497
vn -0.0118 0.9918 -0.1271
vn -0.9329 -0.1566 -0.3243
vn 0.0978 -0.1030 -0.9899
vn -0.1492 -0.0146 0.9887
vn 0.9320 -0.0164 0.3620
vn 0.1013 0.9918 0.0776
vn -0.9939 -0.0753 0.0805
vn 0.0048 -0.3408 -0.9401
vn 0.1352 -0.3032 0.9433
vn 0.9919 -0.1268 0.0078
vn -0.3407 0.9400 0.0185
vn 0.3022 0.9400 -0.1584
vn -0.0154 0.9918 -0.1267
vn -0.9419 -0.1566 -0.2973
vn 0.0692 -0.1030 -0.9923
vn -0.1206 -0.0146 0.9926
vn 0.9421 -0.0164 0.3350
vn 0.1035 0.9918 0.0747
vn -0.9912 -0.0753 0.1091
vn -0.0222 -0.3408 -0.9399
vn 0.1624 -0.3032 0.9390
vn 0.9917 -0.1268 -0.0208
vn -0.3336 0.9400 0.0717
vn 0.2736 0.9400 -0.2038
vn -0.0351 0.9918 -0.1227
vn -0.9768 -0.1566 -0.1461
vn -0.0871 -0.1030 -0.9909
vn 0.0364 -0.0146 0.9992
vn 0.9829 -0.0164 0.1832
vn 0.1139 0.9918 0.0576
vn -0.9618 -0.0753 0.2631
vn -0.1692 -0.3408 -0.9248
vn 0.3075 -0.3032 0.9020
vn 0.9762 -0.1268 -0.1759
vt 0.002320 0.012212
vt 0.997283 0.012212
vt 0.997283 0.503371
vt 0.002320 0.503371
vt 0.997283 0.990088
vt 0.002320 0.990088
s 1
f 166/1/1 75/2/2 73/2/3
f 102/3/4 1/1/5 74/2/6
f 108/4/7 168/1/8 167/1/9
f 99/3/10 3/2/11 4/2/12
f 105/4/13 76/2/14 169/1/15
f 166/1/1 2/1/16 75/2/2
f 102/3/4 30/4/17 1/1/5
f 108/4/7 32/4/18 168/1/8
f 99/3/10 33/3/19 3/2/11
f 105/4/13 31/3/20 76/2/14
f 170/1/21 79/2/22 77/2/23
f 114/3/24 5/1/25 78/2/26
f 120/4/27 172/1/28 171/1/29
f 111/3/30 7/2/31 8/2/32
f 117/4/33 80/2/34 173/1/35
f 170/1/21 6/1/36 79/2/22
f 114/3/24 38/4/37 5/1/25
f 120/4/27 40/4/38 172/1/28
f 111/3/30 41/3/39 7/2/31
f 117/4/33 39/3/40 80/2/34
f 174/1/41 83/2/42 81/2/43
f 126/3/44 9/1/45 82/2/46
f 132/4/47 176/1/48 175/1/49
f 123/3/50 11/2/51 12/2/52
f 129/4/53 84/2/54 177/1/55
f 174/1/41 10/1/56 83/2/42
f 126/3/44 46/4/57 9/1/45
f 132/4/47 48/4/58 176/1/48
f 123/3/50 49/3/59 11/2/51
f 129/4/53 47/3/60 84/2/54
f 178/1/61 87/2/62 85/2/63
f 138/3/64 13/1/65 86/2/66
f 144/4/67 180/1/68 179/1/69
f 135/3/70 15/2/71 16/2/72
f 141/4/73 88/2/74 181/1/75
f 178/1/61 14/1/76 87/2/62
f 138/3/64 54/4/77 13/1/65
f 144/4/67 56/4/78 180/1/68
f 135/3/70 57/3/79 15/2/71
f 141/4/73 55/3/80 88/2/74
f 182/1/81 91/2/82 89/2/83
f 150/3/84 17/1/85 90/2/86
f 153/4/87 184/1/88 183/1/89
f 147/3/90 19/2/91 20/2/92
f 186/4/93 92/2/94 185/1/95
f 182/1/81 18/1/96 91/2/82
f 150/3/84 62/4/97 17/1/85
f 153/4/87 21/4/98 184/1/88
f 147/3/90 64/3/99 19/2/91
f 186/4/93 63/3/100 92/2/94
f 187/1/101 95/2/102 93/2/103
f 159/3/104 22/1/105 94/2/106
f 165/4/107 189/1/108 188/1/109
f 156/3/110 24/2/111 25/2/112
f 162/4/113 96/2/114 190/1/115
f 187/1/101 23/1/116 95/2/102
f 159/3/104 69/4/117 22/1/105
f 165/4/107 71/4/118 189/1/108
f 156/3/110 72/3/119 24/2/111
f 162/4/113 70/3/120 96/2/114
f 101/5/121 104/6/122 107/6/123
f 103/6/124 31/3/20 105/4/13
f 97/5/125 33/3/19 99/3/10
f 106/6/126 32/4/18 108/4/7
f 100/5/127 30/4/17 102/3/4
f 101/5/121 98/5/128 104/6/122
f 103/6/124 29/5/129 31/3/20
f 97/5/125 28/5/130 33/3/19
f 106/6/126 27/6/131 32/4/18
f 100/5/127 26/6/132 30/4/17
f 113/5/133 116/6/134 119/6/135
f 115/6/136 39/3/40 117/4/33
f 109/5/137 41/3/39 111/3/30
f 118/6/138 40/4/38 120/4/27
f 112/5/139 38/4/37 114/3/24
f 113/5/133 110/5/140 116/6/134
f 115/6/136 37/5/141 39/3/40
f 109/5/137 36/5/142 41/3/39
f 118/6/138 35/6/143 40/4/38
f 112/5/139 34/6/144 38/4/37
f 125/5/145 128/6/146 131/6/147
f 127/6/148 47/3/60 129/4/53
f 121/5/149 49/3/59 123/3/50
f 130/6/150 48/4/58 132/4/47
f 124/5/151 46/4/57 126/3/44
f 125/5/145 122/5/152 128/6/146
f 127/6/148 45/5/153 47/3/60
f 121/5/149 44/5/154 49/3/59
f 130/6/150 43/6/155 48/4/58
f 124/5/151 42/6/156 46/4/57
f 137/5/157 140/6/158 143/6/159
f 139/6/160 55/3/80 141/4/73
f 133/5/161 57/3/79 135/3/70
f 142/6/162 56/4/78 144/4/67
f 136/5/163 54/4/77 138/3/64
f 137/5/157 134/5/164 140/6/158
f 139/6/160 53/5/165 55/3/80
f 133/5/161 52/5/166 57/3/79
f 142/6/162 51/6/167 56/4/78
f 136/5/163 50/6/168 54/4/77
f 149/5/169 191/6/170 152/6/171
f 192/6/172 63/3/100 186/4/93
f 145/5/173 64/3/99 147/3/90
f 151/6/174 21/4/98 153/4/87
f 148/5/175 62/4/97 150/3/84
f 149/5/169 146/5/176 191/6/170
f 192/6/172 61/5/177 63/3/100
f 145/5/173 60/5/178 64/3/99
f 151/6/174 59/6/179 21/4/98
f 148/5/175 58/6/180 62/4/97
f 158/5/181 161/6/182 164/6/183
f 160/6/184 70/3/120 162/4/113
f 154/5/185 72/3/119 156/3/110
f 163/6/186 71/4/118 165/4/107
f 157/5/187 69/4/117 159/3/104
f 158/5/181 155/5/188 161/6/182
f 160/6/184 68/5/189 70/3/120
f 154/5/185 67/5/190 72/3/119
f 163/6/186 66/6/191 71/4/118
f 157/5/187 65/6/192 69/4/117
