# Blender 5.0.0
# www.blender.org
o Cavalrymen
v 0.210000 0.000000 0.179999
v 0.150000 0.000000 0.179999
v 0.210000 0.000000 0.019999
v 0.150000 0.000000 0.019999
v 0.210000 0.069321 0.179999
v 0.150000 0.069321 0.019999
v 0.150000 0.069321 0.179999
v 0.210000 0.069321 0.019999
v 0.090000 0.000000 0.179999
v 0.030000 0.000000 0.179999
v 0.090000 0.000000 0.019999
v 0.030000 0.000000 0.019999
v 0.090000 0.069321 0.179999
v 0.030000 0.069321 0.019999
v 0.030000 0.069321 0.179999
v 0.090000 0.069321 0.019999
v -0.030000 0.000000 0.179999
v -0.090000 0.000000 0.179999
v -0.030000 0.000000 0.019999
v -0.090000 0.000000 0.019999
v -0.030000 0.069321 0.179999
v -0.090000 0.069321 0.019999
v -0.090000 0.069321 0.179999
v -0.030000 0.069321 0.019999
v -0.150000 -0.000000 -0.020001
v -0.210000 -0.000000 -0.020001
v -0.150000 -0.000000 -0.180001
v -0.210000 -0.000000 -0.180001
v -0.150000 0.069321 -0.020001
v -0.210000 0.069321 -0.180001
v -0.210000 0.069321 -0.020001
v -0.150000 0.069321 -0.180001
v 0.210000 -0.000000 -0.020001
v 0.150000 -0.000000 -0.020001
v 0.210000 -0.000000 -0.180001
v 0.150000 -0.000000 -0.180001
v 0.210000 0.069321 -0.020001
v 0.150000 0.069321 -0.180001
v 0.150000 0.069321 -0.020001
v 0.210000 0.069321 -0.180001
v 0.090000 -0.000000 -0.020001
v 0.030000 -0.000000 -0.020001
v 0.090000 -0.000000 -0.180001
v 0.030000 -0.000000 -0.180001
v 0.090000 0.069321 -0.020001
v 0.030000 0.069321 -0.180001
v 0.030000 0.069321 -0.020001
v 0.090000 0.069321 -0.180001
v -0.030000 -0.000000 -0.020001
v -0.090000 -0.000000 -0.020001
v -0.030000 -0.000000 -0.180001
v -0.090000 -0.000000 -0.180001
v -0.030000 0.069321 -0.020001
v -0.090000 0.069321 -0.180001
v -0.090000 0.069321 -0.020001
v -0.030000 0.069321 -0.180001
v 0.210000 0.119321 0.180001
v 0.150000 0.119321 0.180001
v 0.210000 0.119321 0.020001
v 0.150000 0.119321 0.020001
v 0.210000 0.069321 0.180001
v 0.150000 0.069321 0.020001
v 0.150000 0.069321 0.180001
v 0.210000 0.069321 0.020001
v 0.090000 0.119321 0.180001
v 0.030000 0.119321 0.180001
v 0.090000 0.119321 0.020001
v 0.030000 0.119321 0.020001
v 0.090000 0.069321 0.180001
v 0.030000 0.069321 0.020001
v 0.030000 0.069321 0.180001
v 0.090000 0.069321 0.020001
v -0.030000 0.119321 0.180001
v -0.090000 0.119321 0.180001
v -0.030000 0.119321 0.020001
v -0.090000 0.119321 0.020001
v -0.030000 0.069321 0.180001
v -0.090000 0.069321 0.020001
v -0.090000 0.069321 0.180001
v -0.030000 0.069321 0.020001
v -0.150000 0.119321 -0.019999
v -0.210000 0.119321 -0.019999
v -0.150000 0.119321 -0.180000
v -0.210000 0.119321 -0.180000
v -0.150000 0.069321 -0.019999
v -0.210000 0.069321 -0.179999
v -0.210000 0.069321 -0.019999
v -0.150000 0.069321 -0.179999
v 0.210000 0.119321 -0.019999
v 0.150000 0.119321 -0.019999
v 0.210000 0.119321 -0.180000
v 0.150000 0.119321 -0.180000
v 0.210000 0.069321 -0.019999
v 0.150000 0.069321 -0.179999
v 0.150000 0.069321 -0.019999
v 0.210000 0.069321 -0.179999
v 0.090000 0.119321 -0.019999
v 0.030000 0.119321 -0.019999
v 0.090000 0.119321 -0.180000
v 0.030000 0.119321 -0.180000
v 0.090000 0.069321 -0.019999
v 0.030000 0.069321 -0.179999
v 0.030000 0.069321 -0.019999
v 0.090000 0.069321 -0.179999
v -0.030000 0.119321 -0.019999
v -0.090000 0.119321 -0.019999
v -0.030000 0.119321 -0.180000
v -0.090000 0.119321 -0.180000
v -0.030000 0.069321 -0.019999
v -0.090000 0.069321 -0.179999
v -0.090000 0.069321 -0.019999
v -0.030000 0.069321 -0.179999
v 0.210000 0.000000 0.019999
v 0.210000 0.000000 0.019999
v 0.150000 0.000000 0.019999
v 0.150000 0.000000 0.019999
v 0.210000 0.000000 0.179999
v 0.210000 0.000000 0.179999
v 0.210000 0.069321 0.179999
v 0.210000 0.069321 0.019999
v 0.090000 0.000000 0.019999
v 0.090000 0.000000 0.019999
v 0.030000 0.000000 0.019999
v 0.030000 0.000000 0.019999
v 0.090000 0.000000 0.179999
v 0.090000 0.000000 0.179999
v 0.090000 0.069321 0.179999
v 0.090000 0.069321 0.019999
v -0.030000 0.000000 0.019999
v -0.030000 0.000000 0.019999
v -0.090000 0.000000 0.019999
v -0.090000 0.000000 0.019999
v -0.030000 0.000000 0.179999
v -0.030000 0.000000 0.179999
v -0.030000 0.069321 0.179999
v -0.030000 0.069321 0.019999
v -0.150000 -0.000000 -0.180001
v -0.150000 -0.000000 -0.180001
v -0.210000 -0.000000 -0.180001
v -0.210000 -0.000000 -0.180001
v -0.150000 -0.000000 -0.020001
v -0.150000 -0.000000 -0.020001
v -0.150000 0.069321 -0.020001
v -0.150000 0.069321 -0.180001
v 0.210000 -0.000000 -0.180001
v 0.210000 -0.000000 -0.180001
v 0.150000 -0.000000 -0.180001
v 0.150000 -0.000000 -0.180001
v 0.210000 -0.000000 -0.020001
v 0.210000 -0.000000 -0.020001
v 0.210000 0.069321 -0.020001
v 0.210000 0.069321 -0.180001
v 0.090000 -0.000000 -0.180001
v 0.090000 -0.000000 -0.180001
v 0.030000 -0.000000 -0.180001
v 0.030000 -0.000000 -0.180001
v 0.090000 -0.000000 -0.020001
v 0.090000 -0.000000 -0.020001
v 0.090000 0.069321 -0.020001
v 0.090000 0.069321 -0.180001
v -0.030000 -0.000000 -0.180001
v -0.030000 -0.000000 -0.180001
v -0.090000 -0.000000 -0.180001
v -0.090000 -0.000000 -0.180001
v -0.030000 -0.000000 -0.020001
v -0.030000 -0.000000 -0.020001
v -0.030000 0.069321 -0.020001
v -0.030000 0.069321 -0.180001
v 0.150000 0.119321 0.020001
v 0.150000 0.119321 0.020001
v 0.150000 0.069321 0.020001
v 0.210000 0.119321 0.020001
v 0.210000 0.119321 0.020001
v 0.210000 0.069321 0.020001
v 0.150000 0.119321 0.180001
v 0.150000 0.119321 0.180001
v 0.150000 0.069321 0.180001
v 0.210000 0.119321 0.180001
v 0.210000 0.119321 0.180001
v 0.210000 0.069321 0.180001
v 0.030000 0.119321 0.020001
v 0.030000 0.119321 0.020001
v 0.030000 0.069321 0.020001
v 0.090000 0.119321 0.020001
v 0.090000 0.119321 0.020001
v 0.090000 0.069321 0.020001
v 0.030000 0.119321 0.180001
v 0.030000 0.119321 0.180001
v 0.030000 0.069321 0.180001
v 0.090000 0.119321 0.180001
v 0.090000 0.119321 0.180001
v 0.090000 0.069321 0.180001
v -0.090000 0.119321 0.020001
v -0.090000 0.119321 0.020001
v -0.090000 0.069321 0.020001
v -0.030000 0.119321 0.020001
v -0.030000 0.119321 0.020001
v -0.030000 0.069321 0.020001
v -0.090000 0.119321 0.180001
v -0.090000 0.119321 0.180001
v -0.090000 0.069321 0.180001
v -0.030000 0.119321 0.180001
v -0.030000 0.119321 0.180001
v -0.030000 0.069321 0.180001
v -0.210000 0.119321 -0.180000
v -0.210000 0.119321 -0.180000
v -0.210000 0.069321 -0.179999
v -0.150000 0.119321 -0.180000
v -0.150000 0.119321 -0.180000
v -0.150000 0.069321 -0.179999
v -0.210000 0.119321 -0.019999
v -0.210000 0.119321 -0.019999
v -0.210000 0.069321 -0.019999
v -0.150000 0.119321 -0.019999
v -0.150000 0.119321 -0.019999
v -0.150000 0.069321 -0.019999
v 0.150000 0.119321 -0.180000
v 0.150000 0.119321 -0.180000
v 0.150000 0.069321 -0.179999
v 0.210000 0.119321 -0.180000
v 0.210000 0.119321 -0.180000
v 0.210000 0.069321 -0.179999
v 0.150000 0.119321 -0.019999
v 0.150000 0.119321 -0.019999
v 0.150000 0.069321 -0.019999
v 0.210000 0.119321 -0.019999
v 0.210000 0.119321 -0.019999
v 0.210000 0.069321 -0.019999
v 0.030000 0.119321 -0.180000
v 0.030000 0.119321 -0.180000
v 0.030000 0.069321 -0.179999
v 0.090000 0.119321 -0.180000
v 0.090000 0.119321 -0.180000
v 0.090000 0.069321 -0.179999
v 0.030000 0.119321 -0.019999
v 0.030000 0.119321 -0.019999
v 0.030000 0.069321 -0.019999
v 0.090000 0.119321 -0.019999
v 0.090000 0.119321 -0.019999
v 0.090000 0.069321 -0.019999
v -0.090000 0.119321 -0.180000
v -0.090000 0.119321 -0.180000
v -0.090000 0.069321 -0.179999
v -0.030000 0.119321 -0.180000
v -0.030000 0.119321 -0.180000
v -0.030000 0.069321 -0.179999
v -0.090000 0.119321 -0.019999
v -0.090000 0.119321 -0.019999
v -0.090000 0.069321 -0.019999
v -0.030000 0.119321 -0.019999
v -0.030000 0.119321 -0.019999
v -0.030000 0.069321 -0.019999
v 0.150000 0.000000 0.179999
v 0.150000 0.000000 0.179999
v 0.150000 0.069321 0.019999
v 0.150000 0.069321 0.179999
v 0.030000 0.000000 0.179999
v 0.030000 0.000000 0.179999
v 0.030000 0.069321 0.019999
v 0.030000 0.069321 0.179999
v -0.090000 0.000000 0.179999
v -0.090000 0.000000 0.179999
v -0.090000 0.069321 0.019999
v -0.090000 0.069321 0.179999
v -0.210000 -0.000000 -0.020001
v -0.210000 -0.000000 -0.020001
v -0.210000 0.069321 -0.180001
v -0.210000 0.069321 -0.020001
v 0.150000 -0.000000 -0.020001
v 0.150000 -0.000000 -0.020001
v 0.150000 0.069321 -0.180001
v 0.150000 0.069321 -0.020001
v 0.030000 -0.000000 -0.020001
v 0.030000 -0.000000 -0.020001
v 0.030000 0.069321 -0.180001
v 0.030000 0.069321 -0.020001
v -0.090000 -0.000000 -0.020001
v -0.090000 -0.000000 -0.020001
v -0.090000 0.069321 -0.180001
v -0.090000 0.069321 -0.020001
vn -0.3408 -0.9400 -0.0164
vn 0.3031 -0.9400 0.1566
vn -0.0146 -0.9918 0.1268
vn 0.9053 -0.0000 0.4247
vn 0.9400 0.0164 -0.3408
vn 0.9918 0.1268 0.0146
vn 0.0001 -0.1056 0.9944
vn 0.0507 0.1171 0.9918
vn -0.0164 0.3408 0.9400
vn -0.0001 -0.1056 -0.9944
vn -0.1268 0.0146 -0.9918
vn 0.1566 0.3031 -0.9400
vn -0.9053 -0.0000 -0.4247
vn -0.9400 0.1566 0.3031
vn -0.9918 0.0507 -0.1171
vn 0.1171 -0.9918 -0.0507
vn 0.9944 0.0001 -0.1056
vn -0.0000 -0.4247 0.9053
vn -0.0000 -0.4247 -0.9053
vn -0.9944 0.0001 0.1056
vn -0.0000 -0.1056 0.9944
vn -0.0000 -0.1056 -0.9944
vn 0.9944 -0.0000 -0.1056
vn -0.9944 -0.0000 0.1056
vn -0.3408 0.9400 0.0164
vn 0.3031 0.9400 -0.1566
vn -0.0146 0.9918 -0.1268
vn -0.9400 -0.1566 -0.3031
vn -0.9053 -0.0000 0.4247
vn -0.9944 -0.0000 -0.1056
vn 0.0754 -0.1030 -0.9918
vn 0.0001 0.1056 -0.9944
vn -0.0000 0.4247 -0.9053
vn -0.1268 -0.0146 0.9918
vn -0.0000 0.1056 0.9944
vn -0.0000 0.4247 0.9053
vn 0.9400 -0.0164 0.3408
vn 0.9053 -0.0000 -0.4247
vn 0.9944 -0.0001 0.1056
vn 0.1030 0.9918 0.0754
vn -0.9918 -0.0754 0.1030
vn -0.0164 -0.3408 -0.9400
vn 0.1566 -0.3031 0.9400
vn 0.9918 -0.1268 -0.0146
vn -0.0000 0.1056 -0.9944
vn 0.9944 -0.0000 0.1056
vt 0.002320 0.012212
vt 0.997283 0.012212
vt 0.997283 0.503371
vt 0.002320 0.503371
vt 0.997283 0.990088
vt 0.002320 0.990088
s 1
f 118/1/1 115/2/2 113/2/3
f 120/3/4 1/1/5 114/2/6
f 119/4/7 253/1/8 117/1/9
f 255/3/10 3/2/11 116/2/12
f 256/4/13 4/2/14 254/1/15
f 118/1/1 2/1/16 115/2/2
f 120/3/4 5/4/17 1/1/5
f 119/4/7 7/4/18 253/1/8
f 255/3/10 8/3/19 3/2/11
f 256/4/13 6/3/20 4/2/14
f 126/1/1 123/2/2 121/2/3
f 128/3/4 9/1/5 122/2/6
f 127/4/21 257/1/8 125/1/9
f 259/3/22 11/2/11 124/2/12
f 260/4/13 12/2/14 258/1/15
f 126/1/1 10/1/16 123/2/2
f 128/3/4 13/4/23 9/1/5
f 127/4/21 15/4/18 257/1/8
f 259/3/22 16/3/19 11/2/11
f 260/4/13 14/3/24 12/2/14
f 134/1/1 131/2/2 129/2/3
f 136/3/4 17/1/5 130/2/6
f 135/4/21 261/1/8 133/1/9
f 263/3/10 19/2/11 132/2/12
f 264/4/13 20/2/14 262/1/15
f 134/1/1 18/1/16 131/2/2
f 136/3/4 21/4/23 17/1/5
f 135/4/21 23/4/18 261/1/8
f 263/3/10 24/3/19 19/2/11
f 264/4/13 22/3/20 20/2/14
f 142/1/1 139/2/2 137/2/3
f 144/3/4 25/1/5 138/2/6
f 143/4/7 265/1/8 141/1/9
f 267/3/10 27/2/11 140/2/12
f 268/4/13 28/2/14 266/1/15
f 142/1/1 26/1/16 139/2/2
f 144/3/4 29/4/17 25/1/5
f 143/4/7 31/4/18 265/1/8
f 267/3/10 32/3/19 27/2/11
f 268/4/13 30/3/20 28/2/14
f 150/1/1 147/2/2 145/2/3
f 152/3/4 33/1/5 146/2/6
f 151/4/7 269/1/8 149/1/9
f 271/3/10 35/2/11 148/2/12
f 272/4/13 36/2/14 270/1/15
f 150/1/1 34/1/16 147/2/2
f 152/3/4 37/4/17 33/1/5
f 151/4/7 39/4/18 269/1/8
f 271/3/10 40/3/19 35/2/11
f 272/4/13 38/3/20 36/2/14
f 158/1/1 155/2/2 153/2/3
f 160/3/4 41/1/5 154/2/6
f 159/4/21 273/1/8 157/1/9
f 275/3/22 43/2/11 156/2/12
f 276/4/13 44/2/14 274/1/15
f 158/1/1 42/1/16 155/2/2
f 160/3/4 45/4/23 41/1/5
f 159/4/21 47/4/18 273/1/8
f 275/3/22 48/3/19 43/2/11
f 276/4/13 46/3/24 44/2/14
f 166/1/1 163/2/2 161/2/3
f 168/3/4 49/1/5 162/2/6
f 167/4/21 277/1/8 165/1/9
f 279/3/10 51/2/11 164/2/12
f 280/4/13 52/2/14 278/1/15
f 166/1/1 50/1/16 163/2/2
f 168/3/4 53/4/23 49/1/5
f 167/4/21 55/4/18 277/1/8
f 279/3/10 56/3/19 51/2/11
f 280/4/13 54/3/20 52/2/14
f 173/5/25 176/6/26 179/6/27
f 175/6/28 62/3/29 177/4/30
f 169/5/31 64/3/32 171/3/33
f 178/6/34 63/4/35 180/4/36
f 172/5/37 61/4/38 174/3/39
f 173/5/25 170/5/40 176/6/26
f 175/6/28 60/5/41 62/3/29
f 169/5/31 59/5/42 64/3/32
f 178/6/34 58/6/43 63/4/35
f 172/5/37 57/6/44 61/4/38
f 185/5/25 188/6/26 191/6/27
f 187/6/28 70/3/29 189/4/30
f 181/5/31 72/3/32 183/3/33
f 190/6/34 71/4/35 192/4/36
f 184/5/37 69/4/38 186/3/39
f 185/5/25 182/5/40 188/6/26
f 187/6/28 68/5/41 70/3/29
f 181/5/31 67/5/42 72/3/32
f 190/6/34 66/6/43 71/4/35
f 184/5/37 65/6/44 69/4/38
f 197/5/25 200/6/26 203/6/27
f 199/6/28 78/3/29 201/4/30
f 193/5/31 80/3/45 195/3/33
f 202/6/34 79/4/35 204/4/36
f 196/5/37 77/4/38 198/3/46
f 197/5/25 194/5/40 200/6/26
f 199/6/28 76/5/41 78/3/29
f 193/5/31 75/5/42 80/3/45
f 202/6/34 74/6/43 79/4/35
f 196/5/37 73/6/44 77/4/38
f 209/5/25 212/6/26 215/6/27
f 211/6/28 86/3/29 213/4/30
f 205/5/31 88/3/32 207/3/33
f 214/6/34 87/4/35 216/4/36
f 208/5/37 85/4/38 210/3/39
f 209/5/25 206/5/40 212/6/26
f 211/6/28 84/5/41 86/3/29
f 205/5/31 83/5/42 88/3/32
f 214/6/34 82/6/43 87/4/35
f 208/5/37 81/6/44 85/4/38
f 221/5/25 224/6/26 227/6/27
f 223/6/28 94/3/29 225/4/30
f 217/5/31 96/3/32 219/3/33
f 226/6/34 95/4/35 228/4/36
f 220/5/37 93/4/38 222/3/39
f 221/5/25 218/5/40 224/6/26
f 223/6/28 92/5/41 94/3/29
f 217/5/31 91/5/42 96/3/32
f 226/6/34 90/6/43 95/4/35
f 220/5/37 89/6/44 93/4/38
f 233/5/25 236/6/26 239/6/27
f 235/6/28 102/3/29 237/4/30
f 229/5/31 104/3/45 231/3/33
f 238/6/34 103/4/35 240/4/36
f 232/5/37 101/4/38 234/3/46
f 233/5/25 230/5/40 236/6/26
f 235/6/28 100/5/41 102/3/29
f 229/5/31 99/5/42 104/3/45
f 238/6/34 98/6/43 103/4/35
f 232/5/37 97/6/44 101/4/38
f 245/5/25 248/6/26 251/6/27
f 247/6/28 110/3/29 249/4/30
f 241/5/31 112/3/45 243/3/33
f 250/6/34 111/4/35 252/4/36
f 244/5/37 109/4/38 246/3/46
f 245/5/25 242/5/40 248/6/26
f 247/6/28 108/5/41 110/3/29
f 241/5/31 107/5/42 112/3/45
f 250/6/34 106/6/43 111/4/35
f 244/5/37 105/6/44 109/4/38
