# Blender 5.0.0
# www.blender.org
o Section
v -0.067759 0.100000 -0.245967
v -0.063530 0.100000 -0.195622
v -0.124316 0.100000 -0.241217
v -0.120088 0.100000 -0.190872
v -0.067759 0.050000 -0.245967
v -0.120088 0.050000 -0.190872
v -0.063530 0.050000 -0.195622
v -0.124316 0.050000 -0.241217
v -0.067759 0.000000 -0.245967
v -0.063530 0.000000 -0.195622
v -0.124316 0.000000 -0.241217
v -0.120088 0.000000 -0.190872
v -0.066151 0.100000 -0.084536
v -0.073649 0.100000 -0.034573
v -0.122279 0.100000 -0.092960
v -0.129778 0.100000 -0.042997
v -0.066151 0.050000 -0.084536
v -0.129778 0.050000 -0.042997
v -0.073649 0.050000 -0.034573
v -0.122279 0.050000 -0.092960
v -0.066151 0.000000 -0.084536
v -0.073649 0.000000 -0.034573
v -0.122279 0.000000 -0.092960
v -0.129778 0.000000 -0.042997
v -0.024388 0.100000 0.120814
v -0.017335 0.100000 0.170842
v -0.080589 0.100000 0.128737
v -0.073536 0.100000 0.178765
v -0.024388 0.050000 0.120814
v -0.073536 0.050000 0.178765
v -0.017335 0.050000 0.170842
v -0.080589 0.050000 0.128737
v -0.024388 0.000000 0.120814
v -0.017335 0.000000 0.170842
v -0.080589 0.000000 0.128737
v -0.073536 0.000000 0.178765
v -0.000861 0.100000 -0.048522
v -0.007418 0.100000 0.001574
v -0.057137 0.100000 -0.055888
v -0.063694 0.100000 -0.005792
v -0.000861 0.050000 -0.048522
v -0.063694 0.050000 -0.005792
v -0.007418 0.050000 0.001574
v -0.057137 0.050000 -0.055888
v -0.000861 0.000000 -0.048522
v -0.007418 0.000000 0.001574
v -0.057137 0.000000 -0.055888
v -0.063694 0.000000 -0.005792
v -0.008032 0.100000 0.070105
v -0.004248 0.100000 0.120486
v -0.064629 0.100000 0.074355
v -0.060846 0.100000 0.124736
v -0.008032 0.050000 0.070105
v -0.060846 0.050000 0.124736
v -0.004248 0.050000 0.120486
v -0.064629 0.050000 0.074355
v -0.008032 0.000000 0.070105
v -0.004248 0.000000 0.120486
v -0.064629 0.000000 0.074355
v -0.060846 0.000000 0.124736
v 0.053044 0.100000 0.084695
v 0.046741 0.100000 0.134823
v -0.003269 0.100000 0.077614
v -0.009572 0.100000 0.127742
v 0.053044 0.050000 0.084695
v -0.009572 0.050000 0.127742
v 0.046741 0.050000 0.134823
v -0.003269 0.050000 0.077614
v 0.053044 0.000000 0.084695
v 0.046741 0.000000 0.134823
v -0.003269 0.000000 0.077614
v -0.009572 0.000000 0.127742
v 0.051005 0.100000 0.210491
v 0.044278 0.100000 0.260564
v -0.005246 0.100000 0.202934
v -0.011974 0.100000 0.253006
v 0.051005 0.050000 0.210491
v -0.011974 0.050000 0.253006
v 0.044278 0.050000 0.260564
v -0.005246 0.050000 0.202934
v 0.051005 0.000000 0.210491
v 0.044278 0.000000 0.260564
v -0.005246 0.000000 0.202934
v -0.011974 0.000000 0.253006
v 0.069657 0.100000 -0.058970
v 0.070497 0.100000 -0.008455
v 0.012908 0.100000 -0.058027
v 0.013748 0.100000 -0.007512
v 0.069657 0.050000 -0.058970
v 0.013748 0.050000 -0.007512
v 0.070497 0.050000 -0.008455
v 0.012908 0.050000 -0.058027
v 0.069657 0.000000 -0.058970
v 0.070497 0.000000 -0.008455
v 0.012908 0.000000 -0.058027
v 0.013748 0.000000 -0.007512
v 0.125782 0.100000 -0.128216
v 0.134998 0.100000 -0.078541
v 0.069977 0.100000 -0.117863
v 0.079193 0.100000 -0.068189
v 0.125782 0.050000 -0.128216
v 0.079193 0.050000 -0.068189
v 0.134998 0.050000 -0.078541
v 0.069977 0.050000 -0.117863
v 0.125782 0.000000 -0.128216
v 0.134998 0.000000 -0.078541
v 0.069977 0.000000 -0.117863
v 0.079193 0.000000 -0.068189
v 0.140963 0.100000 -0.222758
v 0.144106 0.100000 -0.172334
v 0.084316 0.100000 -0.219227
v 0.087460 0.100000 -0.168802
v 0.140963 0.050000 -0.222758
v 0.087460 0.050000 -0.168802
v 0.144106 0.050000 -0.172334
v 0.084316 0.050000 -0.219227
v 0.140963 0.000000 -0.222758
v 0.144106 0.000000 -0.172334
v 0.084316 0.000000 -0.219227
v 0.087460 0.000000 -0.168802
v 0.134332 0.100000 0.009387
v 0.133352 0.100000 0.059900
v 0.077586 0.100000 0.008286
v 0.076606 0.100000 0.058799
v 0.134332 0.050000 0.009387
v 0.076606 0.050000 0.058799
v 0.133352 0.050000 0.059900
v 0.077586 0.050000 0.008286
v 0.134332 0.000000 0.009387
v 0.133352 0.000000 0.059900
v 0.077586 0.000000 0.008286
v 0.076606 0.000000 0.058799
v -0.120088 0.100000 -0.190872
v -0.120088 0.100000 -0.190872
v -0.120088 0.050000 -0.190872
v -0.124316 0.100000 -0.241217
v -0.124316 0.100000 -0.241217
v -0.124316 0.050000 -0.241217
v -0.063530 0.100000 -0.195622
v -0.063530 0.100000 -0.195622
v -0.063530 0.050000 -0.195622
v -0.067759 0.100000 -0.245967
v -0.067759 0.100000 -0.245967
v -0.067759 0.050000 -0.245967
v -0.124316 0.000000 -0.241217
v -0.124316 0.000000 -0.241217
v -0.120088 0.000000 -0.190872
v -0.120088 0.000000 -0.190872
v -0.067759 0.000000 -0.245967
v -0.067759 0.000000 -0.245967
v -0.063530 0.000000 -0.195622
v -0.063530 0.000000 -0.195622
v -0.129778 0.100000 -0.042997
v -0.129778 0.100000 -0.042997
v -0.129778 0.050000 -0.042997
v -0.122279 0.100000 -0.092960
v -0.122279 0.100000 -0.092960
v -0.122279 0.050000 -0.092960
v -0.073649 0.100000 -0.034573
v -0.073649 0.100000 -0.034573
v -0.073649 0.050000 -0.034573
v -0.066151 0.100000 -0.084536
v -0.066151 0.100000 -0.084536
v -0.066151 0.050000 -0.084536
v -0.122279 0.000000 -0.092960
v -0.122279 0.000000 -0.092960
v -0.129778 0.000000 -0.042997
v -0.129778 0.000000 -0.042997
v -0.066151 0.000000 -0.084536
v -0.066151 0.000000 -0.084536
v -0.073649 0.000000 -0.034573
v -0.073649 0.000000 -0.034573
v -0.073536 0.100000 0.178765
v -0.073536 0.100000 0.178765
v -0.073536 0.050000 0.178765
v -0.080589 0.100000 0.128737
v -0.080589 0.100000 0.128737
v -0.080589 0.050000 0.128737
v -0.017335 0.100000 0.170842
v -0.017335 0.100000 0.170842
v -0.017335 0.050000 0.170842
v -0.024388 0.100000 0.120814
v -0.024388 0.100000 0.120814
v -0.024388 0.050000 0.120814
v -0.080589 0.000000 0.128737
v -0.080589 0.000000 0.128737
v -0.073536 0.000000 0.178765
v -0.073536 0.000000 0.178765
v -0.024388 0.000000 0.120814
v -0.024388 0.000000 0.120814
v -0.017335 0.000000 0.170842
v -0.017335 0.000000 0.170842
v -0.063694 0.100000 -0.005792
v -0.063694 0.100000 -0.005792
v -0.063694 0.050000 -0.005792
v -0.057137 0.100000 -0.055888
v -0.057137 0.100000 -0.055888
v -0.057137 0.050000 -0.055888
v -0.007418 0.100000 0.001574
v -0.007418 0.100000 0.001574
v -0.007418 0.050000 0.001574
v -0.000861 0.100000 -0.048522
v -0.000861 0.100000 -0.048522
v -0.000861 0.050000 -0.048522
v -0.057137 0.000000 -0.055888
v -0.057137 0.000000 -0.055888
v -0.063694 0.000000 -0.005792
v -0.063694 0.000000 -0.005792
v -0.000861 0.000000 -0.048522
v -0.000861 0.000000 -0.048522
v -0.007418 0.000000 0.001574
v -0.007418 0.000000 0.001574
v -0.060846 0.100000 0.124736
v -0.060846 0.100000 0.124736
v -0.060846 0.050000 0.124736
v -0.064629 0.100000 0.074355
v -0.064629 0.100000 0.074355
v -0.064629 0.050000 0.074355
v -0.004248 0.100000 0.120486
v -0.004248 0.100000 0.120486
v -0.004248 0.050000 0.120486
v -0.008032 0.100000 0.070105
v -0.008032 0.100000 0.070105
v -0.008032 0.050000 0.070105
v -0.064629 0.000000 0.074355
v -0.064629 0.000000 0.074355
v -0.060846 0.000000 0.124736
v -0.060846 0.000000 0.124736
v -0.008032 0.000000 0.070105
v -0.008032 0.000000 0.070105
v -0.004248 0.000000 0.120486
v -0.004248 0.000000 0.120486
v -0.009572 0.100000 0.127742
v -0.009572 0.100000 0.127742
v -0.009572 0.050000 0.127742
v -0.003269 0.100000 0.077614
v -0.003269 0.100000 0.077614
v -0.003269 0.050000 0.077614
v 0.046741 0.100000 0.134823
v 0.046741 0.100000 0.134823
v 0.046741 0.050000 0.134823
v 0.053044 0.100000 0.084695
v 0.053044 0.100000 0.084695
v 0.053044 0.050000 0.084695
v -0.003269 0.000000 0.077614
v -0.003269 0.000000 0.077614
v -0.009572 0.000000 0.127742
v -0.009572 0.000000 0.127742
v 0.053044 0.000000 0.084695
v 0.053044 0.000000 0.084695
v 0.046741 0.000000 0.134823
v 0.046741 0.000000 0.134823
v -0.011974 0.100000 0.253006
v -0.011974 0.100000 0.253006
v -0.011974 0.050000 0.253006
v -0.005246 0.100000 0.202934
v -0.005246 0.100000 0.202934
v -0.005246 0.050000 0.202934
v 0.044278 0.100000 0.260564
v 0.044278 0.100000 0.260564
v 0.044278 0.050000 0.260564
v 0.051005 0.100000 0.210491
v 0.051005 0.100000 0.210491
v 0.051005 0.050000 0.210491
v -0.005246 0.000000 0.202934
v -0.005246 0.000000 0.202934
v -0.011974 0.000000 0.253006
v -0.011974 0.000000 0.253006
v 0.051005 0.000000 0.210491
v 0.051005 0.000000 0.210491
v 0.044278 0.000000 0.260564
v 0.044278 0.000000 0.260564
v 0.013748 0.100000 -0.007512
v 0.013748 0.100000 -0.007512
v 0.013748 0.050000 -0.007512
v 0.012908 0.100000 -0.058027
v 0.012908 0.100000 -0.058027
v 0.012908 0.050000 -0.058027
v 0.070497 0.100000 -0.008455
v 0.070497 0.100000 -0.008455
v 0.070497 0.050000 -0.008455
v 0.069657 0.100000 -0.058970
v 0.069657 0.100000 -0.058970
v 0.069657 0.050000 -0.058970
v 0.012908 0.000000 -0.058027
v 0.012908 0.000000 -0.058027
v 0.013748 0.000000 -0.007512
v 0.013748 0.000000 -0.007512
v 0.069657 0.000000 -0.058970
v 0.069657 0.000000 -0.058970
v 0.070497 0.000000 -0.008455
v 0.070497 0.000000 -0.008455
v 0.079193 0.100000 -0.068189
v 0.079193 0.100000 -0.068189
v 0.079193 0.050000 -0.068189
v 0.069977 0.100000 -0.117863
v 0.069977 0.100000 -0.117863
v 0.069977 0.050000 -0.117863
v 0.134998 0.100000 -0.078541
v 0.134998 0.100000 -0.078541
v 0.134998 0.050000 -0.078541
v 0.125782 0.100000 -0.128216
v 0.125782 0.100000 -0.128216
v 0.125782 0.050000 -0.128216
v 0.069977 0.000000 -0.117863
v 0.069977 0.000000 -0.117863
v 0.079193 0.000000 -0.068189
v 0.079193 0.000000 -0.068189
v 0.125782 0.000000 -0.128216
v 0.125782 0.000000 -0.128216
v 0.134998 0.000000 -0.078541
v 0.134998 0.000000 -0.078541
v 0.087460 0.100000 -0.168802
v 0.087460 0.100000 -0.168802
v 0.087460 0.050000 -0.168802
v 0.084316 0.100000 -0.219227
v 0.084316 0.100000 -0.219227
v 0.084316 0.050000 -0.219227
v 0.144106 0.100000 -0.172334
v 0.144106 0.100000 -0.172334
v 0.144106 0.050000 -0.172334
v 0.140963 0.100000 -0.222758
v 0.140963 0.100000 -0.222758
v 0.140963 0.050000 -0.222758
v 0.084316 0.000000 -0.219227
v 0.084316 0.000000 -0.219227
v 0.087460 0.000000 -0.168802
v 0.087460 0.000000 -0.168802
v 0.140963 0.000000 -0.222758
v 0.140963 0.000000 -0.222758
v 0.144106 0.000000 -0.172334
v 0.144106 0.000000 -0.172334
v 0.076606 0.100000 0.058799
v 0.076606 0.100000 0.058799
v 0.076606 0.050000 0.058799
v 0.077586 0.100000 0.008286
v 0.077586 0.100000 0.008286
v 0.077586 0.050000 0.008286
v 0.133352 0.100000 0.059900
v 0.133352 0.100000 0.059900
v 0.133352 0.050000 0.059900
v 0.134332 0.100000 0.009387
v 0.134332 0.100000 0.009387
v 0.134332 0.050000 0.009387
v 0.077586 0.000000 0.008286
v 0.077586 0.000000 0.008286
v 0.076606 0.000000 0.058799
v 0.076606 0.000000 0.058799
v 0.134332 0.000000 0.009387
v 0.134332 0.000000 0.009387
v 0.133352 0.000000 0.059900
v 0.133352 0.000000 0.059900
vn -0.0000 1.0000 -0.0000
vn 0.0837 -0.0000 0.9965
vn -0.9965 -0.0000 0.0837
vn 0.9965 -0.0000 -0.0837
vn -0.0837 -0.0000 -0.9965
vn -0.0000 -1.0000 -0.0000
vn -0.1484 -0.0000 0.9889
vn -0.9889 -0.0000 -0.1484
vn 0.9889 -0.0000 0.1484
vn 0.1484 -0.0000 -0.9889
vn 0.1396 -0.0000 0.9902
vn -0.9902 -0.0000 0.1396
vn 0.9902 -0.0000 -0.1396
vn -0.1396 -0.0000 -0.9902
vn -0.1298 -0.0000 0.9915
vn -0.9915 -0.0000 -0.1298
vn 0.9915 -0.0000 0.1298
vn 0.1298 -0.0000 -0.9915
vn 0.0749 -0.0000 0.9972
vn -0.9972 -0.0000 0.0749
vn 0.9972 -0.0000 -0.0749
vn -0.0749 -0.0000 -0.9972
vn -0.1248 -0.0000 0.9922
vn -0.9922 -0.0000 -0.1248
vn 0.9922 -0.0000 0.1248
vn 0.1248 -0.0000 -0.9922
vn -0.1332 -0.0000 0.9911
vn -0.1331 -0.0000 0.9911
vn -0.9911 -0.0000 -0.1332
vn 0.9911 -0.0000 0.1332
vn 0.1332 -0.0000 -0.9911
vn 0.1331 -0.0000 -0.9911
vn 0.0166 -0.0000 0.9999
vn -0.9999 -0.0000 0.0166
vn 0.9999 -0.0000 -0.0166
vn -0.0166 -0.0000 -0.9999
vn 0.1824 -0.0000 0.9832
vn -0.9832 -0.0000 0.1824
vn 0.9832 -0.0000 -0.1824
vn -0.1824 -0.0000 -0.9832
vn 0.0622 -0.0000 0.9981
vn -0.9981 -0.0000 0.0622
vn 0.9981 -0.0000 -0.0622
vn -0.0622 -0.0000 -0.9981
vn -0.0194 -0.0000 0.9998
vn -0.9998 -0.0000 -0.0194
vn 0.9998 -0.0000 0.0194
vn 0.0194 -0.0000 -0.9998
vt 0.310293 0.959485
vt 0.982124 0.959485
vt 0.310293 0.500000
vt 0.982124 0.500000
vt 0.982124 0.040515
vt 0.310293 0.040515
s 1
f 137/1/1 140/2/1 143/2/1
f 139/2/2 6/3/2 141/4/2
f 133/1/3 8/3/3 135/3/3
f 142/2/4 7/4/4 144/4/4
f 136/1/5 5/4/5 138/3/5
f 137/1/1 134/1/1 140/2/1
f 139/2/2 4/1/2 6/3/2
f 133/1/3 3/1/3 8/3/3
f 142/2/4 2/2/4 7/4/4
f 136/1/5 1/2/5 5/4/5
f 149/5/6 147/6/6 145/6/6
f 138/3/5 150/5/5 146/6/5
f 144/4/4 151/5/4 9/5/4
f 135/3/3 11/6/3 148/6/3
f 141/4/2 12/6/2 152/5/2
f 149/5/6 10/5/6 147/6/6
f 138/3/5 5/4/5 150/5/5
f 144/4/4 7/4/4 151/5/4
f 135/3/3 8/3/3 11/6/3
f 141/4/2 6/3/2 12/6/2
f 157/1/1 160/2/1 163/2/1
f 159/2/7 18/3/7 161/4/7
f 153/1/8 20/3/8 155/3/8
f 162/2/9 19/4/9 164/4/9
f 156/1/10 17/4/10 158/3/10
f 157/1/1 154/1/1 160/2/1
f 159/2/7 16/1/7 18/3/7
f 153/1/8 15/1/8 20/3/8
f 162/2/9 14/2/9 19/4/9
f 156/1/10 13/2/10 17/4/10
f 169/5/6 167/6/6 165/6/6
f 158/3/10 170/5/10 166/6/10
f 164/4/9 171/5/9 21/5/9
f 155/3/8 23/6/8 168/6/8
f 161/4/7 24/6/7 172/5/7
f 169/5/6 22/5/6 167/6/6
f 158/3/10 17/4/10 170/5/10
f 164/4/9 19/4/9 171/5/9
f 155/3/8 20/3/8 23/6/8
f 161/4/7 18/3/7 24/6/7
f 177/1/1 180/2/1 183/2/1
f 179/2/11 30/3/11 181/4/11
f 173/1/12 32/3/12 175/3/12
f 182/2/13 31/4/13 184/4/13
f 176/1/14 29/4/14 178/3/14
f 177/1/1 174/1/1 180/2/1
f 179/2/11 28/1/11 30/3/11
f 173/1/12 27/1/12 32/3/12
f 182/2/13 26/2/13 31/4/13
f 176/1/14 25/2/14 29/4/14
f 189/5/6 187/6/6 185/6/6
f 178/3/14 190/5/14 186/6/14
f 184/4/13 191/5/13 33/5/13
f 175/3/12 35/6/12 188/6/12
f 181/4/11 36/6/11 192/5/11
f 189/5/6 34/5/6 187/6/6
f 178/3/14 29/4/14 190/5/14
f 184/4/13 31/4/13 191/5/13
f 175/3/12 32/3/12 35/6/12
f 181/4/11 30/3/11 36/6/11
f 197/1/1 200/2/1 203/2/1
f 199/2/15 42/3/15 201/4/15
f 193/1/16 44/3/16 195/3/16
f 202/2/17 43/4/17 204/4/17
f 196/1/18 41/4/18 198/3/18
f 197/1/1 194/1/1 200/2/1
f 199/2/15 40/1/15 42/3/15
f 193/1/16 39/1/16 44/3/16
f 202/2/17 38/2/17 43/4/17
f 196/1/18 37/2/18 41/4/18
f 209/5/6 207/6/6 205/6/6
f 198/3/18 210/5/18 206/6/18
f 204/4/17 211/5/17 45/5/17
f 195/3/16 47/6/16 208/6/16
f 201/4/15 48/6/15 212/5/15
f 209/5/6 46/5/6 207/6/6
f 198/3/18 41/4/18 210/5/18
f 204/4/17 43/4/17 211/5/17
f 195/3/16 44/3/16 47/6/16
f 201/4/15 42/3/15 48/6/15
f 217/1/1 220/2/1 223/2/1
f 219/2/19 54/3/19 221/4/19
f 213/1/20 56/3/20 215/3/20
f 222/2/21 55/4/21 224/4/21
f 216/1/22 53/4/22 218/3/22
f 217/1/1 214/1/1 220/2/1
f 219/2/19 52/1/19 54/3/19
f 213/1/20 51/1/20 56/3/20
f 222/2/21 50/2/21 55/4/21
f 216/1/22 49/2/22 53/4/22
f 229/5/6 227/6/6 225/6/6
f 218/3/22 230/5/22 226/6/22
f 224/4/21 231/5/21 57/5/21
f 215/3/20 59/6/20 228/6/20
f 221/4/19 60/6/19 232/5/19
f 229/5/6 58/5/6 227/6/6
f 218/3/22 53/4/22 230/5/22
f 224/4/21 55/4/21 231/5/21
f 215/3/20 56/3/20 59/6/20
f 221/4/19 54/3/19 60/6/19
f 237/1/1 240/2/1 243/2/1
f 239/2/23 66/3/23 241/4/23
f 233/1/24 68/3/24 235/3/24
f 242/2/25 67/4/25 244/4/25
f 236/1/26 65/4/26 238/3/26
f 237/1/1 234/1/1 240/2/1
f 239/2/23 64/1/23 66/3/23
f 233/1/24 63/1/24 68/3/24
f 242/2/25 62/2/25 67/4/25
f 236/1/26 61/2/26 65/4/26
f 249/5/6 247/6/6 245/6/6
f 238/3/26 250/5/26 246/6/26
f 244/4/25 251/5/25 69/5/25
f 235/3/24 71/6/24 248/6/24
f 241/4/23 72/6/23 252/5/23
f 249/5/6 70/5/6 247/6/6
f 238/3/26 65/4/26 250/5/26
f 244/4/25 67/4/25 251/5/25
f 235/3/24 68/3/24 71/6/24
f 241/4/23 66/3/23 72/6/23
f 257/1/1 260/2/1 263/2/1
f 259/2/27 78/3/28 261/4/27
f 253/1/29 80/3/29 255/3/29
f 262/2/30 79/4/30 264/4/30
f 256/1/31 77/4/31 258/3/31
f 257/1/1 254/1/1 260/2/1
f 259/2/27 76/1/28 78/3/28
f 253/1/29 75/1/29 80/3/29
f 262/2/30 74/2/30 79/4/30
f 256/1/31 73/2/32 77/4/31
f 269/5/6 267/6/6 265/6/6
f 258/3/31 270/5/31 266/6/31
f 264/4/30 271/5/30 81/5/30
f 255/3/29 83/6/29 268/6/29
f 261/4/27 84/6/27 272/5/27
f 269/5/6 82/5/6 267/6/6
f 258/3/31 77/4/31 270/5/31
f 264/4/30 79/4/30 271/5/30
f 255/3/29 80/3/29 83/6/29
f 261/4/27 78/3/28 84/6/27
f 277/1/1 280/2/1 283/2/1
f 279/2/33 90/3/33 281/4/33
f 273/1/34 92/3/34 275/3/34
f 282/2/35 91/4/35 284/4/35
f 276/1/36 89/4/36 278/3/36
f 277/1/1 274/1/1 280/2/1
f 279/2/33 88/1/33 90/3/33
f 273/1/34 87/1/34 92/3/34
f 282/2/35 86/2/35 91/4/35
f 276/1/36 85/2/36 89/4/36
f 289/5/6 287/6/6 285/6/6
f 278/3/36 290/5/36 286/6/36
f 284/4/35 291/5/35 93/5/35
f 275/3/34 95/6/34 288/6/34
f 281/4/33 96/6/33 292/5/33
f 289/5/6 94/5/6 287/6/6
f 278/3/36 89/4/36 290/5/36
f 284/4/35 91/4/35 291/5/35
f 275/3/34 92/3/34 95/6/34
f 281/4/33 90/3/33 96/6/33
f 297/1/1 300/2/1 303/2/1
f 299/2/37 102/3/37 301/4/37
f 293/1/38 104/3/38 295/3/38
f 302/2/39 103/4/39 304/4/39
f 296/1/40 101/4/40 298/3/40
f 297/1/1 294/1/1 300/2/1
f 299/2/37 100/1/37 102/3/37
f 293/1/38 99/1/38 104/3/38
f 302/2/39 98/2/39 103/4/39
f 296/1/40 97/2/40 101/4/40
f 309/5/6 307/6/6 305/6/6
f 298/3/40 310/5/40 306/6/40
f 304/4/39 311/5/39 105/5/39
f 295/3/38 107/6/38 308/6/38
f 301/4/37 108/6/37 312/5/37
f 309/5/6 106/5/6 307/6/6
f 298/3/40 101/4/40 310/5/40
f 304/4/39 103/4/39 311/5/39
f 295/3/38 104/3/38 107/6/38
f 301/4/37 102/3/37 108/6/37
f 317/1/1 320/2/1 323/2/1
f 319/2/41 114/3/41 321/4/41
f 313/1/42 116/3/42 315/3/42
f 322/2/43 115/4/43 324/4/43
f 316/1/44 113/4/44 318/3/44
f 317/1/1 314/1/1 320/2/1
f 319/2/41 112/1/41 114/3/41
f 313/1/42 111/1/42 116/3/42
f 322/2/43 110/2/43 115/4/43
f 316/1/44 109/2/44 113/4/44
f 329/5/6 327/6/6 325/6/6
f 318/3/44 330/5/44 326/6/44
f 324/4/43 331/5/43 117/5/43
f 315/3/42 119/6/42 328/6/42
f 321/4/41 120/6/41 332/5/41
f 329/5/6 118/5/6 327/6/6
f 318/3/44 113/4/44 330/5/44
f 324/4/43 115/4/43 331/5/43
f 315/3/42 116/3/42 119/6/42
f 321/4/41 114/3/41 120/6/41
f 337/1/1 340/2/1 343/2/1
f 339/2/45 126/3/45 341/4/45
f 333/1/46 128/3/46 335/3/46
f 342/2/47 127/4/47 344/4/47
f 336/1/48 125/4/48 338/3/48
f 337/1/1 334/1/1 340/2/1
f 339/2/45 124/1/45 126/3/45
f 333/1/46 123/1/46 128/3/46
f 342/2/47 122/2/47 127/4/47
f 336/1/48 121/2/48 125/4/48
f 349/5/6 347/6/6 345/6/6
f 338/3/48 350/5/48 346/6/48
f 344/4/47 351/5/47 129/5/47
f 335/3/46 131/6/46 348/6/46
f 341/4/45 132/6/45 352/5/45
f 349/5/6 130/5/6 347/6/6
f 338/3/48 125/4/48 350/5/48
f 344/4/47 127/4/47 351/5/47
f 335/3/46 128/3/46 131/6/46
f 341/4/45 126/3/45 132/6/45
