# Blender 5.0.0
# www.blender.org
o Section
v -0.100344 0.100000 -0.268608
v -0.096115 0.100000 -0.218263
v -0.156901 0.100000 -0.263858
v -0.152673 0.100000 -0.213513
v -0.100344 0.050000 -0.268608
v -0.152673 0.050000 -0.213513
v -0.096115 0.050000 -0.218263
v -0.156901 0.050000 -0.263858
v -0.100344 -0.000000 -0.268608
v -0.096115 0.000000 -0.218263
v -0.156901 -0.000000 -0.263858
v -0.152673 0.000000 -0.213513
v -0.104296 0.100000 -0.018209
v -0.111795 0.100000 0.031754
v -0.160425 0.100000 -0.026633
v -0.167923 0.100000 0.023330
v -0.104296 0.050000 -0.018209
v -0.167923 0.050000 0.023330
v -0.111795 0.050000 0.031754
v -0.160425 0.050000 -0.026633
v -0.104296 0.000000 -0.018209
v -0.111795 0.000000 0.031754
v -0.160425 0.000000 -0.026633
v -0.167923 0.000000 0.023330
v -0.121194 0.100000 0.218127
v -0.114142 0.100000 0.268155
v -0.177395 0.100000 0.226050
v -0.170343 0.100000 0.276078
v -0.121194 0.050000 0.218127
v -0.170343 0.050000 0.276078
v -0.114142 0.050000 0.268155
v -0.177395 0.050000 0.226050
v -0.121194 0.000000 0.218127
v -0.114142 0.000000 0.268155
v -0.177395 0.000000 0.226050
v -0.170343 0.000000 0.276078
v -0.037307 0.100000 -0.099387
v -0.043864 0.100000 -0.049291
v -0.093583 0.100000 -0.106753
v -0.100140 0.100000 -0.056658
v -0.037307 0.050000 -0.099387
v -0.100140 0.050000 -0.056658
v -0.043864 0.050000 -0.049291
v -0.093583 0.050000 -0.106753
v -0.037307 0.000000 -0.099387
v -0.043864 0.000000 -0.049291
v -0.093583 0.000000 -0.106753
v -0.100140 0.000000 -0.056658
v -0.049017 0.100000 0.091875
v -0.045234 0.100000 0.142256
v -0.105615 0.100000 0.096125
v -0.101831 0.100000 0.146506
v -0.049017 0.050000 0.091875
v -0.101831 0.050000 0.146506
v -0.045234 0.050000 0.142256
v -0.105615 0.050000 0.096125
v -0.049017 0.000000 0.091875
v -0.045234 0.000000 0.142256
v -0.105615 0.000000 0.096125
v -0.101831 0.000000 0.146506
v -0.049548 0.100000 0.274583
v -0.055851 0.100000 0.324711
v -0.105862 0.100000 0.267502
v -0.112165 0.100000 0.317630
v -0.049548 0.050000 0.274583
v -0.112165 0.050000 0.317630
v -0.055851 0.050000 0.324711
v -0.105862 0.050000 0.267502
v -0.049548 0.000000 0.274583
v -0.055851 0.000000 0.324711
v -0.105862 0.000000 0.267502
v -0.112165 0.000000 0.317630
v 0.030672 0.100000 -0.098184
v 0.023945 0.100000 -0.048111
v -0.025579 0.100000 -0.105741
v -0.032306 0.100000 -0.055668
v 0.030672 0.050000 -0.098184
v -0.032306 0.050000 -0.055668
v 0.023945 0.050000 -0.048111
v -0.025579 0.050000 -0.105741
v 0.030672 0.000000 -0.098184
v 0.023945 0.000000 -0.048111
v -0.025579 0.000000 -0.105741
v -0.032306 0.000000 -0.055668
v 0.016276 0.100000 0.161129
v 0.017116 0.100000 0.211644
v -0.040473 0.100000 0.162072
v -0.039633 0.100000 0.212588
v 0.016276 0.050000 0.161129
v -0.039633 0.050000 0.212588
v 0.017116 0.050000 0.211644
v -0.040473 0.050000 0.162072
v 0.016276 0.000000 0.161129
v 0.017116 0.000000 0.211644
v -0.040473 0.000000 0.162072
v -0.039633 0.000000 0.212588
v 0.104443 0.100000 -0.330797
v 0.113659 0.100000 -0.281122
v 0.048639 0.100000 -0.320444
v 0.057854 0.100000 -0.270769
v 0.104443 0.050000 -0.330797
v 0.057854 0.050000 -0.270769
v 0.113659 0.050000 -0.281122
v 0.048639 0.050000 -0.320444
v 0.104443 -0.000000 -0.330797
v 0.113659 -0.000000 -0.281122
v 0.048639 -0.000000 -0.320444
v 0.057854 -0.000000 -0.270769
v 0.091315 0.100000 0.027595
v 0.094459 0.100000 0.078020
v 0.034669 0.100000 0.031127
v 0.037812 0.100000 0.081552
v 0.091315 0.050000 0.027595
v 0.037812 0.050000 0.081552
v 0.094459 0.050000 0.078020
v 0.034669 0.050000 0.031127
v 0.091315 0.000000 0.027595
v 0.094459 0.000000 0.078020
v 0.034669 0.000000 0.031127
v 0.037812 0.000000 0.081552
v 0.085643 0.100000 0.244402
v 0.084664 0.100000 0.294915
v 0.028897 0.100000 0.243302
v 0.027918 0.100000 0.293815
v 0.085643 0.050000 0.244402
v 0.027918 0.050000 0.293815
v 0.084664 0.050000 0.294915
v 0.028897 0.050000 0.243302
v 0.085643 0.000000 0.244402
v 0.084664 0.000000 0.294915
v 0.028897 0.000000 0.243302
v 0.027918 0.000000 0.293815
v 0.178336 0.100000 -0.300354
v 0.173552 0.100000 -0.250059
v 0.121834 0.100000 -0.305728
v 0.117050 0.100000 -0.255433
v 0.178336 0.050000 -0.300354
v 0.117050 0.050000 -0.255433
v 0.173552 0.050000 -0.250059
v 0.121834 0.050000 -0.305728
v 0.178336 -0.000000 -0.300354
v 0.173552 -0.000000 -0.250059
v 0.121834 -0.000000 -0.305728
v 0.117050 -0.000000 -0.255433
v 0.176133 0.100000 -0.189623
v 0.173184 0.100000 -0.139187
v 0.119473 0.100000 -0.192936
v 0.116524 0.100000 -0.142499
v 0.176133 0.050000 -0.189623
v 0.116524 0.050000 -0.142499
v 0.173184 0.050000 -0.139187
v 0.119473 0.050000 -0.192936
v 0.176133 0.000000 -0.189623
v 0.173184 0.000000 -0.139187
v 0.119473 0.000000 -0.192936
v 0.116524 0.000000 -0.142499
v 0.179193 0.100000 -0.112473
v 0.171532 0.100000 -0.062535
v 0.123093 0.100000 -0.121080
v 0.115432 0.100000 -0.071141
v 0.179193 0.050000 -0.112473
v 0.115432 0.050000 -0.071141
v 0.171532 0.050000 -0.062535
v 0.123093 0.050000 -0.121080
v 0.179193 0.000000 -0.112473
v 0.171532 0.000000 -0.062535
v 0.123093 0.000000 -0.121080
v 0.115432 0.000000 -0.071141
v -0.152673 0.100000 -0.213513
v -0.152673 0.100000 -0.213513
v -0.152673 0.050000 -0.213513
v -0.156901 0.100000 -0.263858
v -0.156901 0.100000 -0.263858
v -0.156901 0.050000 -0.263858
v -0.096115 0.100000 -0.218263
v -0.096115 0.100000 -0.218263
v -0.096115 0.050000 -0.218263
v -0.100344 0.100000 -0.268608
v -0.100344 0.100000 -0.268608
v -0.100344 0.050000 -0.268608
v -0.156901 -0.000000 -0.263858
v -0.156901 -0.000000 -0.263858
v -0.152673 0.000000 -0.213513
v -0.152673 0.000000 -0.213513
v -0.100344 -0.000000 -0.268608
v -0.100344 -0.000000 -0.268608
v -0.096115 0.000000 -0.218263
v -0.096115 0.000000 -0.218263
v -0.167923 0.100000 0.023330
v -0.167923 0.100000 0.023330
v -0.167923 0.050000 0.023330
v -0.160425 0.100000 -0.026633
v -0.160425 0.100000 -0.026633
v -0.160425 0.050000 -0.026633
v -0.111795 0.100000 0.031754
v -0.111795 0.100000 0.031754
v -0.111795 0.050000 0.031754
v -0.104296 0.100000 -0.018209
v -0.104296 0.100000 -0.018209
v -0.104296 0.050000 -0.018209
v -0.160425 0.000000 -0.026633
v -0.160425 0.000000 -0.026633
v -0.167923 0.000000 0.023330
v -0.167923 0.000000 0.023330
v -0.104296 0.000000 -0.018209
v -0.104296 0.000000 -0.018209
v -0.111795 0.000000 0.031754
v -0.111795 0.000000 0.031754
v -0.170343 0.100000 0.276078
v -0.170343 0.100000 0.276078
v -0.170343 0.050000 0.276078
v -0.177395 0.100000 0.226050
v -0.177395 0.100000 0.226050
v -0.177395 0.050000 0.226050
v -0.114142 0.100000 0.268155
v -0.114142 0.100000 0.268155
v -0.114142 0.050000 0.268155
v -0.121194 0.100000 0.218127
v -0.121194 0.100000 0.218127
v -0.121194 0.050000 0.218127
v -0.177395 0.000000 0.226050
v -0.177395 0.000000 0.226050
v -0.170343 0.000000 0.276078
v -0.170343 0.000000 0.276078
v -0.121194 0.000000 0.218127
v -0.121194 0.000000 0.218127
v -0.114142 0.000000 0.268155
v -0.114142 0.000000 0.268155
v -0.100140 0.100000 -0.056658
v -0.100140 0.100000 -0.056658
v -0.100140 0.050000 -0.056658
v -0.093583 0.100000 -0.106753
v -0.093583 0.100000 -0.106753
v -0.093583 0.050000 -0.106753
v -0.043864 0.100000 -0.049291
v -0.043864 0.100000 -0.049291
v -0.043864 0.050000 -0.049291
v -0.037307 0.100000 -0.099387
v -0.037307 0.100000 -0.099387
v -0.037307 0.050000 -0.099387
v -0.093583 0.000000 -0.106753
v -0.093583 0.000000 -0.106753
v -0.100140 0.000000 -0.056658
v -0.100140 0.000000 -0.056658
v -0.037307 0.000000 -0.099387
v -0.037307 0.000000 -0.099387
v -0.043864 0.000000 -0.049291
v -0.043864 0.000000 -0.049291
v -0.101831 0.100000 0.146506
v -0.101831 0.100000 0.146506
v -0.101831 0.050000 0.146506
v -0.105615 0.100000 0.096125
v -0.105615 0.100000 0.096125
v -0.105615 0.050000 0.096125
v -0.045234 0.100000 0.142256
v -0.045234 0.100000 0.142256
v -0.045234 0.050000 0.142256
v -0.049017 0.100000 0.091875
v -0.049017 0.100000 0.091875
v -0.049017 0.050000 0.091875
v -0.105615 0.000000 0.096125
v -0.105615 0.000000 0.096125
v -0.101831 0.000000 0.146506
v -0.101831 0.000000 0.146506
v -0.049017 0.000000 0.091875
v -0.049017 0.000000 0.091875
v -0.045234 0.000000 0.142256
v -0.045234 0.000000 0.142256
v -0.112165 0.100000 0.317630
v -0.112165 0.100000 0.317630
v -0.112165 0.050000 0.317630
v -0.105862 0.100000 0.267502
v -0.105862 0.100000 0.267502
v -0.105862 0.050000 0.267502
v -0.055851 0.100000 0.324711
v -0.055851 0.100000 0.324711
v -0.055851 0.050000 0.324711
v -0.049548 0.100000 0.274583
v -0.049548 0.100000 0.274583
v -0.049548 0.050000 0.274583
v -0.105862 0.000000 0.267502
v -0.105862 0.000000 0.267502
v -0.112165 0.000000 0.317630
v -0.112165 0.000000 0.317630
v -0.049548 0.000000 0.274583
v -0.049548 0.000000 0.274583
v -0.055851 0.000000 0.324711
v -0.055851 0.000000 0.324711
v -0.032306 0.100000 -0.055668
v -0.032306 0.100000 -0.055668
v -0.032306 0.050000 -0.055668
v -0.025579 0.100000 -0.105741
v -0.025579 0.100000 -0.105741
v -0.025579 0.050000 -0.105741
v 0.023945 0.100000 -0.048111
v 0.023945 0.100000 -0.048111
v 0.023945 0.050000 -0.048111
v 0.030672 0.100000 -0.098184
v 0.030672 0.100000 -0.098184
v 0.030672 0.050000 -0.098184
v -0.025579 0.000000 -0.105741
v -0.025579 0.000000 -0.105741
v -0.032306 0.000000 -0.055668
v -0.032306 0.000000 -0.055668
v 0.030672 0.000000 -0.098184
v 0.030672 0.000000 -0.098184
v 0.023945 0.000000 -0.048111
v 0.023945 0.000000 -0.048111
v -0.039633 0.100000 0.212588
v -0.039633 0.100000 0.212588
v -0.039633 0.050000 0.212588
v -0.040473 0.100000 0.162072
v -0.040473 0.100000 0.162072
v -0.040473 0.050000 0.162072
v 0.017116 0.100000 0.211644
v 0.017116 0.100000 0.211644
v 0.017116 0.050000 0.211644
v 0.016276 0.100000 0.161129
v 0.016276 0.100000 0.161129
v 0.016276 0.050000 0.161129
v -0.040473 0.000000 0.162072
v -0.040473 0.000000 0.162072
v -0.039633 0.000000 0.212588
v -0.039633 0.000000 0.212588
v 0.016276 0.000000 0.161129
v 0.016276 0.000000 0.161129
v 0.017116 0.000000 0.211644
v 0.017116 0.000000 0.211644
v 0.057854 0.100000 -0.270769
v 0.057854 0.100000 -0.270769
v 0.057854 0.050000 -0.270769
v 0.048639 0.100000 -0.320444
v 0.048639 0.100000 -0.320444
v 0.048639 0.050000 -0.320444
v 0.113659 0.100000 -0.281122
v 0.113659 0.100000 -0.281122
v 0.113659 0.050000 -0.281122
v 0.104443 0.100000 -0.330797
v 0.104443 0.100000 -0.330797
v 0.104443 0.050000 -0.330797
v 0.048639 -0.000000 -0.320444
v 0.048639 -0.000000 -0.320444
v 0.057854 -0.000000 -0.270769
v 0.057854 -0.000000 -0.270769
v 0.104443 -0.000000 -0.330797
v 0.104443 -0.000000 -0.330797
v 0.113659 -0.000000 -0.281122
v 0.113659 -0.000000 -0.281122
v 0.037812 0.100000 0.081552
v 0.037812 0.100000 0.081552
v 0.037812 0.050000 0.081552
v 0.034669 0.100000 0.031127
v 0.034669 0.100000 0.031127
v 0.034669 0.050000 0.031127
v 0.094459 0.100000 0.078020
v 0.094459 0.100000 0.078020
v 0.094459 0.050000 0.078020
v 0.091315 0.100000 0.027595
v 0.091315 0.100000 0.027595
v 0.091315 0.050000 0.027595
v 0.034669 0.000000 0.031127
v 0.034669 0.000000 0.031127
v 0.037812 0.000000 0.081552
v 0.037812 0.000000 0.081552
v 0.091315 0.000000 0.027595
v 0.091315 0.000000 0.027595
v 0.094459 0.000000 0.078020
v 0.094459 0.000000 0.078020
v 0.027918 0.100000 0.293815
v 0.027918 0.100000 0.293815
v 0.027918 0.050000 0.293815
v 0.028897 0.100000 0.243302
v 0.028897 0.100000 0.243302
v 0.028897 0.050000 0.243302
v 0.084664 0.100000 0.294915
v 0.084664 0.100000 0.294915
v 0.084664 0.050000 0.294915
v 0.085643 0.100000 0.244402
v 0.085643 0.100000 0.244402
v 0.085643 0.050000 0.244402
v 0.028897 0.000000 0.243302
v 0.028897 0.000000 0.243302
v 0.027918 0.000000 0.293815
v 0.027918 0.000000 0.293815
v 0.085643 0.000000 0.244402
v 0.085643 0.000000 0.244402
v 0.084664 0.000000 0.294915
v 0.084664 0.000000 0.294915
v 0.117050 0.100000 -0.255433
v 0.117050 0.100000 -0.255433
v 0.117050 0.050000 -0.255433
v 0.121834 0.100000 -0.305728
v 0.121834 0.100000 -0.305728
v 0.121834 0.050000 -0.305728
v 0.173552 0.100000 -0.250059
v 0.173552 0.100000 -0.250059
v 0.173552 0.050000 -0.250059
v 0.178336 0.100000 -0.300354
v 0.178336 0.100000 -0.300354
v 0.178336 0.050000 -0.300354
v 0.121834 -0.000000 -0.305728
v 0.121834 -0.000000 -0.305728
v 0.117050 -0.000000 -0.255433
v 0.117050 -0.000000 -0.255433
v 0.178336 -0.000000 -0.300354
v 0.178336 -0.000000 -0.300354
v 0.173552 -0.000000 -0.250059
v 0.173552 -0.000000 -0.250059
v 0.116524 0.100000 -0.142499
v 0.116524 0.100000 -0.142499
v 0.116524 0.050000 -0.142499
v 0.119473 0.100000 -0.192936
v 0.119473 0.100000 -0.192936
v 0.119473 0.050000 -0.192936
v 0.173184 0.100000 -0.139187
v 0.173184 0.100000 -0.139187
v 0.173184 0.050000 -0.139187
v 0.176133 0.100000 -0.189623
v 0.176133 0.100000 -0.189623
v 0.176133 0.050000 -0.189623
v 0.119473 0.000000 -0.192936
v 0.119473 0.000000 -0.192936
v 0.116524 0.000000 -0.142499
v 0.116524 0.000000 -0.142499
v 0.176133 0.000000 -0.189623
v 0.176133 0.000000 -0.189623
v 0.173184 0.000000 -0.139187
v 0.173184 0.000000 -0.139187
v 0.115432 0.100000 -0.071141
v 0.115432 0.100000 -0.071141
v 0.115432 0.050000 -0.071141
v 0.123093 0.100000 -0.121080
v 0.123093 0.100000 -0.121080
v 0.123093 0.050000 -0.121080
v 0.171532 0.100000 -0.062535
v 0.171532 0.100000 -0.062535
v 0.171532 0.050000 -0.062535
v 0.179193 0.100000 -0.112473
v 0.179193 0.100000 -0.112473
v 0.179193 0.050000 -0.112473
v 0.123093 0.000000 -0.121080
v 0.123093 0.000000 -0.121080
v 0.115432 0.000000 -0.071141
v 0.115432 0.000000 -0.071141
v 0.179193 0.000000 -0.112473
v 0.179193 0.000000 -0.112473
v 0.171532 0.000000 -0.062535
v 0.171532 0.000000 -0.062535
vn -0.0000 1.0000 -0.0000
vn 0.0837 -0.0000 0.9965
vn -0.9965 -0.0000 0.0837
vn 0.9965 -0.0000 -0.0837
vn -0.0837 -0.0000 -0.9965
vn -0.0000 -1.0000 -0.0000
vn -0.1484 -0.0000 0.9889
vn -0.9889 -0.0000 -0.1484
vn 0.9889 -0.0000 0.1484
vn 0.1484 -0.0000 -0.9889
vn 0.1396 -0.0000 0.9902
vn -0.9902 -0.0000 0.1396
vn 0.9902 -0.0000 -0.1396
vn -0.1396 -0.0000 -0.9902
vn -0.1298 -0.0000 0.9915
vn -0.9915 -0.0000 -0.1298
vn 0.9915 -0.0000 0.1298
vn 0.1298 -0.0000 -0.9915
vn 0.0749 -0.0000 0.9972
vn -0.9972 -0.0000 0.0749
vn 0.9972 -0.0000 -0.0749
vn -0.0749 -0.0000 -0.9972
vn -0.1248 -0.0000 0.9922
vn -0.9922 -0.0000 -0.1248
vn 0.9922 -0.0000 0.1248
vn 0.1248 -0.0000 -0.9922
vn -0.1332 -0.0000 0.9911
vn -0.9911 -0.0000 -0.1332
vn 0.9911 -0.0000 0.1332
vn 0.1332 -0.0000 -0.9911
vn 0.0166 -0.0000 0.9999
vn -0.9999 -0.0000 0.0166
vn 0.9999 -0.0000 -0.0166
vn -0.0166 -0.0000 -0.9999
vn 0.1824 -0.0000 0.9832
vn -0.9832 -0.0000 0.1824
vn 0.9832 -0.0000 -0.1824
vn -0.1824 -0.0000 -0.9832
vn 0.0622 -0.0000 0.9981
vn -0.9981 -0.0000 0.0622
vn 0.9981 -0.0000 -0.0622
vn -0.0622 -0.0000 -0.9981
vn -0.0194 -0.0000 0.9998
vn -0.9998 -0.0000 -0.0194
vn 0.9998 -0.0000 0.0194
vn 0.0194 -0.0000 -0.9998
vn -0.0947 -0.0000 0.9955
vn -0.9955 -0.0000 -0.0947
vn 0.9955 -0.0000 0.0947
vn 0.0947 -0.0000 -0.9955
vn -0.0584 -0.0000 0.9983
vn -0.9983 -0.0000 -0.0584
vn 0.9983 -0.0000 0.0584
vn 0.0584 -0.0000 -0.9983
vn -0.1516 -0.0000 0.9884
vn -0.9884 -0.0000 -0.1516
vn 0.9884 -0.0000 0.1516
vn 0.1516 -0.0000 -0.9884
vt 0.310293 0.959485
vt 0.982124 0.959485
vt 0.310293 0.500000
vt 0.982124 0.500000
vt 0.982124 0.040515
vt 0.310293 0.040515
s 1
f 173/1/1 176/2/1 179/2/1
f 175/2/2 6/3/2 177/4/2
f 169/1/3 8/3/3 171/3/3
f 178/2/4 7/4/4 180/4/4
f 172/1/5 5/4/5 174/3/5
f 173/1/1 170/1/1 176/2/1
f 175/2/2 4/1/2 6/3/2
f 169/1/3 3/1/3 8/3/3
f 178/2/4 2/2/4 7/4/4
f 172/1/5 1/2/5 5/4/5
f 185/5/6 183/6/6 181/6/6
f 174/3/5 186/5/5 182/6/5
f 180/4/4 187/5/4 9/5/4
f 171/3/3 11/6/3 184/6/3
f 177/4/2 12/6/2 188/5/2
f 185/5/6 10/5/6 183/6/6
f 174/3/5 5/4/5 186/5/5
f 180/4/4 7/4/4 187/5/4
f 171/3/3 8/3/3 11/6/3
f 177/4/2 6/3/2 12/6/2
f 193/1/1 196/2/1 199/2/1
f 195/2/7 18/3/7 197/4/7
f 189/1/8 20/3/8 191/3/8
f 198/2/9 19/4/9 200/4/9
f 192/1/10 17/4/10 194/3/10
f 193/1/1 190/1/1 196/2/1
f 195/2/7 16/1/7 18/3/7
f 189/1/8 15/1/8 20/3/8
f 198/2/9 14/2/9 19/4/9
f 192/1/10 13/2/10 17/4/10
f 205/5/6 203/6/6 201/6/6
f 194/3/10 206/5/10 202/6/10
f 200/4/9 207/5/9 21/5/9
f 191/3/8 23/6/8 204/6/8
f 197/4/7 24/6/7 208/5/7
f 205/5/6 22/5/6 203/6/6
f 194/3/10 17/4/10 206/5/10
f 200/4/9 19/4/9 207/5/9
f 191/3/8 20/3/8 23/6/8
f 197/4/7 18/3/7 24/6/7
f 213/1/1 216/2/1 219/2/1
f 215/2/11 30/3/11 217/4/11
f 209/1/12 32/3/12 211/3/12
f 218/2/13 31/4/13 220/4/13
f 212/1/14 29/4/14 214/3/14
f 213/1/1 210/1/1 216/2/1
f 215/2/11 28/1/11 30/3/11
f 209/1/12 27/1/12 32/3/12
f 218/2/13 26/2/13 31/4/13
f 212/1/14 25/2/14 29/4/14
f 225/5/6 223/6/6 221/6/6
f 214/3/14 226/5/14 222/6/14
f 220/4/13 227/5/13 33/5/13
f 211/3/12 35/6/12 224/6/12
f 217/4/11 36/6/11 228/5/11
f 225/5/6 34/5/6 223/6/6
f 214/3/14 29/4/14 226/5/14
f 220/4/13 31/4/13 227/5/13
f 211/3/12 32/3/12 35/6/12
f 217/4/11 30/3/11 36/6/11
f 233/1/1 236/2/1 239/2/1
f 235/2/15 42/3/15 237/4/15
f 229/1/16 44/3/16 231/3/16
f 238/2/17 43/4/17 240/4/17
f 232/1/18 41/4/18 234/3/18
f 233/1/1 230/1/1 236/2/1
f 235/2/15 40/1/15 42/3/15
f 229/1/16 39/1/16 44/3/16
f 238/2/17 38/2/17 43/4/17
f 232/1/18 37/2/18 41/4/18
f 245/5/6 243/6/6 241/6/6
f 234/3/18 246/5/18 242/6/18
f 240/4/17 247/5/17 45/5/17
f 231/3/16 47/6/16 244/6/16
f 237/4/15 48/6/15 248/5/15
f 245/5/6 46/5/6 243/6/6
f 234/3/18 41/4/18 246/5/18
f 240/4/17 43/4/17 247/5/17
f 231/3/16 44/3/16 47/6/16
f 237/4/15 42/3/15 48/6/15
f 253/1/1 256/2/1 259/2/1
f 255/2/19 54/3/19 257/4/19
f 249/1/20 56/3/20 251/3/20
f 258/2/21 55/4/21 260/4/21
f 252/1/22 53/4/22 254/3/22
f 253/1/1 250/1/1 256/2/1
f 255/2/19 52/1/19 54/3/19
f 249/1/20 51/1/20 56/3/20
f 258/2/21 50/2/21 55/4/21
f 252/1/22 49/2/22 53/4/22
f 265/5/6 263/6/6 261/6/6
f 254/3/22 266/5/22 262/6/22
f 260/4/21 267/5/21 57/5/21
f 251/3/20 59/6/20 264/6/20
f 257/4/19 60/6/19 268/5/19
f 265/5/6 58/5/6 263/6/6
f 254/3/22 53/4/22 266/5/22
f 260/4/21 55/4/21 267/5/21
f 251/3/20 56/3/20 59/6/20
f 257/4/19 54/3/19 60/6/19
f 273/1/1 276/2/1 279/2/1
f 275/2/23 66/3/23 277/4/23
f 269/1/24 68/3/24 271/3/24
f 278/2/25 67/4/25 280/4/25
f 272/1/26 65/4/26 274/3/26
f 273/1/1 270/1/1 276/2/1
f 275/2/23 64/1/23 66/3/23
f 269/1/24 63/1/24 68/3/24
f 278/2/25 62/2/25 67/4/25
f 272/1/26 61/2/26 65/4/26
f 285/5/6 283/6/6 281/6/6
f 274/3/26 286/5/26 282/6/26
f 280/4/25 287/5/25 69/5/25
f 271/3/24 71/6/24 284/6/24
f 277/4/23 72/6/23 288/5/23
f 285/5/6 70/5/6 283/6/6
f 274/3/26 65/4/26 286/5/26
f 280/4/25 67/4/25 287/5/25
f 271/3/24 68/3/24 71/6/24
f 277/4/23 66/3/23 72/6/23
f 293/1/1 296/2/1 299/2/1
f 295/2/27 78/3/27 297/4/27
f 289/1/28 80/3/28 291/3/28
f 298/2/29 79/4/29 300/4/29
f 292/1/30 77/4/30 294/3/30
f 293/1/1 290/1/1 296/2/1
f 295/2/27 76/1/27 78/3/27
f 289/1/28 75/1/28 80/3/28
f 298/2/29 74/2/29 79/4/29
f 292/1/30 73/2/30 77/4/30
f 305/5/6 303/6/6 301/6/6
f 294/3/30 306/5/30 302/6/30
f 300/4/29 307/5/29 81/5/29
f 291/3/28 83/6/28 304/6/28
f 297/4/27 84/6/27 308/5/27
f 305/5/6 82/5/6 303/6/6
f 294/3/30 77/4/30 306/5/30
f 300/4/29 79/4/29 307/5/29
f 291/3/28 80/3/28 83/6/28
f 297/4/27 78/3/27 84/6/27
f 313/1/1 316/2/1 319/2/1
f 315/2/31 90/3/31 317/4/31
f 309/1/32 92/3/32 311/3/32
f 318/2/33 91/4/33 320/4/33
f 312/1/34 89/4/34 314/3/34
f 313/1/1 310/1/1 316/2/1
f 315/2/31 88/1/31 90/3/31
f 309/1/32 87/1/32 92/3/32
f 318/2/33 86/2/33 91/4/33
f 312/1/34 85/2/34 89/4/34
f 325/5/6 323/6/6 321/6/6
f 314/3/34 326/5/34 322/6/34
f 320/4/33 327/5/33 93/5/33
f 311/3/32 95/6/32 324/6/32
f 317/4/31 96/6/31 328/5/31
f 325/5/6 94/5/6 323/6/6
f 314/3/34 89/4/34 326/5/34
f 320/4/33 91/4/33 327/5/33
f 311/3/32 92/3/32 95/6/32
f 317/4/31 90/3/31 96/6/31
f 333/1/1 336/2/1 339/2/1
f 335/2/35 102/3/35 337/4/35
f 329/1/36 104/3/36 331/3/36
f 338/2/37 103/4/37 340/4/37
f 332/1/38 101/4/38 334/3/38
f 333/1/1 330/1/1 336/2/1
f 335/2/35 100/1/35 102/3/35
f 329/1/36 99/1/36 104/3/36
f 338/2/37 98/2/37 103/4/37
f 332/1/38 97/2/38 101/4/38
f 345/5/6 343/6/6 341/6/6
f 334/3/38 346/5/38 342/6/38
f 340/4/37 347/5/37 105/5/37
f 331/3/36 107/6/36 344/6/36
f 337/4/35 108/6/35 348/5/35
f 345/5/6 106/5/6 343/6/6
f 334/3/38 101/4/38 346/5/38
f 340/4/37 103/4/37 347/5/37
f 331/3/36 104/3/36 107/6/36
f 337/4/35 102/3/35 108/6/35
f 353/1/1 356/2/1 359/2/1
f 355/2/39 114/3/39 357/4/39
f 349/1/40 116/3/40 351/3/40
f 358/2/41 115/4/41 360/4/41
f 352/1/42 113/4/42 354/3/42
f 353/1/1 350/1/1 356/2/1
f 355/2/39 112/1/39 114/3/39
f 349/1/40 111/1/40 116/3/40
f 358/2/41 110/2/41 115/4/41
f 352/1/42 109/2/42 113/4/42
f 365/5/6 363/6/6 361/6/6
f 354/3/42 366/5/42 362/6/42
f 360/4/41 367/5/41 117/5/41
f 351/3/40 119/6/40 364/6/40
f 357/4/39 120/6/39 368/5/39
f 365/5/6 118/5/6 363/6/6
f 354/3/42 113/4/42 366/5/42
f 360/4/41 115/4/41 367/5/41
f 351/3/40 116/3/40 119/6/40
f 357/4/39 114/3/39 120/6/39
f 373/1/1 376/2/1 379/2/1
f 375/2/43 126/3/43 377/4/43
f 369/1/44 128/3/44 371/3/44
f 378/2/45 127/4/45 380/4/45
f 372/1/46 125/4/46 374/3/46
f 373/1/1 370/1/1 376/2/1
f 375/2/43 124/1/43 126/3/43
f 369/1/44 123/1/44 128/3/44
f 378/2/45 122/2/45 127/4/45
f 372/1/46 121/2/46 125/4/46
f 385/5/6 383/6/6 381/6/6
f 374/3/46 386/5/46 382/6/46
f 380/4/45 387/5/45 129/5/45
f 371/3/44 131/6/44 384/6/44
f 377/4/43 132/6/43 388/5/43
f 385/5/6 130/5/6 383/6/6
f 374/3/46 125/4/46 386/5/46
f 380/4/45 127/4/45 387/5/45
f 371/3/44 128/3/44 131/6/44
f 377/4/43 126/3/43 132/6/43
f 393/1/1 396/2/1 399/2/1
f 395/2/47 138/3/47 397/4/47
f 389/1/48 140/3/48 391/3/48
f 398/2/49 139/4/49 400/4/49
f 392/1/50 137/4/50 394/3/50
f 393/1/1 390/1/1 396/2/1
f 395/2/47 136/1/47 138/3/47
f 389/1/48 135/1/48 140/3/48
f 398/2/49 134/2/49 139/4/49
f 392/1/50 133/2/50 137/4/50
f 405/5/6 403/6/6 401/6/6
f 394/3/50 406/5/50 402/6/50
f 400/4/49 407/5/49 141/5/49
f 391/3/48 143/6/48 404/6/48
f 397/4/47 144/6/47 408/5/47
f 405/5/6 142/5/6 403/6/6
f 394/3/50 137/4/50 406/5/50
f 400/4/49 139/4/49 407/5/49
f 391/3/48 140/3/48 143/6/48
f 397/4/47 138/3/47 144/6/47
f 413/1/1 416/2/1 419/2/1
f 415/2/51 150/3/51 417/4/51
f 409/1/52 152/3/52 411/3/52
f 418/2/53 151/4/53 420/4/53
f 412/1/54 149/4/54 414/3/54
f 413/1/1 410/1/1 416/2/1
f 415/2/51 148/1/51 150/3/51
f 409/1/52 147/1/52 152/3/52
f 418/2/53 146/2/53 151/4/53
f 412/1/54 145/2/54 149/4/54
f 425/5/6 423/6/6 421/6/6
f 414/3/54 426/5/54 422/6/54
f 420/4/53 427/5/53 153/5/53
f 411/3/52 155/6/52 424/6/52
f 417/4/51 156/6/51 428/5/51
f 425/5/6 154/5/6 423/6/6
f 414/3/54 149/4/54 426/5/54
f 420/4/53 151/4/53 427/5/53
f 411/3/52 152/3/52 155/6/52
f 417/4/51 150/3/51 156/6/51
f 433/1/1 436/2/1 439/2/1
f 435/2/55 162/3/55 437/4/55
f 429/1/56 164/3/56 431/3/56
f 438/2/57 163/4/57 440/4/57
f 432/1/58 161/4/58 434/3/58
f 433/1/1 430/1/1 436/2/1
f 435/2/55 160/1/55 162/3/55
f 429/1/56 159/1/56 164/3/56
f 438/2/57 158/2/57 163/4/57
f 432/1/58 157/2/58 161/4/58
f 445/5/6 443/6/6 441/6/6
f 434/3/58 446/5/58 442/6/58
f 440/4/57 447/5/57 165/5/57
f 431/3/56 167/6/56 444/6/56
f 437/4/55 168/6/55 448/5/55
f 445/5/6 166/5/6 443/6/6
f 434/3/58 161/4/58 446/5/58
f 440/4/57 163/4/57 447/5/57
f 431/3/56 164/3/56 167/6/56
f 437/4/55 162/3/55 168/6/55
