# Blender 5.0.0
# www.blender.org
o Section
v -0.074096 0.100000 -0.115261
v -0.074096 0.100000 -0.064739
v -0.130852 0.100000 -0.115261
v -0.130852 0.100000 -0.064739
v -0.074096 0.050000 -0.115261
v -0.130852 0.050000 -0.064739
v -0.074096 0.050000 -0.064739
v -0.130852 0.050000 -0.115261
v -0.074096 0.000000 -0.115261
v -0.074096 0.000000 -0.064739
v -0.130852 0.000000 -0.115261
v -0.130852 0.000000 -0.064739
v -0.074096 0.100000 -0.025261
v -0.074096 0.100000 0.025261
v -0.130852 0.100000 -0.025261
v -0.130852 0.100000 0.025261
v -0.074096 0.050000 -0.025261
v -0.130852 0.050000 0.025261
v -0.074096 0.050000 0.025261
v -0.130852 0.050000 -0.025261
v -0.074096 0.000000 -0.025261
v -0.074096 0.000000 0.025261
v -0.130852 0.000000 -0.025261
v -0.130852 0.000000 0.025261
v -0.074096 0.100000 0.064739
v -0.074096 0.100000 0.115261
v -0.130852 0.100000 0.064739
v -0.130852 0.100000 0.115261
v -0.074096 0.050000 0.064739
v -0.130852 0.050000 0.115261
v -0.074096 0.050000 0.115261
v -0.130852 0.050000 0.064739
v -0.074096 0.000000 0.064739
v -0.074096 0.000000 0.115261
v -0.130852 0.000000 0.064739
v -0.130852 0.000000 0.115261
v -0.006121 0.100000 -0.115261
v -0.006121 0.100000 -0.064739
v -0.062877 0.100000 -0.115261
v -0.062877 0.100000 -0.064739
v -0.006121 0.050000 -0.115261
v -0.062877 0.050000 -0.064739
v -0.006121 0.050000 -0.064739
v -0.062877 0.050000 -0.115261
v -0.006121 0.000000 -0.115261
v -0.006121 0.000000 -0.064739
v -0.062877 0.000000 -0.115261
v -0.062877 0.000000 -0.064739
v -0.006121 0.100000 -0.025261
v -0.006121 0.100000 0.025261
v -0.062877 0.100000 -0.025261
v -0.062877 0.100000 0.025261
v -0.006121 0.050000 -0.025261
v -0.062877 0.050000 0.025261
v -0.006121 0.050000 0.025261
v -0.062877 0.050000 -0.025261
v -0.006121 0.000000 -0.025261
v -0.006121 0.000000 0.025261
v -0.062877 0.000000 -0.025261
v -0.062877 0.000000 0.025261
v -0.006121 0.100000 0.064739
v -0.006121 0.100000 0.115261
v -0.062877 0.100000 0.064739
v -0.062877 0.100000 0.115261
v -0.006121 0.050000 0.064739
v -0.062877 0.050000 0.115261
v -0.006121 0.050000 0.115261
v -0.062877 0.050000 0.064739
v -0.006121 0.000000 0.064739
v -0.006121 0.000000 0.115261
v -0.062877 0.000000 0.064739
v -0.062877 0.000000 0.115261
v 0.061854 0.100000 -0.115261
v 0.061854 0.100000 -0.064739
v 0.005097 0.100000 -0.115261
v 0.005097 0.100000 -0.064739
v 0.061854 0.050000 -0.115261
v 0.005097 0.050000 -0.064739
v 0.061854 0.050000 -0.064739
v 0.005097 0.050000 -0.115261
v 0.061854 0.000000 -0.115261
v 0.061854 0.000000 -0.064739
v 0.005097 0.000000 -0.115261
v 0.005097 0.000000 -0.064739
v 0.061854 0.100000 -0.025261
v 0.061854 0.100000 0.025261
v 0.005097 0.100000 -0.025261
v 0.005097 0.100000 0.025261
v 0.061854 0.050000 -0.025261
v 0.005097 0.050000 0.025261
v 0.061854 0.050000 0.025261
v 0.005097 0.050000 -0.025261
v 0.061854 0.000000 -0.025261
v 0.061854 0.000000 0.025261
v 0.005097 0.000000 -0.025261
v 0.005097 0.000000 0.025261
v 0.129829 0.100000 -0.115261
v 0.129829 0.100000 -0.064739
v 0.073072 0.100000 -0.115261
v 0.073072 0.100000 -0.064739
v 0.129829 0.050000 -0.115261
v 0.073072 0.050000 -0.064739
v 0.129829 0.050000 -0.064739
v 0.073072 0.050000 -0.115261
v 0.129829 0.000000 -0.115261
v 0.129829 0.000000 -0.064739
v 0.073072 0.000000 -0.115261
v 0.073072 0.000000 -0.064739
v 0.129829 0.100000 -0.025261
v 0.129829 0.100000 0.025261
v 0.073072 0.100000 -0.025261
v 0.073072 0.100000 0.025261
v 0.129829 0.050000 -0.025261
v 0.073072 0.050000 0.025261
v 0.129829 0.050000 0.025261
v 0.073072 0.050000 -0.025261
v 0.129829 0.000000 -0.025261
v 0.129829 0.000000 0.025261
v 0.073072 0.000000 -0.025261
v 0.073072 0.000000 0.025261
v 0.129829 0.100000 0.064739
v 0.129829 0.100000 0.115261
v 0.073072 0.100000 0.064739
v 0.073072 0.100000 0.115261
v 0.129829 0.050000 0.064739
v 0.073072 0.050000 0.115261
v 0.129829 0.050000 0.115261
v 0.073072 0.050000 0.064739
v 0.129829 0.000000 0.064739
v 0.129829 0.000000 0.115261
v 0.073072 0.000000 0.064739
v 0.073072 0.000000 0.115261
v -0.130852 0.100000 -0.064739
v -0.130852 0.100000 -0.064739
v -0.130852 0.050000 -0.064739
v -0.130852 0.100000 -0.115261
v -0.130852 0.100000 -0.115261
v -0.130852 0.050000 -0.115261
v -0.074096 0.100000 -0.064739
v -0.074096 0.100000 -0.064739
v -0.074096 0.050000 -0.064739
v -0.074096 0.100000 -0.115261
v -0.074096 0.100000 -0.115261
v -0.074096 0.050000 -0.115261
v -0.130852 0.000000 -0.115261
v -0.130852 0.000000 -0.115261
v -0.130852 0.000000 -0.064739
v -0.130852 0.000000 -0.064739
v -0.074096 0.000000 -0.115261
v -0.074096 0.000000 -0.115261
v -0.074096 0.000000 -0.064739
v -0.074096 0.000000 -0.064739
v -0.130852 0.100000 0.025261
v -0.130852 0.100000 0.025261
v -0.130852 0.050000 0.025261
v -0.130852 0.100000 -0.025261
v -0.130852 0.100000 -0.025261
v -0.130852 0.050000 -0.025261
v -0.074096 0.100000 0.025261
v -0.074096 0.100000 0.025261
v -0.074096 0.050000 0.025261
v -0.074096 0.100000 -0.025261
v -0.074096 0.100000 -0.025261
v -0.074096 0.050000 -0.025261
v -0.130852 0.000000 -0.025261
v -0.130852 0.000000 -0.025261
v -0.130852 0.000000 0.025261
v -0.130852 0.000000 0.025261
v -0.074096 0.000000 -0.025261
v -0.074096 0.000000 -0.025261
v -0.074096 0.000000 0.025261
v -0.074096 0.000000 0.025261
v -0.130852 0.100000 0.115261
v -0.130852 0.100000 0.115261
v -0.130852 0.050000 0.115261
v -0.130852 0.100000 0.064739
v -0.130852 0.100000 0.064739
v -0.130852 0.050000 0.064739
v -0.074096 0.100000 0.115261
v -0.074096 0.100000 0.115261
v -0.074096 0.050000 0.115261
v -0.074096 0.100000 0.064739
v -0.074096 0.100000 0.064739
v -0.074096 0.050000 0.064739
v -0.130852 0.000000 0.064739
v -0.130852 0.000000 0.064739
v -0.130852 0.000000 0.115261
v -0.130852 0.000000 0.115261
v -0.074096 0.000000 0.064739
v -0.074096 0.000000 0.064739
v -0.074096 0.000000 0.115261
v -0.074096 0.000000 0.115261
v -0.062877 0.100000 -0.064739
v -0.062877 0.100000 -0.064739
v -0.062877 0.050000 -0.064739
v -0.062877 0.100000 -0.115261
v -0.062877 0.100000 -0.115261
v -0.062877 0.050000 -0.115261
v -0.006121 0.100000 -0.064739
v -0.006121 0.100000 -0.064739
v -0.006121 0.050000 -0.064739
v -0.006121 0.100000 -0.115261
v -0.006121 0.100000 -0.115261
v -0.006121 0.050000 -0.115261
v -0.062877 0.000000 -0.115261
v -0.062877 0.000000 -0.115261
v -0.062877 0.000000 -0.064739
v -0.062877 0.000000 -0.064739
v -0.006121 0.000000 -0.115261
v -0.006121 0.000000 -0.115261
v -0.006121 0.000000 -0.064739
v -0.006121 0.000000 -0.064739
v -0.062877 0.100000 0.025261
v -0.062877 0.100000 0.025261
v -0.062877 0.050000 0.025261
v -0.062877 0.100000 -0.025261
v -0.062877 0.100000 -0.025261
v -0.062877 0.050000 -0.025261
v -0.006121 0.100000 0.025261
v -0.006121 0.100000 0.025261
v -0.006121 0.050000 0.025261
v -0.006121 0.100000 -0.025261
v -0.006121 0.100000 -0.025261
v -0.006121 0.050000 -0.025261
v -0.062877 0.000000 -0.025261
v -0.062877 0.000000 -0.025261
v -0.062877 0.000000 0.025261
v -0.062877 0.000000 0.025261
v -0.006121 0.000000 -0.025261
v -0.006121 0.000000 -0.025261
v -0.006121 0.000000 0.025261
v -0.006121 0.000000 0.025261
v -0.062877 0.100000 0.115261
v -0.062877 0.100000 0.115261
v -0.062877 0.050000 0.115261
v -0.062877 0.100000 0.064739
v -0.062877 0.100000 0.064739
v -0.062877 0.050000 0.064739
v -0.006121 0.100000 0.115261
v -0.006121 0.100000 0.115261
v -0.006121 0.050000 0.115261
v -0.006121 0.100000 0.064739
v -0.006121 0.100000 0.064739
v -0.006121 0.050000 0.064739
v -0.062877 0.000000 0.064739
v -0.062877 0.000000 0.064739
v -0.062877 0.000000 0.115261
v -0.062877 0.000000 0.115261
v -0.006121 0.000000 0.064739
v -0.006121 0.000000 0.064739
v -0.006121 0.000000 0.115261
v -0.006121 0.000000 0.115261
v 0.005097 0.100000 -0.064739
v 0.005097 0.100000 -0.064739
v 0.005097 0.050000 -0.064739
v 0.005097 0.100000 -0.115261
v 0.005097 0.100000 -0.115261
v 0.005097 0.050000 -0.115261
v 0.061854 0.100000 -0.064739
v 0.061854 0.100000 -0.064739
v 0.061854 0.050000 -0.064739
v 0.061854 0.100000 -0.115261
v 0.061854 0.100000 -0.115261
v 0.061854 0.050000 -0.115261
v 0.005097 0.000000 -0.115261
v 0.005097 0.000000 -0.115261
v 0.005097 0.000000 -0.064739
v 0.005097 0.000000 -0.064739
v 0.061854 0.000000 -0.115261
v 0.061854 0.000000 -0.115261
v 0.061854 0.000000 -0.064739
v 0.061854 0.000000 -0.064739
v 0.005097 0.100000 0.025261
v 0.005097 0.100000 0.025261
v 0.005097 0.050000 0.025261
v 0.005097 0.100000 -0.025261
v 0.005097 0.100000 -0.025261
v 0.005097 0.050000 -0.025261
v 0.061854 0.100000 0.025261
v 0.061854 0.100000 0.025261
v 0.061854 0.050000 0.025261
v 0.061854 0.100000 -0.025261
v 0.061854 0.100000 -0.025261
v 0.061854 0.050000 -0.025261
v 0.005097 0.000000 -0.025261
v 0.005097 0.000000 -0.025261
v 0.005097 0.000000 0.025261
v 0.005097 0.000000 0.025261
v 0.061854 0.000000 -0.025261
v 0.061854 0.000000 -0.025261
v 0.061854 0.000000 0.025261
v 0.061854 0.000000 0.025261
v 0.073072 0.100000 -0.064739
v 0.073072 0.100000 -0.064739
v 0.073072 0.050000 -0.064739
v 0.073072 0.100000 -0.115261
v 0.073072 0.100000 -0.115261
v 0.073072 0.050000 -0.115261
v 0.129829 0.100000 -0.064739
v 0.129829 0.100000 -0.064739
v 0.129829 0.050000 -0.064739
v 0.129829 0.100000 -0.115261
v 0.129829 0.100000 -0.115261
v 0.129829 0.050000 -0.115261
v 0.073072 0.000000 -0.115261
v 0.073072 0.000000 -0.115261
v 0.073072 0.000000 -0.064739
v 0.073072 0.000000 -0.064739
v 0.129829 0.000000 -0.115261
v 0.129829 0.000000 -0.115261
v 0.129829 0.000000 -0.064739
v 0.129829 0.000000 -0.064739
v 0.073072 0.100000 0.025261
v 0.073072 0.100000 0.025261
v 0.073072 0.050000 0.025261
v 0.073072 0.100000 -0.025261
v 0.073072 0.100000 -0.025261
v 0.073072 0.050000 -0.025261
v 0.129829 0.100000 0.025261
v 0.129829 0.100000 0.025261
v 0.129829 0.050000 0.025261
v 0.129829 0.100000 -0.025261
v 0.129829 0.100000 -0.025261
v 0.129829 0.050000 -0.025261
v 0.073072 0.000000 -0.025261
v 0.073072 0.000000 -0.025261
v 0.073072 0.000000 0.025261
v 0.073072 0.000000 0.025261
v 0.129829 0.000000 -0.025261
v 0.129829 0.000000 -0.025261
v 0.129829 0.000000 0.025261
v 0.129829 0.000000 0.025261
v 0.073072 0.100000 0.115261
v 0.073072 0.100000 0.115261
v 0.073072 0.050000 0.115261
v 0.073072 0.100000 0.064739
v 0.073072 0.100000 0.064739
v 0.073072 0.050000 0.064739
v 0.129829 0.100000 0.115261
v 0.129829 0.100000 0.115261
v 0.129829 0.050000 0.115261
v 0.129829 0.100000 0.064739
v 0.129829 0.100000 0.064739
v 0.129829 0.050000 0.064739
v 0.073072 0.000000 0.064739
v 0.073072 0.000000 0.064739
v 0.073072 0.000000 0.115261
v 0.073072 0.000000 0.115261
v 0.129829 0.000000 0.064739
v 0.129829 0.000000 0.064739
v 0.129829 0.000000 0.115261
v 0.129829 0.000000 0.115261
vn -0.0000 1.0000 -0.0000
vn -0.0000 -0.0000 1.0000
vn -1.0000 -0.0000 -0.0000
vn 1.0000 -0.0000 -0.0000
vn -0.0000 -0.0000 -1.0000
vn -0.0000 -1.0000 -0.0000
vt 0.310293 0.959485
vt 0.982124 0.959485
vt 0.310293 0.500000
vt 0.982124 0.500000
vt 0.982124 0.040515
vt 0.310293 0.040515
s 1
f 137/1/1 140/2/1 143/2/1
f 139/2/2 6/3/2 141/4/2
f 133/1/3 8/3/3 135/3/3
f 142/2/4 7/4/4 144/4/4
f 136/1/5 5/4/5 138/3/5
f 137/1/1 134/1/1 140/2/1
f 139/2/2 4/1/2 6/3/2
f 133/1/3 3/1/3 8/3/3
f 142/2/4 2/2/4 7/4/4
f 136/1/5 1/2/5 5/4/5
f 149/5/6 147/6/6 145/6/6
f 138/3/5 150/5/5 146/6/5
f 144/4/4 151/5/4 9/5/4
f 135/3/3 11/6/3 148/6/3
f 141/4/2 12/6/2 152/5/2
f 149/5/6 10/5/6 147/6/6
f 138/3/5 5/4/5 150/5/5
f 144/4/4 7/4/4 151/5/4
f 135/3/3 8/3/3 11/6/3
f 141/4/2 6/3/2 12/6/2
f 157/1/1 160/2/1 163/2/1
f 159/2/2 18/3/2 161/4/2
f 153/1/3 20/3/3 155/3/3
f 162/2/4 19/4/4 164/4/4
f 156/1/5 17/4/5 158/3/5
f 157/1/1 154/1/1 160/2/1
f 159/2/2 16/1/2 18/3/2
f 153/1/3 15/1/3 20/3/3
f 162/2/4 14/2/4 19/4/4
f 156/1/5 13/2/5 17/4/5
f 169/5/6 167/6/6 165/6/6
f 158/3/5 170/5/5 166/6/5
f 164/4/4 171/5/4 21/5/4
f 155/3/3 23/6/3 168/6/3
f 161/4/2 24/6/2 172/5/2
f 169/5/6 22/5/6 167/6/6
f 158/3/5 17/4/5 170/5/5
f 164/4/4 19/4/4 171/5/4
f 155/3/3 20/3/3 23/6/3
f 161/4/2 18/3/2 24/6/2
f 177/1/1 180/2/1 183/2/1
f 179/2/2 30/3/2 181/4/2
f 173/1/3 32/3/3 175/3/3
f 182/2/4 31/4/4 184/4/4
f 176/1/5 29/4/5 178/3/5
f 177/1/1 174/1/1 180/2/1
f 179/2/2 28/1/2 30/3/2
f 173/1/3 27/1/3 32/3/3
f 182/2/4 26/2/4 31/4/4
f 176/1/5 25/2/5 29/4/5
f 189/5/6 187/6/6 185/6/6
f 178/3/5 190/5/5 186/6/5
f 184/4/4 191/5/4 33/5/4
f 175/3/3 35/6/3 188/6/3
f 181/4/2 36/6/2 192/5/2
f 189/5/6 34/5/6 187/6/6
f 178/3/5 29/4/5 190/5/5
f 184/4/4 31/4/4 191/5/4
f 175/3/3 32/3/3 35/6/3
f 181/4/2 30/3/2 36/6/2
f 197/1/1 200/2/1 203/2/1
f 199/2/2 42/3/2 201/4/2
f 193/1/3 44/3/3 195/3/3
f 202/2/4 43/4/4 204/4/4
f 196/1/5 41/4/5 198/3/5
f 197/1/1 194/1/1 200/2/1
f 199/2/2 40/1/2 42/3/2
f 193/1/3 39/1/3 44/3/3
f 202/2/4 38/2/4 43/4/4
f 196/1/5 37/2/5 41/4/5
f 209/5/6 207/6/6 205/6/6
f 198/3/5 210/5/5 206/6/5
f 204/4/4 211/5/4 45/5/4
f 195/3/3 47/6/3 208/6/3
f 201/4/2 48/6/2 212/5/2
f 209/5/6 46/5/6 207/6/6
f 198/3/5 41/4/5 210/5/5
f 204/4/4 43/4/4 211/5/4
f 195/3/3 44/3/3 47/6/3
f 201/4/2 42/3/2 48/6/2
f 217/1/1 220/2/1 223/2/1
f 219/2/2 54/3/2 221/4/2
f 213/1/3 56/3/3 215/3/3
f 222/2/4 55/4/4 224/4/4
f 216/1/5 53/4/5 218/3/5
f 217/1/1 214/1/1 220/2/1
f 219/2/2 52/1/2 54/3/2
f 213/1/3 51/1/3 56/3/3
f 222/2/4 50/2/4 55/4/4
f 216/1/5 49/2/5 53/4/5
f 229/5/6 227/6/6 225/6/6
f 218/3/5 230/5/5 226/6/5
f 224/4/4 231/5/4 57/5/4
f 215/3/3 59/6/3 228/6/3
f 221/4/2 60/6/2 232/5/2
f 229/5/6 58/5/6 227/6/6
f 218/3/5 53/4/5 230/5/5
f 224/4/4 55/4/4 231/5/4
f 215/3/3 56/3/3 59/6/3
f 221/4/2 54/3/2 60/6/2
f 237/1/1 240/2/1 243/2/1
f 239/2/2 66/3/2 241/4/2
f 233/1/3 68/3/3 235/3/3
f 242/2/4 67/4/4 244/4/4
f 236/1/5 65/4/5 238/3/5
f 237/1/1 234/1/1 240/2/1
f 239/2/2 64/1/2 66/3/2
f 233/1/3 63/1/3 68/3/3
f 242/2/4 62/2/4 67/4/4
f 236/1/5 61/2/5 65/4/5
f 249/5/6 247/6/6 245/6/6
f 238/3/5 250/5/5 246/6/5
f 244/4/4 251/5/4 69/5/4
f 235/3/3 71/6/3 248/6/3
f 241/4/2 72/6/2 252/5/2
f 249/5/6 70/5/6 247/6/6
f 238/3/5 65/4/5 250/5/5
f 244/4/4 67/4/4 251/5/4
f 235/3/3 68/3/3 71/6/3
f 241/4/2 66/3/2 72/6/2
f 257/1/1 260/2/1 263/2/1
f 259/2/2 78/3/2 261/4/2
f 253/1/3 80/3/3 255/3/3
f 262/2/4 79/4/4 264/4/4
f 256/1/5 77/4/5 258/3/5
f 257/1/1 254/1/1 260/2/1
f 259/2/2 76/1/2 78/3/2
f 253/1/3 75/1/3 80/3/3
f 262/2/4 74/2/4 79/4/4
f 256/1/5 73/2/5 77/4/5
f 269/5/6 267/6/6 265/6/6
f 258/3/5 270/5/5 266/6/5
f 264/4/4 271/5/4 81/5/4
f 255/3/3 83/6/3 268/6/3
f 261/4/2 84/6/2 272/5/2
f 269/5/6 82/5/6 267/6/6
f 258/3/5 77/4/5 270/5/5
f 264/4/4 79/4/4 271/5/4
f 255/3/3 80/3/3 83/6/3
f 261/4/2 78/3/2 84/6/2
f 277/1/1 280/2/1 283/2/1
f 279/2/2 90/3/2 281/4/2
f 273/1/3 92/3/3 275/3/3
f 282/2/4 91/4/4 284/4/4
f 276/1/5 89/4/5 278/3/5
f 277/1/1 274/1/1 280/2/1
f 279/2/2 88/1/2 90/3/2
f 273/1/3 87/1/3 92/3/3
f 282/2/4 86/2/4 91/4/4
f 276/1/5 85/2/5 89/4/5
f 289/5/6 287/6/6 285/6/6
f 278/3/5 290/5/5 286/6/5
f 284/4/4 291/5/4 93/5/4
f 275/3/3 95/6/3 288/6/3
f 281/4/2 96/6/2 292/5/2
f 289/5/6 94/5/6 287/6/6
f 278/3/5 89/4/5 290/5/5
f 284/4/4 91/4/4 291/5/4
f 275/3/3 92/3/3 95/6/3
f 281/4/2 90/3/2 96/6/2
f 297/1/1 300/2/1 303/2/1
f 299/2/2 102/3/2 301/4/2
f 293/1/3 104/3/3 295/3/3
f 302/2/4 103/4/4 304/4/4
f 296/1/5 101/4/5 298/3/5
f 297/1/1 294/1/1 300/2/1
f 299/2/2 100/1/2 102/3/2
f 293/1/3 99/1/3 104/3/3
f 302/2/4 98/2/4 103/4/4
f 296/1/5 97/2/5 101/4/5
f 309/5/6 307/6/6 305/6/6
f 298/3/5 310/5/5 306/6/5
f 304/4/4 311/5/4 105/5/4
f 295/3/3 107/6/3 308/6/3
f 301/4/2 108/6/2 312/5/2
f 309/5/6 106/5/6 307/6/6
f 298/3/5 101/4/5 310/5/5
f 304/4/4 103/4/4 311/5/4
f 295/3/3 104/3/3 107/6/3
f 301/4/2 102/3/2 108/6/2
f 317/1/1 320/2/1 323/2/1
f 319/2/2 114/3/2 321/4/2
f 313/1/3 116/3/3 315/3/3
f 322/2/4 115/4/4 324/4/4
f 316/1/5 113/4/5 318/3/5
f 317/1/1 314/1/1 320/2/1
f 319/2/2 112/1/2 114/3/2
f 313/1/3 111/1/3 116/3/3
f 322/2/4 110/2/4 115/4/4
f 316/1/5 109/2/5 113/4/5
f 329/5/6 327/6/6 325/6/6
f 318/3/5 330/5/5 326/6/5
f 324/4/4 331/5/4 117/5/4
f 315/3/3 119/6/3 328/6/3
f 321/4/2 120/6/2 332/5/2
f 329/5/6 118/5/6 327/6/6
f 318/3/5 113/4/5 330/5/5
f 324/4/4 115/4/4 331/5/4
f 315/3/3 116/3/3 119/6/3
f 321/4/2 114/3/2 120/6/2
f 337/1/1 340/2/1 343/2/1
f 339/2/2 126/3/2 341/4/2
f 333/1/3 128/3/3 335/3/3
f 342/2/4 127/4/4 344/4/4
f 336/1/5 125/4/5 338/3/5
f 337/1/1 334/1/1 340/2/1
f 339/2/2 124/1/2 126/3/2
f 333/1/3 123/1/3 128/3/3
f 342/2/4 122/2/4 127/4/4
f 336/1/5 121/2/5 125/4/5
f 349/5/6 347/6/6 345/6/6
f 338/3/5 350/5/5 346/6/5
f 344/4/4 351/5/4 129/5/4
f 335/3/3 131/6/3 348/6/3
f 341/4/2 132/6/2 352/5/2
f 349/5/6 130/5/6 347/6/6
f 338/3/5 125/4/5 350/5/5
f 344/4/4 127/4/4 351/5/4
f 335/3/3 128/3/3 131/6/3
f 341/4/2 126/3/2 132/6/2
