# Blender 5.0.0
# www.blender.org
o Section
v -0.073571 0.100000 -0.111317
v -0.073571 0.100000 -0.060795
v -0.130328 0.100000 -0.111317
v -0.130328 0.100000 -0.060795
v -0.073571 0.050000 -0.111315
v -0.130328 0.050000 -0.061534
v -0.073571 0.050000 -0.061581
v -0.130328 0.050000 -0.111309
v -0.073571 0.000000 -0.111315
v -0.073571 0.000000 -0.061581
v -0.130328 0.000000 -0.111309
v -0.130328 0.000000 -0.061534
v -0.073571 0.100000 -0.027885
v -0.073571 0.100000 0.022637
v -0.130328 0.100000 -0.027885
v -0.130328 0.100000 0.022637
v -0.073571 0.050000 -0.027885
v -0.130328 0.050000 0.022637
v -0.073571 0.050000 0.022637
v -0.130328 0.050000 -0.027885
v -0.073571 0.000000 -0.027885
v -0.073571 0.000000 0.022637
v -0.130328 0.000000 -0.027885
v -0.130328 0.000000 0.022637
v -0.073571 0.100000 0.181474
v -0.073571 0.100000 0.231997
v -0.130328 0.100000 0.181474
v -0.130328 0.100000 0.231997
v -0.073571 0.050000 0.181474
v -0.130328 0.050000 0.231997
v -0.073571 0.050000 0.231997
v -0.130328 0.050000 0.181474
v -0.073571 0.000000 0.181474
v -0.073571 0.000000 0.231997
v -0.130328 0.000000 0.181474
v -0.130328 0.000000 0.231997
v -0.005596 0.100000 -0.109368
v -0.005596 0.100000 -0.058846
v -0.062353 0.100000 -0.109368
v -0.062353 0.100000 -0.058846
v -0.005596 0.050000 -0.109382
v -0.062353 0.050000 -0.060074
v -0.005596 0.050000 -0.060147
v -0.062353 0.050000 -0.109371
v -0.005596 0.000000 -0.109382
v -0.005596 0.000000 -0.060147
v -0.062353 0.000000 -0.109371
v -0.062353 0.000000 -0.060074
v -0.005596 0.100000 -0.024528
v -0.005596 0.100000 0.025994
v -0.062353 0.100000 -0.024528
v -0.062353 0.100000 0.025994
v -0.005596 0.050000 -0.024528
v -0.062353 0.050000 0.025994
v -0.005596 0.050000 0.025994
v -0.062353 0.050000 -0.024528
v -0.005596 0.000000 -0.024528
v -0.005596 0.000000 0.025994
v -0.062353 0.000000 -0.024528
v -0.062353 0.000000 0.025994
v 0.062378 0.100000 -0.115580
v 0.062378 0.100000 -0.065057
v 0.005622 0.100000 -0.115580
v 0.005622 0.100000 -0.065057
v 0.062378 0.050000 -0.115580
v 0.005622 0.050000 -0.064996
v 0.062378 0.050000 -0.064992
v 0.005622 0.050000 -0.115580
v 0.062378 0.000000 -0.115580
v 0.062378 0.000000 -0.064992
v 0.005622 0.000000 -0.115580
v 0.005622 0.000000 -0.064996
v 0.062378 0.100000 -0.019259
v 0.062378 0.100000 0.031263
v 0.005622 0.100000 -0.019259
v 0.005622 0.100000 0.031263
v 0.062378 0.050000 -0.019259
v 0.005622 0.050000 0.031263
v 0.062378 0.050000 0.031263
v 0.005622 0.050000 -0.019259
v 0.062378 0.000000 -0.019259
v 0.062378 0.000000 0.031263
v 0.005622 0.000000 -0.019259
v 0.005622 0.000000 0.031263
v 0.062378 0.100000 0.166425
v 0.062378 0.100000 0.216947
v 0.005622 0.100000 0.166425
v 0.005622 0.100000 0.216947
v 0.062378 0.050000 0.166425
v 0.005622 0.050000 0.216947
v 0.062378 0.050000 0.216947
v 0.005622 0.050000 0.166425
v 0.062378 0.000000 0.166425
v 0.062378 0.000000 0.216947
v 0.005622 0.000000 0.166425
v 0.005622 0.000000 0.216947
v 0.130353 0.100000 -0.113019
v 0.130353 0.100000 -0.062497
v 0.073596 0.100000 -0.113019
v 0.073596 0.100000 -0.062497
v 0.130353 0.050000 -0.113030
v 0.073596 0.050000 -0.063002
v 0.130353 0.050000 -0.063030
v 0.073596 0.050000 -0.113025
v 0.130353 0.000000 -0.113030
v 0.130353 0.000000 -0.063030
v 0.073596 0.000000 -0.113025
v 0.073596 0.000000 -0.063002
v 0.130353 0.100000 0.085605
v 0.130353 0.100000 0.136128
v 0.073596 0.100000 0.085605
v 0.073596 0.100000 0.136128
v 0.130353 0.050000 0.085605
v 0.073596 0.050000 0.136128
v 0.130353 0.050000 0.136128
v 0.073596 0.050000 0.085605
v 0.130353 0.000000 0.085605
v 0.130353 0.000000 0.136128
v 0.073596 0.000000 0.085605
v 0.073596 0.000000 0.136128
v -0.130328 0.100000 -0.060795
v -0.130328 0.100000 -0.060795
v -0.130328 0.050000 -0.061534
v -0.130328 0.100000 -0.111317
v -0.130328 0.100000 -0.111317
v -0.130328 0.050000 -0.111309
v -0.073571 0.100000 -0.060795
v -0.073571 0.100000 -0.060795
v -0.073571 0.050000 -0.061581
v -0.073571 0.100000 -0.111317
v -0.073571 0.100000 -0.111317
v -0.073571 0.050000 -0.111315
v -0.130328 0.000000 -0.111309
v -0.130328 0.000000 -0.111309
v -0.130328 0.000000 -0.061534
v -0.130328 0.000000 -0.061534
v -0.073571 0.000000 -0.111315
v -0.073571 0.000000 -0.111315
v -0.073571 0.000000 -0.061581
v -0.073571 0.000000 -0.061581
v -0.130328 0.100000 0.022637
v -0.130328 0.100000 0.022637
v -0.130328 0.050000 0.022637
v -0.130328 0.100000 -0.027885
v -0.130328 0.100000 -0.027885
v -0.130328 0.050000 -0.027885
v -0.073571 0.100000 0.022637
v -0.073571 0.100000 0.022637
v -0.073571 0.050000 0.022637
v -0.073571 0.100000 -0.027885
v -0.073571 0.100000 -0.027885
v -0.073571 0.050000 -0.027885
v -0.130328 0.000000 -0.027885
v -0.130328 0.000000 -0.027885
v -0.130328 0.000000 0.022637
v -0.130328 0.000000 0.022637
v -0.073571 0.000000 -0.027885
v -0.073571 0.000000 -0.027885
v -0.073571 0.000000 0.022637
v -0.073571 0.000000 0.022637
v -0.130328 0.100000 0.231997
v -0.130328 0.100000 0.231997
v -0.130328 0.050000 0.231997
v -0.130328 0.100000 0.181474
v -0.130328 0.100000 0.181474
v -0.130328 0.050000 0.181474
v -0.073571 0.100000 0.231997
v -0.073571 0.100000 0.231997
v -0.073571 0.050000 0.231997
v -0.073571 0.100000 0.181474
v -0.073571 0.100000 0.181474
v -0.073571 0.050000 0.181474
v -0.130328 0.000000 0.181474
v -0.130328 0.000000 0.181474
v -0.130328 0.000000 0.231997
v -0.130328 0.000000 0.231997
v -0.073571 0.000000 0.181474
v -0.073571 0.000000 0.181474
v -0.073571 0.000000 0.231997
v -0.073571 0.000000 0.231997
v -0.062353 0.100000 -0.058846
v -0.062353 0.100000 -0.058846
v -0.062353 0.050000 -0.060074
v -0.062353 0.100000 -0.109368
v -0.062353 0.100000 -0.109368
v -0.062353 0.050000 -0.109371
v -0.005596 0.100000 -0.058846
v -0.005596 0.100000 -0.058846
v -0.005596 0.050000 -0.060147
v -0.005596 0.100000 -0.109368
v -0.005596 0.100000 -0.109368
v -0.005596 0.050000 -0.109382
v -0.062353 0.000000 -0.109371
v -0.062353 0.000000 -0.109371
v -0.062353 0.000000 -0.060074
v -0.062353 0.000000 -0.060074
v -0.005596 0.000000 -0.109382
v -0.005596 0.000000 -0.109382
v -0.005596 0.000000 -0.060147
v -0.005596 0.000000 -0.060147
v -0.062353 0.100000 0.025994
v -0.062353 0.100000 0.025994
v -0.062353 0.050000 0.025994
v -0.062353 0.100000 -0.024528
v -0.062353 0.100000 -0.024528
v -0.062353 0.050000 -0.024528
v -0.005596 0.100000 0.025994
v -0.005596 0.100000 0.025994
v -0.005596 0.050000 0.025994
v -0.005596 0.100000 -0.024528
v -0.005596 0.100000 -0.024528
v -0.005596 0.050000 -0.024528
v -0.062353 0.000000 -0.024528
v -0.062353 0.000000 -0.024528
v -0.062353 0.000000 0.025994
v -0.062353 0.000000 0.025994
v -0.005596 0.000000 -0.024528
v -0.005596 0.000000 -0.024528
v -0.005596 0.000000 0.025994
v -0.005596 0.000000 0.025994
v 0.005622 0.100000 -0.065057
v 0.005622 0.100000 -0.065057
v 0.005622 0.050000 -0.064996
v 0.005622 0.100000 -0.115580
v 0.005622 0.100000 -0.115580
v 0.005622 0.050000 -0.115580
v 0.062378 0.100000 -0.065057
v 0.062378 0.100000 -0.065057
v 0.062378 0.050000 -0.064992
v 0.062378 0.100000 -0.115580
v 0.062378 0.100000 -0.115580
v 0.062378 0.050000 -0.115580
v 0.005622 0.000000 -0.115580
v 0.005622 0.000000 -0.115580
v 0.005622 0.000000 -0.064996
v 0.005622 0.000000 -0.064996
v 0.062378 0.000000 -0.115580
v 0.062378 0.000000 -0.115580
v 0.062378 0.000000 -0.064992
v 0.062378 0.000000 -0.064992
v 0.005622 0.100000 0.031263
v 0.005622 0.100000 0.031263
v 0.005622 0.050000 0.031263
v 0.005622 0.100000 -0.019259
v 0.005622 0.100000 -0.019259
v 0.005622 0.050000 -0.019259
v 0.062378 0.100000 0.031263
v 0.062378 0.100000 0.031263
v 0.062378 0.050000 0.031263
v 0.062378 0.100000 -0.019259
v 0.062378 0.100000 -0.019259
v 0.062378 0.050000 -0.019259
v 0.005622 0.000000 -0.019259
v 0.005622 0.000000 -0.019259
v 0.005622 0.000000 0.031263
v 0.005622 0.000000 0.031263
v 0.062378 0.000000 -0.019259
v 0.062378 0.000000 -0.019259
v 0.062378 0.000000 0.031263
v 0.062378 0.000000 0.031263
v 0.005622 0.100000 0.216947
v 0.005622 0.100000 0.216947
v 0.005622 0.050000 0.216947
v 0.005622 0.100000 0.166425
v 0.005622 0.100000 0.166425
v 0.005622 0.050000 0.166425
v 0.062378 0.100000 0.216947
v 0.062378 0.100000 0.216947
v 0.062378 0.050000 0.216947
v 0.062378 0.100000 0.166425
v 0.062378 0.100000 0.166425
v 0.062378 0.050000 0.166425
v 0.005622 0.000000 0.166425
v 0.005622 0.000000 0.166425
v 0.005622 0.000000 0.216947
v 0.005622 0.000000 0.216947
v 0.062378 0.000000 0.166425
v 0.062378 0.000000 0.166425
v 0.062378 0.000000 0.216947
v 0.062378 0.000000 0.216947
v 0.073596 0.100000 -0.062497
v 0.073596 0.100000 -0.062497
v 0.073596 0.050000 -0.063002
v 0.073596 0.100000 -0.113019
v 0.073596 0.100000 -0.113019
v 0.073596 0.050000 -0.113025
v 0.130353 0.100000 -0.062497
v 0.130353 0.100000 -0.062497
v 0.130353 0.050000 -0.063030
v 0.130353 0.100000 -0.113019
v 0.130353 0.100000 -0.113019
v 0.130353 0.050000 -0.113030
v 0.073596 0.000000 -0.113025
v 0.073596 0.000000 -0.113025
v 0.073596 0.000000 -0.063002
v 0.073596 0.000000 -0.063002
v 0.130353 0.000000 -0.113030
v 0.130353 0.000000 -0.113030
v 0.130353 0.000000 -0.063030
v 0.130353 0.000000 -0.063030
v 0.073596 0.100000 0.136128
v 0.073596 0.100000 0.136128
v 0.073596 0.050000 0.136128
v 0.073596 0.100000 0.085605
v 0.073596 0.100000 0.085605
v 0.073596 0.050000 0.085605
v 0.130353 0.100000 0.136128
v 0.130353 0.100000 0.136128
v 0.130353 0.050000 0.136128
v 0.130353 0.100000 0.085605
v 0.130353 0.100000 0.085605
v 0.130353 0.050000 0.085605
v 0.073596 0.000000 0.085605
v 0.073596 0.000000 0.085605
v 0.073596 0.000000 0.136128
v 0.073596 0.000000 0.136128
v 0.130353 0.000000 0.085605
v 0.130353 0.000000 0.085605
v 0.130353 0.000000 0.136128
v 0.130353 0.000000 0.136128
vn -0.0000 1.0000 -0.0000
vn 0.0005 -0.0153 0.9999
vn 0.0006 -0.0076 1.0000
vn 0.0008 -0.0079 1.0000
vn -1.0000 -0.0000 -0.0000
vn 1.0000 -0.0000 -0.0000
vn -0.0001 -0.0001 -1.0000
vn -0.0000 -0.0148 0.9999
vn -0.0000 -0.0001 -1.0000
vn -0.0000 -1.0000 -0.0000
vn -0.0001 -0.0000 -1.0000
vn 0.0008 -0.0000 1.0000
vn -0.0000 -0.0000 1.0000
vn -0.0000 -0.0000 -1.0000
vn 0.0007 -0.0254 0.9997
vn 0.0009 -0.0126 0.9999
vn 0.0013 -0.0130 0.9999
vn -0.0001 0.0002 -1.0000
vn -0.0001 0.0001 -1.0000
vn -0.0002 -0.0000 -1.0000
vn -0.0000 -0.0246 0.9997
vn -0.0000 0.0003 -1.0000
vn 0.0013 -0.0000 1.0000
vn -0.0000 0.0013 1.0000
vn -0.0001 0.0006 1.0000
vn -0.0001 0.0007 1.0000
vn -0.0000 0.0012 1.0000
vn -0.0001 -0.0000 1.0000
vn 0.0003 -0.0104 0.9999
vn 0.0004 -0.0052 1.0000
vn 0.0005 -0.0053 1.0000
vn -0.0000 0.0002 -1.0000
vn -0.0000 -0.0101 0.9999
vn 0.0005 -0.0000 1.0000
vt 0.310293 0.959485
vt 0.982124 0.959485
vt 0.310293 0.500000
vt 0.982124 0.500000
vt 0.982124 0.040515
vt 0.310293 0.040515
s 1
f 125/1/1 128/2/1 131/2/1
f 127/2/2 6/3/3 129/4/4
f 121/1/5 8/3/5 123/3/5
f 130/2/6 7/4/6 132/4/6
f 124/1/7 5/4/7 126/3/7
f 125/1/1 122/1/1 128/2/1
f 127/2/2 4/1/8 6/3/3
f 121/1/5 3/1/5 8/3/5
f 130/2/6 2/2/6 7/4/6
f 124/1/7 1/2/9 5/4/7
f 137/5/10 135/6/10 133/6/10
f 126/3/7 138/5/11 134/6/11
f 132/4/6 139/5/6 9/5/6
f 123/3/5 11/6/5 136/6/5
f 129/4/4 12/6/12 140/5/12
f 137/5/10 10/5/10 135/6/10
f 126/3/7 5/4/7 138/5/11
f 132/4/6 7/4/6 139/5/6
f 123/3/5 8/3/5 11/6/5
f 129/4/4 6/3/3 12/6/12
f 145/1/1 148/2/1 151/2/1
f 147/2/13 18/3/13 149/4/13
f 141/1/5 20/3/5 143/3/5
f 150/2/6 19/4/6 152/4/6
f 144/1/14 17/4/14 146/3/14
f 145/1/1 142/1/1 148/2/1
f 147/2/13 16/1/13 18/3/13
f 141/1/5 15/1/5 20/3/5
f 150/2/6 14/2/6 19/4/6
f 144/1/14 13/2/14 17/4/14
f 157/5/10 155/6/10 153/6/10
f 146/3/14 158/5/14 154/6/14
f 152/4/6 159/5/6 21/5/6
f 143/3/5 23/6/5 156/6/5
f 149/4/13 24/6/13 160/5/13
f 157/5/10 22/5/10 155/6/10
f 146/3/14 17/4/14 158/5/14
f 152/4/6 19/4/6 159/5/6
f 143/3/5 20/3/5 23/6/5
f 149/4/13 18/3/13 24/6/13
f 165/1/1 168/2/1 171/2/1
f 167/2/13 30/3/13 169/4/13
f 161/1/5 32/3/5 163/3/5
f 170/2/6 31/4/6 172/4/6
f 164/1/14 29/4/14 166/3/14
f 165/1/1 162/1/1 168/2/1
f 167/2/13 28/1/13 30/3/13
f 161/1/5 27/1/5 32/3/5
f 170/2/6 26/2/6 31/4/6
f 164/1/14 25/2/14 29/4/14
f 177/5/10 175/6/10 173/6/10
f 166/3/14 178/5/14 174/6/14
f 172/4/6 179/5/6 33/5/6
f 163/3/5 35/6/5 176/6/5
f 169/4/13 36/6/13 180/5/13
f 177/5/10 34/5/10 175/6/10
f 166/3/14 29/4/14 178/5/14
f 172/4/6 31/4/6 179/5/6
f 163/3/5 32/3/5 35/6/5
f 169/4/13 30/3/13 36/6/13
f 185/1/1 188/2/1 191/2/1
f 187/2/15 42/3/16 189/4/17
f 181/1/5 44/3/5 183/3/5
f 190/2/6 43/4/6 192/4/6
f 184/1/18 41/4/19 186/3/20
f 185/1/1 182/1/1 188/2/1
f 187/2/15 40/1/21 42/3/16
f 181/1/5 39/1/5 44/3/5
f 190/2/6 38/2/6 43/4/6
f 184/1/18 37/2/22 41/4/19
f 197/5/10 195/6/10 193/6/10
f 186/3/20 198/5/20 194/6/20
f 192/4/6 199/5/6 45/5/6
f 183/3/5 47/6/5 196/6/5
f 189/4/17 48/6/23 200/5/23
f 197/5/10 46/5/10 195/6/10
f 186/3/20 41/4/19 198/5/20
f 192/4/6 43/4/6 199/5/6
f 183/3/5 44/3/5 47/6/5
f 189/4/17 42/3/16 48/6/23
f 205/1/1 208/2/1 211/2/1
f 207/2/13 54/3/13 209/4/13
f 201/1/5 56/3/5 203/3/5
f 210/2/6 55/4/6 212/4/6
f 204/1/14 53/4/14 206/3/14
f 205/1/1 202/1/1 208/2/1
f 207/2/13 52/1/13 54/3/13
f 201/1/5 51/1/5 56/3/5
f 210/2/6 50/2/6 55/4/6
f 204/1/14 49/2/14 53/4/14
f 217/5/10 215/6/10 213/6/10
f 206/3/14 218/5/14 214/6/14
f 212/4/6 219/5/6 57/5/6
f 203/3/5 59/6/5 216/6/5
f 209/4/13 60/6/13 220/5/13
f 217/5/10 58/5/10 215/6/10
f 206/3/14 53/4/14 218/5/14
f 212/4/6 55/4/6 219/5/6
f 203/3/5 56/3/5 59/6/5
f 209/4/13 54/3/13 60/6/13
f 225/1/1 228/2/1 231/2/1
f 227/2/24 66/3/25 229/4/26
f 221/1/5 68/3/5 223/3/5
f 230/2/6 67/4/6 232/4/6
f 224/1/14 65/4/14 226/3/14
f 225/1/1 222/1/1 228/2/1
f 227/2/24 64/1/27 66/3/25
f 221/1/5 63/1/5 68/3/5
f 230/2/6 62/2/6 67/4/6
f 224/1/14 61/2/14 65/4/14
f 237/5/10 235/6/10 233/6/10
f 226/3/14 238/5/14 234/6/14
f 232/4/6 239/5/6 69/5/6
f 223/3/5 71/6/5 236/6/5
f 229/4/26 72/6/28 240/5/28
f 237/5/10 70/5/10 235/6/10
f 226/3/14 65/4/14 238/5/14
f 232/4/6 67/4/6 239/5/6
f 223/3/5 68/3/5 71/6/5
f 229/4/26 66/3/25 72/6/28
f 245/1/1 248/2/1 251/2/1
f 247/2/13 78/3/13 249/4/13
f 241/1/5 80/3/5 243/3/5
f 250/2/6 79/4/6 252/4/6
f 244/1/14 77/4/14 246/3/14
f 245/1/1 242/1/1 248/2/1
f 247/2/13 76/1/13 78/3/13
f 241/1/5 75/1/5 80/3/5
f 250/2/6 74/2/6 79/4/6
f 244/1/14 73/2/14 77/4/14
f 257/5/10 255/6/10 253/6/10
f 246/3/14 258/5/14 254/6/14
f 252/4/6 259/5/6 81/5/6
f 243/3/5 83/6/5 256/6/5
f 249/4/13 84/6/13 260/5/13
f 257/5/10 82/5/10 255/6/10
f 246/3/14 77/4/14 258/5/14
f 252/4/6 79/4/6 259/5/6
f 243/3/5 80/3/5 83/6/5
f 249/4/13 78/3/13 84/6/13
f 265/1/1 268/2/1 271/2/1
f 267/2/13 90/3/13 269/4/13
f 261/1/5 92/3/5 263/3/5
f 270/2/6 91/4/6 272/4/6
f 264/1/14 89/4/14 266/3/14
f 265/1/1 262/1/1 268/2/1
f 267/2/13 88/1/13 90/3/13
f 261/1/5 87/1/5 92/3/5
f 270/2/6 86/2/6 91/4/6
f 264/1/14 85/2/14 89/4/14
f 277/5/10 275/6/10 273/6/10
f 266/3/14 278/5/14 274/6/14
f 272/4/6 279/5/6 93/5/6
f 263/3/5 95/6/5 276/6/5
f 269/4/13 96/6/13 280/5/13
f 277/5/10 94/5/10 275/6/10
f 266/3/14 89/4/14 278/5/14
f 272/4/6 91/4/6 279/5/6
f 263/3/5 92/3/5 95/6/5
f 269/4/13 90/3/13 96/6/13
f 285/1/1 288/2/1 291/2/1
f 287/2/29 102/3/30 289/4/31
f 281/1/5 104/3/5 283/3/5
f 290/2/6 103/4/6 292/4/6
f 284/1/32 101/4/19 286/3/19
f 285/1/1 282/1/1 288/2/1
f 287/2/29 100/1/33 102/3/30
f 281/1/5 99/1/5 104/3/5
f 290/2/6 98/2/6 103/4/6
f 284/1/32 97/2/32 101/4/19
f 297/5/10 295/6/10 293/6/10
f 286/3/19 298/5/11 294/6/11
f 292/4/6 299/5/6 105/5/6
f 283/3/5 107/6/5 296/6/5
f 289/4/31 108/6/34 300/5/34
f 297/5/10 106/5/10 295/6/10
f 286/3/19 101/4/19 298/5/11
f 292/4/6 103/4/6 299/5/6
f 283/3/5 104/3/5 107/6/5
f 289/4/31 102/3/30 108/6/34
f 305/1/1 308/2/1 311/2/1
f 307/2/13 114/3/13 309/4/13
f 301/1/5 116/3/5 303/3/5
f 310/2/6 115/4/6 312/4/6
f 304/1/14 113/4/14 306/3/14
f 305/1/1 302/1/1 308/2/1
f 307/2/13 112/1/13 114/3/13
f 301/1/5 111/1/5 116/3/5
f 310/2/6 110/2/6 115/4/6
f 304/1/14 109/2/14 113/4/14
f 317/5/10 315/6/10 313/6/10
f 306/3/14 318/5/14 314/6/14
f 312/4/6 319/5/6 117/5/6
f 303/3/5 119/6/5 316/6/5
f 309/4/13 120/6/13 320/5/13
f 317/5/10 118/5/10 315/6/10
f 306/3/14 113/4/14 318/5/14
f 312/4/6 115/4/6 319/5/6
f 303/3/5 116/3/5 119/6/5
f 309/4/13 114/3/13 120/6/13
