# Blender 4.5.3 LTS
# www.blender.org
o 01_White_Coats.001
v 0.089999 0.100000 0.020000
v 0.149999 0.100000 0.020000
v 0.089999 0.100000 0.180000
v 0.149999 0.100000 0.180000
v 0.089999 0.050000 0.020000
v 0.149999 0.050000 0.180000
v 0.149999 0.050000 0.020000
v 0.089999 0.050000 0.180000
v 0.149999 0.050000 0.180000
v 0.149999 0.100000 0.180000
v 0.149999 0.100000 0.180000
v 0.149999 0.100000 0.020000
v 0.149999 0.100000 0.020000
v 0.089999 0.100000 0.020000
v 0.089999 0.100000 0.020000
v 0.089999 0.100000 0.180000
v 0.089999 0.100000 0.180000
v 0.089999 0.050000 0.020000
v 0.149999 0.050000 0.020000
v 0.089999 0.050000 0.180000
v -0.150001 0.100000 -0.380000
v -0.090001 0.100000 -0.380000
v -0.150001 0.100000 -0.220000
v -0.090001 0.100000 -0.220000
v -0.150001 0.050000 -0.380000
v -0.090001 0.050000 -0.220000
v -0.090001 0.050000 -0.380000
v -0.150001 0.050000 -0.220000
v -0.090001 0.050000 -0.220000
v -0.090001 0.100000 -0.220000
v -0.090001 0.100000 -0.220000
v -0.090001 0.100000 -0.380000
v -0.090001 0.100000 -0.380000
v -0.150001 0.100000 -0.380000
v -0.150001 0.100000 -0.380000
v -0.150001 0.100000 -0.220000
v -0.150001 0.100000 -0.220000
v -0.150001 0.050000 -0.380000
v -0.090001 0.050000 -0.380000
v -0.150001 0.050000 -0.220000
v -0.030001 0.100000 -0.380000
v 0.029999 0.100000 -0.380000
v -0.030001 0.100000 -0.220000
v 0.029999 0.100000 -0.220000
v -0.030001 0.050000 -0.380000
v 0.029999 0.050000 -0.220000
v 0.029999 0.050000 -0.380000
v -0.030001 0.050000 -0.220000
v 0.029999 0.050000 -0.220000
v 0.029999 0.100000 -0.220000
v 0.029999 0.100000 -0.220000
v 0.029999 0.100000 -0.380000
v 0.029999 0.100000 -0.380000
v -0.030001 0.100000 -0.380000
v -0.030001 0.100000 -0.380000
v -0.030001 0.100000 -0.220000
v -0.030001 0.100000 -0.220000
v -0.030001 0.050000 -0.380000
v 0.029999 0.050000 -0.380000
v -0.030001 0.050000 -0.220000
v 0.089999 0.100000 -0.380000
v 0.149999 0.100000 -0.380000
v 0.089999 0.100000 -0.220000
v 0.149999 0.100000 -0.220000
v 0.089999 0.050000 -0.380000
v 0.149999 0.050000 -0.220000
v 0.149999 0.050000 -0.380000
v 0.089999 0.050000 -0.220000
v 0.149999 0.050000 -0.220000
v 0.149999 0.100000 -0.220000
v 0.149999 0.100000 -0.220000
v 0.149999 0.100000 -0.380000
v 0.149999 0.100000 -0.380000
v 0.089999 0.100000 -0.380000
v 0.089999 0.100000 -0.380000
v 0.089999 0.100000 -0.220000
v 0.089999 0.100000 -0.220000
v 0.089999 0.050000 -0.380000
v 0.149999 0.050000 -0.380000
v 0.089999 0.050000 -0.220000
v -0.150001 0.100000 0.020000
v -0.090001 0.100000 0.020000
v -0.150001 0.100000 0.180000
v -0.090001 0.100000 0.180000
v -0.150001 0.050000 0.020000
v -0.090001 0.050000 0.180000
v -0.090001 0.050000 0.020000
v -0.150001 0.050000 0.180000
v -0.090001 0.050000 0.180000
v -0.090001 0.100000 0.180000
v -0.090001 0.100000 0.180000
v -0.090001 0.100000 0.020000
v -0.090001 0.100000 0.020000
v -0.150001 0.100000 0.020000
v -0.150001 0.100000 0.020000
v -0.150001 0.100000 0.180000
v -0.150001 0.100000 0.180000
v -0.150001 0.050000 0.020000
v -0.090001 0.050000 0.020000
v -0.150001 0.050000 0.180000
v -0.030001 0.100000 0.020000
v 0.029999 0.100000 0.020000
v -0.030001 0.100000 0.180000
v 0.029999 0.100000 0.180000
v -0.030001 0.050000 0.020000
v 0.029999 0.050000 0.180000
v 0.029999 0.050000 0.020000
v -0.030001 0.050000 0.180000
v 0.029999 0.050000 0.180000
v 0.029999 0.100000 0.180000
v 0.029999 0.100000 0.180000
v 0.029999 0.100000 0.020000
v 0.029999 0.100000 0.020000
v -0.030001 0.100000 0.020000
v -0.030001 0.100000 0.020000
v -0.030001 0.100000 0.180000
v -0.030001 0.100000 0.180000
v -0.030001 0.050000 0.020000
v 0.029999 0.050000 0.020000
v -0.030001 0.050000 0.180000
v 0.089999 0.100000 0.220000
v 0.149999 0.100000 0.220000
v 0.089999 0.100000 0.380000
v 0.149999 0.100000 0.380000
v 0.089999 0.050000 0.220000
v 0.149999 0.050000 0.380000
v 0.149999 0.050000 0.220000
v 0.089999 0.050000 0.380000
v 0.149999 0.050000 0.380000
v 0.149999 0.100000 0.380000
v 0.149999 0.100000 0.380000
v 0.149999 0.100000 0.220000
v 0.149999 0.100000 0.220000
v 0.089999 0.100000 0.220000
v 0.089999 0.100000 0.220000
v 0.089999 0.100000 0.380000
v 0.089999 0.100000 0.380000
v 0.089999 0.050000 0.220000
v 0.149999 0.050000 0.220000
v 0.089999 0.050000 0.380000
v -0.150001 0.100000 -0.180000
v -0.090001 0.100000 -0.180000
v -0.150001 0.100000 -0.020000
v -0.090001 0.100000 -0.020000
v -0.150001 0.050000 -0.180000
v -0.090001 0.050000 -0.020000
v -0.090001 0.050000 -0.180000
v -0.150001 0.050000 -0.020000
v -0.090001 0.050000 -0.020000
v -0.090001 0.100000 -0.020000
v -0.090001 0.100000 -0.020000
v -0.090001 0.100000 -0.180000
v -0.090001 0.100000 -0.180000
v -0.150001 0.100000 -0.180000
v -0.150001 0.100000 -0.180000
v -0.150001 0.100000 -0.020000
v -0.150001 0.100000 -0.020000
v -0.150001 0.050000 -0.180000
v -0.090001 0.050000 -0.180000
v -0.150001 0.050000 -0.020000
v -0.030001 0.100000 -0.180000
v 0.029999 0.100000 -0.180000
v -0.030001 0.100000 -0.020000
v 0.029999 0.100000 -0.020000
v -0.030001 0.050000 -0.180000
v 0.029999 0.050000 -0.020000
v 0.029999 0.050000 -0.180000
v -0.030001 0.050000 -0.020000
v 0.029999 0.050000 -0.020000
v 0.029999 0.100000 -0.020000
v 0.029999 0.100000 -0.020000
v 0.029999 0.100000 -0.180000
v 0.029999 0.100000 -0.180000
v -0.030001 0.100000 -0.180000
v -0.030001 0.100000 -0.180000
v -0.030001 0.100000 -0.020000
v -0.030001 0.100000 -0.020000
v -0.030001 0.050000 -0.180000
v 0.029999 0.050000 -0.180000
v -0.030001 0.050000 -0.020000
v 0.089999 0.100000 -0.180000
v 0.149999 0.100000 -0.180000
v 0.089999 0.100000 -0.020000
v 0.149999 0.100000 -0.020000
v 0.089999 0.050000 -0.180000
v 0.149999 0.050000 -0.020000
v 0.149999 0.050000 -0.180000
v 0.089999 0.050000 -0.020000
v 0.149999 0.050000 -0.020000
v 0.149999 0.100000 -0.020000
v 0.149999 0.100000 -0.020000
v 0.149999 0.100000 -0.180000
v 0.149999 0.100000 -0.180000
v 0.089999 0.100000 -0.180000
v 0.089999 0.100000 -0.180000
v 0.089999 0.100000 -0.020000
v 0.089999 0.100000 -0.020000
v 0.089999 0.050000 -0.180000
v 0.149999 0.050000 -0.180000
v 0.089999 0.050000 -0.020000
v -0.150001 0.100000 0.220000
v -0.090001 0.100000 0.220000
v -0.150001 0.100000 0.380000
v -0.090001 0.100000 0.380000
v -0.150001 0.050000 0.220000
v -0.090001 0.050000 0.380000
v -0.090001 0.050000 0.220000
v -0.150001 0.050000 0.380000
v -0.090001 0.050000 0.380000
v -0.090001 0.100000 0.380000
v -0.090001 0.100000 0.380000
v -0.090001 0.100000 0.220000
v -0.090001 0.100000 0.220000
v -0.150001 0.100000 0.220000
v -0.150001 0.100000 0.220000
v -0.150001 0.100000 0.380000
v -0.150001 0.100000 0.380000
v -0.150001 0.050000 0.220000
v -0.090001 0.050000 0.220000
v -0.150001 0.050000 0.380000
v -0.030001 0.100000 0.220000
v 0.029999 0.100000 0.220000
v -0.030001 0.100000 0.380000
v 0.029999 0.100000 0.380000
v -0.030001 0.050000 0.220000
v 0.029999 0.050000 0.380000
v 0.029999 0.050000 0.220000
v -0.030001 0.050000 0.380000
v 0.029999 0.050000 0.380000
v 0.029999 0.100000 0.380000
v 0.029999 0.100000 0.380000
v 0.029999 0.100000 0.220000
v 0.029999 0.100000 0.220000
v -0.030001 0.100000 0.220000
v -0.030001 0.100000 0.220000
v -0.030001 0.100000 0.380000
v -0.030001 0.100000 0.380000
v -0.030001 0.050000 0.220000
v 0.029999 0.050000 0.220000
v -0.030001 0.050000 0.380000
vn -0.0000 1.0000 -0.0000
vn 1.0000 -0.0000 -0.0000
vn -0.0000 -0.0000 1.0000
vn -0.0000 -0.0000 -1.0000
vn -1.0000 -0.0000 -0.0000
vt 0.997283 0.990088
vt 0.002320 0.990088
vt 0.997283 0.503371
vt 0.002320 0.503371
s 1
f 16/1/1 12/2/1 14/2/1
f 13/2/2 6/3/2 19/4/2
f 10/1/3 8/3/3 9/3/3
f 15/2/4 7/4/4 18/4/4
f 17/1/5 5/4/5 20/3/5
f 16/1/1 11/1/1 12/2/1
f 13/2/2 4/1/2 6/3/2
f 10/1/3 3/1/3 8/3/3
f 15/2/4 2/2/4 7/4/4
f 17/1/5 1/2/5 5/4/5
f 36/1/1 32/2/1 34/2/1
f 33/2/2 26/3/2 39/4/2
f 30/1/3 28/3/3 29/3/3
f 35/2/4 27/4/4 38/4/4
f 37/1/5 25/4/5 40/3/5
f 36/1/1 31/1/1 32/2/1
f 33/2/2 24/1/2 26/3/2
f 30/1/3 23/1/3 28/3/3
f 35/2/4 22/2/4 27/4/4
f 37/1/5 21/2/5 25/4/5
f 56/1/1 52/2/1 54/2/1
f 53/2/2 46/3/2 59/4/2
f 50/1/3 48/3/3 49/3/3
f 55/2/4 47/4/4 58/4/4
f 57/1/5 45/4/5 60/3/5
f 56/1/1 51/1/1 52/2/1
f 53/2/2 44/1/2 46/3/2
f 50/1/3 43/1/3 48/3/3
f 55/2/4 42/2/4 47/4/4
f 57/1/5 41/2/5 45/4/5
f 76/1/1 72/2/1 74/2/1
f 73/2/2 66/3/2 79/4/2
f 70/1/3 68/3/3 69/3/3
f 75/2/4 67/4/4 78/4/4
f 77/1/5 65/4/5 80/3/5
f 76/1/1 71/1/1 72/2/1
f 73/2/2 64/1/2 66/3/2
f 70/1/3 63/1/3 68/3/3
f 75/2/4 62/2/4 67/4/4
f 77/1/5 61/2/5 65/4/5
f 96/1/1 92/2/1 94/2/1
f 93/2/2 86/3/2 99/4/2
f 90/1/3 88/3/3 89/3/3
f 95/2/4 87/4/4 98/4/4
f 97/1/5 85/4/5 100/3/5
f 96/1/1 91/1/1 92/2/1
f 93/2/2 84/1/2 86/3/2
f 90/1/3 83/1/3 88/3/3
f 95/2/4 82/2/4 87/4/4
f 97/1/5 81/2/5 85/4/5
f 116/1/1 112/2/1 114/2/1
f 113/2/2 106/3/2 119/4/2
f 110/1/3 108/3/3 109/3/3
f 115/2/4 107/4/4 118/4/4
f 117/1/5 105/4/5 120/3/5
f 116/1/1 111/1/1 112/2/1
f 113/2/2 104/1/2 106/3/2
f 110/1/3 103/1/3 108/3/3
f 115/2/4 102/2/4 107/4/4
f 117/1/5 101/2/5 105/4/5
f 136/1/1 132/2/1 134/2/1
f 133/2/2 126/3/2 139/4/2
f 130/1/3 128/3/3 129/3/3
f 135/2/4 127/4/4 138/4/4
f 137/1/5 125/4/5 140/3/5
f 136/1/1 131/1/1 132/2/1
f 133/2/2 124/1/2 126/3/2
f 130/1/3 123/1/3 128/3/3
f 135/2/4 122/2/4 127/4/4
f 137/1/5 121/2/5 125/4/5
f 156/1/1 152/2/1 154/2/1
f 153/2/2 146/3/2 159/4/2
f 150/1/3 148/3/3 149/3/3
f 155/2/4 147/4/4 158/4/4
f 157/1/5 145/4/5 160/3/5
f 156/1/1 151/1/1 152/2/1
f 153/2/2 144/1/2 146/3/2
f 150/1/3 143/1/3 148/3/3
f 155/2/4 142/2/4 147/4/4
f 157/1/5 141/2/5 145/4/5
f 176/1/1 172/2/1 174/2/1
f 173/2/2 166/3/2 179/4/2
f 170/1/3 168/3/3 169/3/3
f 175/2/4 167/4/4 178/4/4
f 177/1/5 165/4/5 180/3/5
f 176/1/1 171/1/1 172/2/1
f 173/2/2 164/1/2 166/3/2
f 170/1/3 163/1/3 168/3/3
f 175/2/4 162/2/4 167/4/4
f 177/1/5 161/2/5 165/4/5
f 196/1/1 192/2/1 194/2/1
f 193/2/2 186/3/2 199/4/2
f 190/1/3 188/3/3 189/3/3
f 195/2/4 187/4/4 198/4/4
f 197/1/5 185/4/5 200/3/5
f 196/1/1 191/1/1 192/2/1
f 193/2/2 184/1/2 186/3/2
f 190/1/3 183/1/3 188/3/3
f 195/2/4 182/2/4 187/4/4
f 197/1/5 181/2/5 185/4/5
f 216/1/1 212/2/1 214/2/1
f 213/2/2 206/3/2 219/4/2
f 210/1/3 208/3/3 209/3/3
f 215/2/4 207/4/4 218/4/4
f 217/1/5 205/4/5 220/3/5
f 216/1/1 211/1/1 212/2/1
f 213/2/2 204/1/2 206/3/2
f 210/1/3 203/1/3 208/3/3
f 215/2/4 202/2/4 207/4/4
f 217/1/5 201/2/5 205/4/5
f 236/1/1 232/2/1 234/2/1
f 233/2/2 226/3/2 239/4/2
f 230/1/3 228/3/3 229/3/3
f 235/2/4 227/4/4 238/4/4
f 237/1/5 225/4/5 240/3/5
f 236/1/1 231/1/1 232/2/1
f 233/2/2 224/1/2 226/3/2
f 230/1/3 223/1/3 228/3/3
f 235/2/4 222/2/4 227/4/4
f 237/1/5 221/2/5 225/4/5
o 02_Horse_Bodies
v 0.089999 0.000000 0.020000
v 0.149999 0.000000 0.020000
v 0.089999 0.000000 0.180000
v 0.149999 0.000000 0.180000
v 0.089999 0.050000 0.020000
v 0.149999 0.050000 0.180000
v 0.149999 0.050000 0.020000
v 0.089999 0.050000 0.180000
v 0.089999 0.000000 0.180000
v 0.089999 0.000000 0.180000
v 0.149999 0.000000 0.180000
v 0.149999 0.000000 0.180000
v 0.089999 0.000000 0.020000
v 0.089999 0.000000 0.020000
v 0.089999 0.050000 0.020000
v 0.149999 0.050000 0.020000
v 0.149999 0.000000 0.020000
v 0.149999 0.000000 0.020000
v 0.089999 0.050000 0.180000
v 0.149999 0.050000 0.180000
v -0.150001 -0.000000 -0.380000
v -0.090001 -0.000000 -0.380000
v -0.150001 -0.000000 -0.220000
v -0.090001 -0.000000 -0.220000
v -0.150001 0.050000 -0.380000
v -0.090001 0.050000 -0.220000
v -0.090001 0.050000 -0.380000
v -0.150001 0.050000 -0.220000
v -0.150001 -0.000000 -0.220000
v -0.150001 -0.000000 -0.220000
v -0.090001 -0.000000 -0.220000
v -0.090001 -0.000000 -0.220000
v -0.150001 -0.000000 -0.380000
v -0.150001 -0.000000 -0.380000
v -0.150001 0.050000 -0.380000
v -0.090001 0.050000 -0.380000
v -0.090001 -0.000000 -0.380000
v -0.090001 -0.000000 -0.380000
v -0.150001 0.050000 -0.220000
v -0.090001 0.050000 -0.220000
v -0.030001 -0.000000 -0.380000
v 0.029999 0.000000 -0.380000
v -0.030001 -0.000000 -0.220000
v 0.029999 0.000000 -0.220000
v -0.030001 0.050000 -0.380000
v 0.029999 0.050000 -0.220000
v 0.029999 0.050000 -0.380000
v -0.030001 0.050000 -0.220000
v -0.030001 -0.000000 -0.220000
v -0.030001 -0.000000 -0.220000
v 0.029999 0.000000 -0.220000
v 0.029999 0.000000 -0.220000
v -0.030001 -0.000000 -0.380000
v -0.030001 -0.000000 -0.380000
v -0.030001 0.050000 -0.380000
v 0.029999 0.050000 -0.380000
v 0.029999 0.000000 -0.380000
v 0.029999 0.000000 -0.380000
v -0.030001 0.050000 -0.220000
v 0.029999 0.050000 -0.220000
v 0.089999 0.000000 -0.380000
v 0.149999 0.000000 -0.380000
v 0.089999 0.000000 -0.220000
v 0.149999 0.000000 -0.220000
v 0.089999 0.050000 -0.380000
v 0.149999 0.050000 -0.220000
v 0.149999 0.050000 -0.380000
v 0.089999 0.050000 -0.220000
v 0.089999 0.000000 -0.220000
v 0.089999 0.000000 -0.220000
v 0.149999 0.000000 -0.220000
v 0.149999 0.000000 -0.220000
v 0.089999 0.000000 -0.380000
v 0.089999 0.000000 -0.380000
v 0.089999 0.050000 -0.380000
v 0.149999 0.050000 -0.380000
v 0.149999 0.000000 -0.380000
v 0.149999 0.000000 -0.380000
v 0.089999 0.050000 -0.220000
v 0.149999 0.050000 -0.220000
v -0.150001 -0.000000 0.020000
v -0.090001 -0.000000 0.020000
v -0.150001 -0.000000 0.180000
v -0.090001 -0.000000 0.180000
v -0.150001 0.050000 0.020000
v -0.090001 0.050000 0.180000
v -0.090001 0.050000 0.020000
v -0.150001 0.050000 0.180000
v -0.150001 -0.000000 0.180000
v -0.150001 -0.000000 0.180000
v -0.090001 -0.000000 0.180000
v -0.090001 -0.000000 0.180000
v -0.150001 -0.000000 0.020000
v -0.150001 -0.000000 0.020000
v -0.150001 0.050000 0.020000
v -0.090001 0.050000 0.020000
v -0.090001 -0.000000 0.020000
v -0.090001 -0.000000 0.020000
v -0.150001 0.050000 0.180000
v -0.090001 0.050000 0.180000
v -0.030001 -0.000000 0.020000
v 0.029999 0.000000 0.020000
v -0.030001 -0.000000 0.180000
v 0.029999 0.000000 0.180000
v -0.030001 0.050000 0.020000
v 0.029999 0.050000 0.180000
v 0.029999 0.050000 0.020000
v -0.030001 0.050000 0.180000
v -0.030001 -0.000000 0.180000
v -0.030001 -0.000000 0.180000
v 0.029999 0.000000 0.180000
v 0.029999 0.000000 0.180000
v -0.030001 -0.000000 0.020000
v -0.030001 -0.000000 0.020000
v -0.030001 0.050000 0.020000
v 0.029999 0.050000 0.020000
v 0.029999 0.000000 0.020000
v 0.029999 0.000000 0.020000
v -0.030001 0.050000 0.180000
v 0.029999 0.050000 0.180000
v 0.089999 0.000000 0.220000
v 0.149999 0.000000 0.220000
v 0.089999 0.000000 0.380000
v 0.149999 0.000000 0.380000
v 0.089999 0.050000 0.220000
v 0.149999 0.050000 0.380000
v 0.149999 0.050000 0.220000
v 0.089999 0.050000 0.380000
v 0.089999 0.000000 0.380000
v 0.089999 0.000000 0.380000
v 0.149999 0.000000 0.380000
v 0.149999 0.000000 0.380000
v 0.089999 0.000000 0.220000
v 0.089999 0.000000 0.220000
v 0.089999 0.050000 0.220000
v 0.149999 0.050000 0.220000
v 0.149999 0.000000 0.220000
v 0.149999 0.000000 0.220000
v 0.089999 0.050000 0.380000
v 0.149999 0.050000 0.380000
v -0.150001 -0.000000 -0.180000
v -0.090001 -0.000000 -0.180000
v -0.150001 -0.000000 -0.020000
v -0.090001 -0.000000 -0.020000
v -0.150001 0.050000 -0.180000
v -0.090001 0.050000 -0.020000
v -0.090001 0.050000 -0.180000
v -0.150001 0.050000 -0.020000
v -0.150001 -0.000000 -0.020000
v -0.150001 -0.000000 -0.020000
v -0.090001 -0.000000 -0.020000
v -0.090001 -0.000000 -0.020000
v -0.150001 -0.000000 -0.180000
v -0.150001 -0.000000 -0.180000
v -0.150001 0.050000 -0.180000
v -0.090001 0.050000 -0.180000
v -0.090001 -0.000000 -0.180000
v -0.090001 -0.000000 -0.180000
v -0.150001 0.050000 -0.020000
v -0.090001 0.050000 -0.020000
v -0.030001 -0.000000 -0.180000
v 0.029999 0.000000 -0.180000
v -0.030001 -0.000000 -0.020000
v 0.029999 0.000000 -0.020000
v -0.030001 0.050000 -0.180000
v 0.029999 0.050000 -0.020000
v 0.029999 0.050000 -0.180000
v -0.030001 0.050000 -0.020000
v -0.030001 -0.000000 -0.020000
v -0.030001 -0.000000 -0.020000
v 0.029999 0.000000 -0.020000
v 0.029999 0.000000 -0.020000
v -0.030001 -0.000000 -0.180000
v -0.030001 -0.000000 -0.180000
v -0.030001 0.050000 -0.180000
v 0.029999 0.050000 -0.180000
v 0.029999 0.000000 -0.180000
v 0.029999 0.000000 -0.180000
v -0.030001 0.050000 -0.020000
v 0.029999 0.050000 -0.020000
v 0.089999 0.000000 -0.180000
v 0.149999 0.000000 -0.180000
v 0.089999 0.000000 -0.020000
v 0.149999 0.000000 -0.020000
v 0.089999 0.050000 -0.180000
v 0.149999 0.050000 -0.020000
v 0.149999 0.050000 -0.180000
v 0.089999 0.050000 -0.020000
v 0.089999 0.000000 -0.020000
v 0.089999 0.000000 -0.020000
v 0.149999 0.000000 -0.020000
v 0.149999 0.000000 -0.020000
v 0.089999 0.000000 -0.180000
v 0.089999 0.000000 -0.180000
v 0.089999 0.050000 -0.180000
v 0.149999 0.050000 -0.180000
v 0.149999 0.000000 -0.180000
v 0.149999 0.000000 -0.180000
v 0.089999 0.050000 -0.020000
v 0.149999 0.050000 -0.020000
v -0.150001 -0.000000 0.220000
v -0.090001 -0.000000 0.220000
v -0.150001 -0.000000 0.380000
v -0.090001 -0.000000 0.380000
v -0.150001 0.050000 0.220000
v -0.090001 0.050000 0.380000
v -0.090001 0.050000 0.220000
v -0.150001 0.050000 0.380000
v -0.150001 -0.000000 0.380000
v -0.150001 -0.000000 0.380000
v -0.090001 -0.000000 0.380000
v -0.090001 -0.000000 0.380000
v -0.150001 -0.000000 0.220000
v -0.150001 -0.000000 0.220000
v -0.150001 0.050000 0.220000
v -0.090001 0.050000 0.220000
v -0.090001 -0.000000 0.220000
v -0.090001 -0.000000 0.220000
v -0.150001 0.050000 0.380000
v -0.090001 0.050000 0.380000
v -0.030001 -0.000000 0.220000
v 0.029999 0.000000 0.220000
v -0.030001 -0.000000 0.380000
v 0.029999 0.000000 0.380000
v -0.030001 0.050000 0.220000
v 0.029999 0.050000 0.380000
v 0.029999 0.050000 0.220000
v -0.030001 0.050000 0.380000
v -0.030001 -0.000000 0.380000
v -0.030001 -0.000000 0.380000
v 0.029999 0.000000 0.380000
v 0.029999 0.000000 0.380000
v -0.030001 -0.000000 0.220000
v -0.030001 -0.000000 0.220000
v -0.030001 0.050000 0.220000
v 0.029999 0.050000 0.220000
v 0.029999 0.000000 0.220000
v 0.029999 0.000000 0.220000
v -0.030001 0.050000 0.380000
v 0.029999 0.050000 0.380000
vn -0.0000 -1.0000 -0.0000
vn -1.0000 -0.0000 -0.0000
vn -0.0000 -0.0000 -1.0000
vn -0.0000 -0.0000 1.0000
vn 1.0000 -0.0000 -0.0000
vt 0.002320 0.012212
vt 0.997283 0.012212
vt 0.997283 0.503371
vt 0.002320 0.503371
s 1
f 253/5/6 251/6/6 249/6/6
f 259/7/7 241/5/7 250/6/7
f 255/8/8 258/5/8 254/5/8
f 260/7/9 243/6/9 244/6/9
f 256/8/10 252/6/10 257/5/10
f 253/5/6 242/5/6 251/6/6
f 259/7/7 245/8/7 241/5/7
f 255/8/8 247/8/8 258/5/8
f 260/7/9 248/7/9 243/6/9
f 256/8/10 246/7/10 252/6/10
f 273/5/6 271/6/6 269/6/6
f 279/7/7 261/5/7 270/6/7
f 275/8/8 278/5/8 274/5/8
f 280/7/9 263/6/9 264/6/9
f 276/8/10 272/6/10 277/5/10
f 273/5/6 262/5/6 271/6/6
f 279/7/7 265/8/7 261/5/7
f 275/8/8 267/8/8 278/5/8
f 280/7/9 268/7/9 263/6/9
f 276/8/10 266/7/10 272/6/10
f 293/5/6 291/6/6 289/6/6
f 299/7/7 281/5/7 290/6/7
f 295/8/8 298/5/8 294/5/8
f 300/7/9 283/6/9 284/6/9
f 296/8/10 292/6/10 297/5/10
f 293/5/6 282/5/6 291/6/6
f 299/7/7 285/8/7 281/5/7
f 295/8/8 287/8/8 298/5/8
f 300/7/9 288/7/9 283/6/9
f 296/8/10 286/7/10 292/6/10
f 313/5/6 311/6/6 309/6/6
f 319/7/7 301/5/7 310/6/7
f 315/8/8 318/5/8 314/5/8
f 320/7/9 303/6/9 304/6/9
f 316/8/10 312/6/10 317/5/10
f 313/5/6 302/5/6 311/6/6
f 319/7/7 305/8/7 301/5/7
f 315/8/8 307/8/8 318/5/8
f 320/7/9 308/7/9 303/6/9
f 316/8/10 306/7/10 312/6/10
f 333/5/6 331/6/6 329/6/6
f 339/7/7 321/5/7 330/6/7
f 335/8/8 338/5/8 334/5/8
f 340/7/9 323/6/9 324/6/9
f 336/8/10 332/6/10 337/5/10
f 333/5/6 322/5/6 331/6/6
f 339/7/7 325/8/7 321/5/7
f 335/8/8 327/8/8 338/5/8
f 340/7/9 328/7/9 323/6/9
f 336/8/10 326/7/10 332/6/10
f 353/5/6 351/6/6 349/6/6
f 359/7/7 341/5/7 350/6/7
f 355/8/8 358/5/8 354/5/8
f 360/7/9 343/6/9 344/6/9
f 356/8/10 352/6/10 357/5/10
f 353/5/6 342/5/6 351/6/6
f 359/7/7 345/8/7 341/5/7
f 355/8/8 347/8/8 358/5/8
f 360/7/9 348/7/9 343/6/9
f 356/8/10 346/7/10 352/6/10
f 373/5/6 371/6/6 369/6/6
f 379/7/7 361/5/7 370/6/7
f 375/8/8 378/5/8 374/5/8
f 380/7/9 363/6/9 364/6/9
f 376/8/10 372/6/10 377/5/10
f 373/5/6 362/5/6 371/6/6
f 379/7/7 365/8/7 361/5/7
f 375/8/8 367/8/8 378/5/8
f 380/7/9 368/7/9 363/6/9
f 376/8/10 366/7/10 372/6/10
f 393/5/6 391/6/6 389/6/6
f 399/7/7 381/5/7 390/6/7
f 395/8/8 398/5/8 394/5/8
f 400/7/9 383/6/9 384/6/9
f 396/8/10 392/6/10 397/5/10
f 393/5/6 382/5/6 391/6/6
f 399/7/7 385/8/7 381/5/7
f 395/8/8 387/8/8 398/5/8
f 400/7/9 388/7/9 383/6/9
f 396/8/10 386/7/10 392/6/10
f 413/5/6 411/6/6 409/6/6
f 419/7/7 401/5/7 410/6/7
f 415/8/8 418/5/8 414/5/8
f 420/7/9 403/6/9 404/6/9
f 416/8/10 412/6/10 417/5/10
f 413/5/6 402/5/6 411/6/6
f 419/7/7 405/8/7 401/5/7
f 415/8/8 407/8/8 418/5/8
f 420/7/9 408/7/9 403/6/9
f 416/8/10 406/7/10 412/6/10
f 433/5/6 431/6/6 429/6/6
f 439/7/7 421/5/7 430/6/7
f 435/8/8 438/5/8 434/5/8
f 440/7/9 423/6/9 424/6/9
f 436/8/10 432/6/10 437/5/10
f 433/5/6 422/5/6 431/6/6
f 439/7/7 425/8/7 421/5/7
f 435/8/8 427/8/8 438/5/8
f 440/7/9 428/7/9 423/6/9
f 436/8/10 426/7/10 432/6/10
f 453/5/6 451/6/6 449/6/6
f 459/7/7 441/5/7 450/6/7
f 455/8/8 458/5/8 454/5/8
f 460/7/9 443/6/9 444/6/9
f 456/8/10 452/6/10 457/5/10
f 453/5/6 442/5/6 451/6/6
f 459/7/7 445/8/7 441/5/7
f 455/8/8 447/8/8 458/5/8
f 460/7/9 448/7/9 443/6/9
f 456/8/10 446/7/10 452/6/10
f 473/5/6 471/6/6 469/6/6
f 479/7/7 461/5/7 470/6/7
f 475/8/8 478/5/8 474/5/8
f 480/7/9 463/6/9 464/6/9
f 476/8/10 472/6/10 477/5/10
f 473/5/6 462/5/6 471/6/6
f 479/7/7 465/8/7 461/5/7
f 475/8/8 467/8/8 478/5/8
f 480/7/9 468/7/9 463/6/9
f 476/8/10 466/7/10 472/6/10
