# Blender 5.0.0
# www.blender.org
o Cavalrymen
v -0.084832 0.000000 0.182896
v -0.144621 0.000000 0.187917
v -0.098223 0.000000 0.023457
v -0.158012 0.000000 0.028479
v -0.022195 0.000000 0.343521
v -0.081530 0.000000 0.334616
v 0.001552 0.000000 0.185293
v -0.057783 0.000000 0.176388
v -0.082755 -0.000000 -0.010457
v -0.142167 -0.000000 -0.002081
v -0.105091 -0.000000 -0.168890
v -0.164503 -0.000000 -0.160514
v 0.119014 0.000000 0.064612
v 0.059522 0.000000 0.056825
v 0.139780 -0.000000 -0.094034
v 0.080287 -0.000000 -0.101821
v 0.059522 0.069321 0.056826
v 0.029734 0.000000 0.002216
v -0.030097 0.000000 0.006709
v 0.017753 -0.000000 -0.157334
v -0.042078 -0.000000 -0.152842
v -0.084832 0.119321 0.182897
v -0.144621 0.119321 0.187918
v -0.098223 0.119321 0.023458
v -0.158012 0.119321 0.028480
v -0.084832 0.069321 0.182896
v -0.158012 0.069321 0.028479
v -0.144621 0.069321 0.187918
v -0.098223 0.069321 0.023458
v -0.022195 0.119321 0.343522
v -0.081530 0.119321 0.334617
v 0.001552 0.119321 0.185294
v -0.057783 0.119321 0.176389
v -0.022195 0.069321 0.343522
v -0.057783 0.069321 0.176388
v -0.081530 0.069321 0.334616
v 0.001552 0.069321 0.185294
v -0.082755 0.119321 -0.010456
v -0.142167 0.119321 -0.002080
v -0.105090 0.119321 -0.168889
v -0.164503 0.119321 -0.160513
v -0.082755 0.069321 -0.010456
v -0.164503 0.069321 -0.160514
v -0.142167 0.069321 -0.002080
v -0.105090 0.069321 -0.168890
v 0.119014 0.119321 0.064613
v 0.059522 0.119321 0.056826
v 0.139780 0.119321 -0.094033
v 0.080287 0.119321 -0.101820
v 0.119014 0.069321 0.064613
v 0.080287 0.069321 -0.101821
v 0.139780 0.069321 -0.094034
v 0.029734 0.119321 0.002217
v -0.030097 0.119321 0.006710
v 0.017753 0.119321 -0.157333
v -0.042078 0.119321 -0.152841
v 0.029734 0.069321 0.002217
v -0.042078 0.069321 -0.152841
v -0.030097 0.069321 0.006710
v 0.017753 0.069321 -0.157334
v -0.098223 0.000000 0.023457
v -0.098223 0.000000 0.023457
v -0.158012 0.000000 0.028479
v -0.158012 0.000000 0.028479
v 0.001552 0.000000 0.185293
v 0.001552 0.000000 0.185293
v -0.057783 0.000000 0.176388
v -0.057783 0.000000 0.176388
v -0.105091 -0.000000 -0.168890
v -0.105091 -0.000000 -0.168890
v -0.164503 -0.000000 -0.160514
v -0.164503 -0.000000 -0.160514
v 0.139780 -0.000000 -0.094034
v 0.139780 -0.000000 -0.094034
v 0.080287 -0.000000 -0.101821
v 0.080287 -0.000000 -0.101821
v 0.017753 -0.000000 -0.157334
v 0.017753 -0.000000 -0.157334
v -0.042078 -0.000000 -0.152842
v -0.042078 -0.000000 -0.152842
v -0.158012 0.119321 0.028480
v -0.158012 0.119321 0.028480
v -0.158012 0.069321 0.028479
v -0.098223 0.119321 0.023458
v -0.098223 0.119321 0.023458
v -0.098223 0.069321 0.023458
v -0.144621 0.119321 0.187918
v -0.144621 0.119321 0.187918
v -0.144621 0.069321 0.187918
v -0.084832 0.119321 0.182897
v -0.084832 0.119321 0.182897
v -0.084832 0.069321 0.182896
v -0.057783 0.119321 0.176389
v -0.057783 0.119321 0.176389
v -0.057783 0.069321 0.176388
v 0.001552 0.119321 0.185294
v 0.001552 0.119321 0.185294
v 0.001552 0.069321 0.185294
v -0.081530 0.119321 0.334617
v -0.081530 0.119321 0.334617
v -0.081530 0.069321 0.334616
v -0.022195 0.119321 0.343522
v -0.022195 0.119321 0.343522
v -0.022195 0.069321 0.343522
v -0.164503 0.119321 -0.160513
v -0.164503 0.119321 -0.160513
v -0.164503 0.069321 -0.160514
v -0.105090 0.119321 -0.168889
v -0.105090 0.119321 -0.168889
v -0.105090 0.069321 -0.168890
v -0.142167 0.119321 -0.002080
v -0.142167 0.119321 -0.002080
v -0.142167 0.069321 -0.002080
v -0.082755 0.119321 -0.010456
v -0.082755 0.119321 -0.010456
v -0.082755 0.069321 -0.010456
v 0.080287 0.119321 -0.101820
v 0.080287 0.119321 -0.101820
v 0.080287 0.069321 -0.101821
v 0.139780 0.119321 -0.094033
v 0.139780 0.119321 -0.094033
v 0.139780 0.069321 -0.094034
v 0.119014 0.119321 0.064613
v 0.119014 0.119321 0.064613
v 0.119014 0.069321 0.064613
v -0.042078 0.119321 -0.152841
v -0.042078 0.119321 -0.152841
v -0.042078 0.069321 -0.152841
v 0.017753 0.119321 -0.157333
v 0.017753 0.119321 -0.157333
v 0.017753 0.069321 -0.157334
v -0.030097 0.119321 0.006710
v -0.030097 0.119321 0.006710
v -0.030097 0.069321 0.006710
v 0.029734 0.119321 0.002217
v 0.029734 0.119321 0.002217
v 0.029734 0.069321 0.002217
v -0.084832 0.000000 0.182896
v -0.084832 0.000000 0.182896
v -0.144621 0.000000 0.187917
v -0.144621 0.000000 0.187917
v -0.022195 0.000000 0.343521
v -0.022195 0.000000 0.343521
v -0.081530 0.000000 0.334616
v -0.081530 0.000000 0.334616
v -0.082755 -0.000000 -0.010457
v -0.082755 -0.000000 -0.010457
v -0.142167 -0.000000 -0.002081
v -0.142167 -0.000000 -0.002081
v 0.119014 0.000000 0.064612
v 0.119014 0.000000 0.064612
v 0.059522 0.000000 0.056825
v 0.059522 0.000000 0.056825
v 0.059522 0.069321 0.056826
v 0.029734 0.000000 0.002216
v 0.029734 0.000000 0.002216
v -0.030097 0.000000 0.006709
v -0.030097 0.000000 0.006709
v 0.059522 0.119321 0.056826
v 0.059522 0.119321 0.056826
vn -0.3410 -0.9400 0.0121
vn 0.3152 -0.9400 0.1306
vn -0.0040 -0.9918 0.1275
vn 0.9497 -0.3131 0.0088
vn 0.9082 0.0164 -0.4183
vn 0.9896 0.1268 -0.0684
vn -0.2059 0.1602 0.9654
vn 0.1335 0.1171 0.9841
vn 0.0623 0.3408 0.9381
vn 0.2059 0.1603 -0.9654
vn -0.2093 0.0146 -0.9777
vn 0.0773 0.3032 -0.9498
vn -0.9497 -0.3131 -0.0088
vn -0.9113 0.1566 0.3808
vn -0.9981 0.0507 -0.0337
vn 0.1124 -0.9918 -0.0603
vn 0.9175 -0.1602 -0.3640
vn 0.1671 0.3131 0.9349
vn -0.1671 0.3131 -0.9349
vn -0.9175 -0.1603 0.3640
vn -0.3346 -0.9400 -0.0668
vn 0.2766 -0.9400 0.1998
vn -0.0333 -0.9918 0.1232
vn 0.9220 -0.3131 0.2277
vn 0.9802 0.0164 -0.1975
vn 0.9787 0.1268 0.1617
vn -0.4230 0.1602 0.8919
vn -0.0971 0.1171 0.9884
vn -0.1558 0.3408 0.9271
vn 0.4230 0.1603 -0.8918
vn 0.0219 0.0146 -0.9997
vn 0.2943 0.3032 -0.9063
vn -0.9220 -0.3131 -0.2277
vn -0.9746 0.1566 0.1603
vn -0.9635 0.0507 -0.2630
vn 0.1233 -0.9918 -0.0328
vn 0.9767 -0.1602 -0.1425
vn -0.0530 0.3131 0.9483
vn 0.0530 0.3131 -0.9483
vn -0.9767 -0.1603 0.1426
vn -0.3397 -0.9400 0.0313
vn 0.3220 -0.9400 0.1127
vn 0.0032 -0.9918 0.1276
vn 0.9487 -0.3131 -0.0446
vn 0.8832 0.0164 -0.4687
vn 0.9842 0.1268 -0.1240
vn -0.1512 0.1602 0.9754
vn 0.1887 0.1171 0.9750
vn 0.1150 0.3408 0.9331
vn 0.1513 0.1603 -0.9754
vn -0.2640 0.0146 -0.9644
vn 0.0238 0.3032 -0.9526
vn -0.9487 -0.3131 0.0446
vn -0.8885 0.1566 0.4314
vn -0.9985 0.0507 0.0225
vn 0.1089 -0.9918 -0.0666
vn 0.8956 -0.1602 -0.4150
vn 0.2194 0.3131 0.9240
vn -0.2194 0.3131 -0.9240
vn -0.8956 -0.1603 0.4151
vn -0.3358 -0.9400 -0.0605
vn 0.2803 -0.9400 0.1946
vn -0.0310 -0.9918 0.1238
vn 0.9262 -0.3131 0.2103
vn 0.9763 0.0164 -0.2159
vn 0.9815 0.1268 0.1432
vn -0.4061 0.1602 0.8997
vn -0.0784 0.1171 0.9900
vn -0.1383 0.3408 0.9299
vn 0.4062 0.1603 -0.8996
vn 0.0030 0.0146 -0.9999
vn 0.2772 0.3032 -0.9117
vn -0.9262 -0.3131 -0.2103
vn -0.9714 0.1566 0.1786
vn -0.9682 0.0507 -0.2448
vn 0.1227 -0.9918 -0.0351
vn 0.9739 -0.1602 -0.1609
vn -0.0352 0.3130 0.9491
vn 0.0352 0.3131 -0.9491
vn -0.9739 -0.1603 0.1609
vn -0.3411 -0.9400 0.0091
vn 0.3140 -0.9400 0.1334
vn -0.0051 -0.9918 0.1275
vn 0.9496 -0.3131 0.0172
vn 0.9118 0.0164 -0.4102
vn 0.9901 0.1268 -0.0597
vn -0.2144 0.1602 0.9635
vn 0.1248 0.1171 0.9852
vn 0.0540 0.3408 0.9386
vn 0.2144 0.1603 -0.9635
vn -0.2007 0.0146 -0.9795
vn 0.0857 0.3032 -0.9491
vn -0.9496 -0.3131 -0.0172
vn -0.9147 0.1566 0.3727
vn -0.9978 0.0507 -0.0425
vn 0.1130 -0.9918 -0.0593
vn 0.9207 -0.1602 -0.3559
vn 0.1589 0.3131 0.9364
vn -0.1588 0.3131 -0.9364
vn -0.9207 -0.1603 0.3559
vn -0.3382 0.9400 0.0449
vn 0.2890 0.9400 -0.1814
vn -0.0252 0.9918 -0.1251
vn -0.9621 -0.1566 -0.2234
vn -0.0079 -0.1030 -0.9947
vn -0.0433 -0.0146 0.9990
vn 0.9652 -0.0164 0.2609
vn 0.1089 0.9918 0.0664
vn -0.9797 -0.0753 0.1856
vn -0.0950 -0.3408 -0.9353
vn 0.2347 -0.3032 0.9236
vn 0.9871 -0.1268 -0.0976
vn -0.3395 0.9400 -0.0343
vn 0.3230 0.9400 -0.1098
vn 0.0044 0.9918 -0.1275
vn -0.8846 -0.1566 -0.4393
vn 0.2217 -0.1030 -0.9697
vn -0.2726 -0.0146 0.9620
vn 0.8790 -0.0164 0.4765
vn 0.0907 0.9918 0.0898
vn -0.9961 -0.0753 -0.0454
vn 0.1233 -0.3408 -0.9320
vn 0.0153 -0.3032 0.9528
vn 0.9830 -0.1268 0.1327
vn -0.3352 0.9400 0.0638
vn 0.2783 0.9400 -0.1973
vn -0.0322 0.9918 -0.1235
vn -0.9731 -0.1566 -0.1690
vn -0.0639 -0.1030 -0.9926
vn 0.0129 -0.0146 0.9998
vn 0.9784 -0.0164 0.2062
vn 0.1125 0.9918 0.0602
vn -0.9677 -0.0753 0.2404
vn -0.1475 -0.3408 -0.9285
vn 0.2862 -0.3032 0.9089
vn 0.9801 -0.1268 -0.1529
vn -0.3400 0.9400 -0.0279
vn 0.3209 0.9400 -0.1159
vn 0.0020 0.9918 -0.1276
vn -0.8927 -0.1566 -0.4226
vn 0.2034 -0.1030 -0.9737
vn -0.2544 -0.0146 0.9670
vn 0.8878 -0.0164 0.4599
vn 0.0923 0.9918 0.0881
vn -0.9968 -0.0753 -0.0266
vn 0.1057 -0.3408 -0.9342
vn 0.0332 -0.3032 0.9524
vn 0.9853 -0.1268 0.1142
vn -0.3386 0.9400 0.0419
vn 0.2906 0.9400 -0.1788
vn -0.0241 0.9918 -0.1253
vn -0.9601 -0.1566 -0.2319
vn 0.0008 -0.1030 -0.9947
vn -0.0521 -0.0146 0.9985
vn 0.9629 -0.0164 0.2694
vn 0.1083 0.9918 0.0674
vn -0.9813 -0.0753 0.1770
vn -0.0868 -0.3408 -0.9361
vn 0.2265 -0.3032 0.9256
vn 0.9879 -0.1268 -0.0889
vt 0.002320 0.012212
vt 0.997283 0.012212
vt 0.997283 0.503371
vt 0.002320 0.503371
vt 0.997283 0.990088
vt 0.002320 0.990088
s 1
f 138/1/1 63/2/2 61/2/3
f 86/3/4 1/1/5 62/2/6
f 92/4/7 140/1/8 139/1/9
f 83/3/10 3/2/11 4/2/12
f 89/4/13 64/2/14 141/1/15
f 138/1/1 2/1/16 63/2/2
f 86/3/4 26/4/17 1/1/5
f 92/4/7 28/4/18 140/1/8
f 83/3/10 29/3/19 3/2/11
f 89/4/13 27/3/20 64/2/14
f 142/1/21 67/2/22 65/2/23
f 98/3/24 5/1/25 66/2/26
f 104/4/27 144/1/28 143/1/29
f 95/3/30 7/2/31 8/2/32
f 101/4/33 68/2/34 145/1/35
f 142/1/21 6/1/36 67/2/22
f 98/3/24 34/4/37 5/1/25
f 104/4/27 36/4/38 144/1/28
f 95/3/30 37/3/39 7/2/31
f 101/4/33 35/3/40 68/2/34
f 146/1/41 71/2/42 69/2/43
f 110/3/44 9/1/45 70/2/46
f 116/4/47 148/1/48 147/1/49
f 107/3/50 11/2/51 12/2/52
f 113/4/53 72/2/54 149/1/55
f 146/1/41 10/1/56 71/2/42
f 110/3/44 42/4/57 9/1/45
f 116/4/47 44/4/58 148/1/48
f 107/3/50 45/3/59 11/2/51
f 113/4/53 43/3/60 72/2/54
f 150/1/61 75/2/62 73/2/63
f 122/3/64 13/1/65 74/2/66
f 125/4/67 152/1/68 151/1/69
f 119/3/70 15/2/71 16/2/72
f 154/4/73 76/2/74 153/1/75
f 150/1/61 14/1/76 75/2/62
f 122/3/64 50/4/77 13/1/65
f 125/4/67 17/4/78 152/1/68
f 119/3/70 52/3/79 15/2/71
f 154/4/73 51/3/80 76/2/74
f 155/1/81 79/2/82 77/2/83
f 131/3/84 18/1/85 78/2/86
f 137/4/87 157/1/88 156/1/89
f 128/3/90 20/2/91 21/2/92
f 134/4/93 80/2/94 158/1/95
f 155/1/81 19/1/96 79/2/82
f 131/3/84 57/4/97 18/1/85
f 137/4/87 59/4/98 157/1/88
f 128/3/90 60/3/99 20/2/91
f 134/4/93 58/3/100 80/2/94
f 85/5/101 88/6/102 91/6/103
f 87/6/104 27/3/20 89/4/13
f 81/5/105 29/3/19 83/3/10
f 90/6/106 28/4/18 92/4/7
f 84/5/107 26/4/17 86/3/4
f 85/5/101 82/5/108 88/6/102
f 87/6/104 25/5/109 27/3/20
f 81/5/105 24/5/110 29/3/19
f 90/6/106 23/6/111 28/4/18
f 84/5/107 22/6/112 26/4/17
f 97/5/113 100/6/114 103/6/115
f 99/6/116 35/3/40 101/4/33
f 93/5/117 37/3/39 95/3/30
f 102/6/118 36/4/38 104/4/27
f 96/5/119 34/4/37 98/3/24
f 97/5/113 94/5/120 100/6/114
f 99/6/116 33/5/121 35/3/40
f 93/5/117 32/5/122 37/3/39
f 102/6/118 31/6/123 36/4/38
f 96/5/119 30/6/124 34/4/37
f 109/5/125 112/6/126 115/6/127
f 111/6/128 43/3/60 113/4/53
f 105/5/129 45/3/59 107/3/50
f 114/6/130 44/4/58 116/4/47
f 108/5/131 42/4/57 110/3/44
f 109/5/125 106/5/132 112/6/126
f 111/6/128 41/5/133 43/3/60
f 105/5/129 40/5/134 45/3/59
f 114/6/130 39/6/135 44/4/58
f 108/5/131 38/6/136 42/4/57
f 121/5/137 159/6/138 124/6/139
f 160/6/140 51/3/80 154/4/73
f 117/5/141 52/3/79 119/3/70
f 123/6/142 17/4/78 125/4/67
f 120/5/143 50/4/77 122/3/64
f 121/5/137 118/5/144 159/6/138
f 160/6/140 49/5/145 51/3/80
f 117/5/141 48/5/146 52/3/79
f 123/6/142 47/6/147 17/4/78
f 120/5/143 46/6/148 50/4/77
f 130/5/149 133/6/150 136/6/151
f 132/6/152 58/3/100 134/4/93
f 126/5/153 60/3/99 128/3/90
f 135/6/154 59/4/98 137/4/87
f 129/5/155 57/4/97 131/3/84
f 130/5/149 127/5/156 133/6/150
f 132/6/152 56/5/157 58/3/100
f 126/5/153 55/5/158 60/3/99
f 135/6/154 54/6/159 59/4/98
f 129/5/155 53/6/160 57/4/97
