# Blender 5.0.0
# www.blender.org
o Cavalrymen
v -0.150000 0.000000 0.179999
v -0.210000 0.000000 0.179999
v -0.150000 0.000000 0.019999
v -0.210000 0.000000 0.019999
v -0.150000 0.069321 0.179999
v -0.210000 0.069321 0.019999
v -0.210000 0.069321 0.179999
v -0.150000 0.069321 0.019999
v 0.210000 0.000000 0.179999
v 0.150000 0.000000 0.179999
v 0.210000 0.000000 0.019999
v 0.150000 0.000000 0.019999
v 0.210000 0.069321 0.179999
v 0.150000 0.069321 0.019999
v 0.150000 0.069321 0.179999
v 0.210000 0.069321 0.019999
v 0.090000 0.000000 0.179999
v 0.030000 0.000000 0.179999
v 0.090000 0.000000 0.019999
v 0.030000 0.000000 0.019999
v 0.090000 0.069321 0.179999
v 0.030000 0.069321 0.019999
v 0.030000 0.069321 0.179999
v 0.090000 0.069321 0.019999
v -0.030000 0.000000 0.179999
v -0.090000 0.000000 0.179999
v -0.030000 0.000000 0.019999
v -0.090000 0.000000 0.019999
v -0.030000 0.069321 0.179999
v -0.090000 0.069321 0.019999
v -0.090000 0.069321 0.179999
v -0.030000 0.069321 0.019999
v -0.150000 -0.000000 -0.020001
v -0.210000 -0.000000 -0.020001
v -0.150000 -0.000000 -0.180001
v -0.210000 -0.000000 -0.180001
v -0.150000 0.069321 -0.020001
v -0.210000 0.069321 -0.180001
v -0.210000 0.069321 -0.020001
v -0.150000 0.069321 -0.180001
v 0.210000 -0.000000 -0.020001
v 0.150000 -0.000000 -0.020001
v 0.210000 -0.000000 -0.180001
v 0.150000 -0.000000 -0.180001
v 0.210000 0.069321 -0.020001
v 0.150000 0.069321 -0.180001
v 0.150000 0.069321 -0.020001
v 0.210000 0.069321 -0.180001
v 0.090000 -0.000000 -0.020001
v 0.030000 -0.000000 -0.020001
v 0.090000 -0.000000 -0.180001
v 0.030000 -0.000000 -0.180001
v 0.090000 0.069321 -0.020001
v 0.030000 0.069321 -0.180001
v 0.030000 0.069321 -0.020001
v 0.090000 0.069321 -0.180001
v -0.030000 -0.000000 -0.020001
v -0.090000 -0.000000 -0.020001
v -0.030000 -0.000000 -0.180001
v -0.090000 -0.000000 -0.180001
v -0.030000 0.069321 -0.020001
v -0.090000 0.069321 -0.180001
v -0.090000 0.069321 -0.020001
v -0.030000 0.069321 -0.180001
v -0.150000 0.119321 0.180001
v -0.210000 0.119321 0.180001
v -0.150000 0.119321 0.020001
v -0.210000 0.119321 0.020001
v -0.150000 0.069321 0.180001
v -0.210000 0.069321 0.020001
v -0.210000 0.069321 0.180001
v -0.150000 0.069321 0.020001
v 0.210000 0.119321 0.180001
v 0.150000 0.119321 0.180001
v 0.210000 0.119321 0.020001
v 0.150000 0.119321 0.020001
v 0.210000 0.069321 0.180001
v 0.150000 0.069321 0.020001
v 0.150000 0.069321 0.180001
v 0.210000 0.069321 0.020001
v 0.090000 0.119321 0.180001
v 0.030000 0.119321 0.180001
v 0.090000 0.119321 0.020001
v 0.030000 0.119321 0.020001
v 0.090000 0.069321 0.180001
v 0.030000 0.069321 0.020001
v 0.030000 0.069321 0.180001
v 0.090000 0.069321 0.020001
v -0.030000 0.119321 0.180001
v -0.090000 0.119321 0.180001
v -0.030000 0.119321 0.020001
v -0.090000 0.119321 0.020001
v -0.030000 0.069321 0.180001
v -0.090000 0.069321 0.020001
v -0.090000 0.069321 0.180001
v -0.030000 0.069321 0.020001
v -0.150000 0.119321 -0.019999
v -0.210000 0.119321 -0.019999
v -0.150000 0.119321 -0.180000
v -0.210000 0.119321 -0.180000
v -0.150000 0.069321 -0.019999
v -0.210000 0.069321 -0.179999
v -0.210000 0.069321 -0.019999
v -0.150000 0.069321 -0.179999
v 0.210000 0.119321 -0.019999
v 0.150000 0.119321 -0.019999
v 0.210000 0.119321 -0.180000
v 0.150000 0.119321 -0.180000
v 0.210000 0.069321 -0.019999
v 0.150000 0.069321 -0.179999
v 0.150000 0.069321 -0.019999
v 0.210000 0.069321 -0.179999
v 0.090000 0.119321 -0.019999
v 0.030000 0.119321 -0.019999
v 0.090000 0.119321 -0.180000
v 0.030000 0.119321 -0.180000
v 0.090000 0.069321 -0.019999
v 0.030000 0.069321 -0.179999
v 0.030000 0.069321 -0.019999
v 0.090000 0.069321 -0.179999
v -0.030000 0.119321 -0.019999
v -0.090000 0.119321 -0.019999
v -0.030000 0.119321 -0.180000
v -0.090000 0.119321 -0.180000
v -0.030000 0.069321 -0.019999
v -0.090000 0.069321 -0.179999
v -0.090000 0.069321 -0.019999
v -0.030000 0.069321 -0.179999
v -0.150000 0.000000 0.019999
v -0.150000 0.000000 0.019999
v -0.210000 0.000000 0.019999
v -0.210000 0.000000 0.019999
v -0.150000 0.000000 0.179999
v -0.150000 0.000000 0.179999
v -0.150000 0.069321 0.179999
v -0.150000 0.069321 0.019999
v 0.210000 0.000000 0.019999
v 0.210000 0.000000 0.019999
v 0.150000 0.000000 0.019999
v 0.150000 0.000000 0.019999
v 0.210000 0.000000 0.179999
v 0.210000 0.000000 0.179999
v 0.210000 0.069321 0.179999
v 0.210000 0.069321 0.019999
v 0.090000 0.000000 0.019999
v 0.090000 0.000000 0.019999
v 0.030000 0.000000 0.019999
v 0.030000 0.000000 0.019999
v 0.090000 0.000000 0.179999
v 0.090000 0.000000 0.179999
v 0.090000 0.069321 0.179999
v 0.090000 0.069321 0.019999
v -0.030000 0.000000 0.019999
v -0.030000 0.000000 0.019999
v -0.090000 0.000000 0.019999
v -0.090000 0.000000 0.019999
v -0.030000 0.000000 0.179999
v -0.030000 0.000000 0.179999
v -0.030000 0.069321 0.179999
v -0.030000 0.069321 0.019999
v -0.150000 -0.000000 -0.180001
v -0.150000 -0.000000 -0.180001
v -0.210000 -0.000000 -0.180001
v -0.210000 -0.000000 -0.180001
v -0.150000 -0.000000 -0.020001
v -0.150000 -0.000000 -0.020001
v -0.150000 0.069321 -0.020001
v -0.150000 0.069321 -0.180001
v 0.210000 -0.000000 -0.180001
v 0.210000 -0.000000 -0.180001
v 0.150000 -0.000000 -0.180001
v 0.150000 -0.000000 -0.180001
v 0.210000 -0.000000 -0.020001
v 0.210000 -0.000000 -0.020001
v 0.210000 0.069321 -0.020001
v 0.210000 0.069321 -0.180001
v 0.090000 -0.000000 -0.180001
v 0.090000 -0.000000 -0.180001
v 0.030000 -0.000000 -0.180001
v 0.030000 -0.000000 -0.180001
v 0.090000 -0.000000 -0.020001
v 0.090000 -0.000000 -0.020001
v 0.090000 0.069321 -0.020001
v 0.090000 0.069321 -0.180001
v -0.030000 -0.000000 -0.180001
v -0.030000 -0.000000 -0.180001
v -0.090000 -0.000000 -0.180001
v -0.090000 -0.000000 -0.180001
v -0.030000 -0.000000 -0.020001
v -0.030000 -0.000000 -0.020001
v -0.030000 0.069321 -0.020001
v -0.030000 0.069321 -0.180001
v -0.210000 0.119321 0.020001
v -0.210000 0.119321 0.020001
v -0.210000 0.069321 0.020001
v -0.150000 0.119321 0.020001
v -0.150000 0.119321 0.020001
v -0.150000 0.069321 0.020001
v -0.210000 0.119321 0.180001
v -0.210000 0.119321 0.180001
v -0.210000 0.069321 0.180001
v -0.150000 0.119321 0.180001
v -0.150000 0.119321 0.180001
v -0.150000 0.069321 0.180001
v 0.150000 0.119321 0.020001
v 0.150000 0.119321 0.020001
v 0.150000 0.069321 0.020001
v 0.210000 0.119321 0.020001
v 0.210000 0.119321 0.020001
v 0.210000 0.069321 0.020001
v 0.150000 0.119321 0.180001
v 0.150000 0.119321 0.180001
v 0.150000 0.069321 0.180001
v 0.210000 0.119321 0.180001
v 0.210000 0.119321 0.180001
v 0.210000 0.069321 0.180001
v 0.030000 0.119321 0.020001
v 0.030000 0.119321 0.020001
v 0.030000 0.069321 0.020001
v 0.090000 0.119321 0.020001
v 0.090000 0.119321 0.020001
v 0.090000 0.069321 0.020001
v 0.030000 0.119321 0.180001
v 0.030000 0.119321 0.180001
v 0.030000 0.069321 0.180001
v 0.090000 0.119321 0.180001
v 0.090000 0.119321 0.180001
v 0.090000 0.069321 0.180001
v -0.090000 0.119321 0.020001
v -0.090000 0.119321 0.020001
v -0.090000 0.069321 0.020001
v -0.030000 0.119321 0.020001
v -0.030000 0.119321 0.020001
v -0.030000 0.069321 0.020001
v -0.090000 0.119321 0.180001
v -0.090000 0.119321 0.180001
v -0.090000 0.069321 0.180001
v -0.030000 0.119321 0.180001
v -0.030000 0.119321 0.180001
v -0.030000 0.069321 0.180001
v -0.210000 0.119321 -0.180000
v -0.210000 0.119321 -0.180000
v -0.210000 0.069321 -0.179999
v -0.150000 0.119321 -0.180000
v -0.150000 0.119321 -0.180000
v -0.150000 0.069321 -0.179999
v -0.210000 0.119321 -0.019999
v -0.210000 0.119321 -0.019999
v -0.210000 0.069321 -0.019999
v -0.150000 0.119321 -0.019999
v -0.150000 0.119321 -0.019999
v -0.150000 0.069321 -0.019999
v 0.150000 0.119321 -0.180000
v 0.150000 0.119321 -0.180000
v 0.150000 0.069321 -0.179999
v 0.210000 0.119321 -0.180000
v 0.210000 0.119321 -0.180000
v 0.210000 0.069321 -0.179999
v 0.150000 0.119321 -0.019999
v 0.150000 0.119321 -0.019999
v 0.150000 0.069321 -0.019999
v 0.210000 0.119321 -0.019999
v 0.210000 0.119321 -0.019999
v 0.210000 0.069321 -0.019999
v 0.030000 0.119321 -0.180000
v 0.030000 0.119321 -0.180000
v 0.030000 0.069321 -0.179999
v 0.090000 0.119321 -0.180000
v 0.090000 0.119321 -0.180000
v 0.090000 0.069321 -0.179999
v 0.030000 0.119321 -0.019999
v 0.030000 0.119321 -0.019999
v 0.030000 0.069321 -0.019999
v 0.090000 0.119321 -0.019999
v 0.090000 0.119321 -0.019999
v 0.090000 0.069321 -0.019999
v -0.090000 0.119321 -0.180000
v -0.090000 0.119321 -0.180000
v -0.090000 0.069321 -0.179999
v -0.030000 0.119321 -0.180000
v -0.030000 0.119321 -0.180000
v -0.030000 0.069321 -0.179999
v -0.090000 0.119321 -0.019999
v -0.090000 0.119321 -0.019999
v -0.090000 0.069321 -0.019999
v -0.030000 0.119321 -0.019999
v -0.030000 0.119321 -0.019999
v -0.030000 0.069321 -0.019999
v -0.210000 0.000000 0.179999
v -0.210000 0.000000 0.179999
v -0.210000 0.069321 0.019999
v -0.210000 0.069321 0.179999
v 0.150000 0.000000 0.179999
v 0.150000 0.000000 0.179999
v 0.150000 0.069321 0.019999
v 0.150000 0.069321 0.179999
v 0.030000 0.000000 0.179999
v 0.030000 0.000000 0.179999
v 0.030000 0.069321 0.019999
v 0.030000 0.069321 0.179999
v -0.090000 0.000000 0.179999
v -0.090000 0.000000 0.179999
v -0.090000 0.069321 0.019999
v -0.090000 0.069321 0.179999
v -0.210000 -0.000000 -0.020001
v -0.210000 -0.000000 -0.020001
v -0.210000 0.069321 -0.180001
v -0.210000 0.069321 -0.020001
v 0.150000 -0.000000 -0.020001
v 0.150000 -0.000000 -0.020001
v 0.150000 0.069321 -0.180001
v 0.150000 0.069321 -0.020001
v 0.030000 -0.000000 -0.020001
v 0.030000 -0.000000 -0.020001
v 0.030000 0.069321 -0.180001
v 0.030000 0.069321 -0.020001
v -0.090000 -0.000000 -0.020001
v -0.090000 -0.000000 -0.020001
v -0.090000 0.069321 -0.180001
v -0.090000 0.069321 -0.020001
vn -0.3408 -0.9400 -0.0164
vn 0.3031 -0.9400 0.1566
vn -0.0146 -0.9918 0.1268
vn 0.9053 -0.0000 0.4247
vn 0.9400 0.0164 -0.3408
vn 0.9918 0.1268 0.0146
vn 0.0001 -0.1056 0.9944
vn 0.0507 0.1171 0.9918
vn -0.0164 0.3408 0.9400
vn -0.0001 -0.1056 -0.9944
vn -0.1268 0.0146 -0.9918
vn 0.1566 0.3031 -0.9400
vn -0.9053 -0.0000 -0.4247
vn -0.9400 0.1566 0.3031
vn -0.9918 0.0507 -0.1171
vn 0.1171 -0.9918 -0.0507
vn 0.9944 0.0001 -0.1056
vn -0.0000 -0.4247 0.9053
vn -0.0000 -0.4247 -0.9053
vn -0.9944 0.0001 0.1056
vn -0.0000 -0.1056 0.9944
vn -0.0000 -0.1056 -0.9944
vn 0.9944 -0.0000 -0.1056
vn -0.9944 -0.0000 0.1056
vn -0.3408 0.9400 0.0164
vn 0.3031 0.9400 -0.1566
vn -0.0146 0.9918 -0.1268
vn -0.9400 -0.1566 -0.3031
vn -0.9053 -0.0000 0.4247
vn -0.9944 -0.0000 -0.1056
vn 0.0754 -0.1030 -0.9918
vn 0.0001 0.1056 -0.9944
vn -0.0000 0.4247 -0.9053
vn -0.1268 -0.0146 0.9918
vn -0.0000 0.1056 0.9944
vn -0.0000 0.4247 0.9053
vn 0.9400 -0.0164 0.3408
vn 0.9053 -0.0000 -0.4247
vn 0.9944 -0.0001 0.1056
vn 0.1030 0.9918 0.0754
vn -0.9918 -0.0754 0.1030
vn -0.0164 -0.3408 -0.9400
vn 0.1566 -0.3031 0.9400
vn 0.9918 -0.1268 -0.0146
vn -0.0000 0.1056 -0.9944
vn 0.9944 -0.0000 0.1056
vt 0.002320 0.012212
vt 0.997283 0.012212
vt 0.997283 0.503371
vt 0.002320 0.503371
vt 0.997283 0.990088
vt 0.002320 0.990088
s 1
f 134/1/1 131/2/2 129/2/3
f 136/3/4 1/1/5 130/2/6
f 135/4/7 289/1/8 133/1/9
f 291/3/10 3/2/11 132/2/12
f 292/4/13 4/2/14 290/1/15
f 134/1/1 2/1/16 131/2/2
f 136/3/4 5/4/17 1/1/5
f 135/4/7 7/4/18 289/1/8
f 291/3/10 8/3/19 3/2/11
f 292/4/13 6/3/20 4/2/14
f 142/1/1 139/2/2 137/2/3
f 144/3/4 9/1/5 138/2/6
f 143/4/7 293/1/8 141/1/9
f 295/3/10 11/2/11 140/2/12
f 296/4/13 12/2/14 294/1/15
f 142/1/1 10/1/16 139/2/2
f 144/3/4 13/4/17 9/1/5
f 143/4/7 15/4/18 293/1/8
f 295/3/10 16/3/19 11/2/11
f 296/4/13 14/3/20 12/2/14
f 150/1/1 147/2/2 145/2/3
f 152/3/4 17/1/5 146/2/6
f 151/4/21 297/1/8 149/1/9
f 299/3/22 19/2/11 148/2/12
f 300/4/13 20/2/14 298/1/15
f 150/1/1 18/1/16 147/2/2
f 152/3/4 21/4/23 17/1/5
f 151/4/21 23/4/18 297/1/8
f 299/3/22 24/3/19 19/2/11
f 300/4/13 22/3/24 20/2/14
f 158/1/1 155/2/2 153/2/3
f 160/3/4 25/1/5 154/2/6
f 159/4/21 301/1/8 157/1/9
f 303/3/10 27/2/11 156/2/12
f 304/4/13 28/2/14 302/1/15
f 158/1/1 26/1/16 155/2/2
f 160/3/4 29/4/23 25/1/5
f 159/4/21 31/4/18 301/1/8
f 303/3/10 32/3/19 27/2/11
f 304/4/13 30/3/20 28/2/14
f 166/1/1 163/2/2 161/2/3
f 168/3/4 33/1/5 162/2/6
f 167/4/7 305/1/8 165/1/9
f 307/3/10 35/2/11 164/2/12
f 308/4/13 36/2/14 306/1/15
f 166/1/1 34/1/16 163/2/2
f 168/3/4 37/4/17 33/1/5
f 167/4/7 39/4/18 305/1/8
f 307/3/10 40/3/19 35/2/11
f 308/4/13 38/3/20 36/2/14
f 174/1/1 171/2/2 169/2/3
f 176/3/4 41/1/5 170/2/6
f 175/4/7 309/1/8 173/1/9
f 311/3/10 43/2/11 172/2/12
f 312/4/13 44/2/14 310/1/15
f 174/1/1 42/1/16 171/2/2
f 176/3/4 45/4/17 41/1/5
f 175/4/7 47/4/18 309/1/8
f 311/3/10 48/3/19 43/2/11
f 312/4/13 46/3/20 44/2/14
f 182/1/1 179/2/2 177/2/3
f 184/3/4 49/1/5 178/2/6
f 183/4/21 313/1/8 181/1/9
f 315/3/22 51/2/11 180/2/12
f 316/4/13 52/2/14 314/1/15
f 182/1/1 50/1/16 179/2/2
f 184/3/4 53/4/23 49/1/5
f 183/4/21 55/4/18 313/1/8
f 315/3/22 56/3/19 51/2/11
f 316/4/13 54/3/24 52/2/14
f 190/1/1 187/2/2 185/2/3
f 192/3/4 57/1/5 186/2/6
f 191/4/21 317/1/8 189/1/9
f 319/3/10 59/2/11 188/2/12
f 320/4/13 60/2/14 318/1/15
f 190/1/1 58/1/16 187/2/2
f 192/3/4 61/4/23 57/1/5
f 191/4/21 63/4/18 317/1/8
f 319/3/10 64/3/19 59/2/11
f 320/4/13 62/3/20 60/2/14
f 197/5/25 200/6/26 203/6/27
f 199/6/28 70/3/29 201/4/30
f 193/5/31 72/3/32 195/3/33
f 202/6/34 71/4/35 204/4/36
f 196/5/37 69/4/38 198/3/39
f 197/5/25 194/5/40 200/6/26
f 199/6/28 68/5/41 70/3/29
f 193/5/31 67/5/42 72/3/32
f 202/6/34 66/6/43 71/4/35
f 196/5/37 65/6/44 69/4/38
f 209/5/25 212/6/26 215/6/27
f 211/6/28 78/3/29 213/4/30
f 205/5/31 80/3/32 207/3/33
f 214/6/34 79/4/35 216/4/36
f 208/5/37 77/4/38 210/3/39
f 209/5/25 206/5/40 212/6/26
f 211/6/28 76/5/41 78/3/29
f 205/5/31 75/5/42 80/3/32
f 214/6/34 74/6/43 79/4/35
f 208/5/37 73/6/44 77/4/38
f 221/5/25 224/6/26 227/6/27
f 223/6/28 86/3/29 225/4/30
f 217/5/31 88/3/32 219/3/33
f 226/6/34 87/4/35 228/4/36
f 220/5/37 85/4/38 222/3/39
f 221/5/25 218/5/40 224/6/26
f 223/6/28 84/5/41 86/3/29
f 217/5/31 83/5/42 88/3/32
f 226/6/34 82/6/43 87/4/35
f 220/5/37 81/6/44 85/4/38
f 233/5/25 236/6/26 239/6/27
f 235/6/28 94/3/29 237/4/30
f 229/5/31 96/3/45 231/3/33
f 238/6/34 95/4/35 240/4/36
f 232/5/37 93/4/38 234/3/46
f 233/5/25 230/5/40 236/6/26
f 235/6/28 92/5/41 94/3/29
f 229/5/31 91/5/42 96/3/45
f 238/6/34 90/6/43 95/4/35
f 232/5/37 89/6/44 93/4/38
f 245/5/25 248/6/26 251/6/27
f 247/6/28 102/3/29 249/4/30
f 241/5/31 104/3/32 243/3/33
f 250/6/34 103/4/35 252/4/36
f 244/5/37 101/4/38 246/3/39
f 245/5/25 242/5/40 248/6/26
f 247/6/28 100/5/41 102/3/29
f 241/5/31 99/5/42 104/3/32
f 250/6/34 98/6/43 103/4/35
f 244/5/37 97/6/44 101/4/38
f 257/5/25 260/6/26 263/6/27
f 259/6/28 110/3/29 261/4/30
f 253/5/31 112/3/32 255/3/33
f 262/6/34 111/4/35 264/4/36
f 256/5/37 109/4/38 258/3/39
f 257/5/25 254/5/40 260/6/26
f 259/6/28 108/5/41 110/3/29
f 253/5/31 107/5/42 112/3/32
f 262/6/34 106/6/43 111/4/35
f 256/5/37 105/6/44 109/4/38
f 269/5/25 272/6/26 275/6/27
f 271/6/28 118/3/29 273/4/30
f 265/5/31 120/3/45 267/3/33
f 274/6/34 119/4/35 276/4/36
f 268/5/37 117/4/38 270/3/46
f 269/5/25 266/5/40 272/6/26
f 271/6/28 116/5/41 118/3/29
f 265/5/31 115/5/42 120/3/45
f 274/6/34 114/6/43 119/4/35
f 268/5/37 113/6/44 117/4/38
f 281/5/25 284/6/26 287/6/27
f 283/6/28 126/3/29 285/4/30
f 277/5/31 128/3/45 279/3/33
f 286/6/34 127/4/35 288/4/36
f 280/5/37 125/4/38 282/3/46
f 281/5/25 278/5/40 284/6/26
f 283/6/28 124/5/41 126/3/29
f 277/5/31 123/5/42 128/3/45
f 286/6/34 122/6/43 127/4/35
f 280/5/37 121/6/44 125/4/38
