# Blender 5.0.0
# www.blender.org
o Cavalrymen
v -0.158075 0.000000 0.187875
v -0.217873 0.000000 0.182961
v -0.144971 0.000000 0.028413
v -0.204769 0.000000 0.023499
v 0.161593 0.000000 0.342624
v 0.101913 0.000000 0.336430
v 0.178109 0.000000 0.183479
v 0.118430 0.000000 0.177285
v 0.072013 0.000000 0.198511
v 0.012926 0.000000 0.188084
v 0.099817 0.000000 0.040945
v 0.040729 0.000000 0.030519
v -0.050180 0.000000 0.261332
v -0.110180 0.000000 0.261459
v -0.050519 0.000000 0.101332
v -0.110518 0.000000 0.101459
v -0.155876 0.000000 0.004576
v -0.215875 0.000000 0.004798
v -0.156469 -0.000000 -0.155423
v -0.216469 -0.000000 -0.155201
v 0.207704 0.000000 0.030402
v 0.148383 0.000000 0.039399
v 0.183714 -0.000000 -0.127789
v 0.124392 -0.000000 -0.118792
v 0.095424 0.000000 0.006655
v 0.036379 0.000000 0.017318
v 0.066990 -0.000000 -0.150798
v 0.007946 -0.000000 -0.140136
v 0.036379 0.069321 0.017318
v -0.002698 -0.000000 -0.082169
v -0.061797 -0.000000 -0.071815
v -0.030307 -0.000000 -0.239769
v -0.089407 -0.000000 -0.229415
v -0.158075 0.119321 0.187877
v -0.217874 0.119321 0.182962
v -0.144971 0.119321 0.028414
v -0.204769 0.119321 0.023500
v -0.158075 0.069321 0.187876
v -0.204769 0.069321 0.023499
v -0.217874 0.069321 0.182962
v -0.144971 0.069321 0.028414
v 0.161593 0.119321 0.342625
v 0.101913 0.119321 0.336431
v 0.178109 0.119321 0.183480
v 0.118430 0.119321 0.177286
v 0.161593 0.069321 0.342624
v 0.118430 0.069321 0.177285
v 0.101913 0.069321 0.336431
v 0.178109 0.069321 0.183479
v 0.072013 0.119321 0.198512
v 0.012926 0.119321 0.188085
v 0.099816 0.119321 0.040946
v 0.040729 0.119321 0.030520
v 0.072013 0.069321 0.198511
v 0.040729 0.069321 0.030519
v 0.012926 0.069321 0.188085
v 0.099817 0.069321 0.040945
v -0.050180 0.119321 0.261333
v -0.110180 0.119321 0.261460
v -0.050519 0.119321 0.101333
v -0.110518 0.119321 0.101460
v -0.050180 0.069321 0.261332
v -0.110518 0.069321 0.101460
v -0.110180 0.069321 0.261459
v -0.050518 0.069321 0.101333
v -0.155876 0.119321 0.004577
v -0.215875 0.119321 0.004799
v -0.156469 0.119321 -0.155422
v -0.216469 0.119321 -0.155200
v -0.155876 0.069321 0.004576
v -0.216469 0.069321 -0.155200
v -0.215875 0.069321 0.004799
v -0.156469 0.069321 -0.155423
v 0.207704 0.119321 0.030404
v 0.148383 0.119321 0.039400
v 0.183714 0.119321 -0.127788
v 0.124393 0.119321 -0.118791
v 0.207704 0.069321 0.030403
v 0.124393 0.069321 -0.118792
v 0.148383 0.069321 0.039399
v 0.183714 0.069321 -0.127788
v 0.095424 0.119321 0.006656
v 0.036379 0.119321 0.017319
v 0.066991 0.119321 -0.150797
v 0.007946 0.119321 -0.140135
v 0.095424 0.069321 0.006656
v 0.007946 0.069321 -0.140135
v 0.066991 0.069321 -0.150798
v -0.002697 0.119321 -0.082168
v -0.061797 0.119321 -0.071814
v -0.030307 0.119321 -0.239768
v -0.089407 0.119321 -0.229414
v -0.002697 0.069321 -0.082168
v -0.089407 0.069321 -0.229415
v -0.061797 0.069321 -0.071815
v -0.030307 0.069321 -0.239768
v -0.144971 0.000000 0.028413
v -0.144971 0.000000 0.028413
v -0.204769 0.000000 0.023499
v -0.204769 0.000000 0.023499
v 0.178109 0.000000 0.183479
v 0.178109 0.000000 0.183479
v 0.118430 0.000000 0.177285
v 0.118430 0.000000 0.177285
v 0.099817 0.000000 0.040945
v 0.099817 0.000000 0.040945
v 0.040729 0.000000 0.030519
v 0.040729 0.000000 0.030519
v -0.050519 0.000000 0.101332
v -0.050519 0.000000 0.101332
v -0.110518 0.000000 0.101459
v -0.110518 0.000000 0.101459
v -0.156469 -0.000000 -0.155423
v -0.156469 -0.000000 -0.155423
v -0.216469 -0.000000 -0.155201
v -0.216469 -0.000000 -0.155201
v 0.183714 -0.000000 -0.127789
v 0.183714 -0.000000 -0.127789
v 0.124392 -0.000000 -0.118792
v 0.124392 -0.000000 -0.118792
v 0.066990 -0.000000 -0.150798
v 0.066990 -0.000000 -0.150798
v 0.007946 -0.000000 -0.140136
v 0.007946 -0.000000 -0.140136
v -0.030307 -0.000000 -0.239769
v -0.030307 -0.000000 -0.239769
v -0.089407 -0.000000 -0.229415
v -0.089407 -0.000000 -0.229415
v -0.204769 0.119321 0.023500
v -0.204769 0.119321 0.023500
v -0.204769 0.069321 0.023499
v -0.144971 0.119321 0.028414
v -0.144971 0.119321 0.028414
v -0.144971 0.069321 0.028414
v -0.217874 0.119321 0.182962
v -0.217874 0.119321 0.182962
v -0.217874 0.069321 0.182962
v -0.158075 0.119321 0.187877
v -0.158075 0.119321 0.187877
v -0.158075 0.069321 0.187876
v 0.118430 0.119321 0.177286
v 0.118430 0.119321 0.177286
v 0.118430 0.069321 0.177285
v 0.178109 0.119321 0.183480
v 0.178109 0.119321 0.183480
v 0.178109 0.069321 0.183479
v 0.101913 0.119321 0.336431
v 0.101913 0.119321 0.336431
v 0.101913 0.069321 0.336431
v 0.161593 0.119321 0.342625
v 0.161593 0.119321 0.342625
v 0.161593 0.069321 0.342624
v 0.040729 0.119321 0.030520
v 0.040729 0.119321 0.030520
v 0.040729 0.069321 0.030519
v 0.099816 0.119321 0.040946
v 0.099816 0.119321 0.040946
v 0.099817 0.069321 0.040945
v 0.012926 0.119321 0.188085
v 0.012926 0.119321 0.188085
v 0.012926 0.069321 0.188085
v 0.072013 0.119321 0.198512
v 0.072013 0.119321 0.198512
v 0.072013 0.069321 0.198511
v -0.110518 0.119321 0.101460
v -0.110518 0.119321 0.101460
v -0.110518 0.069321 0.101460
v -0.050519 0.119321 0.101333
v -0.050519 0.119321 0.101333
v -0.050518 0.069321 0.101333
v -0.110180 0.119321 0.261460
v -0.110180 0.119321 0.261460
v -0.110180 0.069321 0.261459
v -0.050180 0.119321 0.261333
v -0.050180 0.119321 0.261333
v -0.050180 0.069321 0.261332
v -0.216469 0.119321 -0.155200
v -0.216469 0.119321 -0.155200
v -0.216469 0.069321 -0.155200
v -0.156469 0.119321 -0.155422
v -0.156469 0.119321 -0.155422
v -0.156469 0.069321 -0.155423
v -0.215875 0.119321 0.004799
v -0.215875 0.119321 0.004799
v -0.215875 0.069321 0.004799
v -0.155876 0.119321 0.004577
v -0.155876 0.119321 0.004577
v -0.155876 0.069321 0.004576
v 0.124393 0.119321 -0.118791
v 0.124393 0.119321 -0.118791
v 0.124393 0.069321 -0.118792
v 0.183714 0.119321 -0.127788
v 0.183714 0.119321 -0.127788
v 0.183714 0.069321 -0.127788
v 0.148383 0.119321 0.039400
v 0.148383 0.119321 0.039400
v 0.148383 0.069321 0.039399
v 0.207704 0.119321 0.030404
v 0.207704 0.119321 0.030404
v 0.207704 0.069321 0.030403
v 0.007946 0.119321 -0.140135
v 0.007946 0.119321 -0.140135
v 0.007946 0.069321 -0.140135
v 0.066991 0.119321 -0.150797
v 0.066991 0.119321 -0.150797
v 0.066991 0.069321 -0.150798
v 0.095424 0.119321 0.006656
v 0.095424 0.119321 0.006656
v 0.095424 0.069321 0.006656
v -0.089407 0.119321 -0.229414
v -0.089407 0.119321 -0.229414
v -0.089407 0.069321 -0.229415
v -0.030307 0.119321 -0.239768
v -0.030307 0.119321 -0.239768
v -0.030307 0.069321 -0.239768
v -0.061797 0.119321 -0.071814
v -0.061797 0.119321 -0.071814
v -0.061797 0.069321 -0.071815
v -0.002697 0.119321 -0.082168
v -0.002697 0.119321 -0.082168
v -0.002697 0.069321 -0.082168
v -0.158075 0.000000 0.187875
v -0.158075 0.000000 0.187875
v -0.217873 0.000000 0.182961
v -0.217873 0.000000 0.182961
v 0.161593 0.000000 0.342624
v 0.161593 0.000000 0.342624
v 0.101913 0.000000 0.336430
v 0.101913 0.000000 0.336430
v 0.072013 0.000000 0.198511
v 0.072013 0.000000 0.198511
v 0.012926 0.000000 0.188084
v 0.012926 0.000000 0.188084
v -0.050180 0.000000 0.261332
v -0.050180 0.000000 0.261332
v -0.110180 0.000000 0.261459
v -0.110180 0.000000 0.261459
v -0.155876 0.000000 0.004576
v -0.155876 0.000000 0.004576
v -0.215875 0.000000 0.004798
v -0.215875 0.000000 0.004798
v 0.207704 0.000000 0.030402
v 0.207704 0.000000 0.030402
v 0.148383 0.000000 0.039399
v 0.148383 0.000000 0.039399
v 0.095424 0.000000 0.006655
v 0.095424 0.000000 0.006655
v 0.036379 0.000000 0.017318
v 0.036379 0.000000 0.017318
v 0.036379 0.069321 0.017318
v -0.002698 -0.000000 -0.082169
v -0.002698 -0.000000 -0.082169
v -0.061797 -0.000000 -0.071815
v -0.061797 -0.000000 -0.071815
v 0.036379 0.119321 0.017319
v 0.036379 0.119321 0.017319
vn -0.3383 -0.9400 -0.0443
vn 0.2893 -0.9400 0.1809
vn -0.0250 -0.9918 0.1251
vn 0.9352 -0.3131 0.1654
vn 0.9647 0.0164 -0.2627
vn 0.9873 0.1268 0.0958
vn -0.3624 0.1602 0.9182
vn -0.0307 0.1171 0.9926
vn -0.0934 0.3408 0.9355
vn 0.3624 0.1603 -0.9181
vn -0.0451 0.0146 -0.9989
vn 0.2330 0.3032 -0.9240
vn -0.9352 -0.3131 -0.1654
vn -0.9617 0.1566 0.2251
vn -0.9789 0.0507 -0.1979
vn 0.1208 -0.9918 -0.0410
vn 0.9650 -0.1602 -0.2076
vn 0.0105 0.3131 0.9497
vn -0.0105 0.3131 -0.9497
vn -0.9650 -0.1603 0.2076
vn -0.3373 -0.9400 -0.0515
vn 0.2854 -0.9400 0.1870
vn -0.0276 -0.9918 0.1246
vn 0.9315 -0.3131 0.1854
vn 0.9702 0.0164 -0.2419
vn 0.9850 0.1268 0.1169
vn -0.3819 0.1602 0.9102
vn -0.0519 0.1171 0.9918
vn -0.1134 0.3408 0.9333
vn 0.3820 0.1603 -0.9102
vn -0.0237 0.0146 -0.9996
vn 0.2527 0.3032 -0.9188
vn -0.9315 -0.3131 -0.1854
vn -0.9663 0.1566 0.2045
vn -0.9744 0.0507 -0.2188
vn 0.1217 -0.9918 -0.0384
vn 0.9692 -0.1602 -0.1869
vn -0.0098 0.3131 0.9497
vn 0.0098 0.3131 -0.9497
vn -0.9692 -0.1603 0.1869
vn -0.3327 -0.9400 -0.0754
vn 0.2713 -0.9400 0.2068
vn -0.0364 -0.9918 0.1223
vn 0.9159 -0.3131 0.2512
vn 0.9849 0.0164 -0.1723
vn 0.9742 0.1268 0.1868
vn -0.4458 0.1602 0.8807
vn -0.1224 0.1171 0.9855
vn -0.1795 0.3408 0.9228
vn 0.4458 0.1603 -0.8807
vn 0.0475 0.0146 -0.9988
vn 0.3175 0.3032 -0.8985
vn -0.9159 -0.3131 -0.2513
vn -0.9784 0.1566 0.1352
vn -0.9564 0.0507 -0.2877
vn 0.1241 -0.9918 -0.0296
vn 0.9801 -0.1602 -0.1174
vn -0.0773 0.3130 0.9466
vn 0.0774 0.3131 -0.9466
vn -0.9801 -0.1603 0.1174
vn -0.3408 -0.9400 -0.0157
vn 0.3035 -0.9400 0.1559
vn -0.0144 -0.9918 0.1268
vn 0.9458 -0.3131 0.0863
vn 0.9393 0.0164 -0.3428
vn 0.9919 0.1268 0.0125
vn -0.2839 0.1602 0.9454
vn 0.0528 0.1171 0.9917
vn -0.0144 0.3408 0.9400
vn 0.2840 0.1603 -0.9453
vn -0.1289 0.0146 -0.9916
vn 0.1546 0.3032 -0.9403
vn -0.9458 -0.3131 -0.0863
vn -0.9394 0.1566 0.3051
vn -0.9921 0.0507 -0.1150
vn 0.1170 -0.9918 -0.0510
vn 0.9442 -0.1602 -0.2879
vn 0.0903 0.3131 0.9454
vn -0.0903 0.3131 -0.9454
vn -0.9441 -0.1603 0.2880
vn -0.3408 -0.9400 -0.0152
vn 0.3037 -0.9400 0.1554
vn -0.0142 -0.9918 0.1268
vn 0.9459 -0.3131 0.0847
vn 0.9387 0.0164 -0.3443
vn 0.9919 0.1268 0.0109
vn -0.2824 0.1602 0.9458
vn 0.0544 0.1171 0.9916
vn -0.0129 0.3408 0.9401
vn 0.2825 0.1603 -0.9458
vn -0.1304 0.0146 -0.9913
vn 0.1531 0.3032 -0.9406
vn -0.9459 -0.3131 -0.0848
vn -0.9389 0.1566 0.3066
vn -0.9923 0.0507 -0.1134
vn 0.1169 -0.9918 -0.0511
vn 0.9437 -0.1602 -0.2894
vn 0.0918 0.3131 0.9453
vn -0.0918 0.3131 -0.9453
vn -0.9437 -0.1603 0.2895
vn -0.3394 -0.9400 0.0349
vn 0.3232 -0.9400 0.1093
vn 0.0045 -0.9918 0.1275
vn 0.9482 -0.3131 -0.0545
vn 0.8783 0.0164 -0.4779
vn 0.9828 0.1268 -0.1343
vn -0.1410 0.1602 0.9770
vn 0.1989 0.1171 0.9730
vn 0.1247 0.3408 0.9318
vn 0.1411 0.1603 -0.9769
vn -0.2740 0.0146 -0.9616
vn 0.0138 0.3032 -0.9528
vn -0.9482 -0.3131 0.0545
vn -0.8839 0.1566 0.4407
vn -0.9982 0.0507 0.0329
vn 0.1082 -0.9918 -0.0677
vn 0.8912 -0.1602 -0.4244
vn 0.2291 0.3131 0.9217
vn -0.2290 0.3131 -0.9217
vn -0.8912 -0.1603 0.4244
vn -0.3383 -0.9400 0.0444
vn 0.3261 -0.9400 0.1002
vn 0.0081 -0.9918 0.1273
vn 0.9463 -0.3131 -0.0812
vn 0.8645 0.0164 -0.5024
vn 0.9786 0.1268 -0.1619
vn -0.1135 0.1602 0.9805
vn 0.2262 0.1171 0.9670
vn 0.1509 0.3408 0.9280
vn 0.1135 0.1603 -0.9805
vn -0.3010 0.0146 -0.9535
vn -0.0130 0.3032 -0.9529
vn -0.9463 -0.3131 0.0811
vn -0.8712 0.1566 0.4654
vn -0.9968 0.0507 0.0610
vn 0.1062 -0.9918 -0.0707
vn 0.8789 -0.1602 -0.4493
vn 0.2550 0.3130 0.9149
vn -0.2549 0.3131 -0.9149
vn -0.8789 -0.1603 0.4493
vn -0.3385 -0.9400 0.0426
vn 0.3256 -0.9400 0.1019
vn 0.0075 -0.9918 0.1274
vn 0.9467 -0.3131 -0.0762
vn 0.8671 0.0164 -0.4979
vn 0.9795 0.1268 -0.1567
vn -0.1186 0.1602 0.9799
vn 0.2211 0.1171 0.9682
vn 0.1460 0.3408 0.9287
vn 0.1187 0.1603 -0.9799
vn -0.2960 0.0146 -0.9551
vn -0.0080 0.3032 -0.9529
vn -0.9467 -0.3131 0.0762
vn -0.8736 0.1566 0.4608
vn -0.9972 0.0507 0.0558
vn 0.1066 -0.9918 -0.0702
vn 0.8812 -0.1602 -0.4447
vn 0.2501 0.3131 0.9162
vn -0.2501 0.3131 -0.9162
vn -0.8812 -0.1603 0.4447
vn -0.3410 0.9400 -0.0115
vn 0.3150 0.9400 -0.1312
vn -0.0042 0.9918 -0.1275
vn -0.9120 -0.1566 -0.3791
vn 0.1563 -0.1030 -0.9823
vn -0.2076 -0.0146 0.9781
vn 0.9089 -0.0164 0.4166
vn 0.0965 0.9918 0.0835
vn -0.9969 -0.0753 0.0214
vn 0.0606 -0.3408 -0.9382
vn 0.0790 -0.3032 0.9497
vn 0.9897 -0.1268 0.0667
vn -0.3407 0.9400 -0.0188
vn 0.3177 0.9400 -0.1244
vn -0.0015 0.9918 -0.1276
vn -0.9037 -0.1566 -0.3986
vn 0.1773 -0.1030 -0.9788
vn -0.2285 -0.0146 0.9734
vn 0.8998 -0.0164 0.4360
vn 0.0947 0.9918 0.0856
vn -0.9972 -0.0753 0.0001
vn 0.0807 -0.3408 -0.9367
vn 0.0587 -0.3032 0.9511
vn 0.9880 -0.1268 0.0878
vn -0.3385 0.9400 -0.0430
vn 0.3257 0.9400 -0.1015
vn 0.0076 0.9918 -0.1274
vn -0.8730 -0.1566 -0.4619
vn 0.2465 -0.1030 -0.9636
vn -0.2972 -0.0146 0.9547
vn 0.8665 -0.0164 0.4989
vn 0.0883 0.9918 0.0921
vn -0.9946 -0.0753 -0.0709
vn 0.1472 -0.3408 -0.9286
vn -0.0092 -0.3032 0.9529
vn 0.9793 -0.1268 0.1579
vn -0.3408 0.9400 0.0172
vn 0.3028 0.9400 -0.1572
vn -0.0149 0.9918 -0.1267
vn -0.9406 -0.1566 -0.3012
vn 0.0732 -0.1030 -0.9920
vn -0.1247 -0.0146 0.9921
vn 0.9407 -0.0164 0.3388
vn 0.1032 0.9918 0.0751
vn -0.9916 -0.0753 0.1051
vn -0.0184 -0.3408 -0.9400
vn 0.1585 -0.3032 0.9397
vn 0.9918 -0.1268 -0.0167
vn -0.3407 0.9400 0.0177
vn 0.3026 0.9400 -0.1577
vn -0.0151 0.9918 -0.1267
vn -0.9411 -0.1566 -0.2997
vn 0.0716 -0.1030 -0.9921
vn -0.1231 -0.0146 0.9923
vn 0.9413 -0.0164 0.3373
vn 0.1033 0.9918 0.0749
vn -0.9914 -0.0753 0.1067
vn -0.0199 -0.3408 -0.9399
vn 0.1600 -0.3032 0.9394
vn 0.9918 -0.1268 -0.0183
vn -0.3345 0.9400 0.0673
vn 0.2762 0.9400 -0.2002
vn -0.0335 0.9918 -0.1231
vn -0.9748 -0.1566 -0.1588
vn -0.0742 -0.1030 -0.9919
vn 0.0234 -0.0146 0.9996
vn 0.9805 -0.0164 0.1960
vn 0.1131 0.9918 0.0590
vn -0.9652 -0.0753 0.2505
vn -0.1572 -0.3408 -0.9269
vn 0.2957 -0.3032 0.9059
vn 0.9784 -0.1268 -0.1632
vn -0.3324 0.9400 0.0767
vn 0.2705 0.9400 -0.2079
vn -0.0369 0.9918 -0.1221
vn -0.9789 -0.1566 -0.1313
vn -0.1021 -0.1030 -0.9894
vn 0.0515 -0.0146 0.9986
vn 0.9856 -0.0164 0.1683
vn 0.1147 0.9918 0.0558
vn -0.9577 -0.0753 0.2776
vn -0.1832 -0.3408 -0.9221
vn 0.3211 -0.3032 0.8972
vn 0.9734 -0.1268 -0.1906
vn -0.3328 0.9400 0.0750
vn 0.2716 0.9400 -0.2065
vn -0.0363 0.9918 -0.1223
vn -0.9782 -0.1566 -0.1364
vn -0.0970 -0.1030 -0.9899
vn 0.0463 -0.0146 0.9988
vn 0.9847 -0.0164 0.1735
vn 0.1144 0.9918 0.0564
vn -0.9592 -0.0753 0.2726
vn -0.1784 -0.3408 -0.9231
vn 0.3164 -0.3032 0.8989
vn 0.9744 -0.1268 -0.1856
vt 0.002320 0.012212
vt 0.997283 0.012212
vt 0.997283 0.503371
vt 0.002320 0.503371
vt 0.997283 0.990088
vt 0.002320 0.990088
s 1
f 222/1/1 99/2/2 97/2/3
f 134/3/4 1/1/5 98/2/6
f 140/4/7 224/1/8 223/1/9
f 131/3/10 3/2/11 4/2/12
f 137/4/13 100/2/14 225/1/15
f 222/1/1 2/1/16 99/2/2
f 134/3/4 38/4/17 1/1/5
f 140/4/7 40/4/18 224/1/8
f 131/3/10 41/3/19 3/2/11
f 137/4/13 39/3/20 100/2/14
f 226/1/21 103/2/22 101/2/23
f 146/3/24 5/1/25 102/2/26
f 152/4/27 228/1/28 227/1/29
f 143/3/30 7/2/31 8/2/32
f 149/4/33 104/2/34 229/1/35
f 226/1/21 6/1/36 103/2/22
f 146/3/24 46/4/37 5/1/25
f 152/4/27 48/4/38 228/1/28
f 143/3/30 49/3/39 7/2/31
f 149/4/33 47/3/40 104/2/34
f 230/1/41 107/2/42 105/2/43
f 158/3/44 9/1/45 106/2/46
f 164/4/47 232/1/48 231/1/49
f 155/3/50 11/2/51 12/2/52
f 161/4/53 108/2/54 233/1/55
f 230/1/41 10/1/56 107/2/42
f 158/3/44 54/4/57 9/1/45
f 164/4/47 56/4/58 232/1/48
f 155/3/50 57/3/59 11/2/51
f 161/4/53 55/3/60 108/2/54
f 234/1/61 111/2/62 109/2/63
f 170/3/64 13/1/65 110/2/66
f 176/4/67 236/1/68 235/1/69
f 167/3/70 15/2/71 16/2/72
f 173/4/73 112/2/74 237/1/75
f 234/1/61 14/1/76 111/2/62
f 170/3/64 62/4/77 13/1/65
f 176/4/67 64/4/78 236/1/68
f 167/3/70 65/3/79 15/2/71
f 173/4/73 63/3/80 112/2/74
f 238/1/81 115/2/82 113/2/83
f 182/3/84 17/1/85 114/2/86
f 188/4/87 240/1/88 239/1/89
f 179/3/90 19/2/91 20/2/92
f 185/4/93 116/2/94 241/1/95
f 238/1/81 18/1/96 115/2/82
f 182/3/84 70/4/97 17/1/85
f 188/4/87 72/4/98 240/1/88
f 179/3/90 73/3/99 19/2/91
f 185/4/93 71/3/100 116/2/94
f 242/1/101 119/2/102 117/2/103
f 194/3/104 21/1/105 118/2/106
f 200/4/107 244/1/108 243/1/109
f 191/3/110 23/2/111 24/2/112
f 197/4/113 120/2/114 245/1/115
f 242/1/101 22/1/116 119/2/102
f 194/3/104 78/4/117 21/1/105
f 200/4/107 80/4/118 244/1/108
f 191/3/110 81/3/119 23/2/111
f 197/4/113 79/3/120 120/2/114
f 246/1/121 123/2/122 121/2/123
f 206/3/124 25/1/125 122/2/126
f 209/4/127 248/1/128 247/1/129
f 203/3/130 27/2/131 28/2/132
f 250/4/133 124/2/134 249/1/135
f 246/1/121 26/1/136 123/2/122
f 206/3/124 86/4/137 25/1/125
f 209/4/127 29/4/138 248/1/128
f 203/3/130 88/3/139 27/2/131
f 250/4/133 87/3/140 124/2/134
f 251/1/141 127/2/142 125/2/143
f 215/3/144 30/1/145 126/2/146
f 221/4/147 253/1/148 252/1/149
f 212/3/150 32/2/151 33/2/152
f 218/4/153 128/2/154 254/1/155
f 251/1/141 31/1/156 127/2/142
f 215/3/144 93/4/157 30/1/145
f 221/4/147 95/4/158 253/1/148
f 212/3/150 96/3/159 32/2/151
f 218/4/153 94/3/160 128/2/154
f 133/5/161 136/6/162 139/6/163
f 135/6/164 39/3/20 137/4/13
f 129/5/165 41/3/19 131/3/10
f 138/6/166 40/4/18 140/4/7
f 132/5/167 38/4/17 134/3/4
f 133/5/161 130/5/168 136/6/162
f 135/6/164 37/5/169 39/3/20
f 129/5/165 36/5/170 41/3/19
f 138/6/166 35/6/171 40/4/18
f 132/5/167 34/6/172 38/4/17
f 145/5/173 148/6/174 151/6/175
f 147/6/176 47/3/40 149/4/33
f 141/5/177 49/3/39 143/3/30
f 150/6/178 48/4/38 152/4/27
f 144/5/179 46/4/37 146/3/24
f 145/5/173 142/5/180 148/6/174
f 147/6/176 45/5/181 47/3/40
f 141/5/177 44/5/182 49/3/39
f 150/6/178 43/6/183 48/4/38
f 144/5/179 42/6/184 46/4/37
f 157/5/185 160/6/186 163/6/187
f 159/6/188 55/3/60 161/4/53
f 153/5/189 57/3/59 155/3/50
f 162/6/190 56/4/58 164/4/47
f 156/5/191 54/4/57 158/3/44
f 157/5/185 154/5/192 160/6/186
f 159/6/188 53/5/193 55/3/60
f 153/5/189 52/5/194 57/3/59
f 162/6/190 51/6/195 56/4/58
f 156/5/191 50/6/196 54/4/57
f 169/5/197 172/6/198 175/6/199
f 171/6/200 63/3/80 173/4/73
f 165/5/201 65/3/79 167/3/70
f 174/6/202 64/4/78 176/4/67
f 168/5/203 62/4/77 170/3/64
f 169/5/197 166/5/204 172/6/198
f 171/6/200 61/5/205 63/3/80
f 165/5/201 60/5/206 65/3/79
f 174/6/202 59/6/207 64/4/78
f 168/5/203 58/6/208 62/4/77
f 181/5/209 184/6/210 187/6/211
f 183/6/212 71/3/100 185/4/93
f 177/5/213 73/3/99 179/3/90
f 186/6/214 72/4/98 188/4/87
f 180/5/215 70/4/97 182/3/84
f 181/5/209 178/5/216 184/6/210
f 183/6/212 69/5/217 71/3/100
f 177/5/213 68/5/218 73/3/99
f 186/6/214 67/6/219 72/4/98
f 180/5/215 66/6/220 70/4/97
f 193/5/221 196/6/222 199/6/223
f 195/6/224 79/3/120 197/4/113
f 189/5/225 81/3/119 191/3/110
f 198/6/226 80/4/118 200/4/107
f 192/5/227 78/4/117 194/3/104
f 193/5/221 190/5/228 196/6/222
f 195/6/224 77/5/229 79/3/120
f 189/5/225 76/5/230 81/3/119
f 198/6/226 75/6/231 80/4/118
f 192/5/227 74/6/232 78/4/117
f 205/5/233 255/6/234 208/6/235
f 256/6/236 87/3/140 250/4/133
f 201/5/237 88/3/139 203/3/130
f 207/6/238 29/4/138 209/4/127
f 204/5/239 86/4/137 206/3/124
f 205/5/233 202/5/240 255/6/234
f 256/6/236 85/5/241 87/3/140
f 201/5/237 84/5/242 88/3/139
f 207/6/238 83/6/243 29/4/138
f 204/5/239 82/6/244 86/4/137
f 214/5/245 217/6/246 220/6/247
f 216/6/248 94/3/160 218/4/153
f 210/5/249 96/3/159 212/3/150
f 219/6/250 95/4/158 221/4/147
f 213/5/251 93/4/157 215/3/144
f 214/5/245 211/5/252 217/6/246
f 216/6/248 92/5/253 94/3/160
f 210/5/249 91/5/254 96/3/159
f 219/6/250 90/6/255 95/4/158
f 213/5/251 89/6/256 93/4/157
