# Blender 5.0.0
# www.blender.org
o Section
v -0.107571 0.100000 -0.113331
v -0.107571 0.100000 -0.062808
v -0.164328 0.100000 -0.113331
v -0.164328 0.100000 -0.062808
v -0.107571 0.050000 -0.113329
v -0.164328 0.050000 -0.063170
v -0.107571 0.050000 -0.063193
v -0.164328 0.050000 -0.113326
v -0.107571 0.000000 -0.113329
v -0.107571 0.000000 -0.063193
v -0.164328 0.000000 -0.113326
v -0.164328 0.000000 -0.063170
v -0.107571 0.100000 -0.012204
v -0.107571 0.100000 0.038319
v -0.164328 0.100000 -0.012204
v -0.164328 0.100000 0.038319
v -0.107571 0.050000 -0.012204
v -0.164328 0.050000 0.038319
v -0.107571 0.050000 0.038319
v -0.164328 0.050000 -0.012204
v -0.107571 0.000000 -0.012204
v -0.107571 0.000000 0.038319
v -0.164328 0.000000 -0.012204
v -0.164328 0.000000 0.038319
v -0.107571 0.100000 0.062976
v -0.107571 0.100000 0.113499
v -0.164328 0.100000 0.062976
v -0.164328 0.100000 0.113499
v -0.107571 0.050000 0.062976
v -0.164328 0.050000 0.113499
v -0.107571 0.050000 0.113499
v -0.164328 0.050000 0.062976
v -0.107571 0.000000 0.062976
v -0.107571 0.000000 0.113499
v -0.164328 0.000000 0.062976
v -0.164328 0.000000 0.113499
v -0.039596 0.100000 -0.111469
v -0.039596 0.100000 -0.060947
v -0.096353 0.100000 -0.111469
v -0.096353 0.100000 -0.060947
v -0.039596 0.050000 -0.111478
v -0.096353 0.050000 -0.061737
v -0.039596 0.050000 -0.061784
v -0.096353 0.050000 -0.111471
v -0.039596 0.000000 -0.111478
v -0.039596 0.000000 -0.061784
v -0.096353 0.000000 -0.111471
v -0.096353 0.000000 -0.061737
v -0.039596 0.100000 0.009083
v -0.039596 0.100000 0.059621
v -0.096353 0.100000 0.009072
v -0.096353 0.100000 0.059621
v -0.039596 0.050000 0.009083
v -0.096353 0.050000 0.059621
v -0.039596 0.050000 0.059621
v -0.096353 0.050000 0.009072
v -0.039596 0.000000 0.009083
v -0.039596 0.000000 0.059621
v -0.096353 0.000000 0.009072
v -0.096353 0.000000 0.059621
v -0.039596 0.100000 0.168550
v -0.039596 0.100000 0.219072
v -0.096353 0.100000 0.168550
v -0.096353 0.100000 0.219072
v -0.039596 0.050000 0.168550
v -0.096353 0.050000 0.219072
v -0.039596 0.050000 0.219072
v -0.096353 0.050000 0.168550
v -0.039596 0.000000 0.168550
v -0.039596 0.000000 0.219072
v -0.096353 0.000000 0.168550
v -0.096353 0.000000 0.219072
v 0.028378 0.100000 -0.107562
v 0.028378 0.100000 -0.057040
v -0.028378 0.100000 -0.107562
v -0.028378 0.100000 -0.057040
v 0.028378 0.050000 -0.107562
v -0.028378 0.050000 -0.058535
v 0.028378 0.050000 -0.058630
v -0.028378 0.050000 -0.107549
v 0.028378 0.000000 -0.107562
v 0.028378 0.000000 -0.058630
v -0.028378 0.000000 -0.107549
v -0.028378 0.000000 -0.058535
v 0.028378 0.100000 0.042910
v 0.028378 0.100000 0.093443
v -0.028378 0.100000 0.042897
v -0.028378 0.100000 0.093443
v 0.028378 0.050000 0.042910
v -0.028378 0.050000 0.093443
v 0.028378 0.050000 0.093443
v -0.028378 0.050000 0.042897
v 0.028378 0.000000 0.042910
v 0.028378 0.000000 0.093443
v -0.028378 0.000000 0.042897
v -0.028378 0.000000 0.093443
v 0.096353 0.100000 -0.110822
v 0.096353 0.100000 -0.060300
v 0.039596 0.100000 -0.110822
v 0.039596 0.100000 -0.060300
v 0.096353 0.050000 -0.110844
v 0.039596 0.050000 -0.061300
v 0.096353 0.050000 -0.061356
v 0.039596 0.050000 -0.110834
v 0.096353 0.000000 -0.110844
v 0.096353 0.000000 -0.061356
v 0.039596 0.000000 -0.110834
v 0.039596 0.000000 -0.061300
v 0.096353 0.100000 0.036189
v 0.096353 0.100000 0.087582
v 0.039596 0.100000 0.036004
v 0.039596 0.100000 0.087582
v 0.096353 0.050000 0.036189
v 0.039596 0.050000 0.087582
v 0.096353 0.050000 0.087582
v 0.039596 0.050000 0.036004
v 0.096353 0.000000 0.036189
v 0.096353 0.000000 0.087582
v 0.039596 0.000000 0.036004
v 0.039596 0.000000 0.087582
v 0.096353 0.100000 0.146158
v 0.096353 0.100000 0.196680
v 0.039596 0.100000 0.146158
v 0.039596 0.100000 0.196680
v 0.096353 0.050000 0.146158
v 0.039596 0.050000 0.196680
v 0.096353 0.050000 0.196680
v 0.039596 0.050000 0.146158
v 0.096353 0.000000 0.146158
v 0.096353 0.000000 0.196680
v 0.039596 0.000000 0.146158
v 0.039596 0.000000 0.196680
v 0.164328 0.100000 -0.114094
v 0.164328 0.100000 -0.063572
v 0.107571 0.100000 -0.114094
v 0.107571 0.100000 -0.063572
v 0.164328 0.050000 -0.114104
v 0.107571 0.050000 -0.063859
v 0.164328 0.050000 -0.063873
v 0.107571 0.050000 -0.114101
v 0.164328 0.000000 -0.114104
v 0.164328 0.000000 -0.063873
v 0.107571 0.000000 -0.114101
v 0.107571 0.000000 -0.063859
v 0.164328 0.100000 -0.011362
v 0.164328 0.100000 0.039161
v 0.107571 0.100000 -0.011362
v 0.107571 0.100000 0.039161
v 0.164328 0.050000 -0.011362
v 0.107571 0.050000 0.039161
v 0.164328 0.050000 0.039161
v 0.107571 0.050000 -0.011362
v 0.164328 0.000000 -0.011362
v 0.164328 0.000000 0.039161
v 0.107571 0.000000 -0.011362
v 0.107571 0.000000 0.039161
v 0.164328 0.100000 0.059613
v 0.164328 0.100000 0.110136
v 0.107571 0.100000 0.059613
v 0.107571 0.100000 0.110136
v 0.164328 0.050000 0.059613
v 0.107571 0.050000 0.110136
v 0.164328 0.050000 0.110136
v 0.107571 0.050000 0.059613
v 0.164328 0.000000 0.059613
v 0.164328 0.000000 0.110136
v 0.107571 0.000000 0.059613
v 0.107571 0.000000 0.110136
v -0.164328 0.100000 -0.062808
v -0.164328 0.100000 -0.062808
v -0.164328 0.050000 -0.063170
v -0.164328 0.100000 -0.113331
v -0.164328 0.100000 -0.113331
v -0.164328 0.050000 -0.113326
v -0.107571 0.100000 -0.062808
v -0.107571 0.100000 -0.062808
v -0.107571 0.050000 -0.063193
v -0.107571 0.100000 -0.113331
v -0.107571 0.100000 -0.113331
v -0.107571 0.050000 -0.113329
v -0.164328 0.000000 -0.113326
v -0.164328 0.000000 -0.113326
v -0.164328 0.000000 -0.063170
v -0.164328 0.000000 -0.063170
v -0.107571 0.000000 -0.113329
v -0.107571 0.000000 -0.113329
v -0.107571 0.000000 -0.063193
v -0.107571 0.000000 -0.063193
v -0.164328 0.100000 0.038319
v -0.164328 0.100000 0.038319
v -0.164328 0.050000 0.038319
v -0.164328 0.100000 -0.012204
v -0.164328 0.100000 -0.012204
v -0.164328 0.050000 -0.012204
v -0.107571 0.100000 0.038319
v -0.107571 0.100000 0.038319
v -0.107571 0.050000 0.038319
v -0.107571 0.100000 -0.012204
v -0.107571 0.100000 -0.012204
v -0.107571 0.050000 -0.012204
v -0.164328 0.000000 -0.012204
v -0.164328 0.000000 -0.012204
v -0.164328 0.000000 0.038319
v -0.164328 0.000000 0.038319
v -0.107571 0.000000 -0.012204
v -0.107571 0.000000 -0.012204
v -0.107571 0.000000 0.038319
v -0.107571 0.000000 0.038319
v -0.164328 0.100000 0.113499
v -0.164328 0.100000 0.113499
v -0.164328 0.050000 0.113499
v -0.164328 0.100000 0.062976
v -0.164328 0.100000 0.062976
v -0.164328 0.050000 0.062976
v -0.107571 0.100000 0.113499
v -0.107571 0.100000 0.113499
v -0.107571 0.050000 0.113499
v -0.107571 0.100000 0.062976
v -0.107571 0.100000 0.062976
v -0.107571 0.050000 0.062976
v -0.164328 0.000000 0.062976
v -0.164328 0.000000 0.062976
v -0.164328 0.000000 0.113499
v -0.164328 0.000000 0.113499
v -0.107571 0.000000 0.062976
v -0.107571 0.000000 0.062976
v -0.107571 0.000000 0.113499
v -0.107571 0.000000 0.113499
v -0.096353 0.100000 -0.060947
v -0.096353 0.100000 -0.060947
v -0.096353 0.050000 -0.061737
v -0.096353 0.100000 -0.111469
v -0.096353 0.100000 -0.111469
v -0.096353 0.050000 -0.111471
v -0.039596 0.100000 -0.060947
v -0.039596 0.100000 -0.060947
v -0.039596 0.050000 -0.061784
v -0.039596 0.100000 -0.111469
v -0.039596 0.100000 -0.111469
v -0.039596 0.050000 -0.111478
v -0.096353 0.000000 -0.111471
v -0.096353 0.000000 -0.111471
v -0.096353 0.000000 -0.061737
v -0.096353 0.000000 -0.061737
v -0.039596 0.000000 -0.111478
v -0.039596 0.000000 -0.111478
v -0.039596 0.000000 -0.061784
v -0.039596 0.000000 -0.061784
v -0.096353 0.100000 0.059621
v -0.096353 0.100000 0.059621
v -0.096353 0.050000 0.059621
v -0.096353 0.100000 0.009072
v -0.096353 0.100000 0.009072
v -0.096353 0.050000 0.009072
v -0.039596 0.100000 0.059621
v -0.039596 0.100000 0.059621
v -0.039596 0.050000 0.059621
v -0.039596 0.100000 0.009083
v -0.039596 0.100000 0.009083
v -0.039596 0.050000 0.009083
v -0.096353 0.000000 0.009072
v -0.096353 0.000000 0.009072
v -0.096353 0.000000 0.059621
v -0.096353 0.000000 0.059621
v -0.039596 0.000000 0.009083
v -0.039596 0.000000 0.009083
v -0.039596 0.000000 0.059621
v -0.039596 0.000000 0.059621
v -0.096353 0.100000 0.219072
v -0.096353 0.100000 0.219072
v -0.096353 0.050000 0.219072
v -0.096353 0.100000 0.168550
v -0.096353 0.100000 0.168550
v -0.096353 0.050000 0.168550
v -0.039596 0.100000 0.219072
v -0.039596 0.100000 0.219072
v -0.039596 0.050000 0.219072
v -0.039596 0.100000 0.168550
v -0.039596 0.100000 0.168550
v -0.039596 0.050000 0.168550
v -0.096353 0.000000 0.168550
v -0.096353 0.000000 0.168550
v -0.096353 0.000000 0.219072
v -0.096353 0.000000 0.219072
v -0.039596 0.000000 0.168550
v -0.039596 0.000000 0.168550
v -0.039596 0.000000 0.219072
v -0.039596 0.000000 0.219072
v -0.028378 0.100000 -0.057040
v -0.028378 0.100000 -0.057040
v -0.028378 0.050000 -0.058535
v -0.028378 0.100000 -0.107562
v -0.028378 0.100000 -0.107562
v -0.028378 0.050000 -0.107549
v 0.028378 0.100000 -0.057040
v 0.028378 0.100000 -0.057040
v 0.028378 0.050000 -0.058630
v 0.028378 0.100000 -0.107562
v 0.028378 0.100000 -0.107562
v 0.028378 0.050000 -0.107562
v -0.028378 0.000000 -0.107549
v -0.028378 0.000000 -0.107549
v -0.028378 0.000000 -0.058535
v -0.028378 0.000000 -0.058535
v 0.028378 0.000000 -0.107562
v 0.028378 0.000000 -0.107562
v 0.028378 0.000000 -0.058630
v 0.028378 0.000000 -0.058630
v -0.028378 0.100000 0.093443
v -0.028378 0.100000 0.093443
v -0.028378 0.050000 0.093443
v -0.028378 0.100000 0.042897
v -0.028378 0.100000 0.042897
v -0.028378 0.050000 0.042897
v 0.028378 0.100000 0.093443
v 0.028378 0.100000 0.093443
v 0.028378 0.050000 0.093443
v 0.028378 0.100000 0.042910
v 0.028378 0.100000 0.042910
v 0.028378 0.050000 0.042910
v -0.028378 0.000000 0.042897
v -0.028378 0.000000 0.042897
v -0.028378 0.000000 0.093443
v -0.028378 0.000000 0.093443
v 0.028378 0.000000 0.042910
v 0.028378 0.000000 0.042910
v 0.028378 0.000000 0.093443
v 0.028378 0.000000 0.093443
v 0.039596 0.100000 -0.060300
v 0.039596 0.100000 -0.060300
v 0.039596 0.050000 -0.061300
v 0.039596 0.100000 -0.110822
v 0.039596 0.100000 -0.110822
v 0.039596 0.050000 -0.110834
v 0.096353 0.100000 -0.060300
v 0.096353 0.100000 -0.060300
v 0.096353 0.050000 -0.061356
v 0.096353 0.100000 -0.110822
v 0.096353 0.100000 -0.110822
v 0.096353 0.050000 -0.110844
v 0.039596 0.000000 -0.110834
v 0.039596 0.000000 -0.110834
v 0.039596 0.000000 -0.061300
v 0.039596 0.000000 -0.061300
v 0.096353 0.000000 -0.110844
v 0.096353 0.000000 -0.110844
v 0.096353 0.000000 -0.061356
v 0.096353 0.000000 -0.061356
v 0.039596 0.100000 0.087582
v 0.039596 0.100000 0.087582
v 0.039596 0.050000 0.087582
v 0.039596 0.100000 0.036004
v 0.039596 0.100000 0.036004
v 0.039596 0.050000 0.036004
v 0.096353 0.100000 0.087582
v 0.096353 0.100000 0.087582
v 0.096353 0.050000 0.087582
v 0.096353 0.100000 0.036189
v 0.096353 0.100000 0.036189
v 0.096353 0.050000 0.036189
v 0.039596 0.000000 0.036004
v 0.039596 0.000000 0.036004
v 0.039596 0.000000 0.087582
v 0.039596 0.000000 0.087582
v 0.096353 0.000000 0.036189
v 0.096353 0.000000 0.036189
v 0.096353 0.000000 0.087582
v 0.096353 0.000000 0.087582
v 0.039596 0.100000 0.196680
v 0.039596 0.100000 0.196680
v 0.039596 0.050000 0.196680
v 0.039596 0.100000 0.146158
v 0.039596 0.100000 0.146158
v 0.039596 0.050000 0.146158
v 0.096353 0.100000 0.196680
v 0.096353 0.100000 0.196680
v 0.096353 0.050000 0.196680
v 0.096353 0.100000 0.146158
v 0.096353 0.100000 0.146158
v 0.096353 0.050000 0.146158
v 0.039596 0.000000 0.146158
v 0.039596 0.000000 0.146158
v 0.039596 0.000000 0.196680
v 0.039596 0.000000 0.196680
v 0.096353 0.000000 0.146158
v 0.096353 0.000000 0.146158
v 0.096353 0.000000 0.196680
v 0.096353 0.000000 0.196680
v 0.107571 0.100000 -0.063572
v 0.107571 0.100000 -0.063572
v 0.107571 0.050000 -0.063859
v 0.107571 0.100000 -0.114094
v 0.107571 0.100000 -0.114094
v 0.107571 0.050000 -0.114101
v 0.164328 0.100000 -0.063572
v 0.164328 0.100000 -0.063572
v 0.164328 0.050000 -0.063873
v 0.164328 0.100000 -0.114094
v 0.164328 0.100000 -0.114094
v 0.164328 0.050000 -0.114104
v 0.107571 0.000000 -0.114101
v 0.107571 0.000000 -0.114101
v 0.107571 0.000000 -0.063859
v 0.107571 0.000000 -0.063859
v 0.164328 0.000000 -0.114104
v 0.164328 0.000000 -0.114104
v 0.164328 0.000000 -0.063873
v 0.164328 0.000000 -0.063873
v 0.107571 0.100000 0.039161
v 0.107571 0.100000 0.039161
v 0.107571 0.050000 0.039161
v 0.107571 0.100000 -0.011362
v 0.107571 0.100000 -0.011362
v 0.107571 0.050000 -0.011362
v 0.164328 0.100000 0.039161
v 0.164328 0.100000 0.039161
v 0.164328 0.050000 0.039161
v 0.164328 0.100000 -0.011362
v 0.164328 0.100000 -0.011362
v 0.164328 0.050000 -0.011362
v 0.107571 0.000000 -0.011362
v 0.107571 0.000000 -0.011362
v 0.107571 0.000000 0.039161
v 0.107571 0.000000 0.039161
v 0.164328 0.000000 -0.011362
v 0.164328 0.000000 -0.011362
v 0.164328 0.000000 0.039161
v 0.164328 0.000000 0.039161
v 0.107571 0.100000 0.110136
v 0.107571 0.100000 0.110136
v 0.107571 0.050000 0.110136
v 0.107571 0.100000 0.059613
v 0.107571 0.100000 0.059613
v 0.107571 0.050000 0.059613
v 0.164328 0.100000 0.110136
v 0.164328 0.100000 0.110136
v 0.164328 0.050000 0.110136
v 0.164328 0.100000 0.059613
v 0.164328 0.100000 0.059613
v 0.164328 0.050000 0.059613
v 0.107571 0.000000 0.059613
v 0.107571 0.000000 0.059613
v 0.107571 0.000000 0.110136
v 0.107571 0.000000 0.110136
v 0.164328 0.000000 0.059613
v 0.164328 0.000000 0.059613
v 0.164328 0.000000 0.110136
v 0.164328 0.000000 0.110136
vn -0.0000 1.0000 -0.0000
vn 0.0002 -0.0075 1.0000
vn 0.0003 -0.0037 1.0000
vn 0.0004 -0.0039 1.0000
vn -1.0000 -0.0000 -0.0000
vn 1.0000 -0.0000 -0.0000
vn -0.0000 -0.0001 -1.0000
vn -0.0000 -0.0000 -1.0000
vn -0.0001 -0.0000 -1.0000
vn -0.0000 -0.0072 1.0000
vn -0.0000 -1.0000 -0.0000
vn 0.0004 -0.0000 1.0000
vn -0.0000 -0.0000 1.0000
vn 0.0004 -0.0163 0.9999
vn 0.0006 -0.0081 1.0000
vn 0.0008 -0.0084 1.0000
vn -0.0001 0.0001 -1.0000
vn -0.0000 -0.0158 0.9999
vn -0.0000 0.0002 -1.0000
vn 0.0008 -0.0000 1.0000
vn 0.0002 -0.0000 -1.0000
vn 0.0009 -0.0309 0.9995
vn 0.0012 -0.0154 0.9999
vn 0.0017 -0.0159 0.9999
vn -0.0001 -0.0001 -1.0000
vn -0.0002 -0.0001 -1.0000
vn -0.0000 -0.0299 0.9996
vn -0.0002 -0.0000 -1.0000
vn 0.0017 -0.0000 1.0000
vn 0.0005 -0.0206 0.9998
vn 0.0007 -0.0103 0.9999
vn 0.0010 -0.0106 0.9999
vn -0.0001 0.0003 -1.0000
vn -0.0001 0.0002 -1.0000
vn -0.0002 0.0001 -1.0000
vn -0.0000 -0.0200 0.9998
vn -0.0000 0.0004 -1.0000
vn 0.0010 -0.0000 1.0000
vn 0.0032 -0.0000 -1.0000
vn 0.0001 -0.0059 1.0000
vn 0.0002 -0.0029 1.0000
vn 0.0003 -0.0030 1.0000
vn -0.0000 0.0001 -1.0000
vn -0.0000 -0.0057 1.0000
vn 0.0003 -0.0000 1.0000
vt 0.310293 0.959485
vt 0.982124 0.959485
vt 0.310293 0.500000
vt 0.982124 0.500000
vt 0.982124 0.040515
vt 0.310293 0.040515
s 1
f 173/1/1 176/2/1 179/2/1
f 175/2/2 6/3/3 177/4/4
f 169/1/5 8/3/5 171/3/5
f 178/2/6 7/4/6 180/4/6
f 172/1/7 5/4/8 174/3/9
f 173/1/1 170/1/1 176/2/1
f 175/2/2 4/1/10 6/3/3
f 169/1/5 3/1/5 8/3/5
f 178/2/6 2/2/6 7/4/6
f 172/1/7 1/2/8 5/4/8
f 185/5/11 183/6/11 181/6/11
f 174/3/9 186/5/9 182/6/9
f 180/4/6 187/5/6 9/5/6
f 171/3/5 11/6/5 184/6/5
f 177/4/4 12/6/12 188/5/12
f 185/5/11 10/5/11 183/6/11
f 174/3/9 5/4/8 186/5/9
f 180/4/6 7/4/6 187/5/6
f 171/3/5 8/3/5 11/6/5
f 177/4/4 6/3/3 12/6/12
f 193/1/1 196/2/1 199/2/1
f 195/2/13 18/3/13 197/4/13
f 189/1/5 20/3/5 191/3/5
f 198/2/6 19/4/6 200/4/6
f 192/1/8 17/4/8 194/3/8
f 193/1/1 190/1/1 196/2/1
f 195/2/13 16/1/13 18/3/13
f 189/1/5 15/1/5 20/3/5
f 198/2/6 14/2/6 19/4/6
f 192/1/8 13/2/8 17/4/8
f 205/5/11 203/6/11 201/6/11
f 194/3/8 206/5/8 202/6/8
f 200/4/6 207/5/6 21/5/6
f 191/3/5 23/6/5 204/6/5
f 197/4/13 24/6/13 208/5/13
f 205/5/11 22/5/11 203/6/11
f 194/3/8 17/4/8 206/5/8
f 200/4/6 19/4/6 207/5/6
f 191/3/5 20/3/5 23/6/5
f 197/4/13 18/3/13 24/6/13
f 213/1/1 216/2/1 219/2/1
f 215/2/13 30/3/13 217/4/13
f 209/1/5 32/3/5 211/3/5
f 218/2/6 31/4/6 220/4/6
f 212/1/8 29/4/8 214/3/8
f 213/1/1 210/1/1 216/2/1
f 215/2/13 28/1/13 30/3/13
f 209/1/5 27/1/5 32/3/5
f 218/2/6 26/2/6 31/4/6
f 212/1/8 25/2/8 29/4/8
f 225/5/11 223/6/11 221/6/11
f 214/3/8 226/5/8 222/6/8
f 220/4/6 227/5/6 33/5/6
f 211/3/5 35/6/5 224/6/5
f 217/4/13 36/6/13 228/5/13
f 225/5/11 34/5/11 223/6/11
f 214/3/8 29/4/8 226/5/8
f 220/4/6 31/4/6 227/5/6
f 211/3/5 32/3/5 35/6/5
f 217/4/13 30/3/13 36/6/13
f 233/1/1 236/2/1 239/2/1
f 235/2/14 42/3/15 237/4/16
f 229/1/5 44/3/5 231/3/5
f 238/2/6 43/4/6 240/4/6
f 232/1/17 41/4/17 234/3/9
f 233/1/1 230/1/1 236/2/1
f 235/2/14 40/1/18 42/3/15
f 229/1/5 39/1/5 44/3/5
f 238/2/6 38/2/6 43/4/6
f 232/1/17 37/2/19 41/4/17
f 245/5/11 243/6/11 241/6/11
f 234/3/9 246/5/9 242/6/9
f 240/4/6 247/5/6 45/5/6
f 231/3/5 47/6/5 244/6/5
f 237/4/16 48/6/20 248/5/20
f 245/5/11 46/5/11 243/6/11
f 234/3/9 41/4/17 246/5/9
f 240/4/6 43/4/6 247/5/6
f 231/3/5 44/3/5 47/6/5
f 237/4/16 42/3/15 48/6/20
f 253/1/1 256/2/1 259/2/1
f 255/2/13 54/3/13 257/4/13
f 249/1/5 56/3/5 251/3/5
f 258/2/6 55/4/6 260/4/6
f 252/1/21 53/4/21 254/3/21
f 253/1/1 250/1/1 256/2/1
f 255/2/13 52/1/13 54/3/13
f 249/1/5 51/1/5 56/3/5
f 258/2/6 50/2/6 55/4/6
f 252/1/21 49/2/21 53/4/21
f 265/5/11 263/6/11 261/6/11
f 254/3/21 266/5/21 262/6/21
f 260/4/6 267/5/6 57/5/6
f 251/3/5 59/6/5 264/6/5
f 257/4/13 60/6/13 268/5/13
f 265/5/11 58/5/11 263/6/11
f 254/3/21 53/4/21 266/5/21
f 260/4/6 55/4/6 267/5/6
f 251/3/5 56/3/5 59/6/5
f 257/4/13 54/3/13 60/6/13
f 273/1/1 276/2/1 279/2/1
f 275/2/13 66/3/13 277/4/13
f 269/1/5 68/3/5 271/3/5
f 278/2/6 67/4/6 280/4/6
f 272/1/8 65/4/8 274/3/8
f 273/1/1 270/1/1 276/2/1
f 275/2/13 64/1/13 66/3/13
f 269/1/5 63/1/5 68/3/5
f 278/2/6 62/2/6 67/4/6
f 272/1/8 61/2/8 65/4/8
f 285/5/11 283/6/11 281/6/11
f 274/3/8 286/5/8 282/6/8
f 280/4/6 287/5/6 69/5/6
f 271/3/5 71/6/5 284/6/5
f 277/4/13 72/6/13 288/5/13
f 285/5/11 70/5/11 283/6/11
f 274/3/8 65/4/8 286/5/8
f 280/4/6 67/4/6 287/5/6
f 271/3/5 68/3/5 71/6/5
f 277/4/13 66/3/13 72/6/13
f 293/1/1 296/2/1 299/2/1
f 295/2/22 78/3/23 297/4/24
f 289/1/5 80/3/5 291/3/5
f 298/2/6 79/4/6 300/4/6
f 292/1/25 77/4/26 294/3/26
f 293/1/1 290/1/1 296/2/1
f 295/2/22 76/1/27 78/3/23
f 289/1/5 75/1/5 80/3/5
f 298/2/6 74/2/6 79/4/6
f 292/1/25 73/2/8 77/4/26
f 305/5/11 303/6/11 301/6/11
f 294/3/26 306/5/28 302/6/28
f 300/4/6 307/5/6 81/5/6
f 291/3/5 83/6/5 304/6/5
f 297/4/24 84/6/29 308/5/29
f 305/5/11 82/5/11 303/6/11
f 294/3/26 77/4/26 306/5/28
f 300/4/6 79/4/6 307/5/6
f 291/3/5 80/3/5 83/6/5
f 297/4/24 78/3/23 84/6/29
f 313/1/1 316/2/1 319/2/1
f 315/2/13 90/3/13 317/4/13
f 309/1/5 92/3/5 311/3/5
f 318/2/6 91/4/6 320/4/6
f 312/1/21 89/4/21 314/3/21
f 313/1/1 310/1/1 316/2/1
f 315/2/13 88/1/13 90/3/13
f 309/1/5 87/1/5 92/3/5
f 318/2/6 86/2/6 91/4/6
f 312/1/21 85/2/21 89/4/21
f 325/5/11 323/6/11 321/6/11
f 314/3/21 326/5/21 322/6/21
f 320/4/6 327/5/6 93/5/6
f 311/3/5 95/6/5 324/6/5
f 317/4/13 96/6/13 328/5/13
f 325/5/11 94/5/11 323/6/11
f 314/3/21 89/4/21 326/5/21
f 320/4/6 91/4/6 327/5/6
f 311/3/5 92/3/5 95/6/5
f 317/4/13 90/3/13 96/6/13
f 333/1/1 336/2/1 339/2/1
f 335/2/30 102/3/31 337/4/32
f 329/1/5 104/3/5 331/3/5
f 338/2/6 103/4/6 340/4/6
f 332/1/33 101/4/34 334/3/35
f 333/1/1 330/1/1 336/2/1
f 335/2/30 100/1/36 102/3/31
f 329/1/5 99/1/5 104/3/5
f 338/2/6 98/2/6 103/4/6
f 332/1/33 97/2/37 101/4/34
f 345/5/11 343/6/11 341/6/11
f 334/3/35 346/5/28 342/6/28
f 340/4/6 347/5/6 105/5/6
f 331/3/5 107/6/5 344/6/5
f 337/4/32 108/6/38 348/5/38
f 345/5/11 106/5/11 343/6/11
f 334/3/35 101/4/34 346/5/28
f 340/4/6 103/4/6 347/5/6
f 331/3/5 104/3/5 107/6/5
f 337/4/32 102/3/31 108/6/38
f 353/1/1 356/2/1 359/2/1
f 355/2/13 114/3/13 357/4/13
f 349/1/5 116/3/5 351/3/5
f 358/2/6 115/4/6 360/4/6
f 352/1/39 113/4/39 354/3/39
f 353/1/1 350/1/1 356/2/1
f 355/2/13 112/1/13 114/3/13
f 349/1/5 111/1/5 116/3/5
f 358/2/6 110/2/6 115/4/6
f 352/1/39 109/2/39 113/4/39
f 365/5/11 363/6/11 361/6/11
f 354/3/39 366/5/39 362/6/39
f 360/4/6 367/5/6 117/5/6
f 351/3/5 119/6/5 364/6/5
f 357/4/13 120/6/13 368/5/13
f 365/5/11 118/5/11 363/6/11
f 354/3/39 113/4/39 366/5/39
f 360/4/6 115/4/6 367/5/6
f 351/3/5 116/3/5 119/6/5
f 357/4/13 114/3/13 120/6/13
f 373/1/1 376/2/1 379/2/1
f 375/2/13 126/3/13 377/4/13
f 369/1/5 128/3/5 371/3/5
f 378/2/6 127/4/6 380/4/6
f 372/1/8 125/4/8 374/3/8
f 373/1/1 370/1/1 376/2/1
f 375/2/13 124/1/13 126/3/13
f 369/1/5 123/1/5 128/3/5
f 378/2/6 122/2/6 127/4/6
f 372/1/8 121/2/8 125/4/8
f 385/5/11 383/6/11 381/6/11
f 374/3/8 386/5/8 382/6/8
f 380/4/6 387/5/6 129/5/6
f 371/3/5 131/6/5 384/6/5
f 377/4/13 132/6/13 388/5/13
f 385/5/11 130/5/11 383/6/11
f 374/3/8 125/4/8 386/5/8
f 380/4/6 127/4/6 387/5/6
f 371/3/5 128/3/5 131/6/5
f 377/4/13 126/3/13 132/6/13
f 393/1/1 396/2/1 399/2/1
f 395/2/40 138/3/41 397/4/42
f 389/1/5 140/3/5 391/3/5
f 398/2/6 139/4/6 400/4/6
f 392/1/19 137/4/43 394/3/17
f 393/1/1 390/1/1 396/2/1
f 395/2/40 136/1/44 138/3/41
f 389/1/5 135/1/5 140/3/5
f 398/2/6 134/2/6 139/4/6
f 392/1/19 133/2/19 137/4/43
f 405/5/11 403/6/11 401/6/11
f 394/3/17 406/5/9 402/6/9
f 400/4/6 407/5/6 141/5/6
f 391/3/5 143/6/5 404/6/5
f 397/4/42 144/6/45 408/5/45
f 405/5/11 142/5/11 403/6/11
f 394/3/17 137/4/43 406/5/9
f 400/4/6 139/4/6 407/5/6
f 391/3/5 140/3/5 143/6/5
f 397/4/42 138/3/41 144/6/45
f 413/1/1 416/2/1 419/2/1
f 415/2/13 150/3/13 417/4/13
f 409/1/5 152/3/5 411/3/5
f 418/2/6 151/4/6 420/4/6
f 412/1/8 149/4/8 414/3/8
f 413/1/1 410/1/1 416/2/1
f 415/2/13 148/1/13 150/3/13
f 409/1/5 147/1/5 152/3/5
f 418/2/6 146/2/6 151/4/6
f 412/1/8 145/2/8 149/4/8
f 425/5/11 423/6/11 421/6/11
f 414/3/8 426/5/8 422/6/8
f 420/4/6 427/5/6 153/5/6
f 411/3/5 155/6/5 424/6/5
f 417/4/13 156/6/13 428/5/13
f 425/5/11 154/5/11 423/6/11
f 414/3/8 149/4/8 426/5/8
f 420/4/6 151/4/6 427/5/6
f 411/3/5 152/3/5 155/6/5
f 417/4/13 150/3/13 156/6/13
f 433/1/1 436/2/1 439/2/1
f 435/2/13 162/3/13 437/4/13
f 429/1/5 164/3/5 431/3/5
f 438/2/6 163/4/6 440/4/6
f 432/1/8 161/4/8 434/3/8
f 433/1/1 430/1/1 436/2/1
f 435/2/13 160/1/13 162/3/13
f 429/1/5 159/1/5 164/3/5
f 438/2/6 158/2/6 163/4/6
f 432/1/8 157/2/8 161/4/8
f 445/5/11 443/6/11 441/6/11
f 434/3/8 446/5/8 442/6/8
f 440/4/6 447/5/6 165/5/6
f 431/3/5 167/6/5 444/6/5
f 437/4/13 168/6/13 448/5/13
f 445/5/11 166/5/11 443/6/11
f 434/3/8 161/4/8 446/5/8
f 440/4/6 163/4/6 447/5/6
f 431/3/5 164/3/5 167/6/5
f 437/4/13 162/3/13 168/6/13
