# Blender 5.0.0
# www.blender.org
o Section
v -0.107571 0.100000 -0.115261
v -0.107571 0.100000 -0.064739
v -0.164328 0.100000 -0.115261
v -0.164328 0.100000 -0.064739
v -0.107571 0.050000 -0.115261
v -0.164328 0.050000 -0.064739
v -0.107571 0.050000 -0.064739
v -0.164328 0.050000 -0.115261
v -0.107571 0.000000 -0.115261
v -0.107571 0.000000 -0.064739
v -0.164328 0.000000 -0.115261
v -0.164328 0.000000 -0.064739
v -0.107571 0.100000 -0.025261
v -0.107571 0.100000 0.025261
v -0.164328 0.100000 -0.025261
v -0.164328 0.100000 0.025261
v -0.107571 0.050000 -0.025261
v -0.164328 0.050000 0.025261
v -0.107571 0.050000 0.025261
v -0.164328 0.050000 -0.025261
v -0.107571 0.000000 -0.025261
v -0.107571 0.000000 0.025261
v -0.164328 0.000000 -0.025261
v -0.164328 0.000000 0.025261
v -0.107571 0.100000 0.064739
v -0.107571 0.100000 0.115261
v -0.164328 0.100000 0.064739
v -0.164328 0.100000 0.115261
v -0.107571 0.050000 0.064739
v -0.164328 0.050000 0.115261
v -0.107571 0.050000 0.115261
v -0.164328 0.050000 0.064739
v -0.107571 0.000000 0.064739
v -0.107571 0.000000 0.115261
v -0.164328 0.000000 0.064739
v -0.164328 0.000000 0.115261
v -0.039596 0.100000 -0.115261
v -0.039596 0.100000 -0.064739
v -0.096353 0.100000 -0.115261
v -0.096353 0.100000 -0.064739
v -0.039596 0.050000 -0.115261
v -0.096353 0.050000 -0.064739
v -0.039596 0.050000 -0.064739
v -0.096353 0.050000 -0.115261
v -0.039596 0.000000 -0.115261
v -0.039596 0.000000 -0.064739
v -0.096353 0.000000 -0.115261
v -0.096353 0.000000 -0.064739
v -0.039596 0.100000 -0.025261
v -0.039596 0.100000 0.025261
v -0.096353 0.100000 -0.025261
v -0.096353 0.100000 0.025261
v -0.039596 0.050000 -0.025261
v -0.096353 0.050000 0.025261
v -0.039596 0.050000 0.025261
v -0.096353 0.050000 -0.025261
v -0.039596 0.000000 -0.025261
v -0.039596 0.000000 0.025261
v -0.096353 0.000000 -0.025261
v -0.096353 0.000000 0.025261
v -0.039596 0.100000 0.064739
v -0.039596 0.100000 0.115261
v -0.096353 0.100000 0.064739
v -0.096353 0.100000 0.115261
v -0.039596 0.050000 0.064739
v -0.096353 0.050000 0.115261
v -0.039596 0.050000 0.115261
v -0.096353 0.050000 0.064739
v -0.039596 0.000000 0.064739
v -0.039596 0.000000 0.115261
v -0.096353 0.000000 0.064739
v -0.096353 0.000000 0.115261
v 0.028378 0.100000 -0.115261
v 0.028378 0.100000 -0.064739
v -0.028378 0.100000 -0.115261
v -0.028378 0.100000 -0.064739
v 0.028378 0.050000 -0.115261
v -0.028378 0.050000 -0.064739
v 0.028378 0.050000 -0.064739
v -0.028378 0.050000 -0.115261
v 0.028378 0.000000 -0.115261
v 0.028378 0.000000 -0.064739
v -0.028378 0.000000 -0.115261
v -0.028378 0.000000 -0.064739
v 0.028378 0.100000 -0.025261
v 0.028378 0.100000 0.025261
v -0.028378 0.100000 -0.025261
v -0.028378 0.100000 0.025261
v 0.028378 0.050000 -0.025261
v -0.028378 0.050000 0.025261
v 0.028378 0.050000 0.025261
v -0.028378 0.050000 -0.025261
v 0.028378 0.000000 -0.025261
v 0.028378 0.000000 0.025261
v -0.028378 0.000000 -0.025261
v -0.028378 0.000000 0.025261
v 0.096353 0.100000 -0.115261
v 0.096353 0.100000 -0.064739
v 0.039596 0.100000 -0.115261
v 0.039596 0.100000 -0.064739
v 0.096353 0.050000 -0.115261
v 0.039596 0.050000 -0.064739
v 0.096353 0.050000 -0.064739
v 0.039596 0.050000 -0.115261
v 0.096353 0.000000 -0.115261
v 0.096353 0.000000 -0.064739
v 0.039596 0.000000 -0.115261
v 0.039596 0.000000 -0.064739
v 0.096353 0.100000 -0.025261
v 0.096353 0.100000 0.025261
v 0.039596 0.100000 -0.025261
v 0.039596 0.100000 0.025261
v 0.096353 0.050000 -0.025261
v 0.039596 0.050000 0.025261
v 0.096353 0.050000 0.025261
v 0.039596 0.050000 -0.025261
v 0.096353 0.000000 -0.025261
v 0.096353 0.000000 0.025261
v 0.039596 0.000000 -0.025261
v 0.039596 0.000000 0.025261
v 0.096353 0.100000 0.064739
v 0.096353 0.100000 0.115261
v 0.039596 0.100000 0.064739
v 0.039596 0.100000 0.115261
v 0.096353 0.050000 0.064739
v 0.039596 0.050000 0.115261
v 0.096353 0.050000 0.115261
v 0.039596 0.050000 0.064739
v 0.096353 0.000000 0.064739
v 0.096353 0.000000 0.115261
v 0.039596 0.000000 0.064739
v 0.039596 0.000000 0.115261
v 0.164328 0.100000 -0.115261
v 0.164328 0.100000 -0.064739
v 0.107571 0.100000 -0.115261
v 0.107571 0.100000 -0.064739
v 0.164328 0.050000 -0.115261
v 0.107571 0.050000 -0.064739
v 0.164328 0.050000 -0.064739
v 0.107571 0.050000 -0.115261
v 0.164328 0.000000 -0.115261
v 0.164328 0.000000 -0.064739
v 0.107571 0.000000 -0.115261
v 0.107571 0.000000 -0.064739
v 0.164328 0.100000 -0.025261
v 0.164328 0.100000 0.025261
v 0.107571 0.100000 -0.025261
v 0.107571 0.100000 0.025261
v 0.164328 0.050000 -0.025261
v 0.107571 0.050000 0.025261
v 0.164328 0.050000 0.025261
v 0.107571 0.050000 -0.025261
v 0.164328 0.000000 -0.025261
v 0.164328 0.000000 0.025261
v 0.107571 0.000000 -0.025261
v 0.107571 0.000000 0.025261
v 0.164328 0.100000 0.064739
v 0.164328 0.100000 0.115261
v 0.107571 0.100000 0.064739
v 0.107571 0.100000 0.115261
v 0.164328 0.050000 0.064739
v 0.107571 0.050000 0.115261
v 0.164328 0.050000 0.115261
v 0.107571 0.050000 0.064739
v 0.164328 0.000000 0.064739
v 0.164328 0.000000 0.115261
v 0.107571 0.000000 0.064739
v 0.107571 0.000000 0.115261
v -0.164328 0.100000 -0.064739
v -0.164328 0.100000 -0.064739
v -0.164328 0.050000 -0.064739
v -0.164328 0.100000 -0.115261
v -0.164328 0.100000 -0.115261
v -0.164328 0.050000 -0.115261
v -0.107571 0.100000 -0.064739
v -0.107571 0.100000 -0.064739
v -0.107571 0.050000 -0.064739
v -0.107571 0.100000 -0.115261
v -0.107571 0.100000 -0.115261
v -0.107571 0.050000 -0.115261
v -0.164328 0.000000 -0.115261
v -0.164328 0.000000 -0.115261
v -0.164328 0.000000 -0.064739
v -0.164328 0.000000 -0.064739
v -0.107571 0.000000 -0.115261
v -0.107571 0.000000 -0.115261
v -0.107571 0.000000 -0.064739
v -0.107571 0.000000 -0.064739
v -0.164328 0.100000 0.025261
v -0.164328 0.100000 0.025261
v -0.164328 0.050000 0.025261
v -0.164328 0.100000 -0.025261
v -0.164328 0.100000 -0.025261
v -0.164328 0.050000 -0.025261
v -0.107571 0.100000 0.025261
v -0.107571 0.100000 0.025261
v -0.107571 0.050000 0.025261
v -0.107571 0.100000 -0.025261
v -0.107571 0.100000 -0.025261
v -0.107571 0.050000 -0.025261
v -0.164328 0.000000 -0.025261
v -0.164328 0.000000 -0.025261
v -0.164328 0.000000 0.025261
v -0.164328 0.000000 0.025261
v -0.107571 0.000000 -0.025261
v -0.107571 0.000000 -0.025261
v -0.107571 0.000000 0.025261
v -0.107571 0.000000 0.025261
v -0.164328 0.100000 0.115261
v -0.164328 0.100000 0.115261
v -0.164328 0.050000 0.115261
v -0.164328 0.100000 0.064739
v -0.164328 0.100000 0.064739
v -0.164328 0.050000 0.064739
v -0.107571 0.100000 0.115261
v -0.107571 0.100000 0.115261
v -0.107571 0.050000 0.115261
v -0.107571 0.100000 0.064739
v -0.107571 0.100000 0.064739
v -0.107571 0.050000 0.064739
v -0.164328 0.000000 0.064739
v -0.164328 0.000000 0.064739
v -0.164328 0.000000 0.115261
v -0.164328 0.000000 0.115261
v -0.107571 0.000000 0.064739
v -0.107571 0.000000 0.064739
v -0.107571 0.000000 0.115261
v -0.107571 0.000000 0.115261
v -0.096353 0.100000 -0.064739
v -0.096353 0.100000 -0.064739
v -0.096353 0.050000 -0.064739
v -0.096353 0.100000 -0.115261
v -0.096353 0.100000 -0.115261
v -0.096353 0.050000 -0.115261
v -0.039596 0.100000 -0.064739
v -0.039596 0.100000 -0.064739
v -0.039596 0.050000 -0.064739
v -0.039596 0.100000 -0.115261
v -0.039596 0.100000 -0.115261
v -0.039596 0.050000 -0.115261
v -0.096353 0.000000 -0.115261
v -0.096353 0.000000 -0.115261
v -0.096353 0.000000 -0.064739
v -0.096353 0.000000 -0.064739
v -0.039596 0.000000 -0.115261
v -0.039596 0.000000 -0.115261
v -0.039596 0.000000 -0.064739
v -0.039596 0.000000 -0.064739
v -0.096353 0.100000 0.025261
v -0.096353 0.100000 0.025261
v -0.096353 0.050000 0.025261
v -0.096353 0.100000 -0.025261
v -0.096353 0.100000 -0.025261
v -0.096353 0.050000 -0.025261
v -0.039596 0.100000 0.025261
v -0.039596 0.100000 0.025261
v -0.039596 0.050000 0.025261
v -0.039596 0.100000 -0.025261
v -0.039596 0.100000 -0.025261
v -0.039596 0.050000 -0.025261
v -0.096353 0.000000 -0.025261
v -0.096353 0.000000 -0.025261
v -0.096353 0.000000 0.025261
v -0.096353 0.000000 0.025261
v -0.039596 0.000000 -0.025261
v -0.039596 0.000000 -0.025261
v -0.039596 0.000000 0.025261
v -0.039596 0.000000 0.025261
v -0.096353 0.100000 0.115261
v -0.096353 0.100000 0.115261
v -0.096353 0.050000 0.115261
v -0.096353 0.100000 0.064739
v -0.096353 0.100000 0.064739
v -0.096353 0.050000 0.064739
v -0.039596 0.100000 0.115261
v -0.039596 0.100000 0.115261
v -0.039596 0.050000 0.115261
v -0.039596 0.100000 0.064739
v -0.039596 0.100000 0.064739
v -0.039596 0.050000 0.064739
v -0.096353 0.000000 0.064739
v -0.096353 0.000000 0.064739
v -0.096353 0.000000 0.115261
v -0.096353 0.000000 0.115261
v -0.039596 0.000000 0.064739
v -0.039596 0.000000 0.064739
v -0.039596 0.000000 0.115261
v -0.039596 0.000000 0.115261
v -0.028378 0.100000 -0.064739
v -0.028378 0.100000 -0.064739
v -0.028378 0.050000 -0.064739
v -0.028378 0.100000 -0.115261
v -0.028378 0.100000 -0.115261
v -0.028378 0.050000 -0.115261
v 0.028378 0.100000 -0.064739
v 0.028378 0.100000 -0.064739
v 0.028378 0.050000 -0.064739
v 0.028378 0.100000 -0.115261
v 0.028378 0.100000 -0.115261
v 0.028378 0.050000 -0.115261
v -0.028378 0.000000 -0.115261
v -0.028378 0.000000 -0.115261
v -0.028378 0.000000 -0.064739
v -0.028378 0.000000 -0.064739
v 0.028378 0.000000 -0.115261
v 0.028378 0.000000 -0.115261
v 0.028378 0.000000 -0.064739
v 0.028378 0.000000 -0.064739
v -0.028378 0.100000 0.025261
v -0.028378 0.100000 0.025261
v -0.028378 0.050000 0.025261
v -0.028378 0.100000 -0.025261
v -0.028378 0.100000 -0.025261
v -0.028378 0.050000 -0.025261
v 0.028378 0.100000 0.025261
v 0.028378 0.100000 0.025261
v 0.028378 0.050000 0.025261
v 0.028378 0.100000 -0.025261
v 0.028378 0.100000 -0.025261
v 0.028378 0.050000 -0.025261
v -0.028378 0.000000 -0.025261
v -0.028378 0.000000 -0.025261
v -0.028378 0.000000 0.025261
v -0.028378 0.000000 0.025261
v 0.028378 0.000000 -0.025261
v 0.028378 0.000000 -0.025261
v 0.028378 0.000000 0.025261
v 0.028378 0.000000 0.025261
v 0.039596 0.100000 -0.064739
v 0.039596 0.100000 -0.064739
v 0.039596 0.050000 -0.064739
v 0.039596 0.100000 -0.115261
v 0.039596 0.100000 -0.115261
v 0.039596 0.050000 -0.115261
v 0.096353 0.100000 -0.064739
v 0.096353 0.100000 -0.064739
v 0.096353 0.050000 -0.064739
v 0.096353 0.100000 -0.115261
v 0.096353 0.100000 -0.115261
v 0.096353 0.050000 -0.115261
v 0.039596 0.000000 -0.115261
v 0.039596 0.000000 -0.115261
v 0.039596 0.000000 -0.064739
v 0.039596 0.000000 -0.064739
v 0.096353 0.000000 -0.115261
v 0.096353 0.000000 -0.115261
v 0.096353 0.000000 -0.064739
v 0.096353 0.000000 -0.064739
v 0.039596 0.100000 0.025261
v 0.039596 0.100000 0.025261
v 0.039596 0.050000 0.025261
v 0.039596 0.100000 -0.025261
v 0.039596 0.100000 -0.025261
v 0.039596 0.050000 -0.025261
v 0.096353 0.100000 0.025261
v 0.096353 0.100000 0.025261
v 0.096353 0.050000 0.025261
v 0.096353 0.100000 -0.025261
v 0.096353 0.100000 -0.025261
v 0.096353 0.050000 -0.025261
v 0.039596 0.000000 -0.025261
v 0.039596 0.000000 -0.025261
v 0.039596 0.000000 0.025261
v 0.039596 0.000000 0.025261
v 0.096353 0.000000 -0.025261
v 0.096353 0.000000 -0.025261
v 0.096353 0.000000 0.025261
v 0.096353 0.000000 0.025261
v 0.039596 0.100000 0.115261
v 0.039596 0.100000 0.115261
v 0.039596 0.050000 0.115261
v 0.039596 0.100000 0.064739
v 0.039596 0.100000 0.064739
v 0.039596 0.050000 0.064739
v 0.096353 0.100000 0.115261
v 0.096353 0.100000 0.115261
v 0.096353 0.050000 0.115261
v 0.096353 0.100000 0.064739
v 0.096353 0.100000 0.064739
v 0.096353 0.050000 0.064739
v 0.039596 0.000000 0.064739
v 0.039596 0.000000 0.064739
v 0.039596 0.000000 0.115261
v 0.039596 0.000000 0.115261
v 0.096353 0.000000 0.064739
v 0.096353 0.000000 0.064739
v 0.096353 0.000000 0.115261
v 0.096353 0.000000 0.115261
v 0.107571 0.100000 -0.064739
v 0.107571 0.100000 -0.064739
v 0.107571 0.050000 -0.064739
v 0.107571 0.100000 -0.115261
v 0.107571 0.100000 -0.115261
v 0.107571 0.050000 -0.115261
v 0.164328 0.100000 -0.064739
v 0.164328 0.100000 -0.064739
v 0.164328 0.050000 -0.064739
v 0.164328 0.100000 -0.115261
v 0.164328 0.100000 -0.115261
v 0.164328 0.050000 -0.115261
v 0.107571 0.000000 -0.115261
v 0.107571 0.000000 -0.115261
v 0.107571 0.000000 -0.064739
v 0.107571 0.000000 -0.064739
v 0.164328 0.000000 -0.115261
v 0.164328 0.000000 -0.115261
v 0.164328 0.000000 -0.064739
v 0.164328 0.000000 -0.064739
v 0.107571 0.100000 0.025261
v 0.107571 0.100000 0.025261
v 0.107571 0.050000 0.025261
v 0.107571 0.100000 -0.025261
v 0.107571 0.100000 -0.025261
v 0.107571 0.050000 -0.025261
v 0.164328 0.100000 0.025261
v 0.164328 0.100000 0.025261
v 0.164328 0.050000 0.025261
v 0.164328 0.100000 -0.025261
v 0.164328 0.100000 -0.025261
v 0.164328 0.050000 -0.025261
v 0.107571 0.000000 -0.025261
v 0.107571 0.000000 -0.025261
v 0.107571 0.000000 0.025261
v 0.107571 0.000000 0.025261
v 0.164328 0.000000 -0.025261
v 0.164328 0.000000 -0.025261
v 0.164328 0.000000 0.025261
v 0.164328 0.000000 0.025261
v 0.107571 0.100000 0.115261
v 0.107571 0.100000 0.115261
v 0.107571 0.050000 0.115261
v 0.107571 0.100000 0.064739
v 0.107571 0.100000 0.064739
v 0.107571 0.050000 0.064739
v 0.164328 0.100000 0.115261
v 0.164328 0.100000 0.115261
v 0.164328 0.050000 0.115261
v 0.164328 0.100000 0.064739
v 0.164328 0.100000 0.064739
v 0.164328 0.050000 0.064739
v 0.107571 0.000000 0.064739
v 0.107571 0.000000 0.064739
v 0.107571 0.000000 0.115261
v 0.107571 0.000000 0.115261
v 0.164328 0.000000 0.064739
v 0.164328 0.000000 0.064739
v 0.164328 0.000000 0.115261
v 0.164328 0.000000 0.115261
vn -0.0000 1.0000 -0.0000
vn -0.0000 -0.0000 1.0000
vn -1.0000 -0.0000 -0.0000
vn 1.0000 -0.0000 -0.0000
vn -0.0000 -0.0000 -1.0000
vn -0.0000 -1.0000 -0.0000
vt 0.310293 0.959485
vt 0.982124 0.959485
vt 0.310293 0.500000
vt 0.982124 0.500000
vt 0.982124 0.040515
vt 0.310293 0.040515
s 1
f 173/1/1 176/2/1 179/2/1
f 175/2/2 6/3/2 177/4/2
f 169/1/3 8/3/3 171/3/3
f 178/2/4 7/4/4 180/4/4
f 172/1/5 5/4/5 174/3/5
f 173/1/1 170/1/1 176/2/1
f 175/2/2 4/1/2 6/3/2
f 169/1/3 3/1/3 8/3/3
f 178/2/4 2/2/4 7/4/4
f 172/1/5 1/2/5 5/4/5
f 185/5/6 183/6/6 181/6/6
f 174/3/5 186/5/5 182/6/5
f 180/4/4 187/5/4 9/5/4
f 171/3/3 11/6/3 184/6/3
f 177/4/2 12/6/2 188/5/2
f 185/5/6 10/5/6 183/6/6
f 174/3/5 5/4/5 186/5/5
f 180/4/4 7/4/4 187/5/4
f 171/3/3 8/3/3 11/6/3
f 177/4/2 6/3/2 12/6/2
f 193/1/1 196/2/1 199/2/1
f 195/2/2 18/3/2 197/4/2
f 189/1/3 20/3/3 191/3/3
f 198/2/4 19/4/4 200/4/4
f 192/1/5 17/4/5 194/3/5
f 193/1/1 190/1/1 196/2/1
f 195/2/2 16/1/2 18/3/2
f 189/1/3 15/1/3 20/3/3
f 198/2/4 14/2/4 19/4/4
f 192/1/5 13/2/5 17/4/5
f 205/5/6 203/6/6 201/6/6
f 194/3/5 206/5/5 202/6/5
f 200/4/4 207/5/4 21/5/4
f 191/3/3 23/6/3 204/6/3
f 197/4/2 24/6/2 208/5/2
f 205/5/6 22/5/6 203/6/6
f 194/3/5 17/4/5 206/5/5
f 200/4/4 19/4/4 207/5/4
f 191/3/3 20/3/3 23/6/3
f 197/4/2 18/3/2 24/6/2
f 213/1/1 216/2/1 219/2/1
f 215/2/2 30/3/2 217/4/2
f 209/1/3 32/3/3 211/3/3
f 218/2/4 31/4/4 220/4/4
f 212/1/5 29/4/5 214/3/5
f 213/1/1 210/1/1 216/2/1
f 215/2/2 28/1/2 30/3/2
f 209/1/3 27/1/3 32/3/3
f 218/2/4 26/2/4 31/4/4
f 212/1/5 25/2/5 29/4/5
f 225/5/6 223/6/6 221/6/6
f 214/3/5 226/5/5 222/6/5
f 220/4/4 227/5/4 33/5/4
f 211/3/3 35/6/3 224/6/3
f 217/4/2 36/6/2 228/5/2
f 225/5/6 34/5/6 223/6/6
f 214/3/5 29/4/5 226/5/5
f 220/4/4 31/4/4 227/5/4
f 211/3/3 32/3/3 35/6/3
f 217/4/2 30/3/2 36/6/2
f 233/1/1 236/2/1 239/2/1
f 235/2/2 42/3/2 237/4/2
f 229/1/3 44/3/3 231/3/3
f 238/2/4 43/4/4 240/4/4
f 232/1/5 41/4/5 234/3/5
f 233/1/1 230/1/1 236/2/1
f 235/2/2 40/1/2 42/3/2
f 229/1/3 39/1/3 44/3/3
f 238/2/4 38/2/4 43/4/4
f 232/1/5 37/2/5 41/4/5
f 245/5/6 243/6/6 241/6/6
f 234/3/5 246/5/5 242/6/5
f 240/4/4 247/5/4 45/5/4
f 231/3/3 47/6/3 244/6/3
f 237/4/2 48/6/2 248/5/2
f 245/5/6 46/5/6 243/6/6
f 234/3/5 41/4/5 246/5/5
f 240/4/4 43/4/4 247/5/4
f 231/3/3 44/3/3 47/6/3
f 237/4/2 42/3/2 48/6/2
f 253/1/1 256/2/1 259/2/1
f 255/2/2 54/3/2 257/4/2
f 249/1/3 56/3/3 251/3/3
f 258/2/4 55/4/4 260/4/4
f 252/1/5 53/4/5 254/3/5
f 253/1/1 250/1/1 256/2/1
f 255/2/2 52/1/2 54/3/2
f 249/1/3 51/1/3 56/3/3
f 258/2/4 50/2/4 55/4/4
f 252/1/5 49/2/5 53/4/5
f 265/5/6 263/6/6 261/6/6
f 254/3/5 266/5/5 262/6/5
f 260/4/4 267/5/4 57/5/4
f 251/3/3 59/6/3 264/6/3
f 257/4/2 60/6/2 268/5/2
f 265/5/6 58/5/6 263/6/6
f 254/3/5 53/4/5 266/5/5
f 260/4/4 55/4/4 267/5/4
f 251/3/3 56/3/3 59/6/3
f 257/4/2 54/3/2 60/6/2
f 273/1/1 276/2/1 279/2/1
f 275/2/2 66/3/2 277/4/2
f 269/1/3 68/3/3 271/3/3
f 278/2/4 67/4/4 280/4/4
f 272/1/5 65/4/5 274/3/5
f 273/1/1 270/1/1 276/2/1
f 275/2/2 64/1/2 66/3/2
f 269/1/3 63/1/3 68/3/3
f 278/2/4 62/2/4 67/4/4
f 272/1/5 61/2/5 65/4/5
f 285/5/6 283/6/6 281/6/6
f 274/3/5 286/5/5 282/6/5
f 280/4/4 287/5/4 69/5/4
f 271/3/3 71/6/3 284/6/3
f 277/4/2 72/6/2 288/5/2
f 285/5/6 70/5/6 283/6/6
f 274/3/5 65/4/5 286/5/5
f 280/4/4 67/4/4 287/5/4
f 271/3/3 68/3/3 71/6/3
f 277/4/2 66/3/2 72/6/2
f 293/1/1 296/2/1 299/2/1
f 295/2/2 78/3/2 297/4/2
f 289/1/3 80/3/3 291/3/3
f 298/2/4 79/4/4 300/4/4
f 292/1/5 77/4/5 294/3/5
f 293/1/1 290/1/1 296/2/1
f 295/2/2 76/1/2 78/3/2
f 289/1/3 75/1/3 80/3/3
f 298/2/4 74/2/4 79/4/4
f 292/1/5 73/2/5 77/4/5
f 305/5/6 303/6/6 301/6/6
f 294/3/5 306/5/5 302/6/5
f 300/4/4 307/5/4 81/5/4
f 291/3/3 83/6/3 304/6/3
f 297/4/2 84/6/2 308/5/2
f 305/5/6 82/5/6 303/6/6
f 294/3/5 77/4/5 306/5/5
f 300/4/4 79/4/4 307/5/4
f 291/3/3 80/3/3 83/6/3
f 297/4/2 78/3/2 84/6/2
f 313/1/1 316/2/1 319/2/1
f 315/2/2 90/3/2 317/4/2
f 309/1/3 92/3/3 311/3/3
f 318/2/4 91/4/4 320/4/4
f 312/1/5 89/4/5 314/3/5
f 313/1/1 310/1/1 316/2/1
f 315/2/2 88/1/2 90/3/2
f 309/1/3 87/1/3 92/3/3
f 318/2/4 86/2/4 91/4/4
f 312/1/5 85/2/5 89/4/5
f 325/5/6 323/6/6 321/6/6
f 314/3/5 326/5/5 322/6/5
f 320/4/4 327/5/4 93/5/4
f 311/3/3 95/6/3 324/6/3
f 317/4/2 96/6/2 328/5/2
f 325/5/6 94/5/6 323/6/6
f 314/3/5 89/4/5 326/5/5
f 320/4/4 91/4/4 327/5/4
f 311/3/3 92/3/3 95/6/3
f 317/4/2 90/3/2 96/6/2
f 333/1/1 336/2/1 339/2/1
f 335/2/2 102/3/2 337/4/2
f 329/1/3 104/3/3 331/3/3
f 338/2/4 103/4/4 340/4/4
f 332/1/5 101/4/5 334/3/5
f 333/1/1 330/1/1 336/2/1
f 335/2/2 100/1/2 102/3/2
f 329/1/3 99/1/3 104/3/3
f 338/2/4 98/2/4 103/4/4
f 332/1/5 97/2/5 101/4/5
f 345/5/6 343/6/6 341/6/6
f 334/3/5 346/5/5 342/6/5
f 340/4/4 347/5/4 105/5/4
f 331/3/3 107/6/3 344/6/3
f 337/4/2 108/6/2 348/5/2
f 345/5/6 106/5/6 343/6/6
f 334/3/5 101/4/5 346/5/5
f 340/4/4 103/4/4 347/5/4
f 331/3/3 104/3/3 107/6/3
f 337/4/2 102/3/2 108/6/2
f 353/1/1 356/2/1 359/2/1
f 355/2/2 114/3/2 357/4/2
f 349/1/3 116/3/3 351/3/3
f 358/2/4 115/4/4 360/4/4
f 352/1/5 113/4/5 354/3/5
f 353/1/1 350/1/1 356/2/1
f 355/2/2 112/1/2 114/3/2
f 349/1/3 111/1/3 116/3/3
f 358/2/4 110/2/4 115/4/4
f 352/1/5 109/2/5 113/4/5
f 365/5/6 363/6/6 361/6/6
f 354/3/5 366/5/5 362/6/5
f 360/4/4 367/5/4 117/5/4
f 351/3/3 119/6/3 364/6/3
f 357/4/2 120/6/2 368/5/2
f 365/5/6 118/5/6 363/6/6
f 354/3/5 113/4/5 366/5/5
f 360/4/4 115/4/4 367/5/4
f 351/3/3 116/3/3 119/6/3
f 357/4/2 114/3/2 120/6/2
f 373/1/1 376/2/1 379/2/1
f 375/2/2 126/3/2 377/4/2
f 369/1/3 128/3/3 371/3/3
f 378/2/4 127/4/4 380/4/4
f 372/1/5 125/4/5 374/3/5
f 373/1/1 370/1/1 376/2/1
f 375/2/2 124/1/2 126/3/2
f 369/1/3 123/1/3 128/3/3
f 378/2/4 122/2/4 127/4/4
f 372/1/5 121/2/5 125/4/5
f 385/5/6 383/6/6 381/6/6
f 374/3/5 386/5/5 382/6/5
f 380/4/4 387/5/4 129/5/4
f 371/3/3 131/6/3 384/6/3
f 377/4/2 132/6/2 388/5/2
f 385/5/6 130/5/6 383/6/6
f 374/3/5 125/4/5 386/5/5
f 380/4/4 127/4/4 387/5/4
f 371/3/3 128/3/3 131/6/3
f 377/4/2 126/3/2 132/6/2
f 393/1/1 396/2/1 399/2/1
f 395/2/2 138/3/2 397/4/2
f 389/1/3 140/3/3 391/3/3
f 398/2/4 139/4/4 400/4/4
f 392/1/5 137/4/5 394/3/5
f 393/1/1 390/1/1 396/2/1
f 395/2/2 136/1/2 138/3/2
f 389/1/3 135/1/3 140/3/3
f 398/2/4 134/2/4 139/4/4
f 392/1/5 133/2/5 137/4/5
f 405/5/6 403/6/6 401/6/6
f 394/3/5 406/5/5 402/6/5
f 400/4/4 407/5/4 141/5/4
f 391/3/3 143/6/3 404/6/3
f 397/4/2 144/6/2 408/5/2
f 405/5/6 142/5/6 403/6/6
f 394/3/5 137/4/5 406/5/5
f 400/4/4 139/4/4 407/5/4
f 391/3/3 140/3/3 143/6/3
f 397/4/2 138/3/2 144/6/2
f 413/1/1 416/2/1 419/2/1
f 415/2/2 150/3/2 417/4/2
f 409/1/3 152/3/3 411/3/3
f 418/2/4 151/4/4 420/4/4
f 412/1/5 149/4/5 414/3/5
f 413/1/1 410/1/1 416/2/1
f 415/2/2 148/1/2 150/3/2
f 409/1/3 147/1/3 152/3/3
f 418/2/4 146/2/4 151/4/4
f 412/1/5 145/2/5 149/4/5
f 425/5/6 423/6/6 421/6/6
f 414/3/5 426/5/5 422/6/5
f 420/4/4 427/5/4 153/5/4
f 411/3/3 155/6/3 424/6/3
f 417/4/2 156/6/2 428/5/2
f 425/5/6 154/5/6 423/6/6
f 414/3/5 149/4/5 426/5/5
f 420/4/4 151/4/4 427/5/4
f 411/3/3 152/3/3 155/6/3
f 417/4/2 150/3/2 156/6/2
f 433/1/1 436/2/1 439/2/1
f 435/2/2 162/3/2 437/4/2
f 429/1/3 164/3/3 431/3/3
f 438/2/4 163/4/4 440/4/4
f 432/1/5 161/4/5 434/3/5
f 433/1/1 430/1/1 436/2/1
f 435/2/2 160/1/2 162/3/2
f 429/1/3 159/1/3 164/3/3
f 438/2/4 158/2/4 163/4/4
f 432/1/5 157/2/5 161/4/5
f 445/5/6 443/6/6 441/6/6
f 434/3/5 446/5/5 442/6/5
f 440/4/4 447/5/4 165/5/4
f 431/3/3 167/6/3 444/6/3
f 437/4/2 168/6/2 448/5/2
f 445/5/6 166/5/6 443/6/6
f 434/3/5 161/4/5 446/5/5
f 440/4/4 163/4/4 447/5/4
f 431/3/3 164/3/3 167/6/3
f 437/4/2 162/3/2 168/6/2
