# Blender 5.0.0
# www.blender.org
o Section
v -0.073571 0.100000 -0.108326
v -0.073571 0.100000 -0.057804
v -0.130328 0.100000 -0.108326
v -0.130328 0.100000 -0.057804
v -0.073571 0.050000 -0.108322
v -0.130328 0.050000 -0.059103
v -0.073571 0.050000 -0.059187
v -0.130328 0.050000 -0.108311
v -0.073571 0.000000 -0.108322
v -0.073571 0.000000 -0.059187
v -0.130328 0.000000 -0.108311
v -0.130328 0.000000 -0.059103
v -0.073571 0.100000 0.005804
v -0.073571 0.100000 0.056327
v -0.130328 0.100000 0.005804
v -0.130328 0.100000 0.056327
v -0.073571 0.050000 0.005804
v -0.130328 0.050000 0.056327
v -0.073571 0.050000 0.056327
v -0.130328 0.050000 0.005804
v -0.073571 0.000000 0.005804
v -0.073571 0.000000 0.056327
v -0.130328 0.000000 0.005804
v -0.130328 0.000000 0.056327
v -0.073571 0.100000 0.181343
v -0.073571 0.100000 0.231865
v -0.130328 0.100000 0.181343
v -0.130328 0.100000 0.231865
v -0.073571 0.050000 0.181343
v -0.130328 0.050000 0.231865
v -0.073571 0.050000 0.231865
v -0.130328 0.050000 0.181343
v -0.073571 0.000000 0.181343
v -0.073571 0.000000 0.231865
v -0.130328 0.000000 0.181343
v -0.130328 0.000000 0.231865
v -0.005596 0.100000 -0.107128
v -0.005596 0.100000 -0.056606
v -0.062353 0.100000 -0.107128
v -0.062353 0.100000 -0.056606
v -0.005596 0.050000 -0.107147
v -0.062353 0.050000 -0.058301
v -0.005596 0.050000 -0.058402
v -0.062353 0.050000 -0.107132
v -0.005596 0.000000 -0.107147
v -0.005596 0.000000 -0.058402
v -0.062353 0.000000 -0.107132
v -0.062353 0.000000 -0.058301
v -0.005596 0.100000 -0.006516
v -0.005596 0.100000 0.044007
v -0.062353 0.100000 -0.006516
v -0.062353 0.100000 0.044007
v -0.005596 0.050000 -0.006516
v -0.062353 0.050000 0.044007
v -0.005596 0.050000 0.044007
v -0.062353 0.050000 -0.006516
v -0.005596 0.000000 -0.006516
v -0.005596 0.000000 0.044007
v -0.062353 0.000000 -0.006516
v -0.062353 0.000000 0.044007
v -0.005596 0.100000 0.130469
v -0.005596 0.100000 0.180992
v -0.062353 0.100000 0.130469
v -0.062353 0.100000 0.180992
v -0.005596 0.050000 0.130469
v -0.062353 0.050000 0.180992
v -0.005596 0.050000 0.180992
v -0.062353 0.050000 0.130469
v -0.005596 0.000000 0.130469
v -0.005596 0.000000 0.180992
v -0.062353 0.000000 0.130469
v -0.062353 0.000000 0.180992
v 0.062378 0.100000 -0.114378
v 0.062378 0.100000 -0.063855
v 0.005622 0.100000 -0.114378
v 0.005622 0.100000 -0.063855
v 0.062378 0.050000 -0.114378
v 0.005622 0.050000 -0.064027
v 0.062378 0.050000 -0.064038
v 0.005622 0.050000 -0.114376
v 0.062378 0.000000 -0.114378
v 0.062378 0.000000 -0.064038
v 0.005622 0.000000 -0.114376
v 0.005622 0.000000 -0.064027
v 0.062378 0.100000 -0.006291
v 0.062378 0.100000 0.044232
v 0.005622 0.100000 -0.006291
v 0.005622 0.100000 0.044232
v 0.062378 0.050000 -0.006291
v 0.005622 0.050000 0.044232
v 0.062378 0.050000 0.044232
v 0.005622 0.050000 -0.006291
v 0.062378 0.000000 -0.006291
v 0.062378 0.000000 0.044232
v 0.005622 0.000000 -0.006291
v 0.005622 0.000000 0.044232
v 0.062378 0.100000 0.162040
v 0.062378 0.100000 0.212562
v 0.005622 0.100000 0.162040
v 0.005622 0.100000 0.212562
v 0.062378 0.050000 0.162040
v 0.005622 0.050000 0.212562
v 0.062378 0.050000 0.212562
v 0.005622 0.050000 0.162040
v 0.062378 0.000000 0.162040
v 0.062378 0.000000 0.212562
v 0.005622 0.000000 0.162040
v 0.005622 0.000000 0.212562
v 0.130353 0.100000 -0.110971
v 0.130353 0.100000 -0.060449
v 0.073596 0.100000 -0.110971
v 0.073596 0.100000 -0.060449
v 0.130353 0.050000 -0.110992
v 0.073596 0.050000 -0.061415
v 0.130353 0.050000 -0.061469
v 0.073596 0.050000 -0.110983
v 0.130353 0.000000 -0.110992
v 0.130353 0.000000 -0.061469
v 0.073596 0.000000 -0.110983
v 0.073596 0.000000 -0.061415
v 0.130353 0.100000 -0.017243
v 0.130353 0.100000 0.033279
v 0.073596 0.100000 -0.017243
v 0.073596 0.100000 0.033279
v 0.130353 0.050000 -0.017243
v 0.073596 0.050000 0.033279
v 0.130353 0.050000 0.033279
v 0.073596 0.050000 -0.017243
v 0.130353 0.000000 -0.017243
v 0.130353 0.000000 0.033279
v 0.073596 0.000000 -0.017243
v 0.073596 0.000000 0.033279
v 0.130353 0.100000 0.067730
v 0.130353 0.100000 0.118253
v 0.073596 0.100000 0.067730
v 0.073596 0.100000 0.118253
v 0.130353 0.050000 0.067730
v 0.073596 0.050000 0.118253
v 0.130353 0.050000 0.118253
v 0.073596 0.050000 0.067730
v 0.130353 0.000000 0.067730
v 0.130353 0.000000 0.118253
v 0.073596 0.000000 0.067730
v 0.073596 0.000000 0.118253
v -0.130328 0.100000 -0.057804
v -0.130328 0.100000 -0.057804
v -0.130328 0.050000 -0.059103
v -0.130328 0.100000 -0.108326
v -0.130328 0.100000 -0.108326
v -0.130328 0.050000 -0.108311
v -0.073571 0.100000 -0.057804
v -0.073571 0.100000 -0.057804
v -0.073571 0.050000 -0.059187
v -0.073571 0.100000 -0.108326
v -0.073571 0.100000 -0.108326
v -0.073571 0.050000 -0.108322
v -0.130328 0.000000 -0.108311
v -0.130328 0.000000 -0.108311
v -0.130328 0.000000 -0.059103
v -0.130328 0.000000 -0.059103
v -0.073571 0.000000 -0.108322
v -0.073571 0.000000 -0.108322
v -0.073571 0.000000 -0.059187
v -0.073571 0.000000 -0.059187
v -0.130328 0.100000 0.056327
v -0.130328 0.100000 0.056327
v -0.130328 0.050000 0.056327
v -0.130328 0.100000 0.005804
v -0.130328 0.100000 0.005804
v -0.130328 0.050000 0.005804
v -0.073571 0.100000 0.056327
v -0.073571 0.100000 0.056327
v -0.073571 0.050000 0.056327
v -0.073571 0.100000 0.005804
v -0.073571 0.100000 0.005804
v -0.073571 0.050000 0.005804
v -0.130328 0.000000 0.005804
v -0.130328 0.000000 0.005804
v -0.130328 0.000000 0.056327
v -0.130328 0.000000 0.056327
v -0.073571 0.000000 0.005804
v -0.073571 0.000000 0.005804
v -0.073571 0.000000 0.056327
v -0.073571 0.000000 0.056327
v -0.130328 0.100000 0.231865
v -0.130328 0.100000 0.231865
v -0.130328 0.050000 0.231865
v -0.130328 0.100000 0.181343
v -0.130328 0.100000 0.181343
v -0.130328 0.050000 0.181343
v -0.073571 0.100000 0.231865
v -0.073571 0.100000 0.231865
v -0.073571 0.050000 0.231865
v -0.073571 0.100000 0.181343
v -0.073571 0.100000 0.181343
v -0.073571 0.050000 0.181343
v -0.130328 0.000000 0.181343
v -0.130328 0.000000 0.181343
v -0.130328 0.000000 0.231865
v -0.130328 0.000000 0.231865
v -0.073571 0.000000 0.181343
v -0.073571 0.000000 0.181343
v -0.073571 0.000000 0.231865
v -0.073571 0.000000 0.231865
v -0.062353 0.100000 -0.056606
v -0.062353 0.100000 -0.056606
v -0.062353 0.050000 -0.058301
v -0.062353 0.100000 -0.107128
v -0.062353 0.100000 -0.107128
v -0.062353 0.050000 -0.107132
v -0.005596 0.100000 -0.056606
v -0.005596 0.100000 -0.056606
v -0.005596 0.050000 -0.058402
v -0.005596 0.100000 -0.107128
v -0.005596 0.100000 -0.107128
v -0.005596 0.050000 -0.107147
v -0.062353 0.000000 -0.107132
v -0.062353 0.000000 -0.107132
v -0.062353 0.000000 -0.058301
v -0.062353 0.000000 -0.058301
v -0.005596 0.000000 -0.107147
v -0.005596 0.000000 -0.107147
v -0.005596 0.000000 -0.058402
v -0.005596 0.000000 -0.058402
v -0.062353 0.100000 0.044007
v -0.062353 0.100000 0.044007
v -0.062353 0.050000 0.044007
v -0.062353 0.100000 -0.006516
v -0.062353 0.100000 -0.006516
v -0.062353 0.050000 -0.006516
v -0.005596 0.100000 0.044007
v -0.005596 0.100000 0.044007
v -0.005596 0.050000 0.044007
v -0.005596 0.100000 -0.006516
v -0.005596 0.100000 -0.006516
v -0.005596 0.050000 -0.006516
v -0.062353 0.000000 -0.006516
v -0.062353 0.000000 -0.006516
v -0.062353 0.000000 0.044007
v -0.062353 0.000000 0.044007
v -0.005596 0.000000 -0.006516
v -0.005596 0.000000 -0.006516
v -0.005596 0.000000 0.044007
v -0.005596 0.000000 0.044007
v -0.062353 0.100000 0.180992
v -0.062353 0.100000 0.180992
v -0.062353 0.050000 0.180992
v -0.062353 0.100000 0.130469
v -0.062353 0.100000 0.130469
v -0.062353 0.050000 0.130469
v -0.005596 0.100000 0.180992
v -0.005596 0.100000 0.180992
v -0.005596 0.050000 0.180992
v -0.005596 0.100000 0.130469
v -0.005596 0.100000 0.130469
v -0.005596 0.050000 0.130469
v -0.062353 0.000000 0.130469
v -0.062353 0.000000 0.130469
v -0.062353 0.000000 0.180992
v -0.062353 0.000000 0.180992
v -0.005596 0.000000 0.130469
v -0.005596 0.000000 0.130469
v -0.005596 0.000000 0.180992
v -0.005596 0.000000 0.180992
v 0.005622 0.100000 -0.063855
v 0.005622 0.100000 -0.063855
v 0.005622 0.050000 -0.064027
v 0.005622 0.100000 -0.114378
v 0.005622 0.100000 -0.114378
v 0.005622 0.050000 -0.114376
v 0.062378 0.100000 -0.063855
v 0.062378 0.100000 -0.063855
v 0.062378 0.050000 -0.064038
v 0.062378 0.100000 -0.114378
v 0.062378 0.100000 -0.114378
v 0.062378 0.050000 -0.114378
v 0.005622 0.000000 -0.114376
v 0.005622 0.000000 -0.114376
v 0.005622 0.000000 -0.064027
v 0.005622 0.000000 -0.064027
v 0.062378 0.000000 -0.114378
v 0.062378 0.000000 -0.114378
v 0.062378 0.000000 -0.064038
v 0.062378 0.000000 -0.064038
v 0.005622 0.100000 0.044232
v 0.005622 0.100000 0.044232
v 0.005622 0.050000 0.044232
v 0.005622 0.100000 -0.006291
v 0.005622 0.100000 -0.006291
v 0.005622 0.050000 -0.006291
v 0.062378 0.100000 0.044232
v 0.062378 0.100000 0.044232
v 0.062378 0.050000 0.044232
v 0.062378 0.100000 -0.006291
v 0.062378 0.100000 -0.006291
v 0.062378 0.050000 -0.006291
v 0.005622 0.000000 -0.006291
v 0.005622 0.000000 -0.006291
v 0.005622 0.000000 0.044232
v 0.005622 0.000000 0.044232
v 0.062378 0.000000 -0.006291
v 0.062378 0.000000 -0.006291
v 0.062378 0.000000 0.044232
v 0.062378 0.000000 0.044232
v 0.005622 0.100000 0.212562
v 0.005622 0.100000 0.212562
v 0.005622 0.050000 0.212562
v 0.005622 0.100000 0.162040
v 0.005622 0.100000 0.162040
v 0.005622 0.050000 0.162040
v 0.062378 0.100000 0.212562
v 0.062378 0.100000 0.212562
v 0.062378 0.050000 0.212562
v 0.062378 0.100000 0.162040
v 0.062378 0.100000 0.162040
v 0.062378 0.050000 0.162040
v 0.005622 0.000000 0.162040
v 0.005622 0.000000 0.162040
v 0.005622 0.000000 0.212562
v 0.005622 0.000000 0.212562
v 0.062378 0.000000 0.162040
v 0.062378 0.000000 0.162040
v 0.062378 0.000000 0.212562
v 0.062378 0.000000 0.212562
v 0.073596 0.100000 -0.060449
v 0.073596 0.100000 -0.060449
v 0.073596 0.050000 -0.061415
v 0.073596 0.100000 -0.110971
v 0.073596 0.100000 -0.110971
v 0.073596 0.050000 -0.110983
v 0.130353 0.100000 -0.060449
v 0.130353 0.100000 -0.060449
v 0.130353 0.050000 -0.061469
v 0.130353 0.100000 -0.110971
v 0.130353 0.100000 -0.110971
v 0.130353 0.050000 -0.110992
v 0.073596 0.000000 -0.110983
v 0.073596 0.000000 -0.110983
v 0.073596 0.000000 -0.061415
v 0.073596 0.000000 -0.061415
v 0.130353 0.000000 -0.110992
v 0.130353 0.000000 -0.110992
v 0.130353 0.000000 -0.061469
v 0.130353 0.000000 -0.061469
v 0.073596 0.100000 0.033279
v 0.073596 0.100000 0.033279
v 0.073596 0.050000 0.033279
v 0.073596 0.100000 -0.017243
v 0.073596 0.100000 -0.017243
v 0.073596 0.050000 -0.017243
v 0.130353 0.100000 0.033279
v 0.130353 0.100000 0.033279
v 0.130353 0.050000 0.033279
v 0.130353 0.100000 -0.017243
v 0.130353 0.100000 -0.017243
v 0.130353 0.050000 -0.017243
v 0.073596 0.000000 -0.017243
v 0.073596 0.000000 -0.017243
v 0.073596 0.000000 0.033279
v 0.073596 0.000000 0.033279
v 0.130353 0.000000 -0.017243
v 0.130353 0.000000 -0.017243
v 0.130353 0.000000 0.033279
v 0.130353 0.000000 0.033279
v 0.073596 0.100000 0.118253
v 0.073596 0.100000 0.118253
v 0.073596 0.050000 0.118253
v 0.073596 0.100000 0.067730
v 0.073596 0.100000 0.067730
v 0.073596 0.050000 0.067730
v 0.130353 0.100000 0.118253
v 0.130353 0.100000 0.118253
v 0.130353 0.050000 0.118253
v 0.130353 0.100000 0.067730
v 0.130353 0.100000 0.067730
v 0.130353 0.050000 0.067730
v 0.073596 0.000000 0.067730
v 0.073596 0.000000 0.067730
v 0.073596 0.000000 0.118253
v 0.073596 0.000000 0.118253
v 0.130353 0.000000 0.067730
v 0.130353 0.000000 0.067730
v 0.130353 0.000000 0.118253
v 0.130353 0.000000 0.118253
vn -0.0000 1.0000 -0.0000
vn 0.0008 -0.0269 0.9996
vn 0.0011 -0.0134 0.9999
vn 0.0015 -0.0138 0.9999
vn -1.0000 -0.0000 -0.0000
vn 1.0000 -0.0000 -0.0000
vn -0.0001 -0.0002 -1.0000
vn -0.0001 -0.0001 -1.0000
vn -0.0002 -0.0002 -1.0000
vn -0.0000 -0.0260 0.9997
vn -0.0000 -0.0001 -1.0000
vn -0.0000 -1.0000 -0.0000
vn -0.0002 -0.0000 -1.0000
vn 0.0015 -0.0000 1.0000
vn -0.0000 -0.0000 1.0000
vn -0.0000 -0.0000 -1.0000
vn 0.0010 -0.0350 0.9994
vn 0.0013 -0.0174 0.9998
vn 0.0018 -0.0180 0.9998
vn -0.0001 0.0002 -1.0000
vn -0.0002 0.0001 -1.0000
vn -0.0003 -0.0000 -1.0000
vn -0.0000 -0.0339 0.9994
vn -0.0000 0.0004 -1.0000
vn 0.0018 -0.0000 1.0000
vn 0.0001 -0.0036 1.0000
vn 0.0001 -0.0018 1.0000
vn 0.0002 -0.0018 1.0000
vn -0.0000 -0.0034 1.0000
vn 0.0002 -0.0000 1.0000
vn 0.0005 -0.0199 0.9998
vn 0.0007 -0.0099 1.0000
vn 0.0010 -0.0102 0.9999
vn -0.0001 0.0003 -1.0000
vn -0.0000 -0.0193 0.9998
vn 0.0010 -0.0000 1.0000
vt 0.310293 0.959485
vt 0.982124 0.959485
vt 0.310293 0.500000
vt 0.982124 0.500000
vt 0.982124 0.040515
vt 0.310293 0.040515
s 1
f 149/1/1 152/2/1 155/2/1
f 151/2/2 6/3/3 153/4/4
f 145/1/5 8/3/5 147/3/5
f 154/2/6 7/4/6 156/4/6
f 148/1/7 5/4/8 150/3/9
f 149/1/1 146/1/1 152/2/1
f 151/2/2 4/1/10 6/3/3
f 145/1/5 3/1/5 8/3/5
f 154/2/6 2/2/6 7/4/6
f 148/1/7 1/2/11 5/4/8
f 161/5/12 159/6/12 157/6/12
f 150/3/9 162/5/13 158/6/13
f 156/4/6 163/5/6 9/5/6
f 147/3/5 11/6/5 160/6/5
f 153/4/4 12/6/14 164/5/14
f 161/5/12 10/5/12 159/6/12
f 150/3/9 5/4/8 162/5/13
f 156/4/6 7/4/6 163/5/6
f 147/3/5 8/3/5 11/6/5
f 153/4/4 6/3/3 12/6/14
f 169/1/1 172/2/1 175/2/1
f 171/2/15 18/3/15 173/4/15
f 165/1/5 20/3/5 167/3/5
f 174/2/6 19/4/6 176/4/6
f 168/1/16 17/4/16 170/3/16
f 169/1/1 166/1/1 172/2/1
f 171/2/15 16/1/15 18/3/15
f 165/1/5 15/1/5 20/3/5
f 174/2/6 14/2/6 19/4/6
f 168/1/16 13/2/16 17/4/16
f 181/5/12 179/6/12 177/6/12
f 170/3/16 182/5/16 178/6/16
f 176/4/6 183/5/6 21/5/6
f 167/3/5 23/6/5 180/6/5
f 173/4/15 24/6/15 184/5/15
f 181/5/12 22/5/12 179/6/12
f 170/3/16 17/4/16 182/5/16
f 176/4/6 19/4/6 183/5/6
f 167/3/5 20/3/5 23/6/5
f 173/4/15 18/3/15 24/6/15
f 189/1/1 192/2/1 195/2/1
f 191/2/15 30/3/15 193/4/15
f 185/1/5 32/3/5 187/3/5
f 194/2/6 31/4/6 196/4/6
f 188/1/16 29/4/16 190/3/16
f 189/1/1 186/1/1 192/2/1
f 191/2/15 28/1/15 30/3/15
f 185/1/5 27/1/5 32/3/5
f 194/2/6 26/2/6 31/4/6
f 188/1/16 25/2/16 29/4/16
f 201/5/12 199/6/12 197/6/12
f 190/3/16 202/5/16 198/6/16
f 196/4/6 203/5/6 33/5/6
f 187/3/5 35/6/5 200/6/5
f 193/4/15 36/6/15 204/5/15
f 201/5/12 34/5/12 199/6/12
f 190/3/16 29/4/16 202/5/16
f 196/4/6 31/4/6 203/5/6
f 187/3/5 32/3/5 35/6/5
f 193/4/15 30/3/15 36/6/15
f 209/1/1 212/2/1 215/2/1
f 211/2/17 42/3/18 213/4/19
f 205/1/5 44/3/5 207/3/5
f 214/2/6 43/4/6 216/4/6
f 208/1/20 41/4/21 210/3/22
f 209/1/1 206/1/1 212/2/1
f 211/2/17 40/1/23 42/3/18
f 205/1/5 39/1/5 44/3/5
f 214/2/6 38/2/6 43/4/6
f 208/1/20 37/2/24 41/4/21
f 221/5/12 219/6/12 217/6/12
f 210/3/22 222/5/22 218/6/22
f 216/4/6 223/5/6 45/5/6
f 207/3/5 47/6/5 220/6/5
f 213/4/19 48/6/25 224/5/25
f 221/5/12 46/5/12 219/6/12
f 210/3/22 41/4/21 222/5/22
f 216/4/6 43/4/6 223/5/6
f 207/3/5 44/3/5 47/6/5
f 213/4/19 42/3/18 48/6/25
f 229/1/1 232/2/1 235/2/1
f 231/2/15 54/3/15 233/4/15
f 225/1/5 56/3/5 227/3/5
f 234/2/6 55/4/6 236/4/6
f 228/1/16 53/4/16 230/3/16
f 229/1/1 226/1/1 232/2/1
f 231/2/15 52/1/15 54/3/15
f 225/1/5 51/1/5 56/3/5
f 234/2/6 50/2/6 55/4/6
f 228/1/16 49/2/16 53/4/16
f 241/5/12 239/6/12 237/6/12
f 230/3/16 242/5/16 238/6/16
f 236/4/6 243/5/6 57/5/6
f 227/3/5 59/6/5 240/6/5
f 233/4/15 60/6/15 244/5/15
f 241/5/12 58/5/12 239/6/12
f 230/3/16 53/4/16 242/5/16
f 236/4/6 55/4/6 243/5/6
f 227/3/5 56/3/5 59/6/5
f 233/4/15 54/3/15 60/6/15
f 249/1/1 252/2/1 255/2/1
f 251/2/15 66/3/15 253/4/15
f 245/1/5 68/3/5 247/3/5
f 254/2/6 67/4/6 256/4/6
f 248/1/16 65/4/16 250/3/16
f 249/1/1 246/1/1 252/2/1
f 251/2/15 64/1/15 66/3/15
f 245/1/5 63/1/5 68/3/5
f 254/2/6 62/2/6 67/4/6
f 248/1/16 61/2/16 65/4/16
f 261/5/12 259/6/12 257/6/12
f 250/3/16 262/5/16 258/6/16
f 256/4/6 263/5/6 69/5/6
f 247/3/5 71/6/5 260/6/5
f 253/4/15 72/6/15 264/5/15
f 261/5/12 70/5/12 259/6/12
f 250/3/16 65/4/16 262/5/16
f 256/4/6 67/4/6 263/5/6
f 247/3/5 68/3/5 71/6/5
f 253/4/15 66/3/15 72/6/15
f 269/1/1 272/2/1 275/2/1
f 271/2/26 78/3/27 273/4/28
f 265/1/5 80/3/5 267/3/5
f 274/2/6 79/4/6 276/4/6
f 268/1/16 77/4/16 270/3/16
f 269/1/1 266/1/1 272/2/1
f 271/2/26 76/1/29 78/3/27
f 265/1/5 75/1/5 80/3/5
f 274/2/6 74/2/6 79/4/6
f 268/1/16 73/2/16 77/4/16
f 281/5/12 279/6/12 277/6/12
f 270/3/16 282/5/16 278/6/16
f 276/4/6 283/5/6 81/5/6
f 267/3/5 83/6/5 280/6/5
f 273/4/28 84/6/30 284/5/30
f 281/5/12 82/5/12 279/6/12
f 270/3/16 77/4/16 282/5/16
f 276/4/6 79/4/6 283/5/6
f 267/3/5 80/3/5 83/6/5
f 273/4/28 78/3/27 84/6/30
f 289/1/1 292/2/1 295/2/1
f 291/2/15 90/3/15 293/4/15
f 285/1/5 92/3/5 287/3/5
f 294/2/6 91/4/6 296/4/6
f 288/1/16 89/4/16 290/3/16
f 289/1/1 286/1/1 292/2/1
f 291/2/15 88/1/15 90/3/15
f 285/1/5 87/1/5 92/3/5
f 294/2/6 86/2/6 91/4/6
f 288/1/16 85/2/16 89/4/16
f 301/5/12 299/6/12 297/6/12
f 290/3/16 302/5/16 298/6/16
f 296/4/6 303/5/6 93/5/6
f 287/3/5 95/6/5 300/6/5
f 293/4/15 96/6/15 304/5/15
f 301/5/12 94/5/12 299/6/12
f 290/3/16 89/4/16 302/5/16
f 296/4/6 91/4/6 303/5/6
f 287/3/5 92/3/5 95/6/5
f 293/4/15 90/3/15 96/6/15
f 309/1/1 312/2/1 315/2/1
f 311/2/15 102/3/15 313/4/15
f 305/1/5 104/3/5 307/3/5
f 314/2/6 103/4/6 316/4/6
f 308/1/16 101/4/16 310/3/16
f 309/1/1 306/1/1 312/2/1
f 311/2/15 100/1/15 102/3/15
f 305/1/5 99/1/5 104/3/5
f 314/2/6 98/2/6 103/4/6
f 308/1/16 97/2/16 101/4/16
f 321/5/12 319/6/12 317/6/12
f 310/3/16 322/5/16 318/6/16
f 316/4/6 323/5/6 105/5/6
f 307/3/5 107/6/5 320/6/5
f 313/4/15 108/6/15 324/5/15
f 321/5/12 106/5/12 319/6/12
f 310/3/16 101/4/16 322/5/16
f 316/4/6 103/4/6 323/5/6
f 307/3/5 104/3/5 107/6/5
f 313/4/15 102/3/15 108/6/15
f 329/1/1 332/2/1 335/2/1
f 331/2/31 114/3/32 333/4/33
f 325/1/5 116/3/5 327/3/5
f 334/2/6 115/4/6 336/4/6
f 328/1/34 113/4/20 330/3/21
f 329/1/1 326/1/1 332/2/1
f 331/2/31 112/1/35 114/3/32
f 325/1/5 111/1/5 116/3/5
f 334/2/6 110/2/6 115/4/6
f 328/1/34 109/2/24 113/4/20
f 341/5/12 339/6/12 337/6/12
f 330/3/21 342/5/13 338/6/13
f 336/4/6 343/5/6 117/5/6
f 327/3/5 119/6/5 340/6/5
f 333/4/33 120/6/36 344/5/36
f 341/5/12 118/5/12 339/6/12
f 330/3/21 113/4/20 342/5/13
f 336/4/6 115/4/6 343/5/6
f 327/3/5 116/3/5 119/6/5
f 333/4/33 114/3/32 120/6/36
f 349/1/1 352/2/1 355/2/1
f 351/2/15 126/3/15 353/4/15
f 345/1/5 128/3/5 347/3/5
f 354/2/6 127/4/6 356/4/6
f 348/1/16 125/4/16 350/3/16
f 349/1/1 346/1/1 352/2/1
f 351/2/15 124/1/15 126/3/15
f 345/1/5 123/1/5 128/3/5
f 354/2/6 122/2/6 127/4/6
f 348/1/16 121/2/16 125/4/16
f 361/5/12 359/6/12 357/6/12
f 350/3/16 362/5/16 358/6/16
f 356/4/6 363/5/6 129/5/6
f 347/3/5 131/6/5 360/6/5
f 353/4/15 132/6/15 364/5/15
f 361/5/12 130/5/12 359/6/12
f 350/3/16 125/4/16 362/5/16
f 356/4/6 127/4/6 363/5/6
f 347/3/5 128/3/5 131/6/5
f 353/4/15 126/3/15 132/6/15
f 369/1/1 372/2/1 375/2/1
f 371/2/15 138/3/15 373/4/15
f 365/1/5 140/3/5 367/3/5
f 374/2/6 139/4/6 376/4/6
f 368/1/16 137/4/16 370/3/16
f 369/1/1 366/1/1 372/2/1
f 371/2/15 136/1/15 138/3/15
f 365/1/5 135/1/5 140/3/5
f 374/2/6 134/2/6 139/4/6
f 368/1/16 133/2/16 137/4/16
f 381/5/12 379/6/12 377/6/12
f 370/3/16 382/5/16 378/6/16
f 376/4/6 383/5/6 141/5/6
f 367/3/5 143/6/5 380/6/5
f 373/4/15 144/6/15 384/5/15
f 381/5/12 142/5/12 379/6/12
f 370/3/16 137/4/16 382/5/16
f 376/4/6 139/4/6 383/5/6
f 367/3/5 140/3/5 143/6/5
f 373/4/15 138/3/15 144/6/15
