# Blender 5.0.0
# www.blender.org
o zug
v -0.535178 0.050000 -0.072995
v -0.535178 -0.005000 -0.072995
v -0.535184 -0.005000 -0.017194
v -0.479377 -0.005000 -0.072989
v -0.479383 -0.005000 -0.017188
v -0.535184 0.105000 -0.017194
v -0.479383 0.050000 -0.017188
v -0.535184 0.050000 -0.017194
v -0.479383 0.105000 -0.017188
v -0.479377 0.105000 -0.072989
v -0.535178 0.105000 -0.072995
v -0.479377 0.050000 -0.072989
v -0.225743 -0.005000 -0.017188
v -0.281544 -0.005000 -0.017194
v -0.281538 -0.005000 -0.072995
v -0.225737 -0.005000 -0.072989
v -0.225737 0.050000 -0.072989
v -0.281544 0.105000 -0.017194
v -0.281544 0.050000 -0.017194
v -0.225743 0.050000 -0.017188
v -0.225743 0.105000 -0.017188
v -0.225737 0.105000 -0.072989
v -0.281538 0.105000 -0.072995
v -0.281538 0.050000 -0.072995
v -0.027897 -0.005000 -0.072995
v -0.027903 -0.005000 -0.017194
v 0.027903 -0.005000 -0.072989
v 0.027897 -0.005000 -0.017188
v 0.027897 0.105000 -0.017188
v -0.027897 0.105000 -0.072995
v 0.027903 0.050000 -0.072989
v -0.027903 0.050000 -0.017194
v -0.027903 0.105000 -0.017194
v 0.027903 0.105000 -0.072989
v 0.027897 0.050000 -0.017188
v -0.027897 0.050000 -0.072995
v 0.281544 -0.005000 -0.072989
v 0.281538 -0.005000 -0.017188
v 0.225743 -0.005000 -0.072995
v 0.225743 0.050000 -0.072995
v 0.225737 -0.005000 -0.017194
v 0.281544 0.105000 -0.072989
v 0.281538 0.050000 -0.017188
v 0.225737 0.050000 -0.017194
v 0.225737 0.105000 -0.017194
v 0.281538 0.105000 -0.017188
v 0.225743 0.105000 -0.072995
v 0.281544 0.050000 -0.072989
v 0.535178 -0.005000 -0.017188
v 0.535184 0.050000 -0.072989
v 0.479383 -0.005000 -0.072995
v 0.479377 -0.005000 -0.017194
v 0.535184 -0.005000 -0.072989
v 0.479383 0.050000 -0.072995
v 0.535178 0.050000 -0.017188
v 0.479377 0.050000 -0.017194
v 0.479377 0.105000 -0.017194
v 0.535178 0.105000 -0.017188
v 0.535184 0.105000 -0.072989
v 0.479383 0.105000 -0.072995
v -0.352563 -0.005000 0.084268
v -0.408358 -0.005000 0.028461
v -0.408364 -0.005000 0.084262
v -0.352557 -0.005000 0.028467
v -0.408364 0.050000 0.084262
v -0.352557 0.105000 0.028467
v -0.408358 0.105000 0.028461
v -0.408364 0.105000 0.084262
v -0.352557 0.050000 0.028467
v -0.352563 0.050000 0.084268
v -0.352563 0.105000 0.084268
v -0.408358 0.050000 0.028461
v -0.098917 -0.005000 0.028467
v -0.098923 -0.005000 0.084268
v -0.154724 -0.005000 0.084262
v -0.154717 -0.005000 0.028461
v -0.154717 0.050000 0.028461
v -0.098923 0.105000 0.084268
v -0.098917 0.050000 0.028467
v -0.154724 0.050000 0.084262
v -0.098923 0.050000 0.084268
v -0.154724 0.105000 0.084262
v -0.098917 0.105000 0.028467
v -0.154717 0.105000 0.028461
v 0.154724 -0.005000 0.028467
v 0.098923 -0.005000 0.028461
v 0.098923 0.050000 0.028461
v 0.098917 -0.005000 0.084262
v 0.154717 -0.005000 0.084268
v 0.098917 0.050000 0.084262
v 0.098917 0.105000 0.084262
v 0.154724 0.050000 0.028467
v 0.154717 0.105000 0.084268
v 0.154724 0.105000 0.028467
v 0.098923 0.105000 0.028461
v 0.154717 0.050000 0.084268
v 0.408364 -0.005000 0.028467
v 0.408358 -0.005000 0.084268
v 0.352563 -0.005000 0.028461
v 0.352557 -0.005000 0.084262
v 0.408358 0.105000 0.084268
v 0.352563 0.105000 0.028461
v 0.352557 0.105000 0.084262
v 0.352557 0.050000 0.084262
v 0.408364 0.105000 0.028467
v 0.408364 0.050000 0.028467
v 0.408358 0.050000 0.084268
v 0.352563 0.050000 0.028461
v -0.535178 -0.005000 -0.072995
v -0.535178 -0.005000 -0.072995
v -0.535184 -0.005000 -0.017194
v -0.535184 -0.005000 -0.017194
v -0.535184 0.105000 -0.017194
v -0.535184 0.105000 -0.017194
v -0.535184 0.050000 -0.017194
v -0.535178 0.050000 -0.072995
v -0.535178 0.105000 -0.072995
v -0.535178 0.105000 -0.072995
v -0.479383 0.105000 -0.017188
v -0.479383 0.105000 -0.017188
v -0.479377 0.105000 -0.072989
v -0.479377 0.105000 -0.072989
v -0.281544 -0.005000 -0.017194
v -0.281544 -0.005000 -0.017194
v -0.281544 0.050000 -0.017194
v -0.281538 -0.005000 -0.072995
v -0.281538 -0.005000 -0.072995
v -0.281544 0.105000 -0.017194
v -0.281544 0.105000 -0.017194
v -0.281538 0.105000 -0.072995
v -0.281538 0.105000 -0.072995
v -0.281538 0.050000 -0.072995
v -0.225737 0.050000 -0.072989
v -0.225737 0.105000 -0.072989
v -0.225737 0.105000 -0.072989
v -0.027897 -0.005000 -0.072995
v -0.027897 -0.005000 -0.072995
v -0.027903 -0.005000 -0.017194
v -0.027903 -0.005000 -0.017194
v 0.027903 0.050000 -0.072989
v 0.027903 0.105000 -0.072989
v 0.027903 0.105000 -0.072989
v -0.027903 0.050000 -0.017194
v -0.027903 0.105000 -0.017194
v -0.027903 0.105000 -0.017194
v -0.027897 0.105000 -0.072995
v -0.027897 0.105000 -0.072995
v -0.027897 0.050000 -0.072995
v 0.027897 0.105000 -0.017188
v 0.027897 0.105000 -0.017188
v 0.027897 0.050000 -0.017188
v 0.225743 -0.005000 -0.072995
v 0.225743 -0.005000 -0.072995
v 0.225737 -0.005000 -0.017194
v 0.225737 -0.005000 -0.017194
v 0.225737 0.105000 -0.017194
v 0.225737 0.105000 -0.017194
v 0.225743 0.105000 -0.072995
v 0.225743 0.105000 -0.072995
v 0.225743 0.050000 -0.072995
v 0.281544 0.105000 -0.072989
v 0.281544 0.105000 -0.072989
v 0.281538 0.105000 -0.017188
v 0.281538 0.105000 -0.017188
v 0.535178 -0.005000 -0.017188
v 0.535178 -0.005000 -0.017188
v 0.535184 -0.005000 -0.072989
v 0.535184 -0.005000 -0.072989
v 0.479383 -0.005000 -0.072995
v 0.479383 -0.005000 -0.072995
v 0.479377 -0.005000 -0.017194
v 0.479377 -0.005000 -0.017194
v 0.479377 0.050000 -0.017194
v 0.479377 0.105000 -0.017194
v 0.479377 0.105000 -0.017194
v 0.479383 0.050000 -0.072995
v 0.479383 0.105000 -0.072995
v 0.479383 0.105000 -0.072995
v -0.352557 -0.005000 0.028467
v -0.352557 -0.005000 0.028467
v -0.352557 0.050000 0.028467
v -0.408358 0.105000 0.028461
v -0.408358 0.105000 0.028461
v -0.408364 0.105000 0.084262
v -0.408364 0.105000 0.084262
v -0.408358 0.050000 0.028461
v -0.352563 0.050000 0.084268
v -0.352563 0.105000 0.084268
v -0.352563 0.105000 0.084268
v -0.154724 -0.005000 0.084262
v -0.154724 -0.005000 0.084262
v -0.154717 -0.005000 0.028461
v -0.154717 -0.005000 0.028461
v -0.154724 0.105000 0.084262
v -0.154724 0.105000 0.084262
v -0.154717 0.105000 0.028461
v -0.154717 0.105000 0.028461
v -0.154717 0.050000 0.028461
v -0.098917 0.050000 0.028467
v -0.098917 0.105000 0.028467
v -0.098917 0.105000 0.028467
v 0.154724 0.050000 0.028467
v 0.154724 0.105000 0.028467
v 0.154724 0.105000 0.028467
v 0.098917 0.105000 0.084262
v 0.098917 0.105000 0.084262
v 0.098923 0.105000 0.028461
v 0.098923 0.105000 0.028461
v 0.154717 0.105000 0.084268
v 0.154717 0.105000 0.084268
v 0.154717 0.050000 0.084268
v 0.352563 -0.005000 0.028461
v 0.352563 -0.005000 0.028461
v 0.352557 -0.005000 0.084262
v 0.352557 -0.005000 0.084262
v 0.352557 0.105000 0.084262
v 0.352557 0.105000 0.084262
v 0.352557 0.050000 0.084262
v 0.352563 0.105000 0.028461
v 0.352563 0.105000 0.028461
v 0.352563 0.050000 0.028461
v 0.408358 0.105000 0.084268
v 0.408358 0.105000 0.084268
v 0.408364 0.105000 0.028467
v 0.408364 0.105000 0.028467
v 0.408358 0.050000 0.084268
v -0.479377 -0.005000 -0.072989
v -0.479377 -0.005000 -0.072989
v -0.479377 0.050000 -0.072989
v -0.479383 -0.005000 -0.017188
v -0.479383 -0.005000 -0.017188
v -0.479383 0.050000 -0.017188
v -0.225737 -0.005000 -0.072989
v -0.225737 -0.005000 -0.072989
v -0.225743 -0.005000 -0.017188
v -0.225743 -0.005000 -0.017188
v -0.225743 0.050000 -0.017188
v -0.225743 0.105000 -0.017188
v -0.225743 0.105000 -0.017188
v 0.027903 -0.005000 -0.072989
v 0.027903 -0.005000 -0.072989
v 0.027897 -0.005000 -0.017188
v 0.027897 -0.005000 -0.017188
v 0.281544 -0.005000 -0.072989
v 0.281544 -0.005000 -0.072989
v 0.281544 0.050000 -0.072989
v 0.281538 -0.005000 -0.017188
v 0.281538 -0.005000 -0.017188
v 0.225737 0.050000 -0.017194
v 0.281538 0.050000 -0.017188
v 0.535184 0.050000 -0.072989
v 0.535178 0.050000 -0.017188
v 0.535184 0.105000 -0.072989
v 0.535184 0.105000 -0.072989
v 0.535178 0.105000 -0.017188
v 0.535178 0.105000 -0.017188
v -0.408358 -0.005000 0.028461
v -0.408358 -0.005000 0.028461
v -0.408364 -0.005000 0.084262
v -0.408364 -0.005000 0.084262
v -0.352563 -0.005000 0.084268
v -0.352563 -0.005000 0.084268
v -0.408364 0.050000 0.084262
v -0.352557 0.105000 0.028467
v -0.352557 0.105000 0.028467
v -0.098917 -0.005000 0.028467
v -0.098917 -0.005000 0.028467
v -0.098923 -0.005000 0.084268
v -0.098923 -0.005000 0.084268
v -0.154724 0.050000 0.084262
v -0.098923 0.050000 0.084268
v -0.098923 0.105000 0.084268
v -0.098923 0.105000 0.084268
v 0.098923 -0.005000 0.028461
v 0.098923 -0.005000 0.028461
v 0.154724 -0.005000 0.028467
v 0.154724 -0.005000 0.028467
v 0.098917 -0.005000 0.084262
v 0.098917 -0.005000 0.084262
v 0.098923 0.050000 0.028461
v 0.154717 -0.005000 0.084268
v 0.154717 -0.005000 0.084268
v 0.098917 0.050000 0.084262
v 0.408364 -0.005000 0.028467
v 0.408364 -0.005000 0.028467
v 0.408364 0.050000 0.028467
v 0.408358 -0.005000 0.084268
v 0.408358 -0.005000 0.084268
vn -0.0471 -0.8253 0.5627
vn 0.1911 -0.8253 -0.5313
vn 0.3100 -0.9337 0.1790
vn 0.0001 -0.0000 -1.0000
vn -0.3267 0.0139 -0.9450
vn 0.0966 0.0847 -0.9917
vn 1.0000 -0.0000 0.0001
vn 0.9816 -0.0000 -0.1908
vn 0.9846 0.1727 0.0286
vn -1.0000 -0.0000 -0.0001
vn -0.9850 0.0486 0.1658
vn -0.9800 0.1624 -0.1152
vn -0.0001 -0.0000 1.0000
vn 0.3098 0.0565 0.9491
vn -0.0001 0.0982 0.9952
vn -0.3580 -0.9337 -0.0000
vn 0.0470 0.8253 0.5627
vn -0.1910 0.8253 -0.5314
vn -0.3100 0.9337 0.1790
vn -0.3100 -0.0565 0.9490
vn -0.9949 -0.0973 -0.0254
vn 0.9849 -0.0486 0.1660
vn 0.3269 -0.0139 -0.9450
vn 0.0468 0.9337 -0.3549
vn 0.1892 -0.0126 0.9819
vn -0.9846 -0.1727 0.0283
vn 0.9800 -0.1624 -0.1150
vn -0.0963 -0.0847 -0.9917
vn -0.9800 0.1623 -0.1152
vn 0.9800 -0.1623 -0.1150
vt 0.963120 0.021710
vt 0.351732 0.021710
vt 0.351732 0.481195
vt 0.963120 0.481195
vt 0.290675 0.982991
vt 0.964331 0.982991
vt 0.290675 0.523506
vt 0.964331 0.523506
s 1
f 227/1/1 111/2/2 109/2/3
f 116/3/4 228/1/5 110/2/6
f 229/4/7 230/1/8 4/1/9
f 8/3/10 2/2/11 112/2/12
f 232/4/13 3/2/14 231/1/15
f 227/1/1 5/1/16 111/2/2
f 116/3/4 12/4/4 228/1/5
f 229/4/7 7/4/7 230/1/8
f 8/3/10 1/3/10 2/2/11
f 232/4/13 115/3/13 3/2/14
f 118/5/17 119/6/18 121/6/19
f 120/6/20 115/7/13 232/8/13
f 113/5/21 1/7/10 8/7/10
f 122/6/22 7/8/7 229/8/7
f 117/5/23 12/8/4 116/7/4
f 118/5/17 114/5/24 119/6/18
f 120/6/20 6/5/25 115/7/13
f 113/5/21 11/5/26 1/7/10
f 122/6/22 9/6/27 7/8/7
f 117/5/23 10/6/28 12/8/4
f 233/1/1 124/2/2 127/2/3
f 24/3/4 234/1/5 15/2/6
f 133/4/7 235/1/8 16/1/9
f 125/3/10 126/2/11 123/2/12
f 237/4/13 14/2/14 236/1/15
f 233/1/1 13/1/16 124/2/2
f 24/3/4 17/4/4 234/1/5
f 133/4/7 20/4/7 235/1/8
f 125/3/10 132/3/10 126/2/11
f 237/4/13 19/3/13 14/2/14
f 130/5/17 238/6/18 135/6/19
f 239/6/20 19/7/13 237/8/13
f 128/5/21 132/7/10 125/7/10
f 134/6/22 20/8/7 133/8/7
f 131/5/23 17/8/4 24/7/4
f 130/5/17 129/5/24 238/6/18
f 239/6/20 18/5/25 19/7/13
f 128/5/21 23/5/26 132/7/10
f 134/6/22 21/6/27 20/8/7
f 131/5/23 22/6/28 17/8/4
f 240/1/1 138/2/2 136/2/3
f 148/3/4 241/1/5 137/2/6
f 140/4/7 242/1/8 27/1/9
f 143/3/10 25/2/11 139/2/12
f 35/4/13 26/2/14 243/1/15
f 240/1/1 28/1/16 138/2/2
f 148/3/4 31/4/4 241/1/5
f 140/4/7 151/4/7 242/1/8
f 143/3/10 36/3/10 25/2/11
f 35/4/13 32/3/13 26/2/14
f 147/5/17 149/6/18 142/6/19
f 150/6/20 32/7/13 35/8/13
f 144/5/21 36/7/10 143/7/10
f 141/6/22 151/8/7 140/8/7
f 146/5/23 31/8/4 148/7/4
f 147/5/17 145/5/24 149/6/18
f 150/6/20 33/5/25 32/7/13
f 144/5/21 30/5/26 36/7/10
f 141/6/22 29/6/27 151/8/7
f 146/5/23 34/6/28 31/8/4
f 244/1/1 154/2/2 152/2/3
f 40/3/4 245/1/5 153/2/6
f 246/4/7 247/1/8 37/1/9
f 44/3/10 39/2/11 155/2/12
f 250/4/13 41/2/14 248/1/15
f 244/1/1 38/1/16 154/2/2
f 40/3/4 48/4/4 245/1/5
f 246/4/7 43/4/7 247/1/8
f 44/3/10 160/3/10 39/2/11
f 250/4/13 249/3/13 41/2/14
f 158/5/17 163/6/18 161/6/19
f 164/6/20 249/7/13 250/8/13
f 156/5/21 160/7/10 44/7/10
f 162/6/22 43/8/7 246/8/7
f 159/5/23 48/8/4 40/7/4
f 158/5/17 157/5/24 163/6/18
f 164/6/20 45/5/25 249/7/13
f 156/5/21 47/5/26 160/7/10
f 162/6/22 46/6/27 43/8/7
f 159/5/23 42/6/28 48/8/4
f 168/1/1 171/2/2 169/2/3
f 176/3/4 53/1/5 170/2/6
f 251/4/7 165/1/8 167/1/9
f 56/3/10 51/2/11 172/2/12
f 252/4/13 52/2/14 166/1/15
f 168/1/1 49/1/16 171/2/2
f 176/3/4 50/4/4 53/1/5
f 251/4/7 55/4/7 165/1/8
f 56/3/10 54/3/10 51/2/11
f 252/4/13 173/3/13 52/2/14
f 178/5/17 255/6/18 253/6/19
f 256/6/20 173/7/13 252/8/13
f 174/5/21 54/7/10 56/7/10
f 254/6/22 55/8/7 251/8/7
f 177/5/23 50/8/4 176/7/4
f 178/5/17 175/5/24 255/6/18
f 256/6/20 57/5/25 173/7/13
f 174/5/21 60/5/26 54/7/10
f 254/6/22 58/6/27 55/8/7
f 177/5/23 59/6/28 50/8/4
f 180/1/1 259/2/2 257/2/3
f 72/3/4 64/1/5 258/2/6
f 181/4/7 261/1/8 179/1/9
f 263/3/10 62/2/11 260/2/29
f 187/4/13 63/2/14 262/1/15
f 180/1/1 61/1/16 259/2/2
f 72/3/4 69/4/4 64/1/5
f 181/4/7 70/4/7 261/1/8
f 263/3/10 186/3/10 62/2/11
f 187/4/13 65/3/13 63/2/14
f 182/5/17 189/6/18 264/6/19
f 188/6/20 65/7/13 187/8/13
f 184/5/21 186/7/10 263/7/10
f 265/6/22 70/8/7 181/8/7
f 183/5/23 69/8/4 72/7/4
f 182/5/17 185/5/24 189/6/18
f 188/6/20 68/5/25 65/7/13
f 184/5/21 67/5/26 186/7/10
f 265/6/22 71/6/30 70/8/7
f 183/5/23 66/6/28 69/8/4
f 266/1/1 190/2/2 192/2/3
f 77/3/4 267/1/5 193/2/6
f 199/4/7 268/1/8 73/1/9
f 270/3/10 76/2/11 191/2/12
f 271/4/13 75/2/14 269/1/15
f 266/1/1 74/1/16 190/2/2
f 77/3/4 79/4/4 267/1/5
f 199/4/7 81/4/7 268/1/8
f 270/3/10 198/3/10 76/2/11
f 271/4/13 80/3/13 75/2/14
f 196/5/17 272/6/18 201/6/19
f 273/6/20 80/7/13 271/8/13
f 194/5/21 198/7/10 270/7/10
f 200/6/22 81/8/7 199/8/7
f 197/5/23 79/8/4 77/7/4
f 196/5/17 195/5/24 272/6/18
f 273/6/20 82/5/25 80/7/13
f 194/5/21 84/5/26 198/7/10
f 200/6/22 78/6/27 81/8/7
f 197/5/23 83/6/28 79/8/4
f 276/1/1 278/2/2 274/2/3
f 280/3/4 277/1/5 275/2/6
f 202/4/7 281/1/8 85/1/9
f 283/3/10 86/2/11 279/2/29
f 96/4/13 88/2/14 282/1/15
f 276/1/1 89/1/16 278/2/2
f 280/3/4 92/4/4 277/1/5
f 202/4/7 211/4/7 281/1/8
f 283/3/10 87/3/10 86/2/11
f 96/4/13 90/3/13 88/2/14
f 207/5/17 209/6/18 204/6/19
f 210/6/20 90/7/13 96/8/13
f 206/5/21 87/7/10 283/7/10
f 203/6/22 211/8/7 202/8/7
f 208/5/23 92/8/4 280/7/4
f 207/5/17 205/5/24 209/6/18
f 210/6/20 91/5/25 90/7/13
f 206/5/21 95/5/26 87/7/10
f 203/6/22 93/6/27 211/8/7
f 208/5/23 94/6/28 92/8/4
f 284/1/1 214/2/2 212/2/3
f 221/3/4 285/1/5 213/2/6
f 286/4/7 287/1/8 97/1/9
f 218/3/10 99/2/11 215/2/29
f 107/4/13 100/2/14 288/1/15
f 284/1/1 98/1/16 214/2/2
f 221/3/4 106/4/4 285/1/5
f 286/4/7 226/4/7 287/1/8
f 218/3/10 108/3/10 99/2/11
f 107/4/13 104/3/13 100/2/14
f 220/5/17 222/6/18 225/6/19
f 223/6/20 104/7/13 107/8/13
f 216/5/21 108/7/10 218/7/10
f 224/6/22 226/8/7 286/8/7
f 219/5/23 106/8/4 221/7/4
f 220/5/17 217/5/24 222/6/18
f 223/6/20 103/5/25 104/7/13
f 216/5/21 102/5/26 108/7/10
f 224/6/22 101/6/27 226/8/7
f 219/5/23 105/6/28 106/8/4
